<svg width="56" height="95" viewBox="0 0 56 95" fill="none" xmlns="http://www.w3.org/2000/svg">
<g opacity="0.2">
<path d="M26.5763 1.9C26.5763 2.94934 25.7264 3.8 24.678 3.8C23.6296 3.8 22.7797 2.94934 22.7797 1.9C22.7797 0.850659 23.6296 0 24.678 0C25.7264 0 26.5763 0.850659 26.5763 1.9Z" fill="white"/>
<path d="M34.1695 1.9C34.1695 2.94934 33.3196 3.8 32.2712 3.8C31.2228 3.8 30.3729 2.94934 30.3729 1.9C30.3729 0.850659 31.2228 0 32.2712 0C33.3196 0 34.1695 0.850659 34.1695 1.9Z" fill="white"/>
<path d="M41.7627 1.9C41.7627 2.94934 40.9128 3.8 39.8644 3.8C38.816 3.8 37.9661 2.94934 37.9661 1.9C37.9661 0.850659 38.816 0 39.8644 0C40.9128 0 41.7627 0.850659 41.7627 1.9Z" fill="white"/>
<path d="M49.3559 1.9C49.3559 2.94934 48.506 3.8 47.4576 3.8C46.4092 3.8 45.5593 2.94934 45.5593 1.9C45.5593 0.850659 46.4092 0 47.4576 0C48.506 0 49.3559 0.850659 49.3559 1.9Z" fill="white"/>
<path d="M19.4576 55.1C19.4576 56.1493 18.6077 57 17.5593 57C16.5109 57 15.661 56.1493 15.661 55.1C15.661 54.0507 16.5109 53.2 17.5593 53.2C18.6077 53.2 19.4576 54.0507 19.4576 55.1Z" fill="white"/>
<path d="M27.0508 55.1C27.0508 56.1493 26.2009 57 25.1525 57C24.1041 57 23.2542 56.1493 23.2542 55.1C23.2542 54.0507 24.1041 53.2 25.1525 53.2C26.2009 53.2 27.0508 54.0507 27.0508 55.1Z" fill="white"/>
<path d="M34.6441 55.1C34.6441 56.1493 33.7942 57 32.7458 57C31.6974 57 30.8475 56.1493 30.8475 55.1C30.8475 54.0507 31.6974 53.2 32.7458 53.2C33.7942 53.2 34.6441 54.0507 34.6441 55.1Z" fill="white"/>
<path d="M16.1356 62.7C16.1356 63.7493 15.2857 64.6 14.2373 64.6C13.1889 64.6 12.339 63.7493 12.339 62.7C12.339 61.6507 13.1889 60.8 14.2373 60.8C15.2857 60.8 16.1356 61.6507 16.1356 62.7Z" fill="white"/>
<path d="M22.3051 62.7C22.3051 63.7493 21.4552 64.6 20.4068 64.6C19.3584 64.6 18.5085 63.7493 18.5085 62.7C18.5085 61.6507 19.3584 60.8 20.4068 60.8C21.4552 60.8 22.3051 61.6507 22.3051 62.7Z" fill="white"/>
<path d="M28.4746 62.7C28.4746 63.7493 27.6247 64.6 26.5763 64.6C25.5279 64.6 24.678 63.7493 24.678 62.7C24.678 61.6507 25.5279 60.8 26.5763 60.8C27.6247 60.8 28.4746 61.6507 28.4746 62.7Z" fill="white"/>
<path d="M13.7627 70.3C13.7627 71.3493 12.9128 72.2 11.8644 72.2C10.816 72.2 9.9661 71.3493 9.9661 70.3C9.9661 69.2507 10.816 68.4 11.8644 68.4C12.9128 68.4 13.7627 69.2507 13.7627 70.3Z" fill="white"/>
<path d="M18.9831 70.3C18.9831 71.3493 18.1332 72.2 17.0847 72.2C16.0363 72.2 15.1864 71.3493 15.1864 70.3C15.1864 69.2507 16.0363 68.4 17.0847 68.4C18.1332 68.4 18.9831 69.2507 18.9831 70.3Z" fill="white"/>
<path d="M24.2034 70.3C24.2034 71.3493 23.3535 72.2 22.3051 72.2C21.2567 72.2 20.4068 71.3493 20.4068 70.3C20.4068 69.2507 21.2567 68.4 22.3051 68.4C23.3535 68.4 24.2034 69.2507 24.2034 70.3Z" fill="white"/>
<path d="M10.4407 77.9C10.4407 78.9493 9.59078 79.8 8.54237 79.8C7.49397 79.8 6.64407 78.9493 6.64407 77.9C6.64407 76.8507 7.49397 76 8.54237 76C9.59078 76 10.4407 76.8507 10.4407 77.9Z" fill="white"/>
<path d="M15.661 77.9C15.661 78.9493 14.8111 79.8 13.7627 79.8C12.7143 79.8 11.8644 78.9493 11.8644 77.9C11.8644 76.8507 12.7143 76 13.7627 76C14.8111 76 15.661 76.8507 15.661 77.9Z" fill="white"/>
<path d="M20.8814 77.9C20.8814 78.9493 20.0315 79.8 18.9831 79.8C17.9346 79.8 17.0847 78.9493 17.0847 77.9C17.0847 76.8507 17.9346 76 18.9831 76C20.0315 76 20.8814 76.8507 20.8814 77.9Z" fill="white"/>
<path d="M8.0678 85.5C8.0678 86.5493 7.2179 87.4 6.16949 87.4C5.12109 87.4 4.27119 86.5493 4.27119 85.5C4.27119 84.4507 5.12109 83.6 6.16949 83.6C7.2179 83.6 8.0678 84.4507 8.0678 85.5Z" fill="white"/>
<path d="M13.2881 85.5C13.2881 86.5493 12.4382 87.4 11.3898 87.4C10.3414 87.4 9.49153 86.5493 9.49153 85.5C9.49153 84.4507 10.3414 83.6 11.3898 83.6C12.4382 83.6 13.2881 84.4507 13.2881 85.5Z" fill="white"/>
<path d="M5.69492 93.1C5.69492 94.1493 4.84502 95 3.79661 95C2.74821 95 1.89831 94.1493 1.89831 93.1C1.89831 92.0507 2.74821 91.2 3.79661 91.2C4.84502 91.2 5.69492 92.0507 5.69492 93.1Z" fill="white"/>
<path d="M22.7797 9.5C22.7797 10.5493 21.9298 11.4 20.8814 11.4C19.833 11.4 18.9831 10.5493 18.9831 9.5C18.9831 8.45066 19.833 7.6 20.8814 7.6C21.9298 7.6 22.7797 8.45066 22.7797 9.5Z" fill="white"/>
<path d="M30.3729 9.5C30.3729 10.5493 29.523 11.4 28.4746 11.4C27.4262 11.4 26.5763 10.5493 26.5763 9.5C26.5763 8.45066 27.4262 7.6 28.4746 7.6C29.523 7.6 30.3729 8.45066 30.3729 9.5Z" fill="white"/>
<path d="M37.9661 9.5C37.9661 10.5493 37.1162 11.4 36.0678 11.4C35.0194 11.4 34.1695 10.5493 34.1695 9.5C34.1695 8.45066 35.0194 7.6 36.0678 7.6C37.1162 7.6 37.9661 8.45066 37.9661 9.5Z" fill="white"/>
<path d="M45.5593 9.5C45.5593 10.5493 44.7094 11.4 43.661 11.4C42.6126 11.4 41.7627 10.5493 41.7627 9.5C41.7627 8.45066 42.6126 7.6 43.661 7.6C44.7094 7.6 45.5593 8.45066 45.5593 9.5Z" fill="white"/>
<path d="M18.5085 17.1C18.5085 18.1493 17.6586 19 16.6102 19C15.5618 19 14.7119 18.1493 14.7119 17.1C14.7119 16.0507 15.5618 15.2 16.6102 15.2C17.6586 15.2 18.5085 16.0507 18.5085 17.1Z" fill="white"/>
<path d="M26.1017 17.1C26.1017 18.1493 25.2518 19 24.2034 19C23.155 19 22.3051 18.1493 22.3051 17.1C22.3051 16.0507 23.155 15.2 24.2034 15.2C25.2518 15.2 26.1017 16.0507 26.1017 17.1Z" fill="white"/>
<path d="M33.6949 17.1C33.6949 18.1493 32.845 19 31.7966 19C30.7482 19 29.8983 18.1493 29.8983 17.1C29.8983 16.0507 30.7482 15.2 31.7966 15.2C32.845 15.2 33.6949 16.0507 33.6949 17.1Z" fill="white"/>
<path d="M41.2881 17.1C41.2881 18.1493 40.4382 19 39.3898 19C38.3414 19 37.4915 18.1493 37.4915 17.1C37.4915 16.0507 38.3414 15.2 39.3898 15.2C40.4382 15.2 41.2881 16.0507 41.2881 17.1Z" fill="white"/>
<path d="M14.2373 24.7C14.2373 25.7493 13.3874 26.6 12.339 26.6C11.2906 26.6 10.4407 25.7493 10.4407 24.7C10.4407 23.6507 11.2906 22.8 12.339 22.8C13.3874 22.8 14.2373 23.6507 14.2373 24.7Z" fill="white"/>
<path d="M21.8305 24.7C21.8305 25.7493 20.9806 26.6 19.9322 26.6C18.8838 26.6 18.0339 25.7493 18.0339 24.7C18.0339 23.6507 18.8838 22.8 19.9322 22.8C20.9806 22.8 21.8305 23.6507 21.8305 24.7Z" fill="white"/>
<path d="M29.4237 24.7C29.4237 25.7493 28.5738 26.6 27.5254 26.6C26.477 26.6 25.6271 25.7493 25.6271 24.7C25.6271 23.6507 26.477 22.8 27.5254 22.8C28.5738 22.8 29.4237 23.6507 29.4237 24.7Z" fill="white"/>
<path d="M37.0169 24.7C37.0169 25.7493 36.167 26.6 35.1186 26.6C34.0702 26.6 33.2203 25.7493 33.2203 24.7C33.2203 23.6507 34.0702 22.8 35.1186 22.8C36.167 22.8 37.0169 23.6507 37.0169 24.7Z" fill="white"/>
<path d="M10.4407 32.3C10.4407 33.3493 9.59078 34.2 8.54237 34.2C7.49397 34.2 6.64407 33.3493 6.64407 32.3C6.64407 31.2507 7.49397 30.4 8.54237 30.4C9.59078 30.4 10.4407 31.2507 10.4407 32.3Z" fill="white"/>
<path d="M18.0339 32.3C18.0339 33.3493 17.184 34.2 16.1356 34.2C15.0872 34.2 14.2373 33.3493 14.2373 32.3C14.2373 31.2507 15.0872 30.4 16.1356 30.4C17.184 30.4 18.0339 31.2507 18.0339 32.3Z" fill="white"/>
<path d="M25.6271 32.3C25.6271 33.3493 24.7772 34.2 23.7288 34.2C22.6804 34.2 21.8305 33.3493 21.8305 32.3C21.8305 31.2507 22.6804 30.4 23.7288 30.4C24.7772 30.4 25.6271 31.2507 25.6271 32.3Z" fill="white"/>
<path d="M33.2203 32.3C33.2203 33.3493 32.3704 34.2 31.322 34.2C30.2736 34.2 29.4237 33.3493 29.4237 32.3C29.4237 31.2507 30.2736 30.4 31.322 30.4C32.3704 30.4 33.2203 31.2507 33.2203 32.3Z" fill="white"/>
<path d="M40.8136 32.3C40.8136 33.3493 39.9637 34.2 38.9153 34.2C37.8668 34.2 37.0169 33.3493 37.0169 32.3C37.0169 31.2507 37.8668 30.4 38.9153 30.4C39.9637 30.4 40.8136 31.2507 40.8136 32.3Z" fill="white"/>
<path d="M48.4068 32.3C48.4068 33.3493 47.5569 34.2 46.5085 34.2C45.4601 34.2 44.6102 33.3493 44.6102 32.3C44.6102 31.2507 45.4601 30.4 46.5085 30.4C47.5569 30.4 48.4068 31.2507 48.4068 32.3Z" fill="white"/>
<path d="M56 32.3C56 33.3493 55.1501 34.2 54.1017 34.2C53.0533 34.2 52.2034 33.3493 52.2034 32.3C52.2034 31.2507 53.0533 30.4 54.1017 30.4C55.1501 30.4 56 31.2507 56 32.3Z" fill="white"/>
<path d="M7.11864 39.9C7.11864 40.9493 6.26874 41.8 5.22034 41.8C4.17193 41.8 3.32203 40.9493 3.32203 39.9C3.32203 38.8507 4.17193 38 5.22034 38C6.26874 38 7.11864 38.8507 7.11864 39.9Z" fill="white"/>
<path d="M14.7119 39.9C14.7119 40.9493 13.862 41.8 12.8136 41.8C11.7652 41.8 10.9153 40.9493 10.9153 39.9C10.9153 38.8507 11.7652 38 12.8136 38C13.862 38 14.7119 38.8507 14.7119 39.9Z" fill="white"/>
<path d="M22.3051 39.9C22.3051 40.9493 21.4552 41.8 20.4068 41.8C19.3584 41.8 18.5085 40.9493 18.5085 39.9C18.5085 38.8507 19.3584 38 20.4068 38C21.4552 38 22.3051 38.8507 22.3051 39.9Z" fill="white"/>
<path d="M29.8983 39.9C29.8983 40.9493 29.0484 41.8 28 41.8C26.9516 41.8 26.1017 40.9493 26.1017 39.9C26.1017 38.8507 26.9516 38 28 38C29.0484 38 29.8983 38.8507 29.8983 39.9Z" fill="white"/>
<path d="M37.4915 39.9C37.4915 40.9493 36.6416 41.8 35.5932 41.8C34.5448 41.8 33.6949 40.9493 33.6949 39.9C33.6949 38.8507 34.5448 38 35.5932 38C36.6416 38 37.4915 38.8507 37.4915 39.9Z" fill="white"/>
<path d="M45.0847 39.9C45.0847 40.9493 44.2348 41.8 43.1864 41.8C42.138 41.8 41.2881 40.9493 41.2881 39.9C41.2881 38.8507 42.138 38 43.1864 38C44.2348 38 45.0847 38.8507 45.0847 39.9Z" fill="white"/>
<path d="M3.79661 47.5C3.79661 48.5493 2.94671 49.4 1.89831 49.4C0.8499 49.4 0 48.5493 0 47.5C0 46.4507 0.8499 45.6 1.89831 45.6C2.94671 45.6 3.79661 46.4507 3.79661 47.5Z" fill="white"/>
<path d="M11.3898 47.5C11.3898 48.5493 10.5399 49.4 9.49153 49.4C8.44312 49.4 7.59322 48.5493 7.59322 47.5C7.59322 46.4507 8.44312 45.6 9.49153 45.6C10.5399 45.6 11.3898 46.4507 11.3898 47.5Z" fill="white"/>
<path d="M18.9831 47.5C18.9831 48.5493 18.1332 49.4 17.0847 49.4C16.0363 49.4 15.1864 48.5493 15.1864 47.5C15.1864 46.4507 16.0363 45.6 17.0847 45.6C18.1332 45.6 18.9831 46.4507 18.9831 47.5Z" fill="white"/>
<path d="M26.5763 47.5C26.5763 48.5493 25.7264 49.4 24.678 49.4C23.6296 49.4 22.7797 48.5493 22.7797 47.5C22.7797 46.4507 23.6296 45.6 24.678 45.6C25.7264 45.6 26.5763 46.4507 26.5763 47.5Z" fill="white"/>
<path d="M34.1695 47.5C34.1695 48.5493 33.3196 49.4 32.2712 49.4C31.2228 49.4 30.3729 48.5493 30.3729 47.5C30.3729 46.4507 31.2228 45.6 32.2712 45.6C33.3196 45.6 34.1695 46.4507 34.1695 47.5Z" fill="white"/>
<path d="M41.7627 47.5C41.7627 48.5493 40.9128 49.4 39.8644 49.4C38.816 49.4 37.9661 48.5493 37.9661 47.5C37.9661 46.4507 38.816 45.6 39.8644 45.6C40.9128 45.6 41.7627 46.4507 41.7627 47.5Z" fill="white"/>
</g>
</svg>
