<svg width="148" height="251" viewBox="0 0 148 251" fill="none" xmlns="http://www.w3.org/2000/svg">
<g opacity="0.1">
<path d="M70.2373 5.02C70.2373 7.79247 67.9911 10.04 65.2203 10.04C62.4496 10.04 60.2034 7.79247 60.2034 5.02C60.2034 2.24753 62.4496 0 65.2203 0C67.9911 0 70.2373 2.24753 70.2373 5.02Z" fill="#1466E7"/>
<path d="M90.3051 5.02C90.3051 7.79247 88.0589 10.04 85.2881 10.04C82.5173 10.04 80.2712 7.79247 80.2712 5.02C80.2712 2.24753 82.5173 0 85.2881 0C88.0589 0 90.3051 2.24753 90.3051 5.02Z" fill="#1466E7"/>
<path d="M110.373 5.02C110.373 7.79247 108.127 10.04 105.356 10.04C102.585 10.04 100.339 7.79247 100.339 5.02C100.339 2.24753 102.585 0 105.356 0C108.127 0 110.373 2.24753 110.373 5.02Z" fill="#1466E7"/>
<path d="M130.441 5.02C130.441 7.79247 128.195 10.04 125.424 10.04C122.653 10.04 120.407 7.79247 120.407 5.02C120.407 2.24753 122.653 0 125.424 0C128.195 0 130.441 2.24753 130.441 5.02Z" fill="#1466E7"/>
<path d="M51.4237 145.58C51.4237 148.352 49.1776 150.6 46.4068 150.6C43.636 150.6 41.3898 148.352 41.3898 145.58C41.3898 142.808 43.636 140.56 46.4068 140.56C49.1776 140.56 51.4237 142.808 51.4237 145.58Z" fill="#1466E7"/>
<path d="M71.4915 145.58C71.4915 148.352 69.2454 150.6 66.4746 150.6C63.7038 150.6 61.4576 148.352 61.4576 145.58C61.4576 142.808 63.7038 140.56 66.4746 140.56C69.2454 140.56 71.4915 142.808 71.4915 145.58Z" fill="#1466E7"/>
<path d="M91.5593 145.58C91.5593 148.352 89.3132 150.6 86.5424 150.6C83.7716 150.6 81.5254 148.352 81.5254 145.58C81.5254 142.808 83.7716 140.56 86.5424 140.56C89.3132 140.56 91.5593 142.808 91.5593 145.58Z" fill="#1466E7"/>
<path d="M42.6441 165.66C42.6441 168.432 40.3979 170.68 37.6271 170.68C34.8563 170.68 32.6102 168.432 32.6102 165.66C32.6102 162.888 34.8563 160.64 37.6271 160.64C40.3979 160.64 42.6441 162.888 42.6441 165.66Z" fill="#1466E7"/>
<path d="M58.9492 165.66C58.9492 168.432 56.703 170.68 53.9322 170.68C51.1614 170.68 48.9153 168.432 48.9153 165.66C48.9153 162.888 51.1614 160.64 53.9322 160.64C56.703 160.64 58.9492 162.888 58.9492 165.66Z" fill="#1466E7"/>
<path d="M75.2542 165.66C75.2542 168.432 73.0081 170.68 70.2373 170.68C67.4665 170.68 65.2203 168.432 65.2203 165.66C65.2203 162.888 67.4665 160.64 70.2373 160.64C73.0081 160.64 75.2542 162.888 75.2542 165.66Z" fill="#1466E7"/>
<path d="M36.3729 185.74C36.3729 188.512 34.1267 190.76 31.3559 190.76C28.5851 190.76 26.339 188.512 26.339 185.74C26.339 182.968 28.5851 180.72 31.3559 180.72C34.1267 180.72 36.3729 182.968 36.3729 185.74Z" fill="#1466E7"/>
<path d="M50.1695 185.74C50.1695 188.512 47.9233 190.76 45.1525 190.76C42.3818 190.76 40.1356 188.512 40.1356 185.74C40.1356 182.968 42.3818 180.72 45.1525 180.72C47.9233 180.72 50.1695 182.968 50.1695 185.74Z" fill="#1466E7"/>
<path d="M63.9661 185.74C63.9661 188.512 61.7199 190.76 58.9492 190.76C56.1784 190.76 53.9322 188.512 53.9322 185.74C53.9322 182.968 56.1784 180.72 58.9492 180.72C61.7199 180.72 63.9661 182.968 63.9661 185.74Z" fill="#1466E7"/>
<path d="M27.5932 205.82C27.5932 208.592 25.3471 210.84 22.5763 210.84C19.8055 210.84 17.5593 208.592 17.5593 205.82C17.5593 203.048 19.8055 200.8 22.5763 200.8C25.3471 200.8 27.5932 203.048 27.5932 205.82Z" fill="#1466E7"/>
<path d="M41.3898 205.82C41.3898 208.592 39.1437 210.84 36.3729 210.84C33.6021 210.84 31.3559 208.592 31.3559 205.82C31.3559 203.048 33.6021 200.8 36.3729 200.8C39.1437 200.8 41.3898 203.048 41.3898 205.82Z" fill="#1466E7"/>
<path d="M55.1864 205.82C55.1864 208.592 52.9403 210.84 50.1695 210.84C47.3987 210.84 45.1525 208.592 45.1525 205.82C45.1525 203.048 47.3987 200.8 50.1695 200.8C52.9403 200.8 55.1864 203.048 55.1864 205.82Z" fill="#1466E7"/>
<path d="M21.322 225.9C21.322 228.672 19.0759 230.92 16.3051 230.92C13.5343 230.92 11.2881 228.672 11.2881 225.9C11.2881 223.128 13.5343 220.88 16.3051 220.88C19.0759 220.88 21.322 223.128 21.322 225.9Z" fill="#1466E7"/>
<path d="M35.1186 225.9C35.1186 228.672 32.8725 230.92 30.1017 230.92C27.3309 230.92 25.0847 228.672 25.0847 225.9C25.0847 223.128 27.3309 220.88 30.1017 220.88C32.8725 220.88 35.1186 223.128 35.1186 225.9Z" fill="#1466E7"/>
<path d="M15.0508 245.98C15.0508 248.752 12.8047 251 10.0339 251C7.26311 251 5.01695 248.752 5.01695 245.98C5.01695 243.208 7.26311 240.96 10.0339 240.96C12.8047 240.96 15.0508 243.208 15.0508 245.98Z" fill="#1466E7"/>
<path d="M60.2034 25.1C60.2034 27.8725 57.9572 30.12 55.1864 30.12C52.4157 30.12 50.1695 27.8725 50.1695 25.1C50.1695 22.3275 52.4157 20.08 55.1864 20.08C57.9572 20.08 60.2034 22.3275 60.2034 25.1Z" fill="#1466E7"/>
<path d="M80.2712 25.1C80.2712 27.8725 78.025 30.12 75.2542 30.12C72.4835 30.12 70.2373 27.8725 70.2373 25.1C70.2373 22.3275 72.4835 20.08 75.2542 20.08C78.025 20.08 80.2712 22.3275 80.2712 25.1Z" fill="#1466E7"/>
<path d="M100.339 25.1C100.339 27.8725 98.0928 30.12 95.322 30.12C92.5512 30.12 90.3051 27.8725 90.3051 25.1C90.3051 22.3275 92.5512 20.08 95.322 20.08C98.0928 20.08 100.339 22.3275 100.339 25.1Z" fill="#1466E7"/>
<path d="M120.407 25.1C120.407 27.8725 118.161 30.12 115.39 30.12C112.619 30.12 110.373 27.8725 110.373 25.1C110.373 22.3275 112.619 20.08 115.39 20.08C118.161 20.08 120.407 22.3275 120.407 25.1Z" fill="#1466E7"/>
<path d="M48.9153 45.18C48.9153 47.9525 46.6691 50.2 43.8983 50.2C41.1275 50.2 38.8814 47.9525 38.8814 45.18C38.8814 42.4075 41.1275 40.16 43.8983 40.16C46.6691 40.16 48.9153 42.4075 48.9153 45.18Z" fill="#1466E7"/>
<path d="M68.983 45.18C68.983 47.9525 66.7369 50.2 63.9661 50.2C61.1953 50.2 58.9492 47.9525 58.9492 45.18C58.9492 42.4075 61.1953 40.16 63.9661 40.16C66.7369 40.16 68.983 42.4075 68.983 45.18Z" fill="#1466E7"/>
<path d="M89.0508 45.18C89.0508 47.9525 86.8047 50.2 84.0339 50.2C81.2631 50.2 79.017 47.9525 79.017 45.18C79.017 42.4075 81.2631 40.16 84.0339 40.16C86.8047 40.16 89.0508 42.4075 89.0508 45.18Z" fill="#1466E7"/>
<path d="M109.119 45.18C109.119 47.9525 106.872 50.2 104.102 50.2C101.331 50.2 99.0847 47.9525 99.0847 45.18C99.0847 42.4075 101.331 40.16 104.102 40.16C106.872 40.16 109.119 42.4075 109.119 45.18Z" fill="#1466E7"/>
<path d="M37.6271 65.26C37.6271 68.0325 35.381 70.28 32.6102 70.28C29.8394 70.28 27.5932 68.0325 27.5932 65.26C27.5932 62.4875 29.8394 60.24 32.6102 60.24C35.381 60.24 37.6271 62.4875 37.6271 65.26Z" fill="#1466E7"/>
<path d="M57.6949 65.26C57.6949 68.0325 55.4487 70.28 52.678 70.28C49.9072 70.28 47.661 68.0325 47.661 65.26C47.661 62.4875 49.9072 60.24 52.678 60.24C55.4487 60.24 57.6949 62.4875 57.6949 65.26Z" fill="#1466E7"/>
<path d="M77.7627 65.26C77.7627 68.0325 75.5165 70.28 72.7458 70.28C69.975 70.28 67.7288 68.0325 67.7288 65.26C67.7288 62.4875 69.975 60.24 72.7458 60.24C75.5165 60.24 77.7627 62.4875 77.7627 65.26Z" fill="#1466E7"/>
<path d="M97.8305 65.26C97.8305 68.0325 95.5843 70.28 92.8136 70.28C90.0428 70.28 87.7966 68.0325 87.7966 65.26C87.7966 62.4875 90.0428 60.24 92.8136 60.24C95.5843 60.24 97.8305 62.4875 97.8305 65.26Z" fill="#1466E7"/>
<path d="M27.5932 85.34C27.5932 88.1125 25.3471 90.36 22.5763 90.36C19.8055 90.36 17.5593 88.1125 17.5593 85.34C17.5593 82.5675 19.8055 80.32 22.5763 80.32C25.3471 80.32 27.5932 82.5675 27.5932 85.34Z" fill="#1466E7"/>
<path d="M47.661 85.34C47.661 88.1125 45.4149 90.36 42.6441 90.36C39.8733 90.36 37.6271 88.1125 37.6271 85.34C37.6271 82.5675 39.8733 80.32 42.6441 80.32C45.4149 80.32 47.661 82.5675 47.661 85.34Z" fill="#1466E7"/>
<path d="M67.7288 85.34C67.7288 88.1125 65.4827 90.36 62.7119 90.36C59.9411 90.36 57.6949 88.1125 57.6949 85.34C57.6949 82.5675 59.9411 80.32 62.7119 80.32C65.4827 80.32 67.7288 82.5675 67.7288 85.34Z" fill="#1466E7"/>
<path d="M87.7966 85.34C87.7966 88.1125 85.5504 90.36 82.7797 90.36C80.0089 90.36 77.7627 88.1125 77.7627 85.34C77.7627 82.5675 80.0089 80.32 82.7797 80.32C85.5504 80.32 87.7966 82.5675 87.7966 85.34Z" fill="#1466E7"/>
<path d="M107.864 85.34C107.864 88.1125 105.618 90.36 102.847 90.36C100.077 90.36 97.8305 88.1125 97.8305 85.34C97.8305 82.5675 100.077 80.32 102.847 80.32C105.618 80.32 107.864 82.5675 107.864 85.34Z" fill="#1466E7"/>
<path d="M127.932 85.34C127.932 88.1125 125.686 90.36 122.915 90.36C120.144 90.36 117.898 88.1125 117.898 85.34C117.898 82.5675 120.144 80.32 122.915 80.32C125.686 80.32 127.932 82.5675 127.932 85.34Z" fill="#1466E7"/>
<path d="M148 85.34C148 88.1125 145.754 90.36 142.983 90.36C140.212 90.36 137.966 88.1125 137.966 85.34C137.966 82.5675 140.212 80.32 142.983 80.32C145.754 80.32 148 82.5675 148 85.34Z" fill="#1466E7"/>
<path d="M18.8136 105.42C18.8136 108.192 16.5674 110.44 13.7966 110.44C11.0258 110.44 8.77966 108.192 8.77966 105.42C8.77966 102.648 11.0258 100.4 13.7966 100.4C16.5674 100.4 18.8136 102.648 18.8136 105.42Z" fill="#1466E7"/>
<path d="M38.8814 105.42C38.8814 108.192 36.6352 110.44 33.8644 110.44C31.0936 110.44 28.8475 108.192 28.8475 105.42C28.8475 102.648 31.0936 100.4 33.8644 100.4C36.6352 100.4 38.8814 102.648 38.8814 105.42Z" fill="#1466E7"/>
<path d="M58.9492 105.42C58.9492 108.192 56.703 110.44 53.9322 110.44C51.1614 110.44 48.9153 108.192 48.9153 105.42C48.9153 102.648 51.1614 100.4 53.9322 100.4C56.703 100.4 58.9492 102.648 58.9492 105.42Z" fill="#1466E7"/>
<path d="M79.017 105.42C79.017 108.192 76.7708 110.44 74 110.44C71.2292 110.44 68.983 108.192 68.983 105.42C68.983 102.648 71.2292 100.4 74 100.4C76.7708 100.4 79.017 102.648 79.017 105.42Z" fill="#1466E7"/>
<path d="M99.0847 105.42C99.0847 108.192 96.8386 110.44 94.0678 110.44C91.297 110.44 89.0508 108.192 89.0508 105.42C89.0508 102.648 91.297 100.4 94.0678 100.4C96.8386 100.4 99.0847 102.648 99.0847 105.42Z" fill="#1466E7"/>
<path d="M119.153 105.42C119.153 108.192 116.906 110.44 114.136 110.44C111.365 110.44 109.119 108.192 109.119 105.42C109.119 102.648 111.365 100.4 114.136 100.4C116.906 100.4 119.153 102.648 119.153 105.42Z" fill="#1466E7"/>
<path d="M10.0339 125.5C10.0339 128.272 7.78773 130.52 5.01695 130.52C2.24616 130.52 0 128.272 0 125.5C0 122.728 2.24616 120.48 5.01695 120.48C7.78773 120.48 10.0339 122.728 10.0339 125.5Z" fill="#1466E7"/>
<path d="M30.1017 125.5C30.1017 128.272 27.8555 130.52 25.0847 130.52C22.314 130.52 20.0678 128.272 20.0678 125.5C20.0678 122.728 22.314 120.48 25.0847 120.48C27.8555 120.48 30.1017 122.728 30.1017 125.5Z" fill="#1466E7"/>
<path d="M50.1695 125.5C50.1695 128.272 47.9233 130.52 45.1525 130.52C42.3818 130.52 40.1356 128.272 40.1356 125.5C40.1356 122.728 42.3818 120.48 45.1525 120.48C47.9233 120.48 50.1695 122.728 50.1695 125.5Z" fill="#1466E7"/>
<path d="M70.2373 125.5C70.2373 128.272 67.9911 130.52 65.2203 130.52C62.4496 130.52 60.2034 128.272 60.2034 125.5C60.2034 122.728 62.4496 120.48 65.2203 120.48C67.9911 120.48 70.2373 122.728 70.2373 125.5Z" fill="#1466E7"/>
<path d="M90.3051 125.5C90.3051 128.272 88.0589 130.52 85.2881 130.52C82.5173 130.52 80.2712 128.272 80.2712 125.5C80.2712 122.728 82.5173 120.48 85.2881 120.48C88.0589 120.48 90.3051 122.728 90.3051 125.5Z" fill="#1466E7"/>
<path d="M110.373 125.5C110.373 128.272 108.127 130.52 105.356 130.52C102.585 130.52 100.339 128.272 100.339 125.5C100.339 122.728 102.585 120.48 105.356 120.48C108.127 120.48 110.373 122.728 110.373 125.5Z" fill="#1466E7"/>
</g>
</svg>
