<svg width="470" height="494" viewBox="0 0 470 494" fill="none" xmlns="http://www.w3.org/2000/svg">
<path d="M281.958 464.8C277.493 457.943 273.486 450.798 269.963 443.413C268.551 440.492 267.218 437.26 267.931 434.099C268.643 430.938 272.418 428.348 275.184 430.028C274.26 428.017 273.314 425.794 273.858 423.677C274.401 421.561 277.237 419.945 278.903 421.398C278.105 420.043 277.357 418.47 277.774 416.953C278.19 415.436 280.384 414.476 281.393 415.683C281.055 413.785 279.848 412.155 278.86 410.525C277.872 408.895 277.04 406.912 277.562 405.049C278.084 403.187 280.561 401.895 282.036 403.13C280.279 400.809 278.43 398.191 278.663 395.298C278.896 392.405 282.544 389.851 284.78 391.721C284.78 389.032 283.574 386.513 282.586 384.008C281.598 381.504 280.801 378.731 281.598 376.169C282.395 373.608 285.429 371.597 287.836 372.789L286.798 362.332C286.671 361.084 286.573 359.708 287.292 358.67C288.012 357.633 289.317 357.259 290.369 356.554C293.974 354.19 293.981 349.053 294.137 344.749C294.376 337.693 297.411 329.289 304.375 328.04C310.189 327.003 315.707 331.921 317.563 337.524C319.418 343.126 318.579 349.222 317.936 355.093C317.294 360.964 316.92 367.201 319.559 372.486C320.836 375.047 322.756 377.228 324.153 379.718C327.222 385.187 327.575 391.918 325.952 397.972C324.329 404.026 320.844 409.459 316.681 414.152C312.517 418.844 307.345 423.981 308.566 430.049C310.076 426.182 316.518 426.634 318.515 430.282C320.512 433.93 318.797 438.678 315.777 441.529C314.931 442.333 313.907 443.166 313.823 444.351C313.745 445.36 314.416 446.313 314.38 447.329C314.331 448.698 313.061 449.658 311.889 450.384C307.453 453.13 302.719 455.363 297.777 457.038C299.087 455.192 301.497 454.492 303.592 455.349C305.687 456.206 306.915 458.395 306.555 460.63C306.181 462.93 304.283 464.609 302.787 466.394C300.452 469.19 298.941 472.582 298.427 476.188" fill="#1771E4"/>
<path d="M293.967 467.834C295.378 463.692 293.12 459.303 291.511 455.218C290.538 452.741 289.832 449.848 291.088 447.505C292.344 445.163 296.394 444.5 297.495 446.92C297.177 445.614 297.057 444.034 298.031 443.102C299.005 442.171 301.171 443.102 300.656 444.323C300.29 442.927 300.811 441.448 301.972 440.59C303.132 439.732 304.699 439.668 305.926 440.428C307.153 441.188 307.794 442.619 307.543 444.041C307.056 441.593 310.146 440.231 312.306 438.975C318.882 435.143 319.686 426.013 324.188 419.874C325.695 417.823 327.618 416.113 329.833 414.857C332.655 413.27 336.592 412.621 338.914 414.9C339.886 415.967 340.534 417.288 340.784 418.71C342.152 424.686 340.275 431.044 337.009 436.244C333.742 441.444 329.191 445.678 324.696 449.848C325.098 448.197 327.314 447.371 328.788 448.218C330.261 449.193 330.747 451.13 329.91 452.685C328.991 454.17 327.253 454.938 325.535 454.618C326.813 453.545 328.972 454.95 328.993 456.608C329.014 458.266 327.582 459.635 326.001 460.192C324.421 460.75 322.727 460.7 321.062 460.898C315.941 461.508 311.319 464.259 308.34 468.469" fill="#3A3144"/>
<path d="M266.328 471.291C262.843 462.118 252.682 457.744 244.878 451.76C243.418 450.645 241.9 449.199 241.9 447.364C241.9 445.53 244.568 444.034 245.626 445.537C244.547 444.528 243.65 443.053 244.053 441.635C244.455 440.217 246.755 439.574 247.411 440.929L242.183 434.6C241.477 433.782 240.772 432.843 240.87 431.778C240.969 430.712 242.416 429.858 243.121 430.656C243.086 429.142 243.846 427.72 245.125 426.909C243.188 425.577 242.211 423.235 242.626 420.921C243.041 418.608 244.772 416.752 247.051 416.177C245.937 414.575 244.793 412.903 244.455 410.977C244.116 409.05 244.808 406.799 246.572 405.931C243.731 401.66 241.572 396.973 240.172 392.038C239.403 389.315 238.873 386.393 239.748 383.677C240.623 380.96 243.276 378.695 246.099 379.154C248.06 379.471 249.592 380.996 250.869 382.52C256.331 389.051 259.875 396.97 261.107 405.395C262.892 404.076 265.63 405.36 266.604 407.357C267.577 409.354 267.309 411.703 267.013 413.905C269.236 416.596 269.544 420.389 267.782 423.402C267.937 421.067 271.38 420.072 273.166 421.582C274.951 423.092 275.007 425.985 273.871 428.024C274.365 426.556 276.567 426.359 277.773 427.318C278.98 428.278 279.389 429.936 279.615 431.474C280.744 439.151 278.98 447.082 280.455 454.695C281.555 460.383 284.399 465.562 287.2 470.635L286.374 469.372" fill="#2E60B8"/>
<path d="M94.4515 373.446C94.4515 373.446 89.851 379.196 87.3955 398.579" stroke="#CC8537" stroke-width="25"/>
<path d="M188.085 468.081L197.434 493.913H225.785C225.785 493.913 225.623 487.478 220.507 485.932C213.374 483.816 212.682 483.025 207.806 461.646" fill="#FFA97F"/>
<path d="M149.157 465.555L152.149 493.913H180.5C180.5 493.913 180.338 487.478 175.222 485.932C168.088 483.816 172.435 483.025 167.552 461.646" fill="#FFA97F"/>
<path d="M159.501 468.081C159.501 468.081 154.985 411.746 147.351 412.564C142.066 413.136 130.981 421.793 124.666 427.064C119.963 431.049 114.001 433.241 107.837 433.252C104.828 433.312 101.855 432.582 99.2148 431.136" stroke="#3A3144" stroke-width="40"/>
<path d="M138.093 408.57L129.329 397.387C129.329 397.387 142.136 386.661 147.216 393.746C152.296 400.83 138.093 408.57 138.093 408.57Z" fill="#71D2C1"/>
<path d="M138.128 387.099L131.813 396.78C130.846 398.255 133.224 399.602 134.169 398.191L140.449 388.475C141.416 387 139.038 385.653 138.1 387.064L138.128 387.099Z" fill="#71D2C1"/>
<path d="M150.892 399.694C148.023 400.738 145.184 401.87 142.376 403.088C141.169 403.61 142.213 405.374 143.406 404.852C146.054 403.709 148.731 402.646 151.436 401.663C152.663 401.218 152.141 399.242 150.892 399.694Z" fill="#71D2C1"/>
<path d="M152.219 394.698C150.116 396.056 147.83 397.109 145.431 397.824C144.168 398.205 144.725 400.181 145.974 399.8C148.544 399.046 150.995 397.934 153.256 396.498C154.357 395.792 153.334 394.021 152.219 394.734V394.698Z" fill="#71D2C1"/>
<path d="M145.938 395.686C148.297 394.613 150.579 393.38 152.769 391.996C153.877 391.29 152.853 389.519 151.732 390.225C149.546 391.613 147.266 392.846 144.908 393.915C143.709 394.465 144.753 396.229 145.938 395.686Z" fill="#71D2C1"/>
<path d="M148.775 386.408C145.819 389.286 141.882 390.959 138.107 392.49C136.907 392.984 137.401 394.959 138.65 394.466C142.764 392.793 147.004 390.994 150.222 387.854C151.167 386.93 149.721 385.483 148.775 386.443V386.408Z" fill="#71D2C1"/>
<path d="M87.4023 398.614C87.4023 398.614 106.298 416.014 135.517 398.614" stroke="#CC8537" stroke-width="25"/>
<path d="M220.67 359.073H176.182L166.19 395.39H210.679L220.67 359.073Z" fill="#1771E4"/>
<path d="M123.028 395.39L121.906 399.475H165.068L166.19 395.39H123.028Z" fill="#2E60B8"/>
<path d="M166.19 395.39L165.068 399.475H209.549L210.678 395.39H166.19Z" fill="#3A3144"/>
<path d="M152.022 305.101L140.118 325.168C139.416 326.349 138.144 327.073 136.77 327.073C135.396 327.073 134.124 326.349 133.422 325.168L121.519 305.101L136.774 289.846L152.022 305.101Z" fill="#B2EEE6"/>
<path d="M116.459 352.186C116.459 352.186 117.722 351.382 118.089 352.186C118.456 352.99 117.108 354.409 117.108 354.409" fill="#71D2C1"/>
<ellipse cx="104.866" cy="412.564" rx="19.4463" ry="19.4463" fill="#385A7D"/>
<path d="M199.121 469.076C199.121 469.076 183.873 423.36 174.679 415.083C165.485 406.806 116.855 431.615 116.855 431.615C116.855 431.615 109.002 434.621 99.2148 429.386" stroke="#385A7D" stroke-width="40"/>
<path d="M108.028 354.818L106.32 366.326" stroke="#71D2C1" stroke-width="15.47"/>
<path d="M129.865 382.837C130.524 379.443 130.135 375.929 128.75 372.761C126.747 368.33 123.43 365.628 117.51 365.458L95.7637 364.837C87.3882 364.59 89.1169 367.617 88.4889 375.668C88.3619 377.206 86.3721 372.253 86.5344 373.784L90.768 395.82C91.1279 399.645 83.712 398.692 83.1476 402.488L82.7595 405.219C82.6068 406.279 82.5525 407.352 82.5972 408.422C82.6748 410.123 83.077 409.939 85.9065 410.003C92.9201 414.674 96.4411 416.833 104.866 417.122C122.633 417.75 129.139 409.361 129.357 408.585C129.405 408.352 129.405 408.112 129.357 407.879C128.306 400.545 128.306 393.099 129.357 385.765C129.534 384.714 129.696 383.74 129.865 382.837Z" fill="#E8A54F"/>
<path d="M108.046 338.99L108.525 338.961C112.999 338.703 116.842 342.107 117.126 346.58L117.628 354.693C117.816 357.73 115.506 360.345 112.468 360.533C106.245 360.918 100.888 356.185 100.503 349.962L100.358 347.617C100.228 345.452 100.966 343.325 102.409 341.706C103.852 340.086 105.88 339.109 108.046 338.99Z" fill="#71D2C1"/>
<path d="M165.372 354.705L151.323 352.588C151.323 352.588 153.299 335.999 161.851 337.679C170.403 339.358 165.372 354.705 165.372 354.705Z" fill="#71D2C1"/>
<path d="M150.688 339.104L152.727 350.478C153.037 352.207 155.669 351.473 155.359 349.773L153.319 338.391C153.009 336.67 150.377 337.397 150.688 339.097V339.104Z" fill="#71D2C1"/>
<path d="M168.596 339.478C167.256 342.131 166 344.822 164.829 347.55C164.313 348.743 166.077 349.787 166.593 348.58C167.773 345.852 169.029 343.161 170.36 340.508C170.953 339.337 169.189 338.3 168.596 339.478Z" fill="#71D2C1"/>
<path d="M166.141 334.934C165.529 337.367 164.579 339.701 163.318 341.87C163.073 342.353 163.246 342.944 163.714 343.217C164.182 343.491 164.782 343.352 165.082 342.9C166.429 340.579 167.443 338.08 168.095 335.477C168.413 334.2 166.444 333.657 166.12 334.934H166.141Z" fill="#71D2C1"/>
<path d="M162.259 339.923C163.239 337.526 164.053 335.065 164.694 332.556C164.804 332.027 164.485 331.504 163.964 331.36C163.444 331.216 162.901 331.502 162.725 332.013C162.078 334.521 161.263 336.982 160.284 339.379C159.783 340.6 161.765 341.129 162.259 339.923Z" fill="#71D2C1"/>
<path d="M157.955 331.272C157.772 335.393 156.043 339.302 154.35 342.999C153.806 344.191 155.57 345.229 156.121 344.036C157.969 339.986 159.804 335.781 160.002 331.272C160.058 329.959 158.012 329.959 157.955 331.272Z" fill="#71D2C1"/>
<path d="M149.623 493.913C157.655 493.953 164.224 487.522 164.355 479.49V479.335C164.355 466.966 154.294 455.902 138.439 448.479C130.854 444.896 125.334 438.029 123.466 429.851C116.749 400.802 92.2502 379.274 63.0595 379.274C28.6827 379.274 0.818518 409.114 0.818518 445.932C0.798624 455.302 2.6506 464.581 6.26575 473.225C11.5192 485.757 23.7801 493.912 37.3686 493.913H149.623Z" fill="#1771E4"/>
<rect x="101.317" y="206.028" width="170.113" height="107.301" rx="12.71" fill="#B2EEE6"/>
<path d="M192.085 300.677L190.201 313.336H234.365C234.365 313.336 232.911 298.151 228.543 294.475" fill="#1771E4"/>
<path d="M120.312 375.21C120.312 375.21 148.013 386.344 151.887 380.495C155.761 374.645 159.501 349.857 159.501 349.857" stroke="#E8A54F" stroke-width="25"/>
<path d="M114.377 349.801C114.339 349.836 114.281 349.836 114.243 349.801C113.989 349.561 113.03 348.757 112.303 349.864C112.027 350.278 111.928 350.785 112.029 351.272C112.13 351.758 112.422 352.184 112.839 352.454C113.227 352.683 113.488 353.079 113.545 353.527C113.735 355.601 113.82 360.971 110.017 363.405C105.268 366.467 107.434 372.063 108.916 376.049C110.051 379.386 109.366 383.073 107.11 385.78C106.221 386.928 104.687 387.363 103.328 386.852L84.7774 379.838C83.5005 379.36 82.7325 378.054 82.9358 376.706C83.5355 372.733 85.3842 364.619 90.782 359.729C97.8381 353.378 93.2587 340.847 105.346 339.266C106.306 339.155 107.251 338.944 108.168 338.638C110.841 337.817 113.749 338.524 115.746 340.48C116.767 341.452 117.526 342.665 117.955 344.008C118.053 344.326 118.865 347.317 118.54 347.48L116.812 348.362C116.653 348.444 116.468 348.458 116.299 348.401C116.13 348.343 115.991 348.22 115.916 348.058L115.21 346.506L115.669 348.877L114.377 349.801Z" fill="#3A3144"/>
<path d="M208.914 248.745L210.622 260.253" stroke="#71D2C1" stroke-width="15.47"/>
<path d="M211.99 250.551C210.581 253.618 207.869 255.89 204.603 256.739L203.53 250.389C203.53 250.389 213.557 246.91 211.99 250.551Z" fill="#3A3144"/>
<path d="M234.182 299.125L233.794 296.394C233.263 292.595 233.174 288.748 233.525 284.928L234.231 277.569C234.389 276.035 234.412 274.491 234.302 272.954C233.674 264.903 229.581 258.503 221.206 258.743L199.459 259.371C193.532 259.541 190.216 262.243 188.212 266.681C187.34 268.681 186.928 270.851 187.005 273.032C187.295 284.18 187.457 292.379 187.535 298.32C187.569 301.212 189.913 303.544 192.805 303.563L231.049 303.888C233.871 303.831 234.28 304.008 234.358 302.314C234.397 301.248 234.338 300.18 234.182 299.125Z" fill="#F97171"/>
<path d="M200.425 237.519L199.649 241.985C198.534 242.035 199.212 237.328 199.212 237.328" fill="#3A3144"/>
<path d="M205.276 254.048C201.56 253.689 198.839 250.385 199.198 246.669L199.86 239.822C200.07 237.668 201.128 235.686 202.801 234.313C204.473 232.941 206.623 232.289 208.776 232.503L209.254 232.549C213.734 232.982 217.015 236.965 216.582 241.445L216.234 245.048C215.978 247.696 214.679 250.133 212.623 251.822C210.567 253.51 207.924 254.311 205.276 254.048Z" fill="#71D2C1"/>
<path d="M197.511 243.629C197.702 245.379 199.741 247.581 201.745 246.953L202.542 242.677C202.479 242.352 199.141 241.724 198.88 241.774C198.447 241.827 198.055 242.056 197.796 242.407C197.537 242.758 197.434 243.2 197.511 243.629Z" fill="#71D2C1"/>
<path d="M210.819 235.621C210.819 235.402 206.063 239.629 199.741 238.859C194.435 238.21 205.386 228.981 212.153 233.363C212.153 233.363 216.697 234.887 216.922 239.431C217.148 243.975 215.476 245.499 215.476 245.499L214.77 243.425V241.371C212.39 240.457 210.819 238.171 210.819 235.621Z" fill="#3A3144"/>
<path d="M206.162 246.974C205.956 246.663 205.613 246.47 205.24 246.454C204.867 246.439 204.509 246.603 204.278 246.896C204.01 247.235 204.49 247.722 204.758 247.376C204.841 247.235 204.988 247.144 205.151 247.131C205.314 247.119 205.473 247.186 205.576 247.313C205.845 247.658 206.437 247.313 206.162 246.974Z" fill="#3A3144"/>
<path d="M207.524 248.251C206.978 248.759 206.287 249.085 205.548 249.182C205.118 249.246 205.301 249.888 205.732 249.839C206.586 249.711 207.382 249.324 208.011 248.731C208.328 248.434 207.848 247.948 207.524 248.251Z" fill="#3A3144"/>
<ellipse cx="209.302" cy="245.654" rx="0.606827" ry="0.606842" fill="#3A3144"/>
<path d="M209.901 242.373C209.523 242.297 209.137 242.259 208.751 242.26C208.556 242.26 208.398 242.418 208.398 242.613C208.398 242.808 208.556 242.966 208.751 242.966C209.078 242.958 209.405 242.989 209.725 243.058C210.148 243.142 210.332 242.486 209.901 242.395V242.373Z" fill="#3A3144"/>
<ellipse cx="202.373" cy="245.316" rx="0.606812" ry="0.606857" fill="#3A3144"/>
<path d="M202.98 242.035C202.599 241.955 202.211 241.917 201.823 241.922C201.628 241.922 201.47 242.08 201.47 242.275C201.47 242.469 201.628 242.627 201.823 242.627C202.149 242.626 202.475 242.657 202.796 242.719C203.227 242.811 203.41 242.155 202.98 242.063V242.035Z" fill="#3A3144"/>
<path d="M218.524 243.898C218.327 245.64 216.287 247.842 214.29 247.214L213.493 242.903C213.55 242.585 216.887 241.957 217.148 242.007C217.589 242.059 217.988 242.293 218.249 242.652C218.51 243.011 218.61 243.462 218.524 243.898Z" fill="#71D2C1"/>
<path d="M349.787 247.616L337.877 267.655C337.175 268.836 335.903 269.56 334.529 269.56C333.155 269.56 331.883 268.836 331.181 267.655L319.277 247.616L334.532 232.361L349.787 247.616Z" fill="#FFD8C5"/>
<rect x="299.075" y="148.515" width="170.113" height="107.301" rx="12.71" fill="#FFD8C5"/>
<path d="M409.029 259.795L397.161 251.977C397.161 251.977 387.53 265.623 395.002 270.103C402.474 274.584 409.029 259.795 409.029 259.795Z" fill="#71D2C1"/>
<path d="M389.379 263.668L398.509 256.612C399.92 255.533 397.952 253.621 396.583 254.679L387.41 261.735C385.999 262.808 387.967 264.727 389.343 263.661L389.379 263.668Z" fill="#71D2C1"/>
<path d="M403.223 273.723C403.999 270.858 404.867 268.02 405.826 265.207C406.25 263.958 404.274 263.421 403.851 264.663C402.91 267.486 402.042 270.325 401.247 273.18C401.097 273.725 401.418 274.289 401.963 274.439C402.509 274.589 403.073 274.269 403.223 273.723Z" fill="#71D2C1"/>
<path d="M398.163 275.974C399.427 273.608 400.353 271.076 400.915 268.452C401.19 267.168 399.215 266.618 398.939 267.909C398.431 270.369 397.576 272.745 396.399 274.965C395.785 276.129 397.549 277.167 398.163 276.002V275.974Z" fill="#71D2C1"/>
<path d="M394.918 267.958C394.074 270.314 393.067 272.608 391.905 274.824C391.291 275.988 393.062 277.018 393.669 275.854C394.912 273.48 395.989 271.024 396.893 268.502C397.338 267.26 395.362 266.731 394.918 267.958Z" fill="#71D2C1"/>
<path d="M389.315 273.646C392.187 270.174 393.669 265.835 394.96 261.594C395.355 260.331 393.38 259.795 392.992 261.051C391.771 264.924 390.465 269.017 387.834 272.199C387.001 273.201 388.44 274.662 389.28 273.61L389.315 273.646Z" fill="#71D2C1"/>
<path d="M358.071 180.281C355.812 185.007 355.681 190.474 357.711 195.303C360.117 200.948 358.417 204.363 358.417 204.363L384.115 205.894C384.115 205.894 385.526 196.467 381.815 192.579C377.68 188.254 376.17 180.803 376.17 180.803" fill="#3A3144"/>
<path d="M351.502 243.164L349.618 255.822H393.76C393.76 255.822 392.349 240.638 387.946 236.961" fill="#3A3144"/>
<path d="M368.33 191.232L370.038 202.74" stroke="#71D2C1" stroke-width="15.47"/>
<path d="M371.406 193.038C369.997 196.104 367.285 198.376 364.019 199.226L362.946 192.876C362.946 192.876 372.973 189.418 371.406 193.038Z" fill="#3A3144"/>
<path d="M393.598 241.633L393.21 238.902C392.676 235.103 392.586 231.255 392.942 227.436L393.648 220.076C393.802 218.543 393.825 216.999 393.718 215.462C393.055 207.397 388.984 201.046 380.608 201.251L358.862 201.879C352.934 202.048 349.618 204.751 347.614 209.189C346.742 211.189 346.33 213.359 346.408 215.539C346.683 226.123 346.845 234.097 346.923 239.967C346.973 243.338 349.705 246.051 353.076 246.078L390.472 246.395C393.295 246.339 393.704 246.515 393.789 244.822C393.823 243.755 393.759 242.688 393.598 241.633Z" fill="#1771E4"/>
<path d="M381.285 208.321C381.285 208.321 406.383 226.406 408.528 234.069C410.673 241.731 400.943 259.809 400.943 259.809" stroke="#1771E4" stroke-width="25"/>
<path d="M359.891 180.005L359.115 184.472C358 184.521 358.677 179.815 358.677 179.815" fill="#3A3144"/>
<path d="M364.703 196.549C362.918 196.377 361.275 195.503 360.136 194.119C358.996 192.735 358.452 190.955 358.625 189.171L359.287 182.323C359.719 177.843 363.702 174.562 368.182 174.995L368.66 175.041C373.14 175.474 376.421 179.457 375.988 183.937L375.64 187.54C375.386 190.186 374.09 192.622 372.039 194.312C369.987 196.002 367.348 196.807 364.703 196.549L364.703 196.549Z" fill="#71D2C1"/>
<path d="M356.921 186.116C357.118 187.866 359.157 190.067 361.154 189.439L361.958 185.128C361.895 184.803 358.558 184.175 358.296 184.225C357.856 184.277 357.457 184.511 357.196 184.87C356.935 185.229 356.835 185.68 356.921 186.116Z" fill="#71D2C1"/>
<path d="M370.235 178.136C370.235 177.917 365.479 182.143 359.157 181.374C353.851 180.725 364.802 171.496 371.569 175.878C371.569 175.878 376.113 177.402 376.331 181.946C376.55 186.49 374.92 188.014 374.92 188.014L374.215 185.932V183.886C371.823 182.981 370.239 180.693 370.235 178.136Z" fill="#3A3144"/>
<path d="M365.578 189.453C365.368 189.146 365.025 188.956 364.654 188.942C364.282 188.928 363.926 189.092 363.694 189.383C363.426 189.722 363.898 190.208 364.174 189.863C364.257 189.722 364.403 189.63 364.566 189.618C364.729 189.605 364.888 189.673 364.992 189.799C365.253 190.145 365.846 189.799 365.578 189.453Z" fill="#3A3144"/>
<path d="M366.947 190.738C366.401 191.246 365.71 191.572 364.971 191.669C364.54 191.732 364.724 192.375 365.154 192.325C366.009 192.197 366.805 191.811 367.433 191.217C367.751 190.921 367.271 190.434 366.947 190.738Z" fill="#3A3144"/>
<ellipse cx="368.718" cy="188.141" rx="0.606781" ry="0.606842" fill="#3A3144"/>
<path d="M369.317 184.86C368.939 184.78 368.554 184.742 368.167 184.747C367.972 184.747 367.814 184.905 367.814 185.1C367.814 185.295 367.972 185.453 368.167 185.453C368.492 185.444 368.817 185.475 369.134 185.544C369.564 185.629 369.748 184.973 369.317 184.881V184.86Z" fill="#3A3144"/>
<ellipse cx="361.788" cy="187.802" rx="0.606827" ry="0.606857" fill="#3A3144"/>
<path d="M362.389 184.521C362.011 184.441 361.625 184.404 361.239 184.408C361.044 184.408 360.886 184.566 360.886 184.761C360.886 184.956 361.044 185.114 361.239 185.114C361.565 185.109 361.892 185.14 362.212 185.206C362.636 185.297 362.819 184.634 362.389 184.549V184.521Z" fill="#3A3144"/>
<path d="M377.941 186.384C377.744 188.127 375.704 190.328 373.707 189.7L372.91 185.389C372.967 185.072 376.304 184.444 376.565 184.493C377.007 184.544 377.407 184.777 377.669 185.136C377.93 185.496 378.029 185.948 377.941 186.384Z" fill="#71D2C1"/>
<path d="M315.439 104.379L303.535 124.446C302.832 125.627 301.558 126.35 300.184 126.35C298.809 126.35 297.536 125.627 296.832 124.446L284.929 104.379L300.184 89.1312L315.439 104.379Z" fill="#B2EEE6"/>
<rect x="264.727" y="5.27768" width="170.113" height="107.301" rx="12.71" fill="#B2EEE6"/>
<path d="M346.365 99.9269L344.481 112.578H388.645C388.645 112.578 387.191 97.3938 382.824 93.7176" fill="#F97171"/>
<path d="M363.193 47.282L364.047 60.9072" stroke="#71D2C1" stroke-width="18"/>
<path d="M366.241 49.0884C364.829 52.154 362.119 54.4268 358.854 55.2836L357.781 48.8979C357.781 48.8979 367.836 45.4687 366.241 49.0884Z" fill="#3A3144"/>
<path d="M388.461 98.3957L388.073 95.6651C387.543 91.8661 387.453 88.0187 387.805 84.1991L388.511 76.8326C388.668 75.2994 388.692 73.7553 388.581 72.218C387.946 64.1741 383.861 57.7673 375.485 58.0072L353.739 58.6352C347.811 58.8045 344.495 61.507 342.491 65.9522C341.619 67.9521 341.207 70.1222 341.285 72.3026C341.567 83.183 341.729 91.2551 341.807 97.1609C341.868 100.278 344.398 102.78 347.515 102.806L385.328 103.123C388.151 103.067 388.56 103.25 388.638 101.55C388.675 100.495 388.616 99.4395 388.461 98.3957Z" fill="white"/>
<path d="M354.726 36.056L353.95 40.5295C352.835 40.5718 353.512 35.8725 353.512 35.8725" fill="#3A3144"/>
<path d="M359.561 52.6021C355.845 52.243 353.124 48.9395 353.483 45.2236L354.145 38.3759C354.353 36.2245 355.407 34.2438 357.075 32.8695C358.744 31.4953 360.889 30.84 363.041 31.0479L363.511 31.0934C365.663 31.3013 367.644 32.3554 369.018 34.0236C370.392 35.6919 371.047 37.8378 370.839 39.9892L370.491 43.5922C370.237 46.2367 368.943 48.672 366.893 50.3619C364.843 52.0518 362.206 52.8577 359.561 52.6021V52.6021Z" fill="#71D2C1"/>
<path d="M351.791 42.1735C351.982 43.9163 354.021 46.1178 356.025 45.4898L356.829 41.1786C356.766 40.8611 353.428 40.2331 353.167 40.2825C352.725 40.333 352.325 40.5663 352.064 40.9258C351.802 41.2852 351.703 41.7378 351.791 42.1735Z" fill="#71D2C1"/>
<path d="M372.804 42.4346C372.607 44.1845 370.568 46.3789 368.571 45.7509L367.773 41.4467C367.83 41.1221 371.167 40.4942 371.428 40.5436C371.869 40.5961 372.268 40.8299 372.529 41.1888C372.79 41.5476 372.89 41.9991 372.804 42.4346Z" fill="#71D2C1"/>
<path d="M354.586 36.8744C354.586 36.8744 353.139 45.9485 354.727 46.7528C355.813 47.3103 355.263 45.6803 359.271 46.3365C360.971 46.6117 361.86 45.7085 363.582 46.7952C369.82 50.7606 367.745 36.9803 367.745 36.9803L370.285 39.0547C370.285 39.0547 372.31 52.1013 365.346 55.6081C360.096 58.24 351.742 56.0244 352.095 49.1095C352.568 39.718 353.506 36.6416 353.506 36.6416" fill="#3A3144"/>
<path d="M365.099 34.1861C365.099 33.9744 360.344 38.201 354.021 37.4248C348.715 36.7757 359.666 27.5464 366.433 31.9282C366.433 31.9282 370.977 33.4593 371.203 37.9963C371.428 42.5333 369.791 44.0645 369.791 44.0645L369.545 42.484L369.622 40.5294C369.622 40.5294 365.262 38.7584 365.099 34.1861Z" fill="#3A3144"/>
<path d="M360.442 45.511C360.234 45.2027 359.892 45.0117 359.52 44.9964C359.148 44.981 358.791 45.1432 358.558 45.4334C358.29 45.7791 358.77 46.2589 359.038 45.9202C359.121 45.7794 359.268 45.688 359.431 45.6753C359.594 45.6627 359.753 45.7304 359.857 45.8567C360.118 46.1954 360.71 45.8567 360.442 45.511Z" fill="#3A3144"/>
<path d="M361.803 46.7881C361.258 47.2988 360.567 47.6268 359.827 47.7266C359.397 47.7901 359.58 48.4322 360.011 48.3828C360.866 48.2549 361.661 47.8683 362.29 47.275C362.607 46.9716 362.128 46.4918 361.803 46.7881Z" fill="white"/>
<ellipse cx="363.581" cy="44.1986" rx="0.606827" ry="0.606804" fill="#3A3144"/>
<path d="M364.181 40.9176C363.803 40.8378 363.417 40.7999 363.031 40.8047C362.836 40.8047 362.678 40.9626 362.678 41.1575C362.678 41.3523 362.836 41.5103 363.031 41.5103C363.355 41.5087 363.679 41.5394 363.997 41.602C364.428 41.6937 364.611 41.0305 364.181 40.9458V40.9176Z" fill="#3A3144"/>
<ellipse cx="356.652" cy="43.8528" rx="0.606827" ry="0.606812" fill="#3A3144"/>
<path d="M357.259 40.5718C356.879 40.4917 356.491 40.4538 356.102 40.4589C355.907 40.4589 355.749 40.6168 355.749 40.8117C355.749 41.0065 355.907 41.1645 356.102 41.1645C356.429 41.1573 356.755 41.1857 357.076 41.2492C357.506 41.3409 357.689 40.6847 357.259 40.593V40.5718Z" fill="#3A3144"/>
<path d="M118.068 163.77L106.165 183.837C105.463 185.018 104.191 185.742 102.817 185.742C101.443 185.742 100.171 185.018 99.4689 183.837L87.5654 163.77L102.813 148.515L118.068 163.77Z" fill="#FFD8C5"/>
<rect x="67.3633" y="64.6963" width="170.113" height="107.301" rx="12.71" fill="#FFD8C5"/>
<path d="M111.097 84.6929L124.708 88.7643C124.708 88.7643 130.021 72.9306 121.575 70.7856C113.129 68.6406 111.097 84.6929 111.097 84.6929Z" fill="#71D2C1"/>
<path d="M128.829 75.2944L122.104 84.7071C121.081 86.1183 123.452 87.5295 124.461 86.083L131.171 76.6703C132.195 75.2591 129.831 73.8479 128.815 75.2591L128.829 75.2944Z" fill="#71D2C1"/>
<path d="M112.656 69.6355C112.726 72.6084 112.71 75.5766 112.606 78.5401C112.557 79.8596 114.603 79.8596 114.653 78.5401C114.756 75.5766 114.773 72.6084 114.702 69.6355C114.667 68.323 112.62 68.316 112.656 69.6355Z" fill="#71D2C1"/>
<path d="M116.862 66.044C116.335 68.6765 116.174 71.3689 116.382 74.0455C116.488 75.3508 118.534 75.3579 118.428 74.0455C118.222 71.5524 118.359 69.0428 118.837 66.5873C119.091 65.3031 117.116 64.7527 116.862 66.044Z" fill="#71D2C1"/>
<path d="M122.267 72.8389C122.401 70.3444 122.705 67.862 123.177 65.4089C123.424 64.1247 121.455 63.5744 121.201 64.8656C120.695 67.4982 120.367 70.162 120.221 72.8389C120.15 74.1583 122.196 74.1513 122.267 72.8389Z" fill="#71D2C1"/>
<path d="M126.02 65.7335C124.263 69.8895 124.08 74.4547 124.023 78.9141C124.023 79.4792 124.482 79.9372 125.047 79.9372C125.612 79.9372 126.07 79.4792 126.07 78.9141C126.119 74.864 126.183 70.5598 127.784 66.7637C128.292 65.5641 126.528 64.5199 126.02 65.7335Z" fill="#71D2C1"/>
<path d="M144.324 276.92L156.502 269.595C156.502 269.595 148.367 255.011 141.099 259.809C133.831 264.607 144.324 276.92 144.324 276.92Z" fill="#71D2C1"/>
<path d="M149.298 257.431L151.739 268.72C152.113 270.435 154.738 269.708 154.371 268.015L151.93 256.725C151.563 255.011 148.931 255.737 149.298 257.431Z" fill="#71D2C1"/>
<path d="M134.205 265.602C136.453 267.545 138.638 269.553 140.76 271.628C141.698 272.552 143.152 271.105 142.206 270.216C140.085 268.142 137.9 266.133 135.651 264.191C134.663 263.33 133.21 264.769 134.205 265.602Z" fill="#71D2C1"/>
<path d="M134.403 260.07C136.038 262.302 137.984 264.288 140.182 265.969C141.226 266.773 142.249 264.995 141.219 264.205C139.301 262.729 137.6 260.99 136.167 259.04C135.398 257.988 133.62 259.004 134.403 260.07Z" fill="#71D2C1"/>
<path d="M143.116 260.712C141.353 258.948 139.717 257.062 138.219 255.067C137.436 254.03 135.665 255.067 136.448 256.104C138.044 258.254 139.789 260.288 141.67 262.194C142.594 263.132 144.041 261.686 143.081 260.747L143.116 260.712Z" fill="#71D2C1"/>
<path d="M140.45 253.331C142.299 257.325 145.558 260.479 148.727 263.443C149.686 264.339 151.14 262.892 150.138 262.031C147.083 259.209 143.964 256.182 142.186 252.336C141.628 251.144 139.864 252.181 140.415 253.367L140.45 253.331Z" fill="#71D2C1"/>
<path d="M328.951 147.11L343.063 148.797C343.063 148.797 345.589 132.293 336.903 131.622C328.217 130.952 328.951 147.11 328.951 147.11Z" fill="#71D2C1"/>
<path d="M344.919 134.607L339.916 145.029C339.161 146.602 341.511 147.985 342.273 146.405L347.276 135.983C348.031 134.41 345.681 133.02 344.919 134.572V134.607Z" fill="#71D2C1"/>
<path d="M327.935 132.109C328.513 135.021 329.005 137.949 329.409 140.894C329.586 142.192 331.561 141.635 331.385 140.351C330.983 137.401 330.489 134.48 329.91 131.566C329.649 130.275 327.681 130.818 327.935 132.109Z" fill="#71D2C1"/>
<path d="M331.441 127.855C331.38 130.538 331.693 133.217 332.373 135.814C332.549 136.324 333.091 136.61 333.612 136.467C334.133 136.323 334.452 135.799 334.341 135.27C333.718 132.849 333.433 130.354 333.494 127.855C333.494 126.535 331.483 126.535 331.448 127.855H331.441Z" fill="#71D2C1"/>
<path d="M337.947 133.697C337.643 131.121 337.516 128.528 337.566 125.935C337.566 125.37 337.108 124.912 336.543 124.912C335.977 124.912 335.519 125.37 335.519 125.935C335.469 128.528 335.597 131.121 335.9 133.697C336.056 134.988 338.102 135.002 337.947 133.697Z" fill="#71D2C1"/>
<path d="M340.389 125.964C339.373 130.359 340.015 134.91 340.721 139.306C340.932 140.605 342.901 140.054 342.696 138.763C342.047 134.748 341.433 130.522 342.358 126.507C342.654 125.23 340.685 124.679 340.389 125.964Z" fill="#71D2C1"/>
<path d="M292.591 45.8497L304.015 37.3825C304.015 37.3825 294.517 23.6374 287.744 29.1129C280.97 34.5883 292.591 45.8497 292.591 45.8497Z" fill="#71D2C1"/>
<path d="M295.64 25.853L299.168 36.8674C299.704 38.5326 302.336 37.82 301.8 36.1618L298.272 25.1474C297.742 23.4822 295.111 24.1948 295.647 25.853H295.64Z" fill="#71D2C1"/>
<path d="M281.569 35.6467C283.921 37.3119 286.219 39.0501 288.463 40.8611C289.479 41.6796 290.94 40.2402 289.91 39.4146C287.534 37.4954 285.1 35.6491 282.607 33.8757C281.527 33.1136 280.49 34.8917 281.569 35.6467Z" fill="#71D2C1"/>
<path d="M281.203 30.1571C282.995 32.1512 285.059 33.8828 287.334 35.301C288.456 36.0066 289.487 34.2355 288.372 33.537C286.247 32.2077 284.323 30.5826 282.656 28.7107C281.774 27.7228 280.328 29.1764 281.203 30.1571Z" fill="#71D2C1"/>
<path d="M289.91 29.9031C287.922 28.2408 286.05 26.4444 284.307 24.5264C283.425 23.5527 281.979 24.9992 282.896 25.9729C284.639 27.8908 286.511 29.6873 288.499 31.3496C289.501 32.1822 290.954 30.7428 289.945 29.9031H289.91Z" fill="#71D2C1"/>
<path d="M286.418 22.6637C288.69 26.5445 292.295 29.4021 295.809 32.1046C296.853 32.909 297.877 31.1309 296.846 30.3406C293.615 27.8569 290.27 25.1968 288.182 21.6264C287.996 21.3113 287.657 21.119 287.291 21.1219C286.926 21.1248 286.59 21.3225 286.409 21.6405C286.229 21.9585 286.232 22.3485 286.418 22.6637Z" fill="#71D2C1"/>
<path d="M235.706 97.3867L223.711 89.6815C223.711 89.6815 232.333 75.3649 239.446 80.3888C246.558 85.4127 235.706 97.3867 235.706 97.3867Z" fill="#71D2C1"/>
<path d="M228.706 76.9878L225.883 88.1998C225.453 89.9073 228.085 90.6341 228.515 88.9054L231.338 77.6934C231.761 75.9858 229.129 75.2591 228.706 76.9878Z" fill="#71D2C1"/>
<path d="M244.723 84.9329C242.418 86.8145 240.17 88.7525 237.978 90.747C237.011 91.6431 238.458 93.0826 239.389 92.1935C241.576 90.1896 243.825 88.2515 246.135 86.3793C247.158 85.5467 245.704 84.1073 244.688 84.9329H244.723Z" fill="#71D2C1"/>
<path d="M244.54 79.5985C243.002 81.5797 241.189 83.3309 239.156 84.7988C238.098 85.5609 239.114 87.3319 240.186 86.5628C242.372 85.012 244.326 83.1563 245.986 81.052C246.791 80.0219 245.351 78.5683 244.54 79.5985Z" fill="#71D2C1"/>
<path d="M238.825 82.7032C240.702 80.9194 242.454 79.0073 244.067 76.9808C244.879 75.9647 243.439 74.5041 242.621 75.5343C241.008 77.5608 239.256 79.4729 237.378 81.2567C236.418 82.1599 237.872 83.6064 238.825 82.6679V82.7032Z" fill="#71D2C1"/>
<path d="M238.528 72.8812C236.63 76.6632 233.398 79.5562 230.258 82.308C229.263 83.1759 230.717 84.6153 231.705 83.7192C234.972 80.8968 238.316 77.8134 240.299 73.8761C240.885 72.7048 239.121 71.6676 238.528 72.8459V72.8812Z" fill="#71D2C1"/>
<path d="M244.617 205.548L232.502 212.971C232.502 212.971 223.33 199.021 230.929 194.788C238.528 190.554 244.617 205.548 244.617 205.548Z" fill="#71D2C1"/>
<path d="M223.139 202.93L232.036 210.311C233.384 211.419 235.324 209.5 233.969 208.378L225.072 200.997C223.731 199.882 221.791 201.801 223.139 202.93Z" fill="#71D2C1"/>
<path d="M237.287 191.923C237.969 194.816 238.742 197.683 239.608 200.524C239.989 201.78 241.965 201.23 241.584 199.974C240.723 197.151 239.947 194.287 239.255 191.38C238.952 190.103 236.983 190.674 237.287 191.923Z" fill="#71D2C1"/>
<path d="M232.502 190.025C233.602 192.276 234.379 194.67 234.81 197.137C235.043 198.436 237.011 197.885 236.778 196.594C236.31 193.957 235.474 191.399 234.295 188.995C233.716 187.809 231.952 188.847 232.524 190.025H232.502Z" fill="#71D2C1"/>
<path d="M232.764 196.411C231.941 193.863 230.941 191.375 229.772 188.967C229.2 187.781 227.436 188.818 228.008 189.997C229.085 192.25 230.007 194.575 230.767 196.954C231.176 198.203 233.152 197.66 232.743 196.411H232.764Z" fill="#71D2C1"/>
<path d="M223.894 192.48C226.42 195.74 227.585 199.896 228.671 203.77C228.769 204.123 229.049 204.397 229.403 204.488C229.758 204.579 230.135 204.474 230.391 204.213C230.648 203.951 230.745 203.573 230.647 203.22C229.454 198.93 228.107 194.569 225.341 190.999C224.536 189.961 223.097 191.422 223.894 192.445V192.48Z" fill="#71D2C1"/>
<path d="M425.406 25.9377L411.746 22.0216C411.746 22.0216 415.832 5.79278 424.094 8.61518C432.357 11.4376 425.406 25.9377 425.406 25.9377Z" fill="#71D2C1"/>
<path d="M412.811 8.41766L413.376 19.9612C413.46 21.7111 416.198 21.7182 416.099 19.9612L415.535 8.41766C415.45 6.66778 412.712 6.66072 412.811 8.41766Z" fill="#71D2C1"/>
<path d="M430.451 11.3599C428.786 13.8154 427.196 16.3227 425.681 18.8816C425.397 19.3707 425.562 19.9978 426.052 20.2822C426.541 20.5667 427.168 20.4009 427.452 19.9118C428.962 17.3575 430.552 14.8503 432.222 12.3901C432.963 11.3035 431.185 10.2733 430.451 11.3599Z" fill="#71D2C1"/>
<path d="M428.659 6.55484C427.737 8.88385 426.493 11.0715 424.961 13.0534C424.164 14.1048 425.935 15.1208 426.725 14.0906C428.35 11.9548 429.666 9.60088 430.634 7.09815C431.114 5.87041 429.132 5.34121 428.659 6.55484Z" fill="#71D2C1"/>
<path d="M424.15 11.0001C425.476 8.67063 426.639 6.25162 427.629 3.76064C428.116 2.53995 426.14 2.01075 425.66 3.21733C424.727 5.53903 423.638 7.79504 422.4 9.96995C422.155 10.453 422.328 11.0439 422.796 11.3172C423.264 11.5905 423.864 11.4515 424.164 11.0001H424.15Z" fill="#71D2C1"/>
<path d="M421.081 1.60857C420.375 5.78572 418.117 9.48306 415.902 13.0322C415.196 14.1471 416.974 15.149 417.673 14.0624C419.966 10.3792 422.302 6.48426 423.05 2.15188C423.275 0.867685 421.307 0.310261 421.081 1.60857Z" fill="#71D2C1"/>
<ellipse cx="174.058" cy="104.584" rx="8.99638" ry="8.9964" fill="#3A3144"/>
<path d="M147.598 159.345L145.714 172.004H189.877C189.877 172.004 188.431 156.819 184.063 153.143" fill="#E8A54F"/>
<path d="M164.426 107.413L166.14 118.922" stroke="#71D2C1" stroke-width="15.47"/>
<path d="M167.502 109.22C166.093 112.286 163.381 114.558 160.115 115.408L159.042 109.022C159.042 109.022 169.069 105.6 167.502 109.22Z" fill="#3A3144"/>
<path d="M189.694 157.814L189.313 155.084C188.775 151.285 188.685 147.437 189.044 143.618L189.75 136.258C189.91 134.725 189.936 133.181 189.828 131.644C189.193 123.593 185.1 117.193 176.732 117.433L154.978 118.054C149.051 118.23 145.735 120.933 143.731 125.371C142.861 127.371 142.451 129.541 142.531 131.721C142.849 144.126 143.018 152.889 143.075 158.936C143.094 160.759 144.569 162.23 146.391 162.245L186.568 162.584C189.39 162.528 189.799 162.704 189.884 161.011C189.919 159.942 189.855 158.872 189.694 157.814Z" fill="#1CA591"/>
<path d="M155.973 96.1872L155.19 100.654C154.075 100.703 154.76 95.9966 154.76 95.9966" fill="#3A3144"/>
<path d="M160.802 112.714C157.086 112.355 154.365 109.052 154.724 105.336L155.386 98.488C155.821 94.0192 159.789 90.7447 164.26 91.165L164.737 91.2112C169.217 91.6441 172.498 95.6269 172.065 100.107L171.717 103.71C171.185 109.214 166.292 113.245 160.788 112.713L160.802 112.714Z" fill="#71D2C1"/>
<path d="M153.023 102.298C153.221 104.048 155.26 106.249 157.257 105.621L158.054 101.31C157.998 100.985 154.66 100.357 154.399 100.407C153.958 100.459 153.559 100.693 153.298 101.052C153.037 101.411 152.938 101.862 153.023 102.298Z" fill="#71D2C1"/>
<path d="M166.338 94.3174C166.338 94.0986 161.582 98.3252 155.253 97.5561C149.954 96.9069 160.898 87.6776 167.672 92.0594C167.672 92.0594 172.216 93.5835 172.434 98.1276C172.653 102.672 170.988 104.196 170.988 104.196L170.282 102.114V100.068C167.903 99.1531 166.335 96.8662 166.338 94.3174Z" fill="#3A3144"/>
<path d="M161.681 105.635C161.47 105.328 161.126 105.138 160.753 105.124C160.38 105.11 160.023 105.274 159.79 105.565C159.522 105.903 160.001 106.39 160.277 106.044C160.358 105.904 160.504 105.812 160.666 105.799C160.828 105.787 160.986 105.855 161.088 105.981C161.356 106.327 161.949 105.981 161.681 105.635Z" fill="#3A3144"/>
<path d="M163.029 106.919C162.481 107.424 161.792 107.749 161.054 107.851C160.616 107.914 160.807 108.556 161.23 108.507C162.085 108.379 162.88 107.992 163.509 107.399C163.834 107.096 163.347 106.616 163.029 106.919Z" fill="#3A3144"/>
<circle cx="164.814" cy="104.323" r="0.606827" fill="#3A3144"/>
<path d="M165.421 101.042C165.043 100.962 164.657 100.924 164.271 100.929C164.076 100.929 163.918 101.087 163.918 101.282C163.918 101.476 164.076 101.634 164.271 101.634C164.595 101.626 164.92 101.657 165.237 101.726C165.668 101.811 165.851 101.155 165.421 101.063V101.042Z" fill="#3A3144"/>
<ellipse cx="157.892" cy="103.977" rx="0.606812" ry="0.606827" fill="#3A3144"/>
<path d="M158.492 100.703C158.114 100.623 157.728 100.585 157.342 100.59C157.147 100.59 156.989 100.748 156.989 100.943C156.989 101.138 157.147 101.296 157.342 101.296C157.667 101.291 157.991 101.322 158.309 101.387C158.739 101.479 158.923 100.816 158.492 100.731V100.703Z" fill="#3A3144"/>
<path d="M174.044 102.566C173.846 104.309 171.807 106.51 169.81 105.882L168.978 101.557C169.041 101.239 172.379 100.611 172.64 100.661C173.088 100.706 173.497 100.938 173.765 101.301C174.032 101.664 174.134 102.124 174.044 102.566Z" fill="#71D2C1"/>
<path d="M190.442 367.13H182.899C182.453 367.125 182.055 367.411 181.918 367.836L180.309 373.686C180.226 373.991 180.29 374.318 180.482 374.57C180.674 374.822 180.973 374.97 181.29 374.97H188.833C189.292 374.972 189.695 374.665 189.814 374.222L191.423 368.379C191.494 368.079 191.424 367.762 191.233 367.519C191.042 367.276 190.751 367.133 190.442 367.13Z" fill="#B2EEE6"/>
<path d="M207.144 367.13H199.608C199.162 367.125 198.764 367.411 198.627 367.836L197.018 373.686C196.935 373.991 196.999 374.318 197.191 374.57C197.383 374.822 197.682 374.97 197.999 374.97H205.542C205.998 374.969 206.398 374.663 206.516 374.222L208.125 368.379C208.198 368.078 208.13 367.76 207.938 367.516C207.747 367.273 207.454 367.13 207.144 367.13Z" fill="#B2EEE6"/>
<path d="M186.766 380.826H179.258C178.799 380.823 178.396 381.131 178.277 381.574L176.669 387.416C176.585 387.723 176.649 388.051 176.841 388.303C177.033 388.556 177.332 388.706 177.649 388.708H185.192C185.65 388.706 186.05 388.4 186.173 387.96L187.782 382.11C187.867 381.799 187.799 381.465 187.599 381.211C187.398 380.958 187.089 380.815 186.766 380.826Z" fill="#B2EEE6"/>
<path d="M203.467 380.826H195.924C195.466 380.826 195.064 381.132 194.944 381.574L193.37 387.416C193.284 387.722 193.346 388.05 193.537 388.303C193.728 388.557 194.026 388.706 194.344 388.708H201.837C202.295 388.706 202.695 388.4 202.818 387.96L204.427 382.11C204.509 381.808 204.448 381.485 204.261 381.234C204.073 380.983 203.78 380.832 203.467 380.826V380.826Z" fill="#B2EEE6"/>
<path d="M375.414 201.244C375.414 201.244 375.753 205.929 379.048 209.076C382.343 212.223 393.774 205.894 381.87 192.579" fill="#3A3144"/>
<path d="M159.282 126.683C159.282 126.683 137.063 128.8 126.274 122.774C115.486 116.748 118.435 83.8533 118.435 83.8533" stroke="#1CA591"/>
<path d="M196.227 270.619C196.227 270.619 185.643 289.543 175.906 289.846C166.169 290.15 147.456 268.544 147.456 268.544" stroke="#F97171"/>
<path d="M336.804 141.882C336.804 141.882 339.866 179.335 341.94 185.848C344.015 192.36 356.271 214.989 356.271 214.989" stroke="#1771E4"/>
<path d="M295.844 37.4036C295.844 37.4036 321.048 60.3921 329.635 64.0683C338.222 67.7445 359.475 67.2153 359.475 67.2153" stroke="white"/>
<path d="M372.817 67.2435C372.817 67.2435 396.377 66.0228 405.113 54.0982C408.577 49.4059 418.286 21.1184 418.286 21.1184" stroke="white"/>
<path d="M210.678 268.544C210.678 268.544 230.329 273.145 245.725 247.327C250.664 239.071 237.222 206.028 237.222 206.028" stroke="#F97171"/>
<path d="M172.456 126.098C173.373 125.787 198.648 125.533 204.709 121.37C210.77 117.207 231.247 90.874 231.247 90.874" stroke="#1CA591"/>
<path d="M189.877 275.134C189.298 280.919 188.422 286.67 187.252 292.365C187.16 292.788 187.816 292.972 187.908 292.542C189.091 286.789 189.972 280.979 190.547 275.134C190.589 274.697 189.912 274.697 189.842 275.134H189.877Z" fill="#3A3144"/>
<path d="M232.136 273.222L233.173 272.884C233.589 272.75 233.413 272.093 232.989 272.227L231.952 272.566C231.536 272.7 231.712 273.356 232.136 273.222Z" fill="#3A3144"/>
<path d="M386.64 224.867C388.16 226.189 389.797 227.37 391.53 228.395C391.692 228.491 391.9 228.437 391.996 228.276C392.091 228.114 392.037 227.905 391.876 227.81C390.194 226.818 388.605 225.677 387.127 224.402C386.795 224.112 386.308 224.592 386.64 224.882V224.867Z" fill="#3A3144"/>
<path d="M142.828 127.904C142.307 130.309 142.171 132.781 142.426 135.228C142.475 135.658 143.131 135.665 143.131 135.228C142.878 132.841 143.004 130.428 143.505 128.08C143.597 127.657 142.941 127.473 142.849 127.904H142.828Z" fill="#3A3144"/>
<path d="M187.358 134.537C187.938 134.173 188.627 134.026 189.305 134.12C189.736 134.184 189.919 133.528 189.489 133.464C188.634 133.321 187.756 133.494 187.019 133.951C186.645 134.177 186.984 134.769 187.358 134.537Z" fill="#3A3144"/>
<path d="M341.546 66.2768C340.797 69.2035 340.558 72.2372 340.84 75.245C340.84 75.6754 341.546 75.6824 341.546 75.245C341.278 72.2956 341.517 69.3222 342.251 66.4532C342.3 66.2584 342.182 66.0609 341.987 66.0122C341.792 65.9635 341.594 66.082 341.546 66.2768Z" fill="#3A3144"/>
<path d="M386.598 74.744L388.715 73.3328C389.082 73.0929 388.715 72.5002 388.369 72.7401L386.252 74.1513C385.885 74.3912 386.252 74.9839 386.598 74.7369V74.744Z" fill="#3A3144"/>
<path d="M292.555 30.0231C291.569 32.1101 291.344 34.4768 291.92 36.7122C291.971 36.8934 292.159 36.9992 292.34 36.9485C292.521 36.8979 292.627 36.7099 292.577 36.5287C292.048 34.4712 292.25 32.294 293.148 30.3688C293.325 29.9737 292.739 29.6279 292.555 30.0231Z" fill="#3A3144"/>
<path d="M419.867 13.2157C421.56 14.6269 421.123 16.8989 420.671 18.8111C420.572 19.2415 421.229 19.425 421.327 18.9946C421.835 16.8425 422.238 14.3376 420.347 12.7359C420.015 12.4536 419.528 12.9334 419.867 13.2157Z" fill="#3A3144"/>
<path d="M234.294 83.1195C234.666 84.6609 234.578 86.2777 234.04 87.7694C233.892 88.1857 234.555 88.3621 234.696 87.9528C235.269 86.3437 235.358 84.6019 234.95 82.9431C234.851 82.5126 234.195 82.6961 234.294 83.1195Z" fill="#3A3144"/>
<path d="M118.576 80.1842C119.424 79.0538 120.573 78.1856 121.892 77.6793C122.302 77.5241 122.125 76.8679 121.716 77.0231C120.229 77.5864 118.935 78.5663 117.99 79.8455C117.729 80.1983 118.315 80.5511 118.576 80.1913V80.1842Z" fill="#3A3144"/>
<path d="M230.717 202.69C231.879 202.541 233.053 202.855 233.984 203.565C234.337 203.826 234.69 203.234 234.33 202.973C233.294 202.2 232.001 201.854 230.717 202.006C230.287 202.055 230.28 202.712 230.717 202.712V202.69Z" fill="#3A3144"/>
<path d="M146.094 266.385L147.795 262.518C147.971 262.116 147.385 261.77 147.209 262.172L145.508 266.039C145.332 266.441 145.918 266.787 146.094 266.385Z" fill="#3A3144"/>
<path d="M335.971 140.619C336.755 139.365 337.942 138.414 339.337 137.923C339.746 137.782 339.57 137.119 339.153 137.267C337.589 137.81 336.257 138.87 335.378 140.273C335.146 140.647 335.738 140.979 335.971 140.619Z" fill="#3A3144"/>
<path d="M254.002 468.187C254.002 478.876 260.585 488.197 270.35 493.158C271.304 493.649 272.361 493.907 273.434 493.913H299.541C300.614 493.907 301.67 493.649 302.625 493.158C312.404 488.226 318.966 478.876 318.966 468.187V468.102C318.897 464.496 315.94 461.618 312.334 461.646H260.613C257.007 461.618 254.05 464.496 253.98 468.102L254.002 468.187Z" fill="#FFD8C5"/>
</svg>
