<svg width="240" height="240" viewBox="0 0 240 240" fill="none" xmlns="http://www.w3.org/2000/svg">
<circle cx="157.334" cy="166.753" r="9.69023" fill="#2E60B8"/>
<circle cx="156.586" cy="166.753" r="9.69023" fill="#4F8AE0"/>
<path fill-rule="evenodd" clip-rule="evenodd" d="M153.855 161.997H159.319V171.506H153.855V161.997ZM154.335 162.477V171.026H158.839V162.477H154.335Z" fill="white"/>
<path d="M59.0479 205.177C59.0479 205.707 58.4787 216.881 58.3212 219.953C58.3115 220.155 58.385 220.352 58.5246 220.498C58.6641 220.644 58.8575 220.727 59.0597 220.727H77.7275C77.9757 220.726 78.2107 220.615 78.3686 220.424C78.5264 220.232 78.5906 219.98 78.5436 219.736C78.212 218.012 76.9866 214.6 72.4755 214.242C66.405 213.76 70.2364 202.717 70.2364 202.717" fill="#2E60B8"/>
<path d="M72.476 214.242H58.6133C58.8203 210.126 59.0484 205.514 59.0484 205.178L70.2369 202.727C70.2369 202.727 66.4055 213.76 72.476 214.242Z" fill="#124A9B"/>
<path d="M70.4187 214.931C70.7634 214.374 71.2852 213.948 71.9005 213.722C72.0416 213.671 71.9804 213.443 71.837 213.487C71.1638 213.732 70.593 214.197 70.2164 214.807C70.1341 214.936 70.3387 215.042 70.4187 214.924V214.931Z" fill="#FFD8C5"/>
<path d="M72.2551 215.428C72.461 214.965 72.7947 214.571 73.217 214.292C73.3417 214.209 73.217 214.005 73.0971 214.089C72.6401 214.389 72.2772 214.811 72.0504 215.308C71.9893 215.447 72.1916 215.564 72.2551 215.428Z" fill="#FFD8C5"/>
<path d="M74.0217 215.894C74.2902 215.395 74.6604 214.958 75.1083 214.612C75.2259 214.52 75.1083 214.315 74.9883 214.409C74.5042 214.777 74.1034 215.242 73.8123 215.776C73.7394 215.908 73.9441 216.028 74.0146 215.894H74.0217Z" fill="#FFD8C5"/>
<path d="M68.5908 214.033C69.0587 213.474 69.6852 213.069 70.3877 212.873C70.4526 212.857 70.4916 212.79 70.4747 212.725C70.4578 212.66 70.3915 212.621 70.3265 212.638C69.5833 212.843 68.9197 213.269 68.4238 213.859C68.3273 213.974 68.492 214.141 68.5908 214.024V214.033Z" fill="#FFD8C5"/>
<path d="M81.1285 198.524C80.8933 198.994 75.5308 208.816 74.0561 211.514C73.9592 211.692 73.9394 211.902 74.0011 212.094C74.0629 212.287 74.2009 212.446 74.383 212.535L91.1974 220.644C91.4211 220.752 91.6814 220.754 91.9068 220.65C92.1322 220.546 92.2991 220.346 92.3617 220.106C92.8133 218.408 93.1919 214.804 89.2829 212.521C84.0262 209.449 92.27 201.175 92.27 201.175" fill="#2E60B8"/>
<path d="M89.2832 212.521L76.7988 206.497C78.7722 202.882 80.983 198.825 81.1289 198.524L92.2703 201.175C92.2703 201.175 84.0265 209.449 89.2832 212.521Z" fill="#124A9B"/>
<path d="M87.1239 212.253C87.6841 211.899 88.3458 211.741 89.0055 211.803C89.156 211.817 89.156 211.582 89.0055 211.568C88.3031 211.499 87.5975 211.664 86.9992 212.039C86.8698 212.119 86.9992 212.321 87.1168 212.241L87.1239 212.253Z" fill="#FFD8C5"/>
<path d="M88.5798 213.475C88.97 213.152 89.4437 212.946 89.9463 212.88C90.0945 212.859 90.031 212.645 89.8828 212.645C89.3417 212.72 88.8328 212.947 88.4151 213.299C88.2975 213.395 88.4645 213.562 88.5798 213.466V213.475Z" fill="#FFD8C5"/>
<path d="M89.9535 214.685C90.4208 214.349 90.9525 214.113 91.5153 213.993C91.6634 213.962 91.6023 213.734 91.4541 213.758C90.8714 213.878 90.3202 214.118 89.8359 214.463C89.7136 214.55 89.8359 214.755 89.9535 214.666V214.685Z" fill="#FFD8C5"/>
<path d="M85.8961 210.637C86.5517 210.344 87.2801 210.255 87.987 210.38C88.1352 210.406 88.1987 210.178 88.0505 210.145C87.282 210.009 86.4903 210.107 85.7785 210.427C85.6397 210.486 85.7597 210.691 85.8961 210.63V210.637Z" fill="#FFD8C5"/>
<path fill-rule="evenodd" clip-rule="evenodd" d="M64.71 113.841C64.7106 113.842 64.7114 113.843 72.4757 108.198C80.24 102.552 80.2409 102.553 80.2419 102.554L80.2683 102.591C80.2827 102.611 80.302 102.637 80.326 102.671C80.374 102.737 80.4409 102.831 80.5256 102.95C80.695 103.188 80.9357 103.528 81.2381 103.963C81.8425 104.832 82.6952 106.079 83.7196 107.634C85.7637 110.739 88.5151 115.109 91.3482 120.184C96.8246 129.992 103.343 143.702 104.681 156.254C105.893 167.624 103.178 181.102 100.58 190.93C99.2366 196.012 97.8304 200.455 96.7594 203.631C96.2227 205.222 95.7671 206.505 95.4412 207.401C95.2782 207.849 95.1474 208.201 95.055 208.448C95.0087 208.571 94.972 208.668 94.9456 208.738C94.9324 208.772 94.9218 208.8 94.9139 208.821L94.8992 208.859C94.8986 208.86 94.8981 208.862 85.9409 205.408C76.9837 201.954 76.9833 201.955 76.9829 201.956L76.9842 201.953L77.0004 201.91C77.0164 201.869 77.0425 201.8 77.0779 201.705C77.1489 201.516 77.2572 201.224 77.3971 200.84C77.677 200.07 78.0823 198.93 78.566 197.495C79.5359 194.619 80.8086 190.596 82.0174 186.023C84.5239 176.54 86.4056 165.95 85.589 158.29C84.6895 149.852 79.878 139.025 74.5842 129.544C72.0322 124.973 69.5384 121.01 67.6835 118.193C66.7584 116.788 65.9982 115.677 65.4771 114.928C65.2167 114.554 65.0164 114.27 64.8856 114.087C64.8202 113.995 64.7722 113.928 64.7428 113.887C64.728 113.866 64.718 113.853 64.7127 113.845L64.71 113.841Z" fill="#158C8C"/>
<path fill-rule="evenodd" clip-rule="evenodd" d="M55.4775 106.057C55.4775 106.056 55.4775 106.056 65.0766 105.926C74.6758 105.795 74.6758 105.795 74.6758 105.796L74.6785 105.999C74.6802 106.133 74.6828 106.331 74.686 106.59C74.6925 107.109 74.7017 107.873 74.7127 108.856C74.7348 110.823 74.7643 113.671 74.7936 117.198C74.8522 124.252 74.9105 134.029 74.9092 144.926C74.9066 166.65 74.6675 193.059 73.701 211.153L54.5283 210.129C55.4646 192.6 55.7065 166.651 55.7092 144.924C55.7105 134.094 55.6525 124.372 55.5942 117.358C55.5651 113.851 55.5359 111.022 55.5139 109.072C55.503 108.097 55.4939 107.341 55.4875 106.83C55.4843 106.575 55.4818 106.38 55.4801 106.25L55.4775 106.057Z" fill="#1CA591"/>
<ellipse cx="68.165" cy="107.737" rx="13.1171" ry="14.0179" fill="#1CA591"/>
<path d="M81.8156 104.881L55.9436 127.385C55.9436 127.385 54.3231 115.103 54.476 108.804C54.5936 104.075 58.1922 101.424 58.1922 101.424" fill="#158C8C"/>
<ellipse cx="48.6288" cy="139.032" rx="12.7714" ry="12.7713" fill="#4F8AE0"/>
<ellipse cx="48.6295" cy="137.043" rx="4.90391" ry="4.90391" fill="#A4CCF4"/>
<ellipse cx="48.6287" cy="146.516" rx="10.3464" ry="5.28493" fill="#A4CCF4"/>
<path fill-rule="evenodd" clip-rule="evenodd" d="M48.6288 127.221C42.1056 127.221 36.8175 132.509 36.8175 139.032C36.8175 145.556 42.1056 150.844 48.6288 150.844C55.1521 150.844 60.4402 145.556 60.4402 139.032C60.4402 132.509 55.1521 127.221 48.6288 127.221ZM34.8975 139.032C34.8975 131.449 41.0452 125.301 48.6288 125.301C56.2125 125.301 62.3602 131.449 62.3602 139.032C62.3602 146.616 56.2125 152.764 48.6288 152.764C41.0452 152.764 34.8975 146.616 34.8975 139.032Z" fill="#2E60B8"/>
<ellipse cx="143.426" cy="90.4071" rx="9.88543" ry="9.88546" fill="#A4CCF4"/>
<path d="M147.496 88.8924C147.496 90.989 145.796 92.6885 143.699 92.6885C141.603 92.6885 139.903 90.989 139.903 88.8924C139.903 86.7959 141.603 85.0963 143.699 85.0963C145.796 85.0963 147.496 86.7959 147.496 88.8924Z" fill="white"/>
<path d="M143.128 92.0856C147.481 92.8689 150.686 95.3071 150.286 97.5316C149.885 99.7561 146.032 100.924 141.679 100.141C137.326 99.358 134.121 96.9197 134.522 94.6952C134.922 92.4707 138.775 91.3024 143.128 92.0856Z" fill="white"/>
<path fill-rule="evenodd" clip-rule="evenodd" d="M143.426 81.4816C138.497 81.4816 134.501 85.4777 134.501 90.4071C134.501 95.3365 138.497 99.3325 143.426 99.3325C148.356 99.3325 152.352 95.3365 152.352 90.4071C152.352 85.4777 148.356 81.4816 143.426 81.4816ZM132.581 90.4071C132.581 84.4173 137.437 79.5616 143.426 79.5616C149.416 79.5616 154.272 84.4173 154.272 90.4071C154.272 96.3968 149.416 101.253 143.426 101.253C137.437 101.253 132.581 96.3968 132.581 90.4071Z" fill="#2E60B8"/>
<circle cx="161.229" cy="59.5018" r="10.9439" fill="#A4CCF4"/>
<ellipse cx="160.961" cy="57.8178" rx="4.20299" ry="4.20303" fill="#2E60B8"/>
<ellipse cx="162.235" cy="65.8502" rx="8.86706" ry="4.52995" transform="rotate(-9.04001 162.235 65.8502)" fill="#2E60B8"/>
<path fill-rule="evenodd" clip-rule="evenodd" d="M161.229 49.5179C155.715 49.5179 151.245 53.9878 151.245 59.5018C151.245 65.0157 155.715 69.4856 161.229 69.4856C166.743 69.4856 171.213 65.0157 171.213 59.5018C171.213 53.9878 166.743 49.5179 161.229 49.5179ZM149.325 59.5018C149.325 52.9274 154.655 47.5979 161.229 47.5979C167.803 47.5979 173.133 52.9274 173.133 59.5018C173.133 66.0761 167.803 71.4056 161.229 71.4056C154.655 71.4056 149.325 66.0761 149.325 59.5018Z" fill="#2E60B8"/>
<path fill-rule="evenodd" clip-rule="evenodd" d="M62.7833 80.13C62.5277 77.526 62.3373 74.9149 62.2119 72.2969L69.8831 71.9296C70.0024 74.42 70.1836 76.9034 70.4266 79.3798L62.7833 80.13Z" fill="#3EB7B2"/>
<path d="M67.9769 74.6063C66.7256 75.9328 64.0961 76.8313 62.5673 76.8031L62.1416 72.1743C62.1416 72.1743 68.5084 74.0442 67.9769 74.6063Z" fill="#3A3144"/>
<path d="M66.262 59.5018C69.386 59.5018 71.9186 62.0344 71.9186 65.1584V69.9753C71.9186 72.8642 69.5766 75.2062 66.6877 75.2062C65.0746 75.2062 63.5276 74.5654 62.3869 73.4247C61.2463 72.2841 60.6055 70.737 60.6055 69.1239V65.1608C60.6048 63.6601 61.2005 62.2208 62.2614 61.1594C63.3223 60.0981 64.7614 59.5018 66.262 59.5018V59.5018Z" fill="#3EB7B2"/>
<path d="M70.3739 59.3866C66.98 58.3282 65.0725 59.2055 65.0725 59.2055C62.9557 58.5422 59.7452 60.6872 59.2466 61.9902C59.1468 62.2294 59.0895 62.4841 59.0773 62.7429C59.082 62.9608 59.0494 63.178 58.9808 63.385C58.8349 63.7811 58.7984 64.2093 58.875 64.6245C59.2207 66.8471 60.6013 66.7577 60.6013 66.7577L60.3497 66.7907L61.5445 66.6378L61.9537 64.6456C63.4496 64.2623 64.5409 62.1925 64.5409 62.1925C65.684 64.4928 71.5593 64.6456 71.5593 64.6456L71.6228 66.7907L71.9168 66.0216C71.9168 66.0216 72.1026 65.4077 72.4578 65.7181C72.8129 66.0286 73.2316 65.3348 73.1634 64.7609C73.1492 64.648 73.1375 64.5727 73.1304 64.5257C74.5769 64.067 74.9603 60.8142 70.3739 59.3866Z" fill="#3A3144"/>
<path d="M67.4734 69.4037C67.5294 69.3179 67.625 69.2662 67.7274 69.2662C67.8299 69.2662 67.9254 69.3179 67.9814 69.4037C68.1531 69.6389 68.5624 69.4037 68.386 69.1685C68.242 68.9435 67.9933 68.8074 67.7262 68.8074C67.4591 68.8074 67.2104 68.9435 67.0665 69.1685C66.8901 69.4155 67.3017 69.6507 67.4734 69.4037Z" fill="#3A3144"/>
<path d="M65.8011 70.662C66.2152 70.9473 66.7098 71.0924 67.2123 71.076C67.5157 71.0642 67.5157 70.5938 67.2123 70.6056C66.7927 70.6216 66.3795 70.4993 66.0363 70.2575C65.7846 70.0858 65.5494 70.4927 65.8011 70.662Z" fill="#3A3144"/>
<ellipse rx="0.409247" ry="0.437481" transform="matrix(0.99878 -0.0493738 0.0493717 0.99878 64.8796 67.8739)" fill="#3A3144"/>
<ellipse rx="0.409255" ry="0.43747" transform="matrix(0.99878 -0.0493717 0.0493738 0.99878 69.8513 67.7602)" fill="#3A3144"/>
<path d="M64.6059 66.4567C64.8114 66.4125 65.0217 66.3951 65.2316 66.4049C65.5326 66.4167 65.5326 65.9463 65.2316 65.9345C64.9796 65.9242 64.7273 65.9471 64.4813 66.0027C64.1873 66.0686 64.3119 66.5225 64.6059 66.4567Z" fill="#3A3144"/>
<path d="M69.3319 66.2732C69.5323 66.2481 69.7353 66.2536 69.934 66.2897C69.9942 66.3062 70.0585 66.2982 70.1128 66.2673C70.167 66.2364 70.2068 66.1852 70.2233 66.125C70.2399 66.0648 70.2318 66.0005 70.2009 65.9462C70.1701 65.892 70.1189 65.8522 70.0586 65.8357C69.8194 65.7884 69.5744 65.7773 69.3319 65.8028C69.202 65.8028 69.0967 65.9081 69.0967 66.038C69.0967 66.1679 69.202 66.2732 69.3319 66.2732Z" fill="#3A3144"/>
<path d="M59.8419 104.727C58.8255 109.311 57.5774 113.841 56.1022 118.298C56.0058 118.588 56.4597 118.71 56.5538 118.423C58.0308 113.966 59.2798 109.436 60.2958 104.852C60.3617 104.556 59.9078 104.431 59.8419 104.727Z" fill="#3A3144"/>
<path d="M61.3595 66.4157C61.3595 66.4157 61.0278 65.2844 60.0564 65.5925C59.0851 65.9006 58.697 68.0785 60.842 68.5489C60.842 68.5489 60.4351 72.3992 57.1823 76.6398C54.628 79.9703 52.5677 85.067 52.5677 85.067C52.5677 85.067 47.6896 83.3665 45.0272 80.6335C44.6829 80.2806 44.6442 79.7306 44.9354 79.3329L45.9256 77.9687L43.3196 78.7778C42.716 77.5287 42.1982 76.2399 41.7696 74.9205C41.5768 74.2529 41.8794 73.5417 42.4941 73.2177C44.9331 71.9217 51.2976 68.389 53.1039 65.9265C55.3501 62.8689 56.2697 60.0018 59.9059 60.1758C59.9059 60.1758 64.6217 58.8517 66.8443 63.4686C66.8443 63.4686 64.3418 64.4894 62.7965 63.2123C62.7965 63.2217 63.1117 65.3032 61.3595 66.4157Z" fill="#3A3144"/>
<path d="M41.6351 91.2928C42.2742 90.7108 42.9857 90.2135 43.7519 89.8134C44.02 89.6746 43.7825 89.2677 43.5167 89.4088C42.7176 89.8294 41.9754 90.3502 41.3082 90.9588C41.073 91.1634 41.4187 91.495 41.6422 91.2928H41.6351Z" fill="#3A3144"/>
<path d="M71.4749 87.5602C72.0134 88.8946 72.1643 90.3539 71.91 91.7702C71.6442 93.1814 70.948 94.4562 70.2636 95.7028C70.1178 95.9686 70.5223 96.2061 70.6705 95.938C71.4114 94.5974 72.1617 93.2214 72.4063 91.6903C72.6346 90.254 72.4721 88.7827 71.9359 87.4308C71.8277 87.1533 71.3714 87.2756 71.4819 87.5578L71.4749 87.5602Z" fill="#3A3144"/>
<path d="M72.9301 66.4472C73.1535 67.6914 72.2785 69.6412 70.8485 69.6412L70.4604 66.1579C70.4346 65.9227 71.4695 65.4664 71.6364 65.4523C72.4126 65.3559 72.8148 65.8075 72.9301 66.4472Z" fill="#3EB7B2"/>
<path d="M59.1382 66.4096C58.9148 67.6562 59.7897 69.606 61.2197 69.606C61.2197 69.606 61.8265 66.5366 61.6055 66.1227C61.295 65.5394 60.5964 65.4288 60.4295 65.4171C59.6556 65.3183 59.2511 65.7722 59.1382 66.4096Z" fill="#3EB7B2"/>
<path d="M53.1 77.3911L77.8571 77.6898C79.8869 77.7156 81.5814 79.2458 81.8132 81.2625L84.2099 102.165C84.0704 103.713 82.7912 104.91 81.237 104.947L56.9196 105.923C55.362 106.008 53.9862 104.917 53.7138 103.381L50.1459 80.8297C49.8777 79.0751 51.2489 77.4664 53.1 77.3911V77.3911Z" fill="#FFA97F"/>
<path fill-rule="evenodd" clip-rule="evenodd" d="M101.116 65.0208C101.637 64.9184 102.141 65.2571 102.244 65.7773C102.277 65.9446 102.276 66.123 102.274 66.2277C102.273 66.3199 102.269 66.4305 102.265 66.5424C102.264 66.5799 102.263 66.6176 102.262 66.6548C102.252 66.9661 102.244 67.3515 102.269 67.8076C102.32 68.7161 102.505 69.919 103.089 71.3023C103.296 71.7908 103.067 72.3539 102.578 72.5602C102.09 72.7664 101.527 72.5376 101.321 72.0491C100.635 70.4243 100.413 68.9976 100.352 67.9152C100.322 67.3758 100.332 66.9254 100.343 66.593C100.344 66.5432 100.346 66.498 100.347 66.4566C100.351 66.3533 100.353 66.273 100.354 66.2027C100.355 66.1499 100.354 66.1227 100.354 66.1137C100.273 65.6059 100.608 65.121 101.116 65.0208Z" fill="#3EB7B2"/>
<path d="M109.417 75.5236L100.644 73.1199C100.644 73.1199 102.951 63.9471 107.935 65.6287C112.919 67.3104 109.417 75.5236 109.417 75.5236Z" fill="#3EB7B2"/>
<path fill-rule="evenodd" clip-rule="evenodd" d="M109.896 63.0364C109.946 63.4298 109.668 63.789 109.275 63.8402C109.275 63.8402 109.275 63.8402 109.275 63.8402L109.275 63.8402L109.274 63.8403L109.273 63.8405L109.272 63.8406C109.272 63.8406 109.272 63.8407 109.182 63.1263L109.272 63.8407C109.273 63.8405 109.274 63.8404 109.275 63.8402" fill="#3EB7B2"/>
<path fill-rule="evenodd" clip-rule="evenodd" d="M111.914 64.8825C111.924 65.28 111.609 65.61 111.212 65.6195C110.39 65.6392 109.434 65.9961 108.632 66.3976C108.241 66.5933 107.907 66.7891 107.671 66.9377C107.553 67.012 107.461 67.073 107.402 67.1147C107.38 67.1294 107.365 67.1406 107.354 67.1482C107.123 67.3542 106.775 67.3934 106.497 67.2218C106.159 67.0125 106.055 66.5687 106.264 66.2306C106.316 66.1469 106.376 66.0912 106.38 66.0871C106.381 66.087 106.381 66.0869 106.381 66.0869C106.398 66.0702 106.413 66.0571 106.422 66.0497C106.441 66.0341 106.459 66.0199 106.473 66.0092C106.503 65.9868 106.539 65.9608 106.578 65.9331C106.659 65.8769 106.77 65.8034 106.904 65.7188C107.173 65.5495 107.548 65.3297 107.987 65.1099C108.845 64.6806 110.033 64.2073 111.177 64.1799C111.575 64.1704 111.905 64.4849 111.914 64.8825Z" fill="#3EB7B2"/>
<path fill-rule="evenodd" clip-rule="evenodd" d="M109.487 68.7047C109.482 68.7095 109.481 68.7108 109.483 68.7079C109.218 69.0042 108.763 69.0295 108.466 68.7644C108.17 68.4992 108.145 68.0441 108.41 67.7477C108.473 67.6768 108.892 67.2503 109.573 66.8716C110.259 66.4897 111.256 66.1326 112.441 66.2911C112.835 66.3439 113.112 66.7061 113.059 67.1003C113.006 67.4944 112.644 67.7711 112.25 67.7184C111.466 67.6135 110.784 67.8456 110.273 68.1299C109.813 68.386 109.527 68.6654 109.487 68.7047Z" fill="#3EB7B2"/>
<path fill-rule="evenodd" clip-rule="evenodd" d="M113.422 69.1843C113.432 69.5818 113.117 69.9118 112.719 69.9212C111.939 69.9399 111.316 70.275 110.868 70.6354C110.483 70.9455 110.26 71.2492 110.215 71.3102C110.206 71.3214 110.204 71.3244 110.208 71.3176C110.006 71.66 109.564 71.7735 109.222 71.5712C108.88 71.3689 108.766 70.9274 108.968 70.5851C109.025 70.4898 109.365 69.9967 109.965 69.5138C110.574 69.024 111.493 68.5101 112.685 68.4817C113.083 68.4722 113.413 68.7868 113.422 69.1843Z" fill="#3EB7B2"/>
<ellipse cx="116.86" cy="60.8401" rx="10.838" ry="10.838" fill="#2E60B8"/>
<circle cx="117.444" cy="59.2548" r="4.16069" fill="#4F8AE0"/>
<ellipse cx="115.303" cy="66.9475" rx="4.49892" ry="8.80911" transform="rotate(-69.5777 115.303 66.9475)" fill="#4F8AE0"/>
<path fill-rule="evenodd" clip-rule="evenodd" d="M116.861 50.9621C111.405 50.9621 106.982 55.3847 106.982 60.8401C106.982 66.2956 111.405 70.7182 116.861 70.7182C122.316 70.7182 126.739 66.2956 126.739 60.8401C126.739 55.3847 122.316 50.9621 116.861 50.9621ZM105.062 60.8401C105.062 54.3243 110.345 49.0421 116.861 49.0421C123.376 49.0421 128.659 54.3243 128.659 60.8401C128.659 67.356 123.376 72.6382 116.861 72.6382C110.345 72.6382 105.062 67.356 105.062 60.8401Z" fill="#2E60B8"/>
<ellipse cx="184.849" cy="89.7345" rx="9.08575" ry="9.08577" fill="#2E60B8"/>
<ellipse cx="184.48" cy="88.3656" rx="3.48803" ry="3.48802" fill="#4F8AE0"/>
<ellipse rx="7.36177" ry="3.76084" transform="matrix(0.965473 -0.260504 0.260505 0.965472 186.24 94.8663)" fill="#4F8AE0"/>
<path fill-rule="evenodd" clip-rule="evenodd" d="M184.849 81.6086C180.362 81.6086 176.724 85.2466 176.724 89.7344C176.724 94.2221 180.362 97.8602 184.849 97.8602C189.337 97.8602 192.975 94.2221 192.975 89.7344C192.975 85.2466 189.337 81.6086 184.849 81.6086ZM174.804 89.7344C174.804 84.1862 179.301 79.6886 184.849 79.6886C190.398 79.6886 194.895 84.1862 194.895 89.7344C194.895 95.2825 190.398 99.7802 184.849 99.7802C179.301 99.7802 174.804 95.2825 174.804 89.7344Z" fill="#2E60B8"/>
<path fill-rule="evenodd" clip-rule="evenodd" d="M46.4539 120.374C46.6786 119.894 47.25 119.687 47.7303 119.911C49.3275 120.658 50.4474 121.57 51.2172 122.334C51.6007 122.715 51.8949 123.056 52.1093 123.31C52.141 123.347 52.1697 123.381 52.196 123.413C52.2631 123.492 52.315 123.554 52.3615 123.607C52.3954 123.646 52.4141 123.665 52.4206 123.672C52.8208 123.994 52.8975 124.578 52.588 124.993C52.2711 125.418 51.6697 125.506 51.2445 125.189C51.1071 125.087 50.9879 124.953 50.9191 124.874C50.8579 124.805 50.7862 124.72 50.7138 124.633C50.69 124.605 50.6661 124.577 50.6424 124.549C50.4414 124.311 50.1893 124.019 49.8649 123.697C49.2188 123.056 48.276 122.286 46.9167 121.65C46.4365 121.426 46.2293 120.854 46.4539 120.374Z" fill="#3EB7B2"/>
<path d="M39.3955 122.745L47.5217 118.659C47.5217 118.659 51.9434 127.014 47.1124 129.112C42.2814 131.21 39.3955 122.745 39.3955 122.745H39.3955Z" fill="#3EB7B2"/>
<path fill-rule="evenodd" clip-rule="evenodd" d="M48.4049 122.292C48.7783 122.155 49.1918 122.347 49.3285 122.721C50.4029 125.654 50.2038 128.022 49.7114 129.674C49.4666 130.496 49.1517 131.133 48.8937 131.569C48.7646 131.788 48.6495 131.957 48.5638 132.075C48.521 132.133 48.4855 132.179 48.4593 132.212C48.4462 132.229 48.4353 132.242 48.4271 132.252C48.423 132.257 48.4195 132.261 48.4167 132.265L48.4129 132.269L48.4114 132.271L48.4108 132.271C48.4105 132.272 48.4102 132.272 47.8645 131.802L48.4102 132.272C48.1508 132.573 47.6962 132.607 47.3948 132.348C47.0943 132.089 47.0596 131.636 47.3168 131.335C47.317 131.335 47.3175 131.334 47.3181 131.334C47.3204 131.331 47.3252 131.325 47.3322 131.316C47.3463 131.298 47.3695 131.268 47.3999 131.227C47.4606 131.143 47.5501 131.013 47.6538 130.837C47.8614 130.486 48.1249 129.956 48.3314 129.263C48.7416 127.887 48.9365 125.838 47.9764 123.216C47.8396 122.842 48.0315 122.429 48.4049 122.292ZM47.3165 131.335L47.3165 131.335L47.3165 131.335Z" fill="#3EB7B2"/>
<path fill-rule="evenodd" clip-rule="evenodd" d="M47.0997 126.967C47.489 126.886 47.8703 127.136 47.9514 127.525C47.9729 127.628 47.9657 127.716 47.9653 127.721C47.9653 127.721 47.9653 127.721 47.9653 127.721C47.9637 127.747 47.9611 127.768 47.9596 127.779C47.9563 127.804 47.9522 127.828 47.9489 127.845C47.942 127.882 47.9327 127.926 47.9218 127.973C47.8997 128.069 47.8671 128.198 47.8241 128.351C47.738 128.657 47.607 129.071 47.4282 129.528C47.0788 130.421 46.5132 131.568 45.6782 132.357C45.3891 132.63 44.9334 132.616 44.6604 132.327C44.3874 132.038 44.4004 131.583 44.6896 131.31C45.2893 130.743 45.7609 129.838 46.0871 129.004C46.2461 128.597 46.3625 128.228 46.4379 127.961C46.4756 127.827 46.5023 127.721 46.5185 127.65C46.524 127.626 46.5279 127.608 46.5304 127.596C46.5626 127.293 46.7858 127.033 47.0997 126.967Z" fill="#3EB7B2"/>
<path fill-rule="evenodd" clip-rule="evenodd" d="M44.6333 127.126C45.0309 127.126 45.3533 127.449 45.3533 127.846C45.3533 127.938 45.328 128.535 45.0759 129.273C44.8218 130.016 44.3205 130.95 43.3351 131.625C43.0071 131.85 42.559 131.766 42.3342 131.438C42.1094 131.11 42.193 130.662 42.521 130.437C43.1726 129.99 43.5239 129.361 43.7132 128.807C43.8848 128.305 43.9095 127.904 43.9128 127.85C43.9132 127.844 43.9133 127.843 43.9133 127.846C43.9133 127.449 44.2356 127.126 44.6333 127.126Z" fill="#3EB7B2"/>
<path fill-rule="evenodd" clip-rule="evenodd" d="M42.326 125.541C42.7236 125.541 43.046 125.863 43.046 126.261C43.046 126.187 43.3862 128.55 41.6781 130.168C41.3894 130.442 40.9337 130.429 40.6602 130.141C40.3867 129.852 40.399 129.396 40.6877 129.123C41.7351 128.131 41.6385 126.746 41.611 126.351C41.6081 126.31 41.606 126.279 41.606 126.261C41.606 125.863 41.9283 125.541 42.326 125.541Z" fill="#3EB7B2"/>
<path fill-rule="evenodd" clip-rule="evenodd" d="M108.684 82.4987C106.989 87.1256 104.26 93.4518 100.458 97.7117L100.458 97.712C96.6858 101.938 91.5599 101.102 88.6191 100.011C85.5779 98.8819 82.6368 96.8013 80.3185 94.9199C77.906 92.962 75.7199 90.8467 74.1632 89.2551C73.3771 88.4514 72.734 87.7633 72.2826 87.2706C72.0565 87.0239 71.8776 86.8252 71.7519 86.6844C71.6891 86.614 71.6395 86.558 71.6038 86.5176C71.586 86.4974 71.5717 86.4811 71.5609 86.4689L71.5475 86.4536L71.541 86.4461C71.5403 86.4452 71.5396 86.4444 76.0605 82.4997C80.5815 78.555 80.5809 78.5543 80.5804 78.5537L80.6024 78.5788C80.6231 78.6022 80.6572 78.6407 80.704 78.6931C80.7975 78.7979 80.9415 78.958 81.1301 79.1637C81.5078 79.576 82.0607 80.1678 82.7419 80.8643C84.1196 82.2729 85.953 84.0382 87.8802 85.6021C89.6868 87.0683 91.2519 88.0886 92.4025 88.6001C94.2519 86.0547 96.0055 82.2218 97.4169 78.37C98.1938 76.2497 98.7997 74.3155 99.2106 72.9124C99.4154 72.2132 99.57 71.652 99.6716 71.2727C99.7223 71.0833 99.7597 70.9397 99.7835 70.8475C99.7953 70.8014 99.8037 70.7683 99.8087 70.7487L99.8134 70.73C99.8132 70.7306 99.813 70.7314 105.637 72.1744C111.461 73.6175 111.461 73.6183 111.46 73.6192L111.455 73.6409L111.444 73.6858C111.434 73.7228 111.421 73.7738 111.405 73.8381C111.372 73.9666 111.324 74.1485 111.263 74.3781C111.14 74.8369 110.96 75.4878 110.727 76.2851C110.261 77.8748 109.574 80.0705 108.684 82.4987ZM93.2968 88.919C93.3045 88.9202 93.3086 88.921 93.3087 88.9211C93.3088 88.9212 93.3049 88.9207 93.2968 88.919Z" fill="#FFA97F"/>
<path fill-rule="evenodd" clip-rule="evenodd" d="M49.4348 78.7115C51.6336 77.5133 55.2706 76.3216 58.906 78.2336L53.3202 88.8543C54.3679 89.4053 55.1599 89.2227 55.3556 89.1586C55.3188 89.1749 55.2598 89.2033 55.1765 89.2487C54.6171 89.5535 53.6036 90.3416 52.3454 91.8417C49.8699 94.7933 47.3383 99.4361 46.0203 104.692C46.0202 104.693 46.0201 104.693 46.02 104.694C45.9055 105.153 45.8478 106.231 46.16 108.043C46.4544 109.751 46.9942 111.651 47.6312 113.503C48.2613 115.334 48.9449 116.999 49.4743 118.21C49.7374 118.812 49.9585 119.293 50.1104 119.616C50.1862 119.778 50.2444 119.899 50.2817 119.977C50.3003 120.015 50.3137 120.042 50.3213 120.058L50.3273 120.07C50.327 120.07 50.3266 120.069 44.9505 122.733C39.5744 125.397 39.5739 125.396 39.5735 125.395L39.57 125.388L39.5633 125.375L39.5431 125.333C39.5266 125.3 39.5042 125.254 39.4764 125.196C39.4207 125.081 39.3432 124.919 39.2473 124.715C39.0557 124.306 38.7898 123.727 38.4789 123.016C37.8603 121.601 37.0474 119.626 36.2839 117.407C35.5273 115.207 34.7765 112.646 34.3344 110.081C33.9104 107.621 33.6701 104.616 34.3786 101.782L34.3795 101.779C36.1264 94.8084 39.4747 88.5139 43.1511 84.1304C44.9692 81.9627 47.0999 79.9837 49.4348 78.7115ZM55.4024 89.1406C55.4019 89.1416 55.3859 89.1487 55.3556 89.1586C55.3876 89.1445 55.4028 89.1395 55.4024 89.1406Z" fill="#FFA97F"/>
<path d="M81.4443 85.0798C81.816 89.0311 82.3381 92.9629 83.0108 96.8751C83.0366 97.0232 83.2624 96.9597 83.246 96.8115C82.578 92.9229 82.059 89.0123 81.6889 85.0798C81.6748 84.9316 81.4396 84.9293 81.4537 85.0798H81.4443Z" fill="#3EB7B2"/>
<path d="M53.9329 88.1327C53.0704 89.1397 52.2768 90.2036 51.5574 91.3173C51.4751 91.4467 51.6774 91.5643 51.7597 91.4373C52.4666 90.34 53.2468 89.2917 54.0952 88.2997C54.194 88.1844 54.027 88.0175 53.9282 88.1327H53.9329Z" fill="#3EB7B2"/>
<path d="M105.339 70.5515C104.981 69.9325 104.511 69.3853 103.953 68.938C103.718 68.7498 103.384 69.0815 103.622 69.2696C104.149 69.6897 104.593 70.2041 104.932 70.7867C104.999 70.893 105.139 70.9272 105.248 70.8641C105.357 70.801 105.397 70.6632 105.339 70.5515Z" fill="#3A3144"/>
<path d="M63.1294 108.031C61.5898 109.837 59.8364 111.45 57.908 112.833C57.6728 113.007 57.908 113.414 58.1432 113.238C60.1065 111.835 61.8915 110.197 63.4587 108.362C63.6563 108.127 63.3246 107.8 63.1271 108.031H63.1294Z" fill="#3A3144"/>
<path d="M72.4618 77.6262L59.2295 77.4663C60.8359 79.3103 64.0464 80.4863 66.9676 80.4863C69.7994 80.4863 71.6128 79.3761 72.4618 77.6262Z" fill="#3EB7B2"/>
<path d="M197.95 95.1769H115.969C115.375 95.1763 114.806 95.4187 114.395 95.8477C113.984 96.2767 113.765 96.8552 113.791 97.4489C114.003 102.199 114.906 106.893 116.472 111.382C119.508 120.048 125.482 127.376 133.357 132.096C138.695 135.293 142.621 140.396 144.344 146.375L148.739 161.769H165.203L169.595 146.342C171.288 140.396 175.177 135.316 180.475 132.129C188.589 127.279 194.695 119.68 197.685 110.712C199.108 106.423 199.931 101.958 200.131 97.4442C200.154 96.851 199.935 96.2738 199.524 95.8459C199.112 95.418 198.544 95.1764 197.95 95.1769Z" fill="#F99192"/>
<rect x="109.776" y="93.0037" width="94.3669" height="7.11007" rx="3.55503" fill="#F97171"/>
<rect x="144.544" y="158.213" width="24.8348" height="7.11009" rx="3.55505" fill="#F97171"/>
<path d="M117.282 77.7886C120.803 76.7181 124.609 77.1371 127.814 78.9481C127.925 79.0065 128.063 78.9665 128.126 78.8574C128.19 78.7483 128.155 78.6088 128.049 78.5412C124.735 76.668 120.798 76.2321 117.155 77.3346C117.029 77.3691 116.955 77.4986 116.99 77.6239C117.024 77.7493 117.154 77.823 117.279 77.7886H117.282Z" fill="#3A3144"/>
<path d="M130.385 80.8179C130.515 80.8179 130.62 80.7126 130.62 80.5827C130.62 80.4528 130.515 80.3475 130.385 80.3475C130.255 80.3475 130.149 80.4528 130.149 80.5827C130.149 80.7126 130.255 80.8179 130.385 80.8179Z" fill="#3A3144"/>
<path d="M132.429 82.7607C132.558 82.7607 132.664 82.6554 132.664 82.5255C132.664 82.3956 132.558 82.2903 132.429 82.2903C132.299 82.2903 132.193 82.3956 132.193 82.5255C132.193 82.6554 132.299 82.7607 132.429 82.7607Z" fill="#3A3144"/>
<path d="M126.233 74.2511C128.747 74.5842 131.023 75.9077 132.555 77.9273C132.734 78.1625 133.143 77.9273 132.962 77.6921C131.367 75.5633 128.986 74.1609 126.351 73.7972C126.054 73.7572 125.927 74.2088 126.226 74.2511H126.233Z" fill="#3A3144"/>
<path d="M134.728 80.2064C134.858 80.2064 134.964 80.1011 134.964 79.9712C134.964 79.8413 134.858 79.736 134.728 79.736C134.598 79.736 134.493 79.8413 134.493 79.9712C134.493 80.1011 134.598 80.2064 134.728 80.2064Z" fill="#3A3144"/>
<path d="M131.29 46.5117C135.866 46.6107 140.291 48.1726 143.915 50.9687C144.151 51.1521 144.487 50.8205 144.247 50.6371C140.532 47.7568 135.99 46.1458 131.29 46.0413C131.16 46.0413 131.055 46.1466 131.055 46.2765C131.055 46.4064 131.16 46.5117 131.29 46.5117Z" fill="#3A3144"/>
<path d="M147.14 53.6923C147.27 53.6923 147.376 53.587 147.376 53.4571C147.376 53.3272 147.27 53.2219 147.14 53.2219C147.011 53.2219 146.905 53.3272 146.905 53.4571C146.905 53.587 147.011 53.6923 147.14 53.6923Z" fill="#3A3144"/>
<path d="M138.177 41.7394C138.306 41.7394 138.412 41.6341 138.412 41.5042C138.412 41.3743 138.306 41.269 138.177 41.269C138.047 41.269 137.941 41.3743 137.941 41.5042C137.941 41.6341 138.047 41.7394 138.177 41.7394Z" fill="#3A3144"/>
<path d="M142.926 43.3858C144.873 44.1128 146.597 45.3344 147.928 46.9303C148.124 47.1655 148.455 46.8292 148.26 46.5987C146.872 44.9437 145.076 43.6798 143.05 42.9319C142.766 42.8261 142.643 43.28 142.926 43.3858Z" fill="#3A3144"/>
<path d="M152.491 43.9691L154.33 45.8084C154.39 45.8681 154.476 45.8916 154.558 45.8701C154.639 45.8486 154.702 45.7854 154.725 45.7043C154.747 45.6232 154.724 45.5364 154.664 45.4768L152.825 43.6375C152.766 43.5779 152.679 43.5543 152.598 43.5758C152.517 43.5973 152.453 43.6605 152.431 43.7416C152.409 43.8228 152.432 43.9095 152.491 43.9691Z" fill="#3A3144"/>
<path d="M160.586 78.6282C162.473 80.3906 163.998 82.5047 165.074 84.8516C165.201 85.1244 165.608 84.8869 165.481 84.6164C164.388 82.2334 162.84 80.0867 160.925 78.2965C160.704 78.0896 160.37 78.4212 160.593 78.6282H160.586Z" fill="#3A3144"/>
<path d="M169.006 77.2546L170.156 78.8634C170.33 79.0986 170.737 78.8634 170.561 78.6282L169.413 77.0194C169.237 76.7842 168.83 77.0194 169.006 77.2546Z" fill="#3A3144"/>
<rect x="132.612" y="183.059" width="24.8582" height="2.93761" rx="1.4688" fill="#4F8AE0"/>
<rect x="131.617" y="185.995" width="24.8582" height="2.93764" rx="1.46882" fill="#2E60B8"/>
<rect x="132.612" y="188.932" width="24.8582" height="2.93762" rx="1.46881" fill="#4F8AE0"/>
<rect x="131.617" y="191.87" width="24.8582" height="2.93762" rx="1.46881" fill="#2E60B8"/>
<rect x="132.612" y="194.808" width="24.8582" height="2.93761" rx="1.4688" fill="#4F8AE0"/>
<rect x="131.617" y="197.745" width="24.8582" height="2.93761" rx="1.4688" fill="#2E60B8"/>
<rect x="132.612" y="200.683" width="24.8582" height="2.93761" rx="1.4688" fill="#4F8AE0"/>
<rect x="131.617" y="203.621" width="24.8582" height="2.93762" rx="1.46881" fill="#2E60B8"/>
<rect x="132.612" y="206.558" width="24.8582" height="2.93765" rx="1.46883" fill="#4F8AE0"/>
<rect x="131.617" y="209.494" width="24.8582" height="2.93768" rx="1.46884" fill="#2E60B8"/>
<rect x="132.612" y="212.431" width="24.8582" height="2.93767" rx="1.46883" fill="#4F8AE0"/>
<rect x="131.617" y="215.369" width="24.8582" height="2.93767" rx="1.46883" fill="#2E60B8"/>
<rect x="161.584" y="194.808" width="24.8583" height="2.93761" rx="1.4688" fill="#4F8AE0"/>
<rect x="160.589" y="197.745" width="24.8583" height="2.93761" rx="1.4688" fill="#2E60B8"/>
<rect x="161.584" y="200.683" width="24.8583" height="2.93761" rx="1.4688" fill="#4F8AE0"/>
<rect x="160.589" y="203.621" width="24.8583" height="2.93762" rx="1.46881" fill="#2E60B8"/>
<rect x="161.584" y="206.558" width="24.8583" height="2.93765" rx="1.46883" fill="#4F8AE0"/>
<rect x="160.589" y="209.493" width="24.8583" height="2.93768" rx="1.46884" fill="#2E60B8"/>
<rect x="161.584" y="212.431" width="24.8583" height="2.93767" rx="1.46883" fill="#4F8AE0"/>
<rect x="160.589" y="215.369" width="24.8583" height="2.93767" rx="1.46883" fill="#2E60B8"/>
<path d="M165.305 78.9999L166.672 80.8462C166.85 81.0814 167.26 80.8462 167.079 80.611L165.712 78.7623C165.533 78.5271 165.126 78.7623 165.305 78.9975V78.9999Z" fill="#3A3144"/>
<path d="M225.458 21.51C225.588 21.51 225.693 21.4046 225.693 21.2748C225.693 21.1449 225.588 21.0396 225.458 21.0396C225.328 21.0396 225.223 21.1449 225.223 21.2748C225.223 21.4046 225.328 21.51 225.458 21.51Z" fill="#3A3144"/>
</svg>
