<svg width="240" height="240" viewBox="0 0 240 240" fill="none" xmlns="http://www.w3.org/2000/svg">
<path d="M113.175 184.694C113.175 202.851 98.4562 217.57 80.2991 217.57C62.1421 217.57 47.4229 202.851 47.4229 184.694C47.4229 166.537 62.1421 151.818 80.2991 151.818C98.4562 151.818 113.175 166.537 113.175 184.694Z" fill="#385A7D"/>
<path d="M109.858 183.974L47.4198 193.58C47.4198 193.58 40.9848 211.49 39.1455 226.273H123.817L109.858 183.974Z" fill="#FFA97F"/>
<path d="M51.5737 184.694C44.2473 190.212 40.4629 218.408 40.4629 218.408L112.566 192.409L51.5737 184.694Z" fill="#F99192"/>
<path d="M44.3694 182.841H112.871C114.233 182.84 115.539 183.38 116.502 184.343C117.465 185.306 118.006 186.611 118.006 187.973V195.859C117.999 197.091 116.999 198.086 115.767 198.086H44.3694C43.0083 198.086 41.7029 197.546 40.7405 196.583C39.778 195.621 39.2373 194.315 39.2373 192.954V187.973C39.2373 185.138 41.535 182.841 44.3694 182.841Z" fill="#2E60B8"/>
<path d="M96.9226 87.7776C97.6964 90.6494 95.8477 95.3722 92.2726 95.638L90.7015 87.5612C90.5957 87.0179 93.1029 85.7549 93.5427 85.6796C95.4384 85.3198 96.5251 86.3052 96.9226 87.7776Z" fill="#71D2C1"/>
<path d="M94.6832 91.235C94.6219 90.2683 94.9862 89.3232 95.6805 88.6478C96.1109 88.2197 95.4453 87.5564 95.0149 87.9822C94.146 88.8332 93.6828 90.0155 93.7424 91.2303C93.7706 91.8324 94.7115 91.8371 94.6832 91.2303V91.235Z" fill="#3EB7B2"/>
<path fill-rule="evenodd" clip-rule="evenodd" d="M65.9736 116.904L66.4182 99.2404L90.4106 99.8442L89.966 117.508L65.9736 116.904Z" fill="#71D2C1"/>
<path d="M68.1533 104.681C68.1533 104.681 72.7609 118.22 90.2315 119.214L90.7019 105.323" fill="#3EB7B2"/>
<path d="M77.5938 107.831C77.5938 107.831 83.9442 108.772 87.5662 108.868L91.6023 104.3L86.7148 103.317" fill="#3A3144"/>
<path d="M78.0223 71.6961C85.8323 71.1171 92.633 76.979 93.2121 84.7891L93.9956 95.3582C94.4838 101.996 89.5002 107.773 82.863 108.264L82.5533 108.287C73.7445 108.94 66.0741 102.328 65.421 93.5192L64.9293 86.8859C64.3502 79.0758 70.2122 72.2751 78.0223 71.6961Z" fill="#71D2C1"/>
<path d="M67.0946 90.0661C67.0946 90.0661 73.017 88.1845 73.2098 82.8666C73.2098 82.8666 77.808 85.4985 80.3623 84.2966C82.9165 83.0947 82.4485 82.4597 82.4485 82.4597C82.4485 82.4597 86.7597 84.2119 89.2693 83.5816C91.7789 82.9512 91.8565 81.2837 91.6001 81.1308C91.3437 80.9779 89.2693 77.758 89.2693 77.758L78.7888 76.0175L73.3792 75.6083L69.7453 77.1935L66.7324 82.4573" fill="#3EB7B2"/>
<path d="M61.0098 90.4377C60.6664 93.3918 63.1901 97.7924 66.7651 97.5266L67.1297 89.3087C67.1532 88.756 64.4884 87.874 64.0415 87.8575C62.1128 87.7893 61.1838 88.923 61.0098 90.4377Z" fill="#71D2C1"/>
<path d="M64.293 91.5643C64.1683 91.6231 64.4694 91.7995 64.5446 91.8795C64.677 92.0304 64.7879 92.199 64.8739 92.3805C65.0388 92.7401 65.168 93.1151 65.2597 93.5C65.4172 94.0857 66.3251 93.8364 66.1652 93.2507C66.0268 92.6053 65.7665 91.9922 65.3984 91.4444C65.0362 90.9598 64.4365 90.4636 63.8179 90.7529C63.2699 91.0092 63.7473 91.8207 64.2883 91.5643H64.293Z" fill="#3EB7B2"/>
<path d="M93.2061 84.7928L92.2653 85.6019C92.2653 85.6019 94.4527 94.8359 92.8275 96.3529C91.5268 97.5666 87.5778 94.9582 85.3552 94.4572C83.1325 93.9562 83.6076 96.4141 81.4861 94.9276C78.6355 92.9519 73.6657 98.5262 69.6438 97.0185C67.4588 96.1977 67.1295 87.5423 67.1295 87.5423H65.0127L66.0946 97.2067C66.2075 101.621 67.9104 105.839 71.6383 108.39C74.8347 110.578 78.8542 111.33 82.6692 111.276C85.8397 111.232 88.7632 110.778 91.5362 109.23C94.0082 107.852 95.5628 105.276 96.1344 102.55C96.7718 99.5164 96.2873 96.4352 95.751 93.4388C95.4742 91.9401 95.1154 90.4576 94.6761 88.9982C94.5562 88.5819 93.0932 84.8963 93.2061 84.7928V84.7928Z" fill="#3A3144"/>
<path d="M99.9424 116.169L58.7824 116.239C51.8932 116.25 45.3104 119.088 40.5724 124.089C35.8344 129.091 33.3562 135.817 33.7172 142.697L36.2315 190.678C36.3045 192.08 37.4706 193.176 38.8751 193.161L115.567 192.376H115.844C118.462 192.211 120.402 190.007 120.487 187.481C120.58 185.513 120.774 183.55 121.07 181.601L126.043 145.773C127.003 138.278 124.69 130.732 119.692 125.064C114.695 119.396 107.499 116.155 99.9424 116.169Z" fill="#4F8AE0"/>
<path d="M82.0838 93.8387C82.3378 93.4906 82.7565 93.6035 82.9846 93.9022C83.1684 94.086 83.4664 94.086 83.6502 93.9022C83.834 93.7184 83.834 93.4204 83.6502 93.2365C83.0081 92.4251 81.8486 92.5756 81.2723 93.3636C80.9148 93.8528 81.7427 94.3232 82.0838 93.834V93.8387Z" fill="#3A3144"/>
<path d="M78.8851 98.3145C80.4213 99.2327 82.2045 99.6517 83.9889 99.514C84.8897 99.4434 84.8968 98.0322 83.9889 98.1028C82.4559 98.2355 80.9199 97.8834 79.5977 97.0962C78.8145 96.6258 78.1042 97.8511 78.8921 98.3145H78.8851Z" fill="#B3FFF0"/>
<path d="M76.8439 91.7501C76.8439 92.3164 76.3848 92.7755 75.8184 92.7755C75.2521 92.7755 74.793 92.3164 74.793 91.7501C74.793 91.1837 75.2521 90.7246 75.8184 90.7246C76.3848 90.7246 76.8439 91.1837 76.8439 91.7501Z" fill="#3A3144"/>
<path d="M89.2717 90.8281C89.2717 91.3944 88.8125 91.8536 88.2462 91.8536C87.6798 91.8536 87.2207 91.3944 87.2207 90.8281C87.2207 90.2617 87.6798 89.8026 88.2462 89.8026C88.8125 89.8026 89.2717 90.2617 89.2717 90.8281Z" fill="#3A3144"/>
<path d="M74.6608 88.1844C75.2069 88.0592 75.7659 87.9992 76.3261 88.0057C76.9305 88.0057 76.9329 87.0648 76.3261 87.0648C75.6818 87.061 75.0393 87.132 74.4115 87.2765C73.8212 87.4129 74.0705 88.3208 74.6608 88.1844Z" fill="#3A3144"/>
<path d="M87.072 87.2131C87.606 87.1363 88.148 87.1323 88.6831 87.2013C88.9326 87.2612 89.1857 87.1171 89.2617 86.872C89.2948 86.7516 89.2788 86.623 89.217 86.5145C89.1552 86.4059 89.0528 86.3264 88.9324 86.2934C88.3162 86.2006 87.6901 86.1934 87.072 86.2723C86.8158 86.2808 86.6101 86.4865 86.6016 86.7427C86.6016 87.0025 86.8122 87.2131 87.072 87.2131Z" fill="#3A3144"/>
<path d="M114.48 173.322L114.464 173.115C114.464 172.965 114.229 172.962 114.229 173.115L114.245 173.322C114.245 173.473 114.48 173.473 114.48 173.322Z" fill="#F99192"/>
<path d="M160.167 89.224L161.513 107.252L180.484 108.273C180.484 108.273 193.444 84.1883 182.617 75.6435C175.119 69.7259 167.094 76.5232 162.861 81.2601C160.919 83.4392 159.947 86.3139 160.167 89.224Z" fill="#71D2C1"/>
<path d="M182.702 63.512C182.462 63.8506 182.218 64.187 181.971 64.521L181.622 64.9796C181.43 65.236 181.764 64.8032 181.566 65.0549C181.488 65.156 181.408 65.2571 181.331 65.3559C180.795 66.0333 180.246 66.6966 179.684 67.3457C178.543 68.6409 177.341 69.8796 176.079 71.0619C175.472 71.6279 174.851 72.1806 174.216 72.72C173.901 72.9905 173.581 73.2539 173.256 73.515C173.082 73.6561 172.908 73.7973 172.732 73.936L172.497 74.1124C172.243 74.31 172.675 73.976 172.421 74.1689C171.046 75.2132 169.623 76.19 168.153 77.0995C166.491 78.1216 164.774 79.0505 163.009 79.8819C162.115 80.3029 161.816 81.6529 162.334 82.455C162.926 83.3746 163.952 83.5816 164.907 83.13C171.402 80.0597 177.218 75.7223 182.013 70.3727C183.417 68.7958 184.732 67.1422 185.952 65.4194C186.524 64.6127 186.122 63.2909 185.277 62.8322C184.308 62.3195 183.314 62.6488 182.702 63.5072V63.512Z" fill="#71D2C1"/>
<path d="M190.102 65.831C185.894 70.7258 181.288 75.2642 176.331 79.3997C175.571 80.0324 175.625 81.4153 176.331 82.0598C177.138 82.8007 178.182 82.7348 178.991 82.0598C183.949 77.9262 188.555 73.3877 192.762 68.4911C193.404 67.7455 193.55 66.553 192.762 65.831C192.056 65.1842 190.786 65.0336 190.102 65.831Z" fill="#71D2C1"/>
<path d="M193.503 72.4472C190.398 75.6725 187.17 78.7693 183.817 81.7376C183.079 82.3938 183.1 83.7415 183.817 84.4C184.561 85.1118 185.734 85.1118 186.478 84.4C189.827 81.4318 193.055 78.335 196.163 75.1096C196.848 74.404 196.923 73.1434 196.163 72.4472C195.403 71.751 194.232 71.6898 193.503 72.4472Z" fill="#71D2C1"/>
<path d="M194.234 80.2158C192.486 81.9704 190.736 83.725 189.008 85.4984C185.927 88.6548 182.587 90.9292 178.894 93.3729C178.073 93.9139 177.648 95.0593 178.219 95.946C178.746 96.7645 179.915 97.2019 180.806 96.621C183.836 94.6218 186.877 92.5991 189.598 90.1812C191.604 88.3984 193.427 86.3875 195.318 84.4847C195.85 83.9484 196.383 83.413 196.917 82.8783C197.623 82.1727 197.665 80.905 196.917 80.2158C196.174 79.5002 194.998 79.5002 194.255 80.2158H194.234Z" fill="#71D2C1"/>
<path d="M168.388 67.9361C167.41 69.7367 166.546 71.5969 165.801 73.5057C165.634 73.9455 165.483 74.3924 165.316 74.8345C165.288 74.9098 165.255 74.9827 165.229 75.0697C165.154 75.2767 165.547 74.3876 165.337 74.804C165.253 74.9733 165.173 75.1426 165.076 75.3049C164.98 75.4672 164.841 75.6718 164.719 75.8482C164.639 75.9588 164.554 76.067 164.484 76.1775C164.319 76.4127 164.893 75.6601 164.653 75.9564L164.479 76.1752C164.008 76.7561 163.538 77.3324 163.089 77.9227C162.152 79.1312 161.413 80.4808 160.899 81.9211C160.074 84.2425 159.958 86.8156 160.146 89.2523C160.238 90.4753 161.165 91.6631 162.498 91.6043C163.696 91.5502 164.949 90.567 164.85 89.2523C164.759 88.1087 164.759 86.9596 164.85 85.816C164.85 85.6796 164.874 85.5432 164.89 85.4068C164.942 84.9364 164.989 85.4068 164.89 85.4797C164.949 85.4444 164.975 84.974 164.992 84.8846C165.075 84.4518 165.183 84.0238 165.314 83.6028C165.37 83.4162 165.431 83.2327 165.497 83.0524C165.528 82.9748 165.558 82.8972 165.587 82.8172C165.716 82.4668 165.5 83.0242 165.49 83.0524C165.662 82.7302 165.798 82.3891 165.977 82.0693C166.291 81.5219 166.639 80.9955 167.021 80.4934C167.311 80.103 166.64 80.9638 166.986 80.5381L167.221 80.2347C167.419 79.9995 167.621 79.7455 167.819 79.4985C168.261 78.9722 168.675 78.4226 169.058 77.8521C169.564 77.0525 169.86 76.1375 170.18 75.2532C170.284 74.9709 170.389 74.6887 170.5 74.4112C170.577 74.2455 170.645 74.076 170.705 73.9031C170.519 74.6252 170.667 73.9949 170.77 73.7644C171.29 72.5884 171.874 71.4571 172.473 70.3281C173.052 69.2415 172.784 67.7174 171.629 67.1082C170.54 66.532 169.042 66.793 168.411 67.9526L168.388 67.9361Z" fill="#71D2C1"/>
<path d="M80.3789 51.3405H206.319V69.9636H80.3789L80.3789 51.3405Z" fill="#FFD8C5"/>
<path d="M177.178 51.3405H201.363V69.9636H177.178V51.3405Z" fill="#FCC4AE"/>
<path d="M80.3789 51.3405H206.319V54.5251H80.3789L80.3789 51.3405Z" fill="#FCC4AE"/>
<path d="M182.133 51.3405H206.318V69.9636H182.133V51.3405Z" fill="#F99192"/>
<path d="M182.133 51.3405H206.318V54.5251H182.133V51.3405Z" fill="#F97171"/>
<path d="M127.418 132.23C127.483 132.23 127.536 132.178 127.536 132.113C127.536 132.048 127.483 131.995 127.418 131.995C127.353 131.995 127.301 132.048 127.301 132.113C127.301 132.178 127.353 132.23 127.418 132.23Z" fill="#2E60B8"/>
<path d="M111.428 42.5862C117.611 41.1351 127.421 37.3295 125.806 27.9145C123.472 14.3199 107.399 19.038 107.399 19.038L88.8838 30.1747L103.146 41.1445C105.597 42.729 108.586 43.2495 111.428 42.5862Z" fill="#71D2C1"/>
<path d="M136.443 29.8737C129.206 30.7245 122.211 33.008 115.866 36.591C114.11 37.5897 112.414 38.6891 110.785 39.8838C109.993 40.4624 109.52 41.5302 110.11 42.4569C110.616 43.2424 111.837 43.7552 112.686 43.1319C118.149 39.0929 124.374 36.2023 130.984 34.6341C131.899 34.4154 132.824 34.2202 133.75 34.0508C134.247 33.9591 134.745 33.8768 135.244 33.7992L135.949 33.698L136.45 33.6369C137.424 33.5193 138.381 32.856 138.332 31.7553C138.292 30.8356 137.497 29.7467 136.45 29.8737H136.443Z" fill="#71D2C1"/>
<path d="M136.968 22.4107C130.657 23.7677 124.469 25.6447 118.468 28.0226C117.557 28.3848 116.821 29.2974 117.155 30.337C117.44 31.2213 118.489 32.0398 119.47 31.6518C125.47 29.2738 131.658 27.3968 137.968 26.0399C138.932 25.8329 139.582 24.6545 139.283 23.7255C138.986 22.7398 137.967 22.1611 136.968 22.4107Z" fill="#71D2C1"/>
<path d="M132.781 16.2603C128.466 17.4489 124.206 18.8052 120 20.3293C119.076 20.6633 118.354 21.6229 118.685 22.6437C118.979 23.5515 120.01 24.3159 121 23.9584C125.208 22.4343 129.472 21.078 133.79 19.8895C134.731 19.6284 135.418 18.5418 135.105 17.5751C134.813 16.5854 133.79 16.0042 132.79 16.2603H132.781Z" fill="#71D2C1"/>
<path d="M126.307 11.9044C123.931 12.61 121.553 13.2992 119.168 13.9718C114.7 15.2301 110.602 17.314 106.524 19.4849C105.628 20.0164 105.327 21.1705 105.849 22.0721C106.389 22.9497 107.524 23.2471 108.425 22.7471C112.369 20.6468 116.038 18.7793 120.295 17.5727C122.647 16.9118 124.973 16.2274 127.306 15.5406C128.247 15.2631 128.939 14.2047 128.621 13.2262C128.304 12.2478 127.318 11.6151 126.307 11.9115V11.9044Z" fill="#71D2C1"/>
<path d="M125.702 39.3922C123.893 39.3781 122.11 39.2675 120.314 39.0841C121.275 39.1829 120.386 39.0841 120.149 39.0535L119.54 38.9618C119.013 38.8688 118.481 38.8099 117.947 38.7854C116.75 38.7619 115.548 39.0559 114.375 39.2699C114.095 39.3216 113.817 39.3663 113.537 39.411C112.966 39.5027 114.008 39.3663 113.617 39.411L113.058 39.4675C112.344 39.5094 111.627 39.4984 110.915 39.4345C110.614 39.411 111.442 39.5286 111.15 39.4651C111.016 39.4369 110.877 39.4204 110.741 39.3946C110.527 39.3546 110.315 39.3075 110.103 39.2558C109.588 39.1285 109.081 38.9714 108.584 38.7854C108.474 38.7516 108.367 38.7092 108.264 38.6584C108.77 38.95 108.264 38.6584 108.163 38.609C107.869 38.4749 107.582 38.3314 107.295 38.1809C106.655 37.8446 106.035 37.4753 105.428 37.0825C104.39 36.4146 102.784 36.8473 102.21 37.9246C101.582 39.05 101.954 40.4704 103.052 41.1444C104.99 42.3886 107.145 43.48 109.421 43.9268C111.178 44.254 112.979 44.27 114.742 43.9739C115.346 43.8845 115.944 43.7646 116.543 43.6564C116.84 43.6023 117.138 43.5646 117.43 43.5105C117.449 43.5105 116.748 43.5882 117.098 43.5552L117.265 43.5364C117.376 43.5364 117.484 43.5176 117.595 43.5129C117.947 43.5046 118.3 43.5211 118.651 43.5623C118.968 43.5929 117.898 43.4517 118.331 43.5199L118.625 43.5646L119.3 43.6681C121.424 43.9616 123.567 44.1109 125.711 44.115C126.941 44.1268 128.12 43.026 128.063 41.763C128.041 40.4735 127.001 39.4336 125.711 39.411L125.702 39.3922Z" fill="#71D2C1"/>
<path d="M67.5509 88.3186C67.5509 88.3186 71.6646 86.6228 71.9939 79.9925C71.9939 79.9925 74.4117 83.3277 78.4148 83.1748C82.4179 83.0219 81.6794 80.7216 81.6794 80.7216C81.6794 80.7216 86.9267 84.4519 90.6993 81.693C90.6993 81.693 91.5602 85.221 92.8373 86.3406L93.5429 85.6726C93.5429 85.6726 95.401 82.0505 94.7753 80.3124C94.4084 79.2916 86.3834 64.4905 70.665 74.0302C70.665 74.0302 64.0794 78.1674 64.0559 83.2759C64.0323 88.3845 66.0692 90.2755 66.0692 90.2755" fill="#3A3144"/>
<path fill-rule="evenodd" clip-rule="evenodd" d="M99.4691 54.0585C90.4399 57.2537 77.5339 62.1821 62.2611 69.0454C61.6006 69.3422 59.839 70.2293 58.7063 75.8844C57.5272 81.7706 57.7735 89.8983 59.2082 99.1452C60.6027 108.133 62.9131 116.922 64.9309 123.58C65.9297 126.875 66.8337 129.573 67.4776 131.418C67.799 132.34 68.0541 133.045 68.2218 133.501C68.3056 133.729 68.3674 133.895 68.4047 133.994C68.4233 134.043 68.4358 134.076 68.4418 134.092L68.4423 134.093C68.4412 134.09 68.4399 134.087 51.6372 140.542C34.8346 146.998 34.8331 146.994 34.8315 146.99L34.8183 146.955C34.8112 146.937 34.8024 146.913 34.7919 146.886C34.7709 146.831 34.7432 146.757 34.7092 146.667C34.6412 146.486 34.5478 146.236 34.4319 145.921C34.2001 145.29 33.8775 144.397 33.486 143.275C32.7042 141.033 31.6419 137.86 30.4786 134.022C28.172 126.412 25.3743 115.882 23.6338 104.665C21.9336 93.706 21.0182 80.7416 23.4075 68.8137C25.8431 56.6545 32.38 43.0054 47.5049 36.2086C63.803 28.8846 77.6392 23.5959 87.4595 20.1208C92.3724 18.3823 96.2878 17.0949 99.0127 16.2315C100.375 15.7997 101.441 15.4736 102.186 15.25C102.558 15.1381 102.85 15.0519 103.059 14.9908C103.163 14.9602 103.247 14.9359 103.309 14.9179C103.341 14.9089 103.366 14.9014 103.387 14.8955L103.429 14.8836C103.431 14.883 103.433 14.8824 108.367 32.1928C113.302 49.5032 113.304 49.5027 113.306 49.5022L113.298 49.5044C113.276 49.5109 113.232 49.5234 113.169 49.5421C113.041 49.5794 112.831 49.6412 112.543 49.7279C111.966 49.9013 111.073 50.1741 109.888 50.5496C107.517 51.3008 103.981 52.4619 99.4691 54.0585Z" fill="#4F8AE0"/>
<path fill-rule="evenodd" clip-rule="evenodd" d="M174.297 158.711C172.306 161.814 168.807 166.439 163.199 169.336C157.983 172.031 152.695 172.447 148.815 172.304C144.815 172.157 140.954 171.363 137.605 170.435C130.926 168.586 124.065 165.574 118.307 162.747C112.42 159.857 106.983 156.809 103.11 154.602C102.357 154.173 101.697 153.795 101.11 153.459C100.094 152.877 99.2996 152.422 98.6302 152.049C98.1775 151.797 98.0027 151.706 98.0029 151.706C98.003 151.706 98.0088 151.708 98.0197 151.714L98.0207 151.714C98.0434 151.726 98.4265 151.917 99.0061 152.145C99.2941 152.258 99.9323 152.5 100.785 152.728L100.806 152.734C101.343 152.878 103.572 153.476 106.487 153.292L104.218 117.364C107.194 117.176 109.493 117.792 110.087 117.951L110.1 117.954C111.029 118.203 111.761 118.477 112.159 118.634C112.971 118.952 113.642 119.278 113.994 119.452C114.756 119.829 115.544 120.262 116.16 120.605C117.003 121.075 118.1 121.703 119.259 122.366C119.81 122.682 120.376 123.006 120.936 123.325C124.646 125.439 129.307 128.043 134.17 130.431C138.561 132.586 142.603 134.307 145.9 135.351C145.983 135.148 146.068 134.937 146.154 134.718C148.023 129.97 149.812 123.585 151.388 116.737C152.936 110.011 154.156 103.388 154.992 98.4045C155.408 95.9258 155.724 93.8832 155.934 92.4742C156.039 91.7704 156.117 91.2264 156.168 90.8672C156.193 90.6877 156.212 90.5544 156.223 90.4707C156.229 90.4288 156.233 90.3993 156.235 90.3825L156.237 90.3682C156.237 90.3695 156.237 90.371 174.075 92.7756C191.914 95.1801 191.914 95.1821 191.914 95.1842L191.905 95.2476C191.9 95.2833 191.893 95.332 191.885 95.3934C191.868 95.5161 191.844 95.6895 191.813 95.9105C191.75 96.3522 191.659 96.9846 191.54 97.7821C191.303 99.376 190.953 101.637 190.496 104.36C189.586 109.781 188.233 117.158 186.471 124.812C184.737 132.345 182.479 140.721 179.653 147.901C178.246 151.476 176.496 155.283 174.297 158.711ZM143.757 139.609C143.756 139.605 143.796 139.548 143.879 139.449C143.799 139.564 143.758 139.613 143.757 139.609ZM150.127 136.328C150.21 136.326 150.217 136.331 150.138 136.328C150.135 136.328 150.131 136.328 150.127 136.328Z" fill="#4F8AE0"/>
<path d="M40.806 150.223C38.4468 147.606 36.5899 144.576 35.3282 141.286C35.1763 140.796 34.6695 140.508 34.171 140.629C33.7171 140.754 33.3314 141.309 33.5125 141.787C34.8821 145.379 36.9035 148.688 39.4748 151.547C40.2886 152.448 41.6151 151.115 40.806 150.216V150.223Z" fill="#2E60B8"/>
<path d="M120.449 141.114C122.862 148.109 123.508 155.591 122.331 162.896C122.249 163.397 122.46 163.909 122.987 164.053C123.436 164.178 124.062 163.902 124.144 163.397C125.407 155.763 124.761 147.936 122.263 140.613C121.872 139.475 120.054 139.964 120.449 141.114Z" fill="#2E60B8"/>
<path d="M61.1134 62.1878L59.2906 66.332C59.086 66.8024 59.1542 67.341 59.6269 67.6185C60.0268 67.8537 60.7089 67.7479 60.9158 67.2822L62.7386 63.1356C62.9433 62.6652 62.8751 62.1266 62.4023 61.8491C62.0025 61.6139 61.3204 61.7197 61.1134 62.1878Z" fill="#2E60B8"/>
<path d="M144.163 142.471C145.235 140.659 146.095 138.731 146.726 136.723C147.091 135.565 145.275 135.076 144.911 136.224C144.327 138.075 143.53 139.853 142.537 141.521C141.919 142.565 143.544 143.513 144.163 142.462V142.471Z" fill="#2E60B8"/>
<path d="M169.926 76.4386C171.668 79.7915 172.024 83.6942 170.918 87.3072C170.742 87.8881 171.65 88.1351 171.826 87.5565C172.99 83.7023 172.6 79.5457 170.74 75.9753C170.46 75.4367 169.646 75.9118 169.926 76.4457V76.4386Z" fill="#3EB7B2"/>
<path d="M118.968 38.5314L120.297 38.9407C120.876 39.1171 121.125 38.2092 120.546 38.0328L119.218 37.6236C118.637 37.4472 118.39 38.355 118.968 38.5314Z" fill="#3EB7B2"/>
<path fill-rule="evenodd" clip-rule="evenodd" d="M193.155 55.5601C190.934 55.5601 189.133 57.3607 189.133 59.5817C189.133 61.8028 190.934 63.6034 193.155 63.6034C195.376 63.6034 197.177 61.8028 197.177 59.5817C197.177 57.3607 195.376 55.5601 193.155 55.5601ZM187.693 59.5817C187.693 56.5654 190.139 54.1201 193.155 54.1201C196.171 54.1201 198.617 56.5654 198.617 59.5817C198.617 62.5981 196.171 65.0434 193.155 65.0434C190.139 65.0434 187.693 62.5981 187.693 59.5817Z" fill="#3A3144"/>
<path fill-rule="evenodd" clip-rule="evenodd" d="M197.691 65.136L196 63.4449L197.018 62.4266L198.709 64.1177L197.691 65.136Z" fill="#3A3144"/>
<path d="M198.025 64.8492C197.915 64.739 197.915 64.5603 198.025 64.4501C198.135 64.3399 198.314 64.3399 198.424 64.4501L199.957 65.9835C200.067 66.0937 200.067 66.2724 199.957 66.3826C199.847 66.4929 199.668 66.4929 199.558 66.3826L198.025 64.8492Z" fill="#3A3144"/>
<path fill-rule="evenodd" clip-rule="evenodd" d="M197.515 65.3583C197.124 64.9669 197.124 64.3324 197.515 63.941C197.907 63.5496 198.541 63.5496 198.933 63.941L200.466 65.4744C200.857 65.8658 200.857 66.5003 200.466 66.8917C200.075 67.2831 199.44 67.2831 199.049 66.8917L197.515 65.3583Z" fill="#3A3144"/>
<path fill-rule="evenodd" clip-rule="evenodd" d="M80.3789 50.8604H206.319V51.8204H80.3789V50.8604Z" fill="#3A3144"/>
<path fill-rule="evenodd" clip-rule="evenodd" d="M80.3789 69.4858H206.319V70.4458H80.3789V69.4858Z" fill="white"/>
<path d="M104.852 93.0861H134.663V122.898H104.852L104.852 93.0861Z" fill="#FFD8C5"/>
<path d="M137.142 78.8H142.283V83.9415H137.142V78.8Z" fill="#FFD8C5"/>
<path d="M157.566 129.54H162.708V134.681H157.566V129.54Z" fill="#FFA97F"/>
<path d="M115.436 66.5531H120.577V71.6946H115.436V66.5531Z" fill="#F99192"/>
<path d="M175.084 107.991H204.896V137.802H175.084V107.991Z" fill="#F99192"/>
<path d="M136.443 158.97H166.255V188.782H136.443V158.97Z" fill="#FFA97F"/>
<path d="M72.3577 150.959L72.6329 135.577L70.5161 137.694L82.3043 136.579C86.2298 136.208 90.16 135.742 94.0996 135.582C96.3351 135.477 98.5755 135.555 100.798 135.817L98.6813 133.7C98.9189 137.564 98.8576 141.44 98.4978 145.293C98.3097 147.295 98.1286 148.65 97.7758 150.649C97.7052 151.051 97.4959 151.59 97.5123 151.985L98.1639 151.477C98.8953 151.112 99.0835 150.943 98.7283 150.973C98.622 150.963 98.5148 150.963 98.4085 150.973L97.59 150.99L94.6735 151.044L82.8923 151.265L81.4811 151.291L80.7755 151.305C80.6803 151.292 80.5838 151.292 80.4886 151.305L80.7238 151.347L81.634 152.314C81.6505 152.368 81.634 152.679 81.6646 152.467C81.6728 152.361 81.6728 152.255 81.6646 152.149C81.6646 151.914 81.6646 151.679 81.6646 151.444V149.924V146.881V145.47C81.6646 145.338 81.7398 144.122 81.6646 144.094C81.9374 144.211 80.7002 145.27 81.1565 144.816C81.0835 145.099 80.8303 145.298 80.538 145.303C80.3827 145.303 80.3663 145.319 80.4886 145.303C80.7238 145.319 80.959 145.303 81.1942 145.315L82.8123 145.355L86.044 145.432L92.7425 145.594C93.8503 145.62 94.9087 144.6 94.8593 143.478C94.838 142.318 93.9026 141.382 92.7425 141.361L86.044 141.199L82.8123 141.121C81.7422 141.095 80.5168 140.907 79.4819 141.229C77.9296 141.7 77.4333 143.165 77.431 144.64C77.431 145.77 77.431 146.901 77.431 148.033V151.31C77.431 152.761 77.431 154.186 78.7928 155.073C79.8159 155.739 81.2694 155.503 82.4219 155.482L85.8041 155.419L92.4532 155.294L95.8354 155.231C96.9714 155.209 98.138 155.266 99.2646 155.113C100.073 155.007 100.793 154.551 101.236 153.866C101.586 153.33 101.68 152.69 101.793 152.081C101.984 151.028 102.152 149.968 102.296 148.904C103.003 143.858 103.208 138.754 102.91 133.667C102.835 132.416 101.993 131.701 100.793 131.551C96.8726 131.064 92.9236 131.33 89.0028 131.689C85.082 132.049 81.1448 132.433 77.2146 132.804L70.5114 133.437C69.3566 133.548 68.4181 134.319 68.3946 135.554L68.1194 150.936C68.1006 152.044 69.1072 153.104 70.2362 153.053C71.3963 153.031 72.3317 152.096 72.353 150.936L72.3577 150.959Z" fill="#2E60B8"/>
<path d="M69.7474 160.734C70.8552 160.734 71.9159 159.761 71.8642 158.618C71.8453 157.456 70.9085 156.52 69.7474 156.501C68.6419 156.501 67.5812 157.474 67.6306 158.618C67.6507 159.778 68.5867 160.714 69.7474 160.734Z" fill="#2E60B8"/>
<path d="M69.7474 168.244C70.8552 168.244 71.9159 167.27 71.8642 166.127C71.8453 164.966 70.9085 164.03 69.7474 164.011C68.6419 164.011 67.5812 164.984 67.6306 166.127C67.6519 167.288 68.5872 168.223 69.7474 168.244Z" fill="#2E60B8"/>
<path d="M78.2803 163.11C78.4919 163.056 78.7083 163.011 78.9224 162.962C79.1811 162.919 79.2093 162.912 79.0094 162.938C79.1176 162.938 79.2281 162.915 79.3363 162.908C79.8108 162.872 80.2872 162.872 80.7616 162.908L78.6448 160.791C78.6966 160.525 78.6942 160.511 78.6448 160.751C78.5954 160.991 78.5766 160.986 78.666 160.734C78.5549 160.947 78.4275 161.151 78.285 161.343C78.5555 160.979 78.1815 161.445 78.1486 161.48C77.9886 161.661 77.8193 161.835 77.6593 162.016C76.9279 162.835 76.2246 163.761 76.0129 164.864C75.432 167.746 78.1344 170.333 80.9216 168.999C81.9235 168.529 82.2646 167.009 81.6813 166.102C81.018 165.074 79.8561 164.829 78.7836 165.342C79.1613 165.157 79.6031 165.157 79.9808 165.342C79.6468 165.151 80.1807 165.546 79.9949 165.365C79.8091 165.184 80.1854 165.702 80.0113 165.365C80.0466 165.434 80.1736 166.071 80.1289 165.699C80.1595 165.951 80.1172 165.92 80.1666 165.657C80.2066 165.452 79.9996 165.909 80.2089 165.601C80.2348 165.561 80.5641 165.064 80.2912 165.434C80.383 165.311 80.4864 165.198 80.5876 165.085C81.7377 163.782 82.7514 162.611 82.8784 160.798C82.9631 159.594 81.8365 158.766 80.7616 158.681C79.5481 158.596 78.3289 158.713 77.1537 159.027C76.0835 159.304 75.3285 160.553 75.6766 161.63C76.0059 162.743 77.1564 163.396 78.2803 163.107V163.11Z" fill="#2E60B8"/>
<path d="M88.3115 163.11C88.5255 163.056 88.7395 163.011 88.9535 162.962C89.2123 162.919 89.2428 162.912 89.0406 162.938C89.1511 162.938 89.2593 162.915 89.3698 162.908C89.8443 162.872 90.3207 162.872 90.7952 162.908L88.6784 160.791C88.7278 160.525 88.7254 160.511 88.6784 160.751C88.6313 160.991 88.6078 160.986 88.6995 160.734C88.5885 160.947 88.4603 161.151 88.3162 161.344C88.589 160.979 88.215 161.445 88.1821 161.48C88.0198 161.661 87.8528 161.835 87.6905 162.016C86.9591 162.835 86.2558 163.761 86.0441 164.864C85.4773 167.725 88.1797 170.321 90.9645 168.99C91.9665 168.519 92.3098 167 91.7242 166.092C91.0609 165.064 89.899 164.82 88.8289 165.333C89.2057 165.148 89.6469 165.148 90.0237 165.333C89.6897 165.142 90.226 165.537 90.0378 165.356C89.8497 165.175 90.2307 165.692 90.0566 165.356C90.0919 165.424 90.2189 166.062 90.1742 165.69C90.2025 165.942 90.1601 165.911 90.2119 165.648C90.2518 165.443 90.0425 165.899 90.2542 165.591C90.2801 165.551 90.6094 165.055 90.3365 165.424C90.4259 165.302 90.5317 165.189 90.6305 165.076C91.783 163.773 92.7944 162.602 92.9237 160.788C93.0084 159.584 91.8818 158.756 90.8069 158.672C89.5934 158.586 88.3742 158.703 87.199 159.017C86.1264 159.295 85.3715 160.544 85.7196 161.621C86.0489 162.734 87.1993 163.386 88.3232 163.098L88.3115 163.11Z" fill="#2E60B8"/>
<path d="M98.3457 163.11C98.5573 163.056 98.7737 163.011 98.9878 162.962C99.2465 162.919 99.2747 162.912 99.0748 162.938C99.183 162.938 99.2935 162.915 99.4017 162.908C99.8762 162.872 100.353 162.872 100.827 162.908L98.7102 160.791C98.762 160.525 98.7596 160.511 98.7102 160.751C98.6608 160.991 98.642 160.986 98.7314 160.734C98.6203 160.947 98.4929 161.151 98.3504 161.343C98.6208 160.979 98.2469 161.445 98.2139 161.48C98.054 161.661 97.8847 161.835 97.7247 162.016C96.9933 162.835 96.29 163.761 96.0783 164.864C95.5091 167.724 98.2139 170.321 100.999 168.99C102.001 168.519 102.342 167 101.758 166.092C101.095 165.064 99.9333 164.82 98.8607 165.332C99.2384 165.148 99.6803 165.148 100.058 165.332C99.7239 165.142 100.258 165.537 100.072 165.356C99.8862 165.175 100.263 165.692 100.088 165.356C100.124 165.424 100.251 166.062 100.206 165.69C100.237 165.942 100.194 165.911 100.244 165.648C100.284 165.443 100.077 165.899 100.286 165.591C100.312 165.551 100.641 165.055 100.368 165.424C100.46 165.302 100.564 165.189 100.665 165.076C101.815 163.773 102.829 162.602 102.956 160.788C103.04 159.584 101.914 158.756 100.839 158.672C99.6253 158.586 98.406 158.703 97.2308 159.017C96.1606 159.295 95.4056 160.544 95.7537 161.621C96.082 162.734 97.2333 163.387 98.3574 163.098L98.3457 163.11Z" fill="#2E60B8"/>
<path d="M105.491 110.531L110.868 104.253L111.467 103.548C111.545 103.456 111.841 102.988 111.992 102.957C112.142 102.927 112.488 103.36 112.575 103.44C112.843 103.684 113.11 103.931 113.375 104.18C114.33 105.077 115.264 105.996 116.176 106.937C117.089 107.878 117.979 108.838 118.848 109.818C119.234 110.253 119.615 110.696 119.991 111.138C120.367 111.58 120.77 112.107 121.402 112.163C121.871 112.191 122.321 111.978 122.597 111.599C123.068 111.046 123.521 110.463 123.98 109.898L125.217 108.376C125.375 108.184 125.589 107.803 125.812 107.69C126.036 107.577 126.283 107.817 126.499 107.979C128.926 109.828 131.274 111.792 133.555 113.812C134.232 114.412 135.234 113.417 134.552 112.815C132.385 110.905 130.161 109.066 127.88 107.299C126.908 106.547 125.843 105.681 124.74 106.765C124.293 107.25 123.873 107.759 123.481 108.289L122.028 110.079C121.908 110.227 121.63 110.712 121.463 110.766L121.428 110.804C121.576 110.773 121.565 110.714 121.391 110.627C121.312 110.519 121.225 110.418 121.129 110.324C120.659 109.769 120.189 109.218 119.699 108.678C118.782 107.646 117.841 106.635 116.877 105.646C115.881 104.634 114.862 103.647 113.819 102.685C112.977 101.908 111.985 101.022 110.936 102.043C110.39 102.574 109.922 103.219 109.428 103.792L107.782 105.709L104.489 109.548C103.901 110.235 104.896 111.236 105.486 110.545L105.491 110.531Z" fill="white"/>
<path d="M194.582 113.69C193.158 114.114 191.702 114.429 190.229 114.63C189.844 114.641 189.534 114.951 189.523 115.336L189.363 121.327C189.316 123.067 189.443 124.92 189.1 126.637C188.82 128.049 187.903 129.384 186.299 129.225C184.982 129.09 184.043 127.531 184.784 126.348C185.203 125.678 185.979 125.311 186.699 125.045C187.689 124.68 188.71 124.396 189.716 124.078C190.579 123.806 190.21 122.444 189.34 122.717C187.541 123.286 185.125 123.683 183.86 125.226C182.738 126.657 182.961 128.721 184.363 129.878C185.824 131.071 188.126 130.786 189.352 129.38C190.671 127.863 190.657 125.751 190.706 123.855L190.942 115.329L190.236 116.035C191.835 115.829 193.416 115.499 194.963 115.047C195.834 114.793 195.462 113.429 194.59 113.687L194.582 113.69Z" fill="white"/>
<path d="M190.699 119.156C192.193 118.949 193.667 118.619 195.107 118.168C195.97 117.897 195.601 116.536 194.73 116.808C193.291 117.257 191.818 117.587 190.325 117.796C189.429 117.921 189.81 119.28 190.699 119.156Z" fill="white"/>
<path d="M145.374 168H157.327C158.235 168 158.237 166.588 157.327 166.588H145.374C144.466 166.588 144.464 168 145.374 168Z" fill="white"/>
<path d="M145.374 173.924H157.327C158.235 173.924 158.237 172.513 157.327 172.513H145.374C144.466 172.513 144.464 173.924 145.374 173.924Z" fill="white"/>
<path d="M145.374 179.847H151.351C152.258 179.847 152.261 178.436 151.351 178.436H145.374C144.466 178.436 144.464 179.847 145.374 179.847Z" fill="white"/>
</svg>
