<svg width="240" height="240" viewBox="0 0 240 240" fill="none" xmlns="http://www.w3.org/2000/svg">
<path fill-rule="evenodd" clip-rule="evenodd" d="M160.706 67.3306C161.149 67.1751 161.634 67.4079 161.79 67.8507C161.977 68.383 161.925 68.9701 161.648 69.4618C161.372 69.9535 160.896 70.302 160.344 70.4182C159.885 70.5149 159.434 70.221 159.338 69.7618C159.241 69.3026 159.535 68.8519 159.994 68.7553C160.068 68.7398 160.131 68.6935 160.168 68.6281C160.204 68.5627 160.211 68.4847 160.186 68.4139C160.031 67.9712 160.264 67.4861 160.706 67.3306Z" fill="#F7C9A5"/>
<path fill-rule="evenodd" clip-rule="evenodd" d="M161.4 69.3041C161.843 69.1486 162.328 69.3814 162.483 69.8242C162.67 70.3565 162.619 70.9436 162.342 71.4353C162.065 71.927 161.59 72.2755 161.038 72.3918C160.578 72.4884 160.128 72.1945 160.031 71.7353C159.934 71.2761 160.228 70.8254 160.688 70.7288C160.761 70.7133 160.824 70.667 160.861 70.6016C160.898 70.5363 160.905 70.4582 160.88 70.3874C160.724 69.9447 160.957 69.4597 161.4 69.3041Z" fill="#F7C9A5"/>
<path fill-rule="evenodd" clip-rule="evenodd" d="M161.038 71.3764C161.078 70.9089 161.49 70.5624 161.958 70.6027C162.592 70.6572 163.121 71.1054 163.282 71.718C163.45 72.2421 163.39 72.8137 163.116 73.2924C162.834 73.7836 162.353 74.129 161.798 74.2395C161.338 74.331 160.89 74.0322 160.799 73.5719C160.707 73.1116 161.006 72.6643 161.466 72.5727C161.54 72.558 161.604 72.5121 161.641 72.4468C161.672 72.3936 161.683 72.3317 161.672 72.2721C161.277 72.1706 161.002 71.796 161.038 71.3764Z" fill="#F7C9A5"/>
<path fill-rule="evenodd" clip-rule="evenodd" d="M161.13 74.7368C160.916 74.9312 160.608 75.0115 160.312 74.9216C159.862 74.7855 159.609 74.3111 159.745 73.862C159.787 73.7218 159.856 73.6272 159.882 73.5923C159.916 73.5475 159.947 73.5142 159.967 73.4946C160.007 73.4551 160.044 73.4251 160.066 73.4076C160.114 73.3705 160.165 73.3367 160.208 73.309C160.299 73.2513 160.413 73.1863 160.54 73.121C160.793 72.991 161.137 72.8384 161.504 72.7306C161.851 72.6287 162.319 72.5366 162.774 72.6241C163.015 72.6704 163.277 72.7719 163.506 72.9713C163.732 73.1678 163.883 73.4216 163.965 73.7036C164.14 74.2321 164.083 74.8109 163.806 75.2949C163.524 75.7874 163.042 76.1335 162.486 76.2437C162.025 76.3349 161.578 76.0357 161.487 75.5753C161.396 75.115 161.695 74.6679 162.155 74.5767C162.229 74.562 162.293 74.516 162.331 74.4506C162.359 74.4012 162.37 74.3444 162.363 74.2889C162.281 74.2923 162.154 74.3109 161.982 74.3613C161.745 74.4309 161.503 74.5365 161.318 74.632C161.234 74.6754 161.17 74.7122 161.13 74.7368Z" fill="#F7C9A5"/>
<path d="M153.882 81.5751L147.775 73.3396C147.775 73.3396 156.819 66.4003 160.072 71.3827C163.325 76.3651 153.882 81.5751 153.882 81.5751Z" fill="#F7C9A5"/>
<path d="M160.08 61.0488C159.128 60.1911 158.137 61.3652 157.276 61.9093C156.416 62.4533 154.156 60.4159 152.616 62.2257C151.075 64.0355 150.853 62.4505 148.73 63.6719C146.607 64.8932 154.112 72.4209 154.112 72.4209L159.855 71.7659C160.982 70.4085 161.029 61.9093 160.08 61.0488Z" fill="#158C8C"/>
<path fill-rule="evenodd" clip-rule="evenodd" d="M154.358 66.1675C154.901 66.4792 155.088 67.1718 154.776 67.7143C154.683 67.8757 154.555 68.0289 154.474 68.1249C154.409 68.2011 154.33 68.2918 154.248 68.3849C154.213 68.4259 154.176 68.4674 154.141 68.5083C153.895 68.79 153.595 69.1442 153.271 69.5875C152.625 70.4715 151.881 71.7198 151.359 73.4054C151.174 74.0031 150.54 74.3377 149.942 74.1526C149.344 73.9676 149.009 73.333 149.195 72.7353C149.805 70.7625 150.681 69.292 151.441 68.2511C151.82 67.7319 152.169 67.322 152.432 67.02C152.479 66.9655 152.522 66.9171 152.56 66.8732C152.633 66.7897 152.692 66.7224 152.745 66.6606C152.801 66.5937 152.822 66.5651 152.825 66.5628C153.142 66.0376 153.823 65.86 154.358 66.1675Z" fill="#F7C9A5"/>
<path fill-rule="evenodd" clip-rule="evenodd" d="M159.141 75.3144C159.071 75.3202 159.019 75.3246 158.987 75.3246C158.518 75.3246 158.138 74.9442 158.138 74.4749C158.138 74.0056 158.518 73.6252 158.987 73.6252C158.845 73.6252 161.698 73.1591 163.593 75.0669C163.924 75.3999 163.922 75.9379 163.589 76.2686C163.256 76.5993 162.718 76.5974 162.387 76.2644C161.267 75.1369 159.681 75.2693 159.141 75.3144Z" fill="#F7C9A5"/>
<path fill-rule="evenodd" clip-rule="evenodd" d="M157.832 78.2398C157.821 78.2429 157.818 78.2438 157.824 78.2417C157.387 78.4127 156.894 78.1971 156.723 77.7601C156.552 77.3231 156.767 76.8302 157.204 76.6592C157.311 76.6175 157.985 76.3942 158.893 76.3569C159.807 76.3192 161.038 76.4678 162.155 77.2673C162.537 77.5404 162.625 78.0711 162.352 78.4528C162.079 78.8345 161.548 78.9225 161.167 78.6495C160.46 78.1444 159.65 78.0265 158.962 78.0548C158.355 78.0798 157.905 78.2174 157.832 78.2398Z" fill="#F7C9A5"/>
<path d="M121.481 218.851L120.548 233.562C120.526 233.922 120.654 234.276 120.902 234.539C121.149 234.802 121.495 234.951 121.856 234.95H142.557C142.557 234.95 145.113 228.821 139.11 227.927C133.106 227.033 132.34 222.839 134.638 214.654" fill="#4F8AE0"/>
<path d="M121.482 218.851L121.204 223.2H133.573C133.209 221.085 133.625 218.254 134.639 214.648L121.482 218.851Z" fill="#8AD6CC"/>
<path d="M133.205 225.31C133.639 224.978 134.11 224.699 134.609 224.477C134.642 224.459 134.665 224.429 134.674 224.393C134.684 224.358 134.678 224.32 134.659 224.288C134.62 224.224 134.537 224.202 134.471 224.238C133.95 224.478 133.459 224.777 133.008 225.129C132.981 225.155 132.966 225.19 132.966 225.227C132.966 225.263 132.981 225.299 133.008 225.324C133.063 225.377 133.15 225.377 133.205 225.324V225.31Z" fill="#3A3144"/>
<path d="M134.154 226.609C134.447 226.255 134.815 225.971 135.231 225.776C135.263 225.758 135.287 225.728 135.296 225.692C135.305 225.657 135.3 225.619 135.281 225.587C135.242 225.522 135.158 225.5 135.092 225.538C134.654 225.745 134.268 226.046 133.96 226.42C133.907 226.475 133.907 226.562 133.96 226.617C133.985 226.643 134.02 226.658 134.057 226.658C134.094 226.658 134.129 226.643 134.154 226.617V226.609Z" fill="#3A3144"/>
<path d="M135.383 227.503C135.733 227.145 136.104 226.808 136.494 226.495C136.52 226.469 136.535 226.434 136.535 226.397C136.535 226.36 136.52 226.324 136.494 226.298C136.439 226.245 136.352 226.245 136.297 226.298C135.912 226.613 135.547 226.95 135.203 227.308C135.078 227.436 135.275 227.633 135.397 227.503H135.383Z" fill="#3A3144"/>
<path d="M120.607 232.599L120.548 233.551C120.526 233.911 120.654 234.265 120.902 234.528C121.149 234.791 121.495 234.939 121.856 234.939H142.557C142.846 234.187 143.023 233.397 143.082 232.593L120.607 232.599Z" fill="#E8A54F"/>
<path d="M51.8996 205.941L40.7051 215.514C40.43 215.75 40.2647 216.089 40.2484 216.451C40.2321 216.812 40.3663 217.165 40.6191 217.424L55.0528 232.271C55.0528 232.271 61.2315 229.831 57.6869 224.902C54.1423 219.972 56.6183 216.502 64.0905 212.447" fill="#4F8AE0"/>
<path d="M51.8993 205.941L48.5879 208.772L57.1926 217.654C58.4556 215.922 60.776 214.249 64.068 212.461L51.8993 205.941Z" fill="#8AD6CC"/>
<path d="M55.3938 218.851C55.9485 218.931 56.4923 219.073 57.0148 219.275C57.0891 219.295 57.1654 219.252 57.1869 219.178C57.2064 219.105 57.1631 219.029 57.0898 219.009C56.5681 218.804 56.0239 218.661 55.4688 218.584C55.3947 218.566 55.3194 218.609 55.2967 218.681C55.2772 218.755 55.3205 218.83 55.3938 218.851Z" fill="#3A3144"/>
<path d="M55.1691 220.436C55.6281 220.398 56.0898 220.462 56.5208 220.624C56.5975 220.645 56.6764 220.6 56.6971 220.523C56.7178 220.446 56.6724 220.368 56.5958 220.347C56.1403 220.178 55.6533 220.111 55.1691 220.15C55.0942 220.154 55.0344 220.214 55.0303 220.289C55.0303 220.365 55.0924 220.427 55.1691 220.427V220.436Z" fill="#3A3144"/>
<path d="M55.3859 221.943C55.8829 221.941 56.3797 221.968 56.8736 222.023C56.9503 222.023 57.0124 221.961 57.0124 221.885C57.0109 221.809 56.9497 221.747 56.8736 221.746C56.3797 221.69 55.8829 221.663 55.3859 221.665C55.3092 221.665 55.2471 221.728 55.2471 221.804C55.2471 221.881 55.3092 221.943 55.3859 221.943Z" fill="#3A3144"/>
<path d="M41.4323 214.895L40.7051 215.514C40.43 215.75 40.2647 216.089 40.2484 216.45C40.2321 216.812 40.3663 217.165 40.6191 217.424L55.0528 232.271C55.7938 231.954 56.484 231.529 57.1013 231.011L41.4323 214.895Z" fill="#E8A54F"/>
<path fill-rule="evenodd" clip-rule="evenodd" d="M83.9844 126.047C83.9854 126.048 83.9865 126.049 91.8753 117.917C99.7641 109.786 99.7655 109.787 99.7669 109.789L99.8054 109.826C99.8262 109.846 99.854 109.873 99.8887 109.907C99.958 109.975 100.055 110.07 100.177 110.191C100.421 110.433 100.769 110.78 101.205 111.222C102.079 112.107 103.313 113.377 104.802 114.967C107.771 118.139 111.795 122.623 116.004 127.875C124.062 137.928 134.173 152.443 137.379 166.515C140.214 178.953 141.17 193.176 141.461 203.938C141.609 209.393 141.589 214.109 141.531 217.471C141.503 219.154 141.465 220.504 141.433 221.444C141.418 221.914 141.404 222.282 141.393 222.538C141.388 222.666 141.384 222.766 141.381 222.838L141.377 222.922L141.375 222.96C141.375 222.962 141.375 222.963 130.058 222.429C118.741 221.894 118.741 221.895 118.741 221.896L118.744 221.842C118.746 221.796 118.749 221.721 118.753 221.619C118.761 221.415 118.773 221.101 118.787 220.687C118.815 219.86 118.849 218.634 118.876 217.086C118.929 213.984 118.947 209.608 118.81 204.551C118.533 194.292 117.626 181.817 115.287 171.549C113.319 162.916 106.201 151.874 98.3238 142.046C94.5657 137.357 90.9446 133.32 88.262 130.455C86.9246 129.027 85.8305 127.901 85.082 127.143C84.708 126.764 84.4211 126.478 84.2341 126.293C84.1406 126.2 84.0721 126.133 84.0303 126.092C84.0165 126.078 84.0056 126.068 83.9977 126.06C83.9936 126.056 83.9903 126.053 83.9878 126.05L83.9844 126.047Z" fill="#D18C3D"/>
<path fill-rule="evenodd" clip-rule="evenodd" d="M84.9092 83.7075C85.1893 81.0445 85.3976 78.3723 85.5341 75.6907L94.586 76.1515C94.4412 78.9954 94.2202 81.8302 93.923 84.6557L84.9092 83.7075Z" fill="#F7C9A5"/>
<path d="M90.2517 79.1908C90.6208 79.7265 93.2328 80.2372 94.4596 80.4509L94.7622 76.8842C94.7622 76.8842 89.7687 78.4746 90.2517 79.1908Z" fill="#3A3144"/>
<ellipse cx="88.4698" cy="113.135" rx="15.1554" ry="15.1554" fill="#E8A54F"/>
<path fill-rule="evenodd" clip-rule="evenodd" d="M72.757 114.644C72.7529 114.45 72.7291 113.328 72.9814 112.045L95.2144 116.417C95.3669 115.642 95.3964 115.039 95.4049 114.855C95.4167 114.596 95.415 114.406 95.4138 114.328C95.4126 114.248 95.4104 114.194 95.4095 114.175C95.4099 114.183 95.4108 114.198 95.4123 114.22C95.4253 114.416 95.457 114.786 95.5179 115.397C95.6084 116.306 95.7346 117.466 95.8907 118.901C95.9431 119.383 95.9988 119.895 96.0577 120.439C96.517 124.684 97.1241 130.473 97.594 136.766C98.0621 143.037 98.4065 149.964 98.3159 156.495C98.2281 162.836 97.7288 169.601 96.1563 175.173C93.1516 185.821 84.4765 198.057 77.8438 206.533C74.3222 211.033 70.9673 214.976 68.4962 217.791C67.2574 219.202 66.2328 220.339 65.5103 221.131C65.1489 221.527 64.8626 221.837 64.6623 222.053C64.5621 222.162 64.4834 222.246 64.4275 222.306C64.3995 222.336 64.3773 222.36 64.3609 222.377L64.3341 222.406L64.3315 222.408C64.3305 222.409 64.3296 222.41 56.0771 214.648C47.8246 206.886 47.8239 206.887 47.8232 206.887L47.8289 206.881L47.8677 206.84C47.9049 206.8 47.9645 206.736 48.0451 206.649C48.2063 206.475 48.4515 206.209 48.7698 205.86C49.4068 205.162 50.3346 204.133 51.4678 202.842C53.7406 200.253 56.8078 196.647 59.999 192.569C66.7916 183.889 72.7043 174.848 74.349 169.02C75.1012 166.354 75.5789 161.974 75.6592 156.181C75.7369 150.578 75.4406 144.381 74.998 138.453C74.5571 132.548 73.9833 127.063 73.5303 122.877C73.4773 122.387 73.4252 121.908 73.3749 121.446C73.2148 119.974 73.0722 118.663 72.9705 117.643C72.9042 116.976 72.8422 116.306 72.8037 115.729C72.7849 115.447 72.7635 115.069 72.7574 114.666C72.7574 114.661 72.7572 114.653 72.757 114.644Z" fill="#E8A54F"/>
<rect x="97.1689" y="79.5211" width="13.0736" height="16.979" rx="6.53681" transform="rotate(-180 97.1689 79.5211)" fill="#F7C9A5"/>
<path d="M92.2604 72.6622C92.0753 72.4387 91.7952 72.3162 91.5054 72.3319C91.2039 72.3555 90.9312 72.5201 90.7699 72.776C90.7152 72.8621 90.7121 72.9712 90.7618 73.0602C90.8114 73.1492 90.9059 73.2039 91.0079 73.2025C91.1098 73.2011 91.2028 73.1439 91.2501 73.0536L91.2667 73.0286C91.2973 72.9814 91.2362 73.0619 91.2667 73.0286L91.3084 72.9814L91.3611 72.9342C91.3611 72.9342 91.3139 72.9676 91.3445 72.9481L91.3778 72.9259C91.3996 72.9159 91.4209 72.9048 91.4416 72.8926C91.4416 72.8926 91.3833 72.9148 91.4194 72.8926H91.4499L91.5166 72.8732C91.5166 72.8732 91.5665 72.8732 91.5166 72.8732C91.4666 72.8732 91.5166 72.8732 91.5166 72.8732H91.5832C91.5832 72.8732 91.6415 72.8732 91.5832 72.8732C91.5249 72.8732 91.5832 72.8732 91.5832 72.8732L91.6553 72.8926H91.6859C91.722 72.8926 91.6692 72.8926 91.6637 72.8926C91.6581 72.8926 91.7136 72.9148 91.7303 72.9259L91.758 72.9426C91.7941 72.9676 91.758 72.9426 91.758 72.9426C91.7913 72.9787 91.8302 73.0092 91.8607 73.0481C91.9124 73.0993 91.9822 73.1282 92.055 73.1285C92.1288 73.129 92.1997 73.1 92.2521 73.0481C92.3041 72.9957 92.333 72.9248 92.3326 72.851C92.3285 72.7782 92.3001 72.7088 92.2521 72.6539L92.2604 72.6622Z" fill="#3A3144"/>
<path d="M91.0259 74.0945C90.9265 74.0811 90.8281 74.0607 90.7316 74.0334C90.6818 74.0193 90.6327 74.0026 90.5845 73.9835L90.5512 73.9696C90.5179 73.9696 90.5512 73.9696 90.5679 73.9696L90.4929 73.9363C90.402 73.8924 90.3148 73.8414 90.232 73.7836L90.1737 73.742H90.1876L90.1571 73.7198C90.1154 73.6837 90.0738 73.6476 90.0349 73.6087C89.9261 73.5007 89.7502 73.5013 89.6422 73.6101C89.5341 73.719 89.5347 73.8948 89.6436 74.0029C89.9805 74.3313 90.413 74.5441 90.8787 74.6108C90.951 74.6283 91.0271 74.6184 91.0925 74.583C91.1893 74.5268 91.2429 74.4179 91.2284 74.3068C91.2138 74.1958 91.1339 74.1044 91.0259 74.0751V74.0945Z" fill="#3A3144"/>
<circle cx="94.3986" cy="71.3521" r="0.471873" fill="#3A3144"/>
<ellipse cx="88.6555" cy="71.3521" rx="0.471886" ry="0.471873" fill="#3A3144"/>
<path d="M94.9264 69.8506C94.6274 69.8015 94.3236 69.7885 94.0215 69.8117C93.949 69.8134 93.8797 69.8421 93.8272 69.8922C93.7475 69.9712 93.7233 70.0905 93.7658 70.1944C93.8083 70.2983 93.9093 70.3663 94.0215 70.3668C94.2666 70.3446 94.5133 70.3502 94.7571 70.3835H94.6849L94.7793 70.3973C94.8883 70.4276 95.0047 70.3888 95.0737 70.2991C95.1426 70.2094 95.1502 70.0869 95.0929 69.9893C95.0563 69.9266 94.9965 69.8808 94.9264 69.8617V69.8506Z" fill="#3A3144"/>
<path d="M89.0749 69.7478C88.7824 69.7288 88.4887 69.7531 88.2033 69.82C88.1322 69.8395 88.0718 69.8864 88.0354 69.9504C87.9989 70.0145 87.9894 70.0904 88.009 70.1614C88.0507 70.3083 88.2033 70.3939 88.3504 70.3529C88.4309 70.3363 88.5114 70.3224 88.5947 70.3113H88.5197C88.7037 70.2863 88.8897 70.2807 89.0749 70.2946C89.2282 70.2946 89.3524 70.1704 89.3524 70.0171C89.3524 69.8638 89.2282 69.7395 89.0749 69.7395V69.7478Z" fill="#3A3144"/>
<path d="M82.3995 70.0087C82.1413 71.3549 83.1517 73.4617 84.806 73.4617L85.2529 69.695C85.2834 69.4425 84.0871 68.9484 83.8817 68.9262C83.5394 68.8562 83.1834 68.9337 82.9013 69.1398C82.6191 69.3458 82.4369 69.6613 82.3995 70.0087Z" fill="#F7C9A5"/>
<path d="M110.045 85.8692L106.37 110.318C106.123 111.955 104.549 113.168 102.717 113.135L74.616 112.616C72.7813 112.58 71.2852 111.306 71.1269 109.66L68.898 85.0754C68.7232 83.1573 70.4358 81.5197 72.5703 81.5585L106.592 82.2136C108.716 82.2552 110.331 83.9595 110.045 85.8692Z" fill="#4F8AE0"/>
<path d="M94.8146 118.056C94.8912 118.056 94.9534 117.994 94.9534 117.918C94.9534 117.841 94.8912 117.779 94.8146 117.779C94.7379 117.779 94.6758 117.841 94.6758 117.918C94.6758 117.994 94.7379 118.056 94.8146 118.056Z" fill="#E8A54F"/>
<path d="M90.6346 62.5393C87.0255 62.5408 84.1006 65.467 84.1006 69.0761C86.3933 69.3814 86.8347 66.0089 86.8347 66.0089L87.004 64.6433C87.0192 64.5298 87.083 64.4284 87.1789 64.3657C87.2819 64.2984 87.4108 64.2838 87.5262 64.3265C87.6417 64.3692 87.7301 64.4641 87.7645 64.5822C88.2919 66.5474 91.7033 66.7612 93.8323 66.6973C94.6861 66.6832 95.4777 67.1426 95.8891 67.8909C96.1955 68.4009 96.6401 68.8138 97.1715 69.0817C97.1729 67.347 96.4849 65.6829 95.2588 64.4559C94.0328 63.2288 92.3693 62.5393 90.6346 62.5393V62.5393Z" fill="#3A3144"/>
<path d="M86.979 63.658C86.0741 64.0771 85.1665 64.6461 84.6002 65.4872C84.0867 66.2533 83.9618 67.2608 83.9424 68.1629C83.9424 68.2268 83.9868 69.1789 84.0978 69.0762C84.828 68.0917 85.4901 67.0586 86.0797 65.984" fill="#3A3144"/>
<path d="M97.8323 67.1275C97.8323 67.208 97.6935 69.4092 97.1689 69.0706C96.6443 68.7319 96.4111 66.9776 96.4111 66.9776L96.9219 66.7001" fill="#3A3144"/>
<path d="M98.8755 70.0087C99.1336 71.3549 98.1205 73.4617 96.469 73.4617L96.0221 69.695C95.9915 69.4425 97.1879 68.9484 97.3933 68.9262C97.7356 68.8562 98.0915 68.9337 98.3737 69.1398C98.6558 69.3458 98.838 69.6613 98.8755 70.0087Z" fill="#F7C9A5"/>
<path d="M92.4921 62.306C91.0042 62.0856 89.4843 62.3026 88.1175 62.9306C87.7101 63.1247 87.3279 63.368 86.9795 63.655L90.3964 64.41L92.0618 64.3462L93.9243 65.0817L97.0165 67.6687C97.8492 67.6493 98.6458 67.2662 98.3682 66.3114C98.0685 65.2844 97.1053 64.435 96.2781 63.8132C95.1609 63.0042 93.8597 62.4862 92.4921 62.306Z" fill="#3A3144"/>
<path fill-rule="evenodd" clip-rule="evenodd" d="M55.9918 90.8366C59.7638 85.7369 65.7451 81.7727 73.3937 81.8587L73.2345 96.0196C71.0043 95.9945 69.0096 97.0515 67.3774 99.2583C65.667 101.571 64.7112 104.758 64.8438 107.691L64.8441 107.698C65.0981 113.44 69.1798 118.371 75.6285 120.72C77.904 121.54 80.2447 122.166 82.6257 122.591L80.1349 136.532C76.9633 135.966 73.8454 135.131 70.8146 134.038L70.8057 134.035L70.7968 134.032C60.3696 130.239 51.2654 121.151 50.6963 108.328C50.4216 102.233 52.2984 95.8299 55.9918 90.8366Z" fill="#4F8AE0"/>
<path fill-rule="evenodd" clip-rule="evenodd" d="M145.923 86.7074C140.822 89.0984 134.6 91.9673 130.489 93.6922C125.152 95.9313 117.278 96.4795 111.762 96.6358C108.798 96.7199 106.108 96.6942 104.162 96.648C103.187 96.6249 102.391 96.5964 101.833 96.5734C101.553 96.5619 101.333 96.5517 101.179 96.5442C101.102 96.5405 101.042 96.5374 100.999 96.5351L100.947 96.5324L100.924 96.5312C100.923 96.5311 100.922 96.5311 101.313 89.461C101.704 82.3909 101.704 82.3908 101.703 82.3908L101.707 82.391L101.735 82.3925C101.762 82.3939 101.807 82.3962 101.867 82.3991C101.988 82.405 102.174 82.4136 102.416 82.4236C102.902 82.4436 103.614 82.4692 104.498 82.4902C106.272 82.5322 108.706 82.555 111.361 82.4797C117.084 82.3175 122.427 81.7166 125.01 80.6332C128.818 79.0355 134.794 76.2836 139.913 73.8844C142.452 72.6943 144.746 71.6068 146.406 70.8168C147.235 70.422 147.906 70.1017 148.368 69.8805C148.599 69.7699 148.778 69.6841 148.899 69.6262L149.08 69.539L149.081 69.5388C149.081 69.5388 149.081 69.5388 150.962 73.4542L152.148 75.921C155.215 82.3033 155.215 82.3033 155.214 82.3034L155.023 82.3954C154.898 82.4551 154.716 82.5426 154.481 82.6551C154.011 82.8799 153.332 83.2043 152.493 83.6038C150.815 84.4024 148.494 85.5024 145.923 86.7074Z" fill="#4F8AE0"/>
<path d="M70.2694 97.0997C71.4346 96.3996 72.7101 95.9022 74.0416 95.6286C74.3913 95.5564 74.2442 95.0207 73.8945 95.0929C72.5158 95.3775 71.1953 95.8937 69.989 96.6195C69.8635 96.6993 69.8232 96.8639 69.8976 96.9927C69.9721 97.1214 70.1348 97.1687 70.2666 97.0997H70.2694Z" fill="#3A3144"/>
<path d="M108.835 92.4004L108.155 96.056C108.089 96.4058 108.624 96.5557 108.691 96.2032L109.371 92.5476C109.438 92.1978 108.902 92.0479 108.835 92.4004Z" fill="#3A3144"/>
<path d="M80.3477 81.7084C82.3934 83.693 85.5965 85.0587 89.2632 85.2474C93.3102 85.4584 96.9464 84.1788 99.1559 82.072L80.3477 81.7084Z" fill="#F7C9A5"/>
<path d="M70.2571 99.015C75.2034 98.9225 80.1516 98.8105 85.1016 98.6791C90.0239 98.5496 94.9461 98.396 99.8684 98.2184C102.644 98.1184 105.42 98.012 108.196 97.8992C108.373 97.8992 108.373 97.6216 108.196 97.6216C103.249 97.8233 98.3029 98.0028 93.3566 98.1601C88.4103 98.3174 83.4871 98.4525 78.587 98.5653C75.8113 98.6301 73.0356 98.6875 70.2599 98.7374C70.1832 98.7374 70.1211 98.7996 70.1211 98.8762C70.1211 98.9529 70.1832 99.015 70.2599 99.015H70.2571Z" fill="#71D2C1"/>
<path d="M70.504 101.566C75.3689 101.477 80.2329 101.366 85.0959 101.233C89.959 101.1 94.7971 100.945 99.6101 100.769C102.34 100.669 105.068 100.564 107.796 100.453C107.973 100.453 107.976 100.175 107.796 100.175C102.936 100.375 98.0742 100.554 93.2093 100.711C88.3444 100.868 83.5064 101.003 78.6951 101.116C75.9638 101.181 73.2335 101.238 70.504 101.288C70.4274 101.288 70.3652 101.351 70.3652 101.427C70.3652 101.504 70.4274 101.566 70.504 101.566Z" fill="#71D2C1"/>
<path d="M70.7517 104.12C75.5296 104.031 80.3066 103.92 85.0827 103.787C89.8588 103.653 94.609 103.5 99.3332 103.326C102.013 103.226 104.696 103.119 107.383 103.007C107.56 103.007 107.56 102.729 107.383 102.729C102.609 102.929 97.8343 103.108 93.0601 103.267C88.2859 103.427 83.5348 103.562 78.8068 103.673C76.1255 103.738 73.4423 103.794 70.7573 103.842C70.5796 103.842 70.5796 104.12 70.7573 104.12H70.7517Z" fill="#71D2C1"/>
<path d="M71.0011 106.676C75.7013 106.587 80.4006 106.476 85.0989 106.343C89.7973 106.21 94.4716 106.055 99.1219 105.88C101.759 105.78 104.395 105.673 107.03 105.56C107.208 105.56 107.21 105.283 107.03 105.283C102.333 105.486 97.6359 105.666 92.9376 105.821C88.2392 105.977 83.5649 106.114 78.9147 106.232C76.2759 106.295 73.638 106.352 71.0011 106.404C70.9244 106.404 70.8623 106.466 70.8623 106.543C70.8623 106.62 70.9244 106.682 71.0011 106.682V106.676Z" fill="#71D2C1"/>
<path d="M71.2488 109.23C75.875 109.141 80.5012 109.03 85.1274 108.896C89.7536 108.763 94.3566 108.609 98.9366 108.433C101.527 108.335 104.123 108.229 106.725 108.116C106.903 108.116 106.906 107.839 106.725 107.839C102.099 108.039 97.4728 108.218 92.8466 108.377C88.2205 108.537 83.6174 108.672 79.0375 108.783C76.4468 108.847 73.8487 108.904 71.2433 108.952C71.1666 108.952 71.1045 109.014 71.1045 109.091C71.1045 109.167 71.1666 109.23 71.2433 109.23H71.2488Z" fill="#71D2C1"/>
<path d="M159.903 70.5751L154.113 72.4209C105.413 138.683 174.323 154.96 192.95 130.364C211.578 105.768 159.903 70.5751 159.903 70.5751V70.5751Z" fill="#158C8C"/>
<path fill-rule="evenodd" clip-rule="evenodd" d="M158.956 68.9156C158.734 69.1137 158.414 69.1894 158.113 69.0858C157.669 68.9332 157.433 68.4498 157.585 68.006C157.632 67.8718 157.7 67.782 157.725 67.7503C157.758 67.7085 157.789 67.6774 157.808 67.6591C157.847 67.6221 157.882 67.5938 157.904 67.5771C157.951 67.5416 158 67.5089 158.044 67.4816C158.134 67.4249 158.248 67.3606 158.375 67.2956C158.627 67.1664 158.971 67.0142 159.338 66.9067C159.685 66.8051 160.153 66.7131 160.608 66.8007C160.849 66.847 161.111 66.9485 161.34 67.1479C161.574 67.3512 161.727 67.6157 161.807 67.9094C161.93 68.3622 161.663 68.8291 161.21 68.9523C160.795 69.0651 160.368 68.8502 160.205 68.4651C160.123 68.4676 159.994 68.4856 159.815 68.5377C159.578 68.6072 159.336 68.7128 159.149 68.8083C159.062 68.8528 158.996 68.8906 158.956 68.9156Z" fill="#F7C9A5"/>
<path fill-rule="evenodd" clip-rule="evenodd" d="M159.65 70.8891C159.428 71.0873 159.108 71.1629 158.807 71.0593C158.363 70.9067 158.127 70.4233 158.28 69.9795C158.326 69.8453 158.395 69.7555 158.42 69.7238C158.453 69.6821 158.484 69.651 158.503 69.6326C158.541 69.5956 158.577 69.5673 158.599 69.5506C158.645 69.5151 158.695 69.4824 158.738 69.4551C158.828 69.3984 158.942 69.3341 159.069 69.2691C159.321 69.1399 159.665 68.9877 160.032 68.8802C160.38 68.7786 160.847 68.6867 161.302 68.7742C161.543 68.8205 161.805 68.922 162.034 69.1214C162.268 69.3247 162.421 69.5892 162.501 69.8829C162.624 70.3358 162.357 70.8027 161.904 70.9258C161.489 71.0386 161.063 70.8237 160.899 70.4386C160.817 70.4411 160.688 70.4591 160.51 70.5113C160.272 70.5807 160.03 70.6863 159.843 70.7818C159.756 70.8263 159.69 70.8641 159.65 70.8891Z" fill="#F7C9A5"/>
<path fill-rule="evenodd" clip-rule="evenodd" d="M160.431 72.7359C160.447 72.726 160.469 72.7128 160.498 72.6967C160.6 72.639 160.749 72.5632 160.919 72.4916C161.091 72.4195 161.269 72.3584 161.431 72.3217C161.601 72.2831 161.706 72.2823 161.754 72.2894C162.218 72.3595 162.651 72.0402 162.721 71.5762C162.791 71.1122 162.472 70.6792 162.008 70.6091C161.372 70.5131 160.684 70.7474 160.262 70.9245C160.027 71.0229 159.818 71.1286 159.66 71.2182C159.582 71.2624 159.507 71.3079 159.444 71.3513C159.414 71.3718 159.373 71.4012 159.331 71.4366C159.311 71.4535 159.277 71.4836 159.24 71.5241C159.239 71.5247 159.239 71.5253 159.238 71.526C159.217 71.5491 159.115 71.6605 159.057 71.8356C158.908 72.2808 159.149 72.762 159.594 72.9104C159.894 73.0106 160.211 72.9335 160.431 72.7359ZM160.402 72.7546C160.402 72.7546 160.403 72.7543 160.404 72.7536C160.403 72.7543 160.402 72.7546 160.402 72.7546Z" fill="#F7C9A5"/>
<path d="M168.14 96.2394C165.292 94.8516 161.828 95.4067 159.405 97.3913C158.042 98.498 157.15 100.08 156.907 101.819C156.777 102.795 156.959 103.788 157.426 104.655C157.878 105.441 158.511 106.107 159.272 106.598C160.868 107.673 162.814 107.92 164.671 108.203C165.612 108.333 166.544 108.525 167.46 108.78C167.677 108.841 167.891 108.911 168.104 108.985L168.448 109.113C168.504 109.135 168.568 109.155 168.621 109.183C168.432 109.083 168.621 109.183 168.646 109.183C169.059 109.364 169.457 109.578 169.836 109.824C169.925 109.879 170.011 109.94 170.097 110.001L170.205 110.082C170.339 110.182 170.178 110.082 170.183 110.062C170.189 110.043 170.616 110.434 170.663 110.482C170.805 110.615 170.941 110.759 171.066 110.901C171.102 110.942 171.221 111.137 171.269 111.145C171.213 111.145 171.163 111.003 171.249 111.123L171.357 111.273C171.466 111.431 171.566 111.595 171.657 111.761C171.707 111.853 171.754 111.947 171.799 112.039C171.809 112.072 171.823 112.103 171.84 112.133C171.79 112.014 171.782 111.994 171.818 112.078C171.818 112.111 171.843 112.141 171.854 112.175C171.924 112.356 171.98 112.541 172.024 112.73C172.049 112.833 172.071 112.935 172.087 113.038V113.138C172.024 112.888 172.087 113.091 172.087 113.163C172.098 113.348 172.098 113.533 172.087 113.718C172.087 113.816 172.079 113.909 172.062 113.996C172.062 114.057 172.024 114.129 172.062 113.918C172.062 113.982 172.043 114.048 172.032 114.112C171.999 114.287 171.956 114.461 171.904 114.631C171.876 114.717 171.849 114.801 171.818 114.884C171.802 114.923 171.788 114.962 171.774 115C171.721 115.136 171.857 114.814 171.774 115.025C171.617 115.372 171.425 115.703 171.202 116.011C171.169 116.049 171.138 116.089 171.11 116.13C171.21 115.964 171.185 116.036 171.149 116.08C171.113 116.125 171.022 116.236 170.955 116.311C170.818 116.46 170.676 116.605 170.53 116.744C170.394 116.869 170.233 116.974 170.106 117.104C170.261 116.946 170.164 117.06 170.106 117.104L170.022 117.166C169.928 117.232 169.828 117.299 169.728 117.363C169.57 117.46 169.409 117.551 169.242 117.64L169.015 117.751C168.967 117.769 168.921 117.789 168.876 117.812C169.084 117.687 168.906 117.798 168.843 117.812C168.446 117.96 168.036 118.07 167.619 118.14L167.471 118.162C167.396 118.162 167.319 118.229 167.488 118.162C167.373 118.189 167.254 118.2 167.136 118.195C166.899 118.216 166.663 118.224 166.428 118.22C166.211 118.22 165.995 118.22 165.778 118.19L165.492 118.168C165.434 118.168 165.259 118.168 165.492 118.168C165.413 118.164 165.334 118.152 165.256 118.131C164.803 118.055 164.355 117.95 163.916 117.815C163.702 117.751 163.494 117.682 163.286 117.607L163.008 117.501L162.839 117.435L162.728 117.388L162.786 117.413C162.361 117.227 161.953 117.027 161.537 116.805L161.259 116.644L161.126 116.56C160.976 116.463 161.223 116.655 161.146 116.56C161.115 116.53 161.082 116.497 161.048 116.469C160.915 116.347 161.148 116.621 161.048 116.469C160.949 116.316 161.107 116.652 161.048 116.491C161.086 116.616 161.072 116.751 161.01 116.866C161.203 116.473 161.058 115.997 160.68 115.778C160.301 115.559 159.817 115.67 159.572 116.033C159.373 116.405 159.366 116.851 159.552 117.229C159.701 117.509 159.915 117.748 160.177 117.926C160.547 118.182 160.941 118.4 161.354 118.578C162.231 119.011 163.152 119.349 164.102 119.586C166.003 120.041 168.024 120.011 169.825 119.2C171.364 118.508 172.594 117.275 173.284 115.736C173.647 114.93 173.809 114.048 173.756 113.166C173.679 112.259 173.385 111.384 172.898 110.615C171.876 109.008 170.211 107.958 168.426 107.342C166.567 106.709 164.604 106.612 162.7 106.19C162.21 106.086 161.729 105.946 161.259 105.771L161.109 105.713C160.935 105.646 161.287 105.793 161.109 105.713C161.015 105.67 160.923 105.626 160.832 105.58C160.642 105.488 160.456 105.386 160.277 105.274L160.058 105.13L159.93 105.038L159.885 105.008C159.816 104.955 159.83 104.966 159.93 105.044C159.908 104.986 159.758 104.902 159.711 104.861C159.663 104.819 159.544 104.708 159.464 104.63C159.383 104.553 159.319 104.481 159.253 104.403L159.186 104.325L159.153 104.286C159.097 104.217 159.108 104.233 159.186 104.333C159.136 104.244 159.078 104.159 159.011 104.081C158.956 103.995 158.903 103.909 158.853 103.817C158.819 103.719 158.773 103.626 158.717 103.54L158.761 103.645L158.722 103.548L158.689 103.451C158.651 103.343 158.619 103.234 158.592 103.123C158.592 103.065 158.567 103.009 158.556 102.951C158.545 102.893 158.556 102.873 158.536 102.835C158.549 102.947 158.549 102.972 158.536 102.909C158.512 102.685 158.505 102.458 158.514 102.232C158.514 102.132 158.528 102.035 158.539 101.938C158.559 101.733 158.503 102.124 158.539 101.921C158.539 101.844 158.567 101.766 158.584 101.688C158.629 101.473 158.688 101.26 158.761 101.053C158.798 100.949 158.837 100.846 158.878 100.744C158.922 100.625 158.789 100.928 158.878 100.744C158.914 100.672 158.944 100.6 158.981 100.528C159.146 100.196 159.34 99.8796 159.561 99.5814C159.6 99.5314 159.708 99.4287 159.544 99.6036C159.575 99.5703 159.6 99.5314 159.63 99.4981L159.777 99.3232C159.905 99.1817 160.035 99.0457 160.174 98.9124C160.313 98.7792 160.432 98.6765 160.568 98.5655L160.64 98.5072C160.771 98.3989 160.479 98.6265 160.615 98.5238L160.876 98.3379C161.167 98.138 161.471 97.959 161.787 97.8021C161.866 97.7614 161.95 97.7226 162.037 97.6856L162.12 97.6467C162.275 97.5773 161.931 97.7217 162.089 97.6467C162.248 97.5718 162.434 97.5135 162.608 97.458C162.944 97.3463 163.287 97.2591 163.635 97.197L163.913 97.1526C164.085 97.1249 163.702 97.1748 163.874 97.1526L164.01 97.136C164.193 97.1165 164.377 97.1054 164.565 97.0999C164.917 97.0929 165.268 97.1096 165.617 97.1499C165.789 97.1693 165.406 97.1165 165.578 97.1499L165.689 97.1665L165.936 97.2137C166.117 97.2498 166.295 97.2942 166.469 97.3442C166.644 97.3941 166.791 97.4469 166.947 97.5051L167.074 97.5551C167.235 97.619 166.889 97.4718 167.047 97.5551L167.297 97.6717C167.554 97.8456 167.888 97.8612 168.161 97.7122C168.434 97.5632 168.601 97.2744 168.595 96.9634C168.588 96.6524 168.408 96.371 168.129 96.2339L168.14 96.2394Z" fill="#FFECE5"/>
<path d="M159.633 89.8994L162.778 103.123L165.922 116.346L167.688 123.769C167.746 123.982 167.887 124.163 168.079 124.272C168.271 124.382 168.499 124.41 168.712 124.352C169.148 124.22 169.404 123.769 169.292 123.327L166.147 110.101L162.994 96.8776L161.229 89.4553C161.17 89.2421 161.03 89.0609 160.837 88.9515C160.645 88.8422 160.418 88.8137 160.204 88.8724C159.767 89.004 159.511 89.4569 159.624 89.8994H159.633Z" fill="#FFECE5"/>
<ellipse cx="141.305" cy="28.0649" rx="6.06494" ry="6.06493" fill="#D18C3D"/>
<ellipse cx="140.839" cy="28.0649" rx="6.06491" ry="6.06493" fill="#E8A54F"/>
<path fill-rule="evenodd" clip-rule="evenodd" d="M139.138 25.0977H142.541V31.0323H139.138V25.0977ZM139.421 25.3809V30.749H142.258V25.3809H139.421Z" fill="white"/>
<ellipse cx="154.756" cy="43.9891" rx="6.06494" ry="6.06493" fill="#D18C3D"/>
<circle cx="154.343" cy="44.2141" r="6.06494" fill="#E8A54F"/>
<path fill-rule="evenodd" clip-rule="evenodd" d="M151.438 42.4187L154.432 40.8022L157.251 46.0245L154.256 47.641L151.438 42.4187ZM151.821 42.5334L154.371 47.2572L156.867 45.9098L154.317 41.186L151.821 42.5334Z" fill="white"/>
<ellipse cx="134.796" cy="57.246" rx="6.06494" ry="6.06492" fill="#D18C3D"/>
<ellipse cx="134.75" cy="57.7096" rx="6.06494" ry="6.06492" fill="#E8A54F"/>
<path fill-rule="evenodd" clip-rule="evenodd" d="M131.617 59.093L131.973 55.7085L137.875 56.3288L137.519 59.7134L131.617 59.093ZM131.928 58.8409L137.267 59.4021L137.564 56.5809L132.225 56.0198L131.928 58.8409Z" fill="white"/>
<circle cx="174.911" cy="42.1017" r="6.06494" fill="#D18C3D"/>
<ellipse cx="174.62" cy="41.738" rx="6.06494" ry="6.06493" fill="#E8A54F"/>
<path fill-rule="evenodd" clip-rule="evenodd" d="M175.896 38.5515L178.016 41.2141L173.373 44.9101L171.253 42.2475L175.896 38.5515ZM175.851 38.9495L171.651 42.2927L173.418 44.5121L177.618 41.1689L175.851 38.9495Z" fill="white"/>
</svg>
