<svg width="240" height="240" viewBox="0 0 240 240" fill="none" xmlns="http://www.w3.org/2000/svg">
<path d="M173.066 150.943H115.593C114.67 150.943 113.8 150.512 113.24 149.778C112.681 149.044 112.497 148.091 112.742 147.201L137.941 55.4728C138.294 54.1884 139.462 53.2986 140.794 53.2996H198.268C199.191 53.2994 200.061 53.7303 200.62 54.4645C201.179 55.1986 201.364 56.1518 201.118 57.0416L175.919 148.77C175.565 150.053 174.398 150.942 173.066 150.943Z" fill="#FFECE5"/>
<path fill-rule="evenodd" clip-rule="evenodd" d="M135.97 113.551C135.97 113.418 136.077 113.311 136.21 113.311H172.426C172.558 113.311 172.666 113.418 172.666 113.551C172.666 113.683 172.558 113.791 172.426 113.791H136.21C136.077 113.791 135.97 113.683 135.97 113.551Z" fill="#3A3144"/>
<path fill-rule="evenodd" clip-rule="evenodd" d="M139.705 97.7383C139.705 97.6057 139.813 97.4983 139.945 97.4983H176.161C176.294 97.4983 176.401 97.6057 176.401 97.7383C176.401 97.8708 176.294 97.9783 176.161 97.9783H139.945C139.813 97.9783 139.705 97.8708 139.705 97.7383Z" fill="#3A3144"/>
<path fill-rule="evenodd" clip-rule="evenodd" d="M143.439 81.9235C143.439 81.7909 143.547 81.6835 143.679 81.6835H179.896C180.028 81.6835 180.136 81.7909 180.136 81.9235C180.136 82.056 180.028 82.1635 179.896 82.1635H143.679C143.547 82.1635 143.439 82.056 143.439 81.9235Z" fill="#3A3144"/>
<path d="M92.623 214.021C92.623 214.021 94.5046 223.956 95.0574 228.855C95.1315 229.51 95.6851 230.005 96.3439 230.005H111.063C111.473 230.006 111.843 229.757 111.998 229.377C112.153 228.997 112.062 228.561 111.768 228.274C109.746 226.313 106.69 227.825 106.199 218.631C105.844 211.987 104.882 205.305 104.882 205.305" fill="#3A3144"/>
<path d="M92.623 214.021C92.623 214.021 94.5046 223.956 95.0574 228.855C95.1315 229.51 95.6851 230.005 96.3439 230.005H111.063C111.473 230.006 111.843 229.757 111.998 229.377C112.153 228.997 112.062 228.561 111.768 228.274C109.746 226.313 106.69 227.825 106.199 218.631C105.844 211.987 104.882 205.305 104.882 205.305" fill="#3A3144"/>
<path d="M106.951 218.375C106.439 214.955 105.345 211.749 105.143 209.202L96.4403 211.295L92.623 214.021C92.623 214.021 93.1922 217.036 93.799 220.562C96.3439 220.209 102.426 219.537 106.265 219.059C106.977 219.019 106.973 218.518 106.951 218.375Z" fill="#ED875F"/>
<path d="M105.398 222.093C105.868 221.867 106.362 221.696 106.871 221.585C107.017 221.555 106.955 221.327 106.807 221.35C106.279 221.467 105.767 221.645 105.281 221.882C105.144 221.948 105.264 222.15 105.398 222.084V222.093Z" fill="#D18C3D"/>
<path d="M105.716 223.603C106.203 223.368 106.718 223.199 107.25 223.102C107.398 223.074 107.335 222.848 107.186 222.867C106.636 222.97 106.102 223.145 105.599 223.389C105.462 223.455 105.58 223.66 105.716 223.594V223.603Z" fill="#D18C3D"/>
<path d="M106.504 225.134C106.906 224.911 107.337 224.744 107.786 224.641C107.934 224.608 107.873 224.379 107.724 224.405C107.255 224.513 106.804 224.688 106.384 224.923C106.252 224.996 106.37 225.2 106.504 225.125V225.134Z" fill="#D18C3D"/>
<path fill-rule="evenodd" clip-rule="evenodd" d="M72.1639 124.01C72.182 124.006 72.5834 123.909 81.4926 121.747C90.8221 119.485 90.8222 119.485 90.8224 119.486L90.864 119.658C90.8907 119.769 90.9298 119.932 90.9807 120.144C91.0826 120.569 91.2315 121.194 91.4221 122.002C91.8033 123.617 92.3513 125.962 93.0222 128.901C94.3637 134.776 96.1989 143.031 98.1766 152.563C102.118 171.561 106.68 195.887 108.989 216.591L89.9069 218.719C87.6995 198.921 83.284 175.294 79.3769 156.463C77.4303 147.081 75.6234 138.953 74.3039 133.174C73.6444 130.286 73.1071 127.986 72.7357 126.413C72.55 125.626 72.4058 125.021 72.3085 124.615C72.2599 124.412 72.223 124.259 72.1986 124.157L72.1631 124.01L72.1639 124.01Z" fill="#2E60B8"/>
<path d="M44.5784 206.008C44.5784 206.008 40.9845 215.461 38.8959 219.925C38.621 220.52 38.8341 221.227 39.3922 221.571L51.9331 229.274C52.283 229.49 52.729 229.472 53.0604 229.228C53.3918 228.985 53.5422 228.565 53.4407 228.166C52.7351 225.438 49.3459 225.127 53.7347 217.032C56.9076 211.182 59.5818 204.985 59.5818 204.985" fill="#3A3144"/>
<path d="M44.5784 206.008C44.5784 206.008 40.9845 215.461 38.8959 219.925C38.621 220.52 38.8341 221.227 39.3922 221.571L51.9331 229.274C52.283 229.49 52.729 229.472 53.0604 229.228C53.3918 228.985 53.5422 228.565 53.4407 228.166C52.7351 225.438 49.3459 225.127 53.7347 217.032C56.9076 211.182 59.5818 204.985 59.5818 204.985" fill="#3A3144"/>
<path d="M54.5153 217.211C55.8653 214.031 56.6109 210.726 57.7634 208.454L49.2538 205.69L44.5781 206.008C44.5781 206.008 43.4867 208.875 42.1484 212.198C44.5004 213.229 50.0394 215.835 53.5697 217.441C54.2024 217.77 54.4588 217.347 54.5153 217.211Z" fill="#ED875F"/>
<path d="M51.2516 219.572C51.7687 219.624 52.278 219.737 52.7686 219.908C52.9121 219.958 52.9732 219.73 52.8321 219.673C52.3203 219.498 51.7899 219.383 51.2516 219.33C51.101 219.313 51.101 219.548 51.2516 219.565V219.572Z" fill="#D18C3D"/>
<path d="M50.7321 221.023C51.2689 221.077 51.7958 221.204 52.2986 221.399C52.442 221.453 52.5032 221.225 52.3621 221.164C51.8384 220.964 51.2902 220.835 50.7321 220.781C50.5816 220.764 50.584 221 50.7321 221.016V221.023Z" fill="#D18C3D"/>
<path d="M50.6023 222.738C51.0626 222.757 51.5179 222.841 51.9547 222.987C52.0982 223.034 52.1617 222.808 52.0182 222.752C51.5627 222.598 51.0874 222.511 50.607 222.493C50.4565 222.493 50.4565 222.728 50.607 222.728L50.6023 222.738Z" fill="#D18C3D"/>
<path fill-rule="evenodd" clip-rule="evenodd" d="M63.6713 117.759C63.6716 117.762 63.6718 117.764 73.195 116.552C82.7182 115.34 82.7185 115.342 82.7188 115.345L82.7211 115.363L82.725 115.394C82.7279 115.418 82.7314 115.447 82.7356 115.481C82.7438 115.551 82.7544 115.642 82.7668 115.754C82.7918 115.979 82.8243 116.289 82.861 116.681C82.9345 117.465 83.0247 118.575 83.1046 119.98C83.2642 122.788 83.3826 126.783 83.2393 131.705C82.9531 141.532 81.6205 155.149 77.4323 170.435C73.7039 184.042 72.9951 185.939 58.1832 217.474L40.8047 209.312C55.3716 178.298 55.657 177.256 58.7695 165.892C58.8172 165.718 58.8656 165.541 58.9148 165.361C62.6175 151.847 63.7956 139.792 64.0474 131.146C64.1731 126.83 64.0674 123.389 63.9355 121.07C63.8697 119.911 63.7975 119.035 63.7448 118.473C63.7185 118.192 63.6971 117.99 63.6838 117.87C63.6772 117.81 63.6726 117.771 63.6705 117.753C63.6696 117.746 63.6691 117.742 63.6691 117.742L63.6692 117.743L63.67 117.749L63.6713 117.759Z" fill="#2E60B8"/>
<ellipse cx="77.5461" cy="116.552" rx="13.2629" ry="13.2629" fill="#2E60B8"/>
<path d="M90.4702 119.555C90.4702 119.555 64.4477 130.944 64.2831 130.739C64.1185 130.535 64.4736 126.654 63.9115 123.843C63.3493 121.032 63.7092 118.071 64.9863 116.999" fill="#124A9B"/>
<path fill-rule="evenodd" clip-rule="evenodd" d="M73.7168 89.2206L73.8979 82.5692L81.5751 82.7782L81.394 89.4297L73.7168 89.2206Z" fill="#71D2C1"/>
<path d="M76.8574 85.896C78.1761 86.8008 79.7833 87.1846 81.3685 86.9732L81.4932 84.1061L81.0745 84.139" fill="#3A3144"/>
<path d="M77.5898 71.4359C80.7402 71.2023 83.4835 73.567 83.7171 76.7174L84.0061 80.6157C84.1096 82.0029 83.6563 83.3741 82.7465 84.4263C81.8367 85.4784 80.5453 86.1249 79.1577 86.2228C75.7365 86.4764 72.7575 83.9086 72.5038 80.4874L72.2873 77.5671C72.1742 76.0502 72.67 74.5507 73.665 73.4002C74.6601 72.2496 76.0724 71.5428 77.5898 71.4359Z" fill="#71D2C1"/>
<path d="M82.3047 74.6816C82.3047 74.6816 82.6551 77.6263 83.5583 78.4683C84.0005 78.8822 85.233 75.6976 84.1322 74.3264" fill="#3A3144"/>
<path d="M85.2025 77.9274C85.5153 79.0845 84.7698 80.985 83.3209 81.0979L82.6859 77.8403C82.6435 77.6216 83.6549 77.1112 83.8336 77.0783C84.1286 76.992 84.4464 77.0353 84.7076 77.1973C84.9688 77.3593 85.1487 77.6247 85.2025 77.9274Z" fill="#71D2C1"/>
<path d="M72.3553 73.3645C72.3553 73.3645 71.0899 74.9356 71.1675 76.2575C71.2451 77.5793 71.9413 78.9788 71.9413 78.9788L72.9621 78.3272C72.9621 78.3272 74.5003 77.3864 73.8864 75.646" fill="#3A3144"/>
<path d="M70.7138 78.9999C70.575 80.1924 71.5935 81.9682 73.0376 81.86L73.1834 78.5436C73.1834 78.3226 72.1179 77.9651 71.9368 77.9603C71.6339 77.9218 71.3287 78.0126 71.096 78.2103C70.8633 78.4081 70.7246 78.6947 70.7138 78.9999Z" fill="#71D2C1"/>
<path d="M62.4563 91.6702L60.2148 117.97C60.274 119.093 61.2071 119.97 62.3316 119.96L92.275 119.652C92.3321 119.655 92.3895 119.655 92.4467 119.652C93.0211 119.583 93.5393 119.274 93.8718 118.8C94.2043 118.327 94.3198 117.734 94.1895 117.171L90.812 101.621C91.8634 93.3895 90.6756 88.8972 82.3777 88.9207L69.3641 88.9442C63.5523 88.9536 62.1529 85.8749 62.4563 91.6702Z" fill="#4F8AE0"/>
<path d="M120.924 101.861L126.282 108.299C126.282 108.299 133.516 102.456 130.195 98.9214C126.874 95.3864 120.924 101.861 120.924 101.861Z" fill="#71D2C1"/>
<path d="M132.423 93.921C130.307 96.1043 127.67 97.7133 124.76 98.5968C123.895 98.8602 124.264 100.224 125.137 99.9586C128.281 99.0037 131.131 97.2662 133.42 94.9089C134.053 94.2574 133.058 93.2625 132.423 93.9116V93.921Z" fill="#71D2C1"/>
<path d="M133.358 95.9813C131.68 97.4228 129.886 98.7247 127.996 99.8739C127.222 100.344 127.93 101.567 128.701 101.092C130.691 99.8768 132.579 98.5019 134.346 96.9809C135.035 96.3859 134.033 95.391 133.349 95.9813H133.358Z" fill="#71D2C1"/>
<path d="M133.018 98.8767C131.764 99.8332 130.48 100.743 129.166 101.605C128.408 102.099 129.114 103.32 129.871 102.823C131.19 101.963 132.474 101.053 133.724 100.095C134.429 99.5494 133.724 98.324 133.018 98.8767Z" fill="#71D2C1"/>
<path d="M132.644 101.565C131.932 102.095 131.221 102.627 130.51 103.162C129.269 104.103 127.879 104.771 126.474 105.425C125.651 105.806 126.366 107.024 127.18 106.643C128.591 105.989 129.977 105.319 131.218 104.38C131.926 103.844 132.637 103.312 133.352 102.783C134.074 102.25 133.37 101.024 132.646 101.565H132.644Z" fill="#71D2C1"/>
<path d="M144.896 87.6858L81.9963 28.7424C79.4212 26.329 75.7542 25.4728 72.3766 26.4962C69.0003 27.5202 66.4264 30.2671 65.624 33.7027C64.8217 37.1403 65.9147 40.7447 68.4911 43.1578L131.388 102.101C133.324 103.915 135.605 105.321 138.096 106.234L158.053 113.551L149.456 94.1115C148.383 91.6849 146.832 89.4994 144.896 87.6858Z" fill="#FFA97F"/>
<path d="M74.167 40.295L79.5096 34.5938L143.648 94.6976L138.306 100.399L74.167 40.295Z" fill="#F99192"/>
<path d="M134.61 104.343C136.238 105.343 137.962 106.175 139.757 106.829L158.064 113.541L150.178 95.7086C149.406 93.9638 148.461 92.3012 147.356 90.7458L134.61 104.343Z" fill="#B2EEE6"/>
<path d="M154.01 104.409L148.666 110.11L158.053 113.551L154.01 104.409Z" fill="#4F8AE0"/>
<path d="M72.3771 26.4962C69.0008 27.5201 66.4269 30.2671 65.6245 33.7027C64.6592 36.9465 65.6088 40.4572 68.0776 42.772L73.546 47.897L87.0536 33.4793L81.9968 28.7424C79.4217 26.329 75.7547 25.4728 72.3771 26.4962Z" fill="#3A3144"/>
<path d="M125.859 94.9158C124.777 96.6634 123.568 98.338 122.413 100.036C121.731 101.04 123.354 101.984 124.038 100.977C125.193 99.2788 126.39 97.6042 127.482 95.8566C128.121 94.8241 126.494 93.8786 125.859 94.9158Z" fill="#71D2C1"/>
<path d="M78.8394 80.7216C78.9062 80.633 79.0125 80.5832 79.1233 80.5889C79.2341 80.5946 79.3348 80.6548 79.3922 80.7498C79.5803 80.985 79.9119 80.6534 79.7261 80.4182C79.5643 80.2203 79.318 80.1112 79.0627 80.1242C78.8074 80.1372 78.5735 80.2708 78.4326 80.484C78.2538 80.7192 78.6678 80.9544 78.8394 80.7192V80.7216Z" fill="#3A3144"/>
<path d="M77.6799 81.9376C78.0477 82.1522 78.4711 82.2521 78.8959 82.2246C79.197 82.2034 79.1993 81.733 78.8959 81.7542C78.5546 81.7813 78.2132 81.7033 77.9175 81.5307C77.8058 81.4723 77.6679 81.5123 77.6048 81.6214C77.5418 81.7306 77.5759 81.87 77.6823 81.9376H77.6799Z" fill="#3A3144"/>
<ellipse cx="76.4901" cy="79.4374" rx="0.413948" ry="0.413944" fill="#3A3144"/>
<ellipse cx="81.5048" cy="79.0658" rx="0.41394" ry="0.41396" fill="#3A3144"/>
<path d="M76.0363 78.0426C76.2523 77.9934 76.4734 77.9697 76.6949 77.9721C76.8248 77.9721 76.9301 77.8668 76.9301 77.7369C76.9301 77.607 76.8248 77.5017 76.6949 77.5017C76.4313 77.5 76.1685 77.5292 75.9117 77.5887C75.6153 77.6569 75.74 78.1108 76.0363 78.0426Z" fill="#3A3144"/>
<path d="M81.0321 77.6641C81.2436 77.6358 81.4579 77.6358 81.6695 77.6641C81.7941 77.6987 81.9234 77.6262 81.9588 77.5018C81.9935 77.3771 81.9209 77.2479 81.7965 77.2125C81.5434 77.1733 81.2862 77.1693 81.0321 77.2007C80.9022 77.2007 80.7969 77.306 80.7969 77.4359C80.7969 77.5658 80.9022 77.6711 81.0321 77.6711V77.6641Z" fill="#3A3144"/>
<path d="M72.5998 72.8095C72.5998 72.8095 74.7471 70.5633 79.5476 71.1255C84.348 71.6876 84.983 70.7703 84.7808 72.8095C84.3786 76.8455 74.7942 77.1513 72.9314 75.773C71.0686 74.3947 72.5998 72.8095 72.5998 72.8095Z" fill="#3A3144"/>
<path d="M81.6035 143.304C81.8295 148.352 81.22 153.403 79.7995 158.253C79.7651 158.378 79.8388 158.508 79.9641 158.542C80.0895 158.577 80.219 158.503 80.2534 158.378C81.6853 153.487 82.3004 148.394 82.0739 143.304C82.0597 143.003 81.5893 143 81.6035 143.304Z" fill="#3A3144"/>
<path d="M88.6381 100.053C88.7031 100.053 88.7557 100 88.7557 99.9351C88.7557 99.8702 88.7031 99.8175 88.6381 99.8175C88.5732 99.8175 88.5205 99.8702 88.5205 99.9351C88.5205 100 88.5732 100.053 88.6381 100.053Z" fill="#4F8AE0"/>
<path fill-rule="evenodd" clip-rule="evenodd" d="M82.361 100.557C82.5468 100.648 83.4858 101.109 84.8139 101.109V89.1088C86.2572 89.1088 87.3216 89.6249 87.6175 89.7695C88.0656 89.9884 88.4248 90.2242 88.6483 90.379C89.1048 90.6952 89.5364 91.0544 89.8745 91.347C90.5737 91.9521 91.4241 92.7563 92.2942 93.5885C92.6013 93.8823 92.9194 94.1878 93.2477 94.503C94.8606 96.0515 96.7182 97.8351 98.7181 99.6206C101.139 101.782 103.571 103.766 105.746 105.162C107.987 106.601 109.067 106.826 109.209 106.855C109.222 106.858 109.227 106.859 109.224 106.859C111.212 106.781 114.097 105.383 117.097 103.165C118.462 102.156 119.63 101.143 120.457 100.381C120.867 100.003 121.186 99.6945 121.393 99.4884C121.497 99.3855 121.573 99.3088 121.618 99.2626C121.64 99.2395 121.655 99.2241 121.662 99.2168L121.662 99.2171L121.661 99.2186C121.66 99.2194 121.659 99.2203 126.009 103.353C130.36 107.485 130.359 107.486 130.358 107.487L130.351 107.494L130.339 107.506C130.332 107.513 130.324 107.522 130.315 107.532L130.306 107.541C130.279 107.569 130.244 107.605 130.201 107.649C130.114 107.738 129.994 107.859 129.844 108.008C129.543 108.306 129.118 108.718 128.587 109.207C127.532 110.179 126.028 111.485 124.232 112.813C120.911 115.269 115.52 118.622 109.693 118.85C105.746 119.004 101.946 116.982 99.2626 115.26C96.2989 113.357 93.3172 110.886 90.726 108.572C88.5476 106.627 86.5066 104.667 84.895 103.119C84.5794 102.816 84.2803 102.529 83.9998 102.261C83.1055 101.405 82.4617 100.802 82.0216 100.421C81.8552 100.277 81.7829 100.222 81.7832 100.221C81.7833 100.221 81.7946 100.229 81.8157 100.244L81.8166 100.244C81.8517 100.269 82.0444 100.402 82.35 100.552C82.3533 100.553 82.357 100.555 82.361 100.557ZM121.662 99.2168C121.666 99.2132 121.667 99.2117 121.667 99.2122L121.664 99.2146L121.662 99.2168Z" fill="#4F8AE0"/>
<path d="M63.707 45.7262L70.2479 50.957C70.2479 50.957 76.1632 43.7834 72.2001 40.9869C68.237 38.1904 63.707 45.7262 63.707 45.7262Z" fill="#71D2C1"/>
<path d="M73.3597 35.6713C71.719 38.2355 69.4526 40.3399 66.7741 41.7865C65.9768 42.2216 66.6871 43.4329 67.4797 43.0049C70.3657 41.4344 72.805 39.1561 74.5687 36.384C75.0579 35.6172 73.8372 34.9069 73.3503 35.6784L73.3597 35.6713Z" fill="#71D2C1"/>
<path d="M74.7991 37.3624C73.4109 39.158 71.8786 40.8374 70.2174 42.3839C69.5518 43.0048 70.5514 44.0021 71.2147 43.3835C72.8753 41.8356 74.4076 40.1555 75.7964 38.3596C76.0592 38.0792 76.0592 37.6428 75.7964 37.3624C75.5612 37.1154 75.032 37.0613 74.7991 37.3624Z" fill="#71D2C1"/>
<path d="M74.9288 40.4012C73.8971 41.5913 72.8214 42.7399 71.7018 43.8469C71.055 44.4867 72.0523 45.4933 72.6991 44.8442C73.8187 43.7387 74.8943 42.5909 75.9261 41.4008C76.5188 40.7164 75.5262 39.7144 74.9288 40.4012Z" fill="#71D2C1"/>
<path d="M75.1026 43.1106C74.524 43.7582 73.9478 44.4066 73.3739 45.0557C72.3501 46.1658 71.2099 47.1625 69.9729 48.0287C69.2508 48.5626 69.9541 49.788 70.6785 49.247C71.9556 48.3062 73.2304 47.3513 74.2818 46.1565C74.8839 45.4744 75.4875 44.7947 76.0928 44.1173C76.6973 43.4446 75.7024 42.4427 75.0955 43.12L75.1026 43.1106Z" fill="#71D2C1"/>
<path d="M67.1317 37.9858C66.4261 39.9144 65.5747 41.796 64.7797 43.6917C64.5845 44.1621 64.9914 44.7266 65.4359 44.8489C65.9792 44.9994 66.3979 44.6631 66.5931 44.1927C67.3857 42.297 68.2395 40.413 68.9451 38.4844C69.3637 37.3484 67.5456 36.8568 67.1317 37.9858Z" fill="#71D2C1"/>
<path fill-rule="evenodd" clip-rule="evenodd" d="M64.6481 57.0698C60.2939 61.5977 56.4096 66.9449 55.346 71.8472C55.1449 72.7743 55.3334 74.2464 57.0385 76.535C58.7328 78.8091 61.4051 81.1487 64.5138 83.3388C67.5667 85.4894 70.7489 87.2941 73.2 88.5716C74.4167 89.2058 75.4328 89.6994 76.1355 90.0305C76.4864 90.1958 76.7579 90.32 76.9358 90.4003C77.0247 90.4405 77.0901 90.4696 77.1302 90.4873C77.1503 90.4962 77.164 90.5022 77.1711 90.5054L77.1747 90.5069C77.1738 90.5065 77.1727 90.5061 74.7829 96.0096C72.393 101.513 72.3918 101.513 72.3904 101.512L72.3786 101.507L72.3538 101.496C72.3387 101.489 72.3196 101.481 72.2967 101.471L72.2741 101.461C72.2078 101.432 72.1154 101.39 71.9987 101.338C71.7654 101.232 71.4346 101.081 71.021 100.886C70.1946 100.497 69.0326 99.9317 67.6536 99.2129C64.9133 97.7846 61.2333 95.7064 57.6029 93.1489C54.0285 90.6309 50.1966 87.4371 47.4156 83.7043C44.6454 79.9861 42.3876 74.9779 43.6188 69.3029C45.42 61.0011 51.3023 53.6357 55.9986 48.7521C58.4422 46.2109 60.7784 44.1258 62.5044 42.674C63.3703 41.9457 64.0903 41.3704 64.6032 40.9702C64.8599 40.77 65.0653 40.6132 65.2118 40.5025C65.2851 40.4471 65.3437 40.4033 65.3867 40.3713C65.4082 40.3553 65.4258 40.3423 65.4394 40.3322L65.4568 40.3194L65.4658 40.3128C65.467 40.3119 65.4681 40.3111 69.0158 45.1499C72.5635 49.9887 72.5644 49.988 72.5653 49.9874L72.549 49.9995C72.5288 50.0145 72.4934 50.0409 72.4439 50.0783C72.3449 50.1531 72.1894 50.2717 71.9847 50.4314C71.5748 50.7512 70.9702 51.2338 70.2287 51.8575C68.7397 53.1098 66.7298 54.9052 64.6481 57.0698Z" fill="#4F8AE0"/>
<path d="M70.7021 89.3534L71.2643 86.3852C71.3404 85.9916 71.7085 85.7243 72.1063 85.7737L82.6903 87.1143C83.1029 87.1682 83.396 87.543 83.3489 87.9563L83.0384 90.5788" fill="#4F8AE0"/>
<path d="M62.7662 98.5121L65.5886 99.4952C65.8756 99.5964 65.9979 99.1424 65.7133 99.0413L62.8909 98.0582C62.6039 97.9594 62.4816 98.4133 62.7662 98.5121Z" fill="#3A3144"/>
<path d="M91.3994 103.385C91.2183 105.415 91.3878 107.46 91.9004 109.433C91.9348 109.558 92.0643 109.632 92.1897 109.597C92.315 109.563 92.3887 109.433 92.3543 109.308C91.8542 107.376 91.6903 105.373 91.8698 103.385C91.8957 103.082 91.4253 103.084 91.3994 103.385Z" fill="#3A3144"/>
<ellipse cx="80.0959" cy="92.745" rx="0.548008" ry="0.548019" fill="#B2EEE6"/>
<ellipse cx="80.0959" cy="97.7383" rx="0.548008" ry="0.548038" fill="#B2EEE6"/>
<ellipse cx="80.0959" cy="102.732" rx="0.548008" ry="0.548038" fill="#B2EEE6"/>
</svg>
