<svg width="40" height="40" viewBox="0 0 40 40" fill="none" xmlns="http://www.w3.org/2000/svg">
<rect width="40" height="40" rx="20" fill="#1771E4"/>
<path d="M26.7628 16.2312C26.6972 16.0904 26.556 16 26.4004 16H21.6604L26.3384 8.61402C26.4164 8.49083 26.4211 8.33483 26.3508 8.20723C26.2804 8.07922 26.1459 8 26.0003 8H19.6004C19.4488 8 19.3103 8.08559 19.2424 8.2212L13.2424 20.2212C13.1804 20.3448 13.1872 20.492 13.26 20.61C13.3332 20.728 13.4616 20.8 13.6004 20.8H17.7135L13.2315 31.4448C13.1551 31.6268 13.2232 31.838 13.3915 31.9412C13.4563 31.9808 13.5283 32 13.5999 32C13.7147 32 13.8279 31.9507 13.9064 31.858L26.7064 16.658C26.8067 16.5388 26.8283 16.3724 26.7628 16.2312Z" fill="white"/>
</svg>
