<svg width="255" height="280" viewBox="0 0 255 280" fill="none" xmlns="http://www.w3.org/2000/svg">
<path d="M213.01 42.7464L202.129 44.2922C202.129 44.2922 200.222 32.2361 206.577 31.7231C212.932 31.2101 213.01 42.7464 213.01 42.7464Z" fill="#F7C9A5"/>
<path d="M204.036 33.4309C202.308 33.5524 200.448 34.2511 199.82 36.0129C199.599 36.6953 199.613 37.4322 199.861 38.1055C200.152 38.8568 200.587 39.5445 201.14 40.1306C201.653 40.7145 202.223 41.2478 202.706 41.862L202.494 41.5887C202.615 41.7479 202.727 41.9135 202.831 42.0848C203.226 42.678 204.014 42.862 204.631 42.5049C205.248 42.1478 205.481 41.3728 205.163 40.7347C204.488 39.6311 203.476 38.8143 202.689 37.8085L202.899 38.0819C202.688 37.8166 202.511 37.5264 202.372 37.2178L202.51 37.5385C202.428 37.3411 202.37 37.135 202.335 36.9242L202.382 37.282C202.364 37.1115 202.364 36.9394 202.382 36.7689L202.335 37.1301C202.357 36.976 202.397 36.8252 202.456 36.6812L202.318 37.0187C202.377 36.8862 202.451 36.7605 202.537 36.6441L202.328 36.9174C202.44 36.7753 202.568 36.6463 202.71 36.5327L202.436 36.7453C202.645 36.5885 202.871 36.457 203.111 36.3538L202.774 36.4888C203.171 36.3245 203.587 36.2111 204.012 36.1513L203.651 36.1985L204.026 36.1614C204.383 36.1547 204.724 36.0137 204.981 35.7665C205.234 35.5131 205.376 35.1695 205.376 34.8113C205.346 34.1363 204.782 33.4107 204.026 33.4613L204.036 33.4309Z" fill="#F7C9A5"/>
<path d="M212.551 29.7656C211.755 33.0316 211.217 36.3551 210.941 39.7054C210.864 40.6268 210.81 41.5516 210.772 42.4764C210.772 43.0356 211.226 43.4889 211.785 43.4889C212.34 43.4782 212.787 43.0311 212.798 42.4764C212.863 40.8563 212.988 39.2407 213.172 37.6297C213.196 37.4272 213.223 37.2246 213.246 37.0221C213.246 36.9276 213.27 36.8331 213.284 36.7386C213.284 36.6981 213.284 36.6576 213.284 36.6171C213.246 36.8534 213.284 36.6542 213.284 36.6171C213.338 36.2121 213.398 35.8071 213.462 35.4054C213.587 34.6089 213.729 33.8191 213.884 33.0428C214.063 32.1349 214.266 31.2304 214.485 30.3427C214.634 29.8031 214.318 29.2447 213.778 29.0956C213.238 28.9465 212.68 29.263 212.531 29.8027L212.551 29.7656Z" fill="#F7C9A5"/>
<path d="M210.32 27.0451C209.617 29.8378 209.127 32.68 208.855 35.5471C208.855 36.1064 209.309 36.5597 209.868 36.5597C210.421 36.5455 210.866 36.1004 210.881 35.5471C210.914 35.1961 210.951 34.8451 210.992 34.4941C211.012 34.3321 211.029 34.1566 211.049 34.0081C211.049 33.9136 211.073 33.8191 211.086 33.7246C211.086 33.6942 211.127 33.4275 211.107 33.5761C211.086 33.7246 211.127 33.4174 211.13 33.387C211.134 33.3567 211.154 33.2284 211.167 33.1474L211.238 32.6648C211.292 32.3182 211.35 31.9706 211.41 31.6218C211.647 30.2718 211.935 28.9217 212.275 27.5717C212.423 27.032 212.105 26.4744 211.566 26.3262C211.026 26.178 210.468 26.4954 210.32 27.035V27.0451Z" fill="#F7C9A5"/>
<path d="M207.145 25.3846C206.852 26.9801 206.654 28.5918 206.554 30.211C206.504 30.9772 206.48 31.7434 206.477 32.5095C206.475 32.8977 206.499 33.2855 206.548 33.6706C206.61 34.1249 206.736 34.568 206.922 34.9869C207.056 35.2157 207.274 35.3829 207.53 35.4527C207.789 35.524 208.066 35.4894 208.299 35.3565C208.533 35.2235 208.704 35.0031 208.775 34.7439C208.83 34.4797 208.793 34.2045 208.671 33.9642C208.782 34.2174 208.671 33.9068 208.644 33.8528C208.617 33.7988 208.603 33.7111 208.586 33.6368C208.569 33.5626 208.556 33.4883 208.542 33.4141C208.529 33.3398 208.542 33.3162 208.542 33.4613C208.542 33.4107 208.542 33.3601 208.542 33.3094C208.516 32.9782 208.507 32.6459 208.515 32.3138C208.515 31.5847 208.541 30.8568 208.593 30.13C208.645 29.4033 208.712 28.6765 208.795 27.9497L208.826 27.7067C208.826 27.6493 208.826 27.5953 208.849 27.5413C208.829 27.6729 208.829 27.6831 208.849 27.5649L208.92 27.0755C208.978 26.6941 209.042 26.3161 209.113 25.9347C209.248 25.3968 208.935 24.8478 208.404 24.6893C207.908 24.5779 207.26 24.8412 207.158 25.3981L207.145 25.3846Z" fill="#F7C9A5"/>
<path d="M203.665 26.981C203.423 30.0129 203.583 33.0635 204.141 36.0534C204.29 36.592 204.848 36.9077 205.386 36.7588C205.916 36.5989 206.227 36.0503 206.092 35.5134C206.024 35.1387 205.96 34.7607 205.903 34.3827C205.903 34.3017 205.879 34.2207 205.869 34.1397C205.859 34.0587 205.822 33.8258 205.869 34.0857C205.842 33.8967 205.822 33.7077 205.798 33.5153C205.717 32.7998 205.66 32.0775 205.623 31.3552C205.552 29.8925 205.578 28.4268 205.7 26.9675C205.7 26.4083 205.247 25.955 204.688 25.955C204.133 25.9657 203.686 26.4128 203.675 26.9675L203.665 26.981Z" fill="#F7C9A5"/>
<path d="M94.7011 116.615C85.9066 116.591 78.7828 109.469 78.7568 100.674V54.8699H113.48C122.838 54.8699 130.424 62.4557 130.424 71.8132V100.657C130.424 103.627 131.612 106.922 133.536 109.77C134.445 111.115 134.537 112.852 133.776 114.285C133.014 115.719 131.524 116.615 129.901 116.615H94.7011Z" fill="#66B2B2"/>
<path d="M39.9021 133.636C48.6958 133.662 55.8185 140.783 55.8463 149.577V195.367H18.6555C10.648 195.356 4.1626 188.862 4.1626 180.854V149.577C4.1626 146.61 2.97455 143.312 1.05071 140.464C0.145171 139.119 0.0552718 137.384 0.816933 135.952C1.57859 134.521 3.06764 133.626 4.68913 133.626L39.9021 133.636Z" fill="#E9D9D4"/>
<path d="M57.9217 54.87C47.681 54.8978 39.3862 63.1926 39.3584 73.4333V126.74H99.5171V73.4299C99.5171 60.2668 106.041 56.6284 113.659 54.8666L57.9217 54.87Z" fill="#158C8C"/>
<path d="M80.9512 195.367C91.1911 195.338 99.4848 187.044 99.5145 176.804V123.477H39.3558V181.192C39.3558 188.698 34.0095 195.337 25.2139 195.337L80.9512 195.367Z" fill="#158C8C"/>
<path d="M127.173 77.7602C125.469 80.2747 125.236 83.4541 125.486 86.3973C125.557 87.295 125.671 88.1895 125.783 89.0974C125.792 89.3633 125.896 89.6171 126.076 89.8129C126.269 90.0012 126.526 90.1077 126.795 90.1099C127.285 90.0863 127.875 89.6576 127.808 89.0974C127.585 87.5734 127.457 86.0369 127.426 84.497C127.426 84.1325 127.426 83.7646 127.46 83.3967C127.46 83.228 127.487 83.0592 127.504 82.8938C127.504 82.8196 127.521 82.7487 127.528 82.6745C127.534 82.6002 127.551 82.5226 127.528 82.6745C127.504 82.8263 127.528 82.6272 127.528 82.5901C127.625 81.9261 127.781 81.2722 127.993 80.6359C128.058 80.4536 128.128 80.2747 128.196 80.0958L128.166 80.1735C128.188 80.1312 128.207 80.0872 128.223 80.0418C128.26 79.9541 128.304 79.8663 128.344 79.7786C128.516 79.4345 128.71 79.1019 128.925 78.7829C129.207 78.301 129.045 77.682 128.564 77.3991C128.079 77.1305 127.469 77.2893 127.177 77.7602H127.173Z" fill="#F7C9A5"/>
<path d="M127.699 90.4103L116.821 91.9561C116.821 91.9561 114.924 79.9035 121.27 79.3871C127.615 78.8707 127.699 90.4103 127.699 90.4103Z" fill="#F7C9A5"/>
<path d="M113.595 81.6855L116.454 89.6307C116.555 89.9666 116.776 90.2536 117.075 90.4373C117.389 90.6198 117.763 90.6696 118.114 90.5757C118.766 90.3631 119.312 89.6273 119.059 88.9151L116.197 80.9666C116.097 80.6314 115.877 80.3445 115.579 80.16C115.264 79.9784 114.888 79.9299 114.537 80.025C113.885 80.2342 113.338 80.9734 113.595 81.6855Z" fill="#F7C9A5"/>
<path d="M184.696 260.677C184.696 260.677 185.709 271.319 186.107 277.525C186.189 278.855 187.293 279.891 188.625 279.888H211.853C212.378 279.888 212.86 279.599 213.108 279.136C213.356 278.673 213.329 278.111 213.037 277.674C211.569 275.46 208.987 272.132 205.811 270.286C200.749 267.353 204.492 253.096 204.492 253.096" fill="#008080"/>
<path d="M184.696 260.677C184.696 260.677 185.003 263.917 185.348 267.859H203.911C201.943 262.823 204.498 253.089 204.498 253.089L184.696 260.677Z" fill="#3A3144"/>
<path d="M204.181 270.67C204.64 270.056 205.255 269.577 205.963 269.283C206.052 269.256 206.103 269.164 206.081 269.074C206.057 268.985 205.965 268.932 205.876 268.956C205.086 269.28 204.4 269.813 203.891 270.498C203.867 270.537 203.86 270.583 203.871 270.627C203.882 270.671 203.91 270.708 203.948 270.731C204.03 270.776 204.132 270.749 204.181 270.67Z" fill="#F7C9A5"/>
<path d="M205.717 272.095C206.149 271.466 206.744 270.967 207.438 270.65C207.518 270.602 207.545 270.499 207.499 270.417C207.449 270.339 207.347 270.312 207.266 270.357C206.521 270.704 205.885 271.246 205.423 271.926C205.376 272.007 205.404 272.111 205.485 272.157C205.566 272.204 205.67 272.176 205.717 272.095Z" fill="#F7C9A5"/>
<path d="M207.415 273.192C207.794 272.65 208.323 272.23 208.937 271.983C209.025 271.957 209.076 271.866 209.052 271.777C209.027 271.688 208.935 271.636 208.846 271.659C208.152 271.931 207.553 272.4 207.124 273.009C207.101 273.048 207.094 273.094 207.105 273.138C207.115 273.182 207.143 273.219 207.182 273.242C207.263 273.285 207.364 273.259 207.415 273.182V273.192Z" fill="#F7C9A5"/>
<path d="M208.835 274.67C209.223 274.13 209.712 273.672 210.276 273.32C210.462 273.205 210.276 272.912 210.108 273.026C209.493 273.414 208.962 273.92 208.545 274.515C208.499 274.595 208.526 274.697 208.606 274.744C208.644 274.767 208.69 274.774 208.733 274.762C208.777 274.751 208.813 274.723 208.835 274.684V274.67Z" fill="#F7C9A5"/>
<path d="M150.887 260.677C150.887 260.677 149.874 271.319 149.476 277.525C149.394 278.855 148.29 279.891 146.958 279.888H123.734C123.208 279.889 122.724 279.6 122.476 279.137C122.227 278.674 122.254 278.111 122.546 277.674C124.017 275.46 126.596 272.132 129.775 270.286C134.838 267.353 131.095 253.096 131.095 253.096" fill="#008080"/>
<path d="M150.887 260.677C150.887 260.677 150.58 263.917 150.239 267.859H131.676C133.643 262.823 131.092 253.089 131.092 253.089L150.887 260.677Z" fill="#3A3144"/>
<path d="M131.706 270.498C131.196 269.815 130.51 269.282 129.721 268.956C129.661 268.94 129.597 268.957 129.552 269.001C129.508 269.045 129.491 269.109 129.507 269.17C129.523 269.23 129.57 269.277 129.63 269.294C130.338 269.587 130.954 270.066 131.412 270.681C131.464 270.757 131.563 270.783 131.645 270.741C131.724 270.692 131.751 270.59 131.706 270.509V270.498Z" fill="#F7C9A5"/>
<path d="M130.154 271.926C129.693 271.246 129.056 270.703 128.311 270.357C128.258 270.326 128.194 270.326 128.141 270.356C128.088 270.386 128.055 270.442 128.055 270.502C128.054 270.563 128.086 270.62 128.139 270.65C128.833 270.968 129.429 271.467 129.864 272.095C129.91 272.175 130.013 272.202 130.093 272.156C130.173 272.109 130.2 272.006 130.154 271.926Z" fill="#F7C9A5"/>
<path d="M128.456 273.02C128.026 272.41 127.426 271.941 126.731 271.67C126.642 271.646 126.55 271.699 126.525 271.788C126.504 271.877 126.556 271.967 126.644 271.994C127.256 272.241 127.783 272.661 128.162 273.202C128.213 273.279 128.314 273.306 128.395 273.263C128.475 273.214 128.502 273.111 128.456 273.03V273.02Z" fill="#F7C9A5"/>
<path d="M127.032 274.501C126.616 273.907 126.086 273.401 125.472 273.013C125.287 272.898 125.135 273.192 125.3 273.307C125.865 273.658 126.354 274.116 126.742 274.657C126.788 274.736 126.891 274.763 126.971 274.717C127.01 274.695 127.039 274.659 127.05 274.615C127.061 274.572 127.055 274.526 127.032 274.488V274.501Z" fill="#F7C9A5"/>
<path fill-rule="evenodd" clip-rule="evenodd" d="M157.338 128.472C157.338 128.472 157.338 128.472 170.666 124.985C183.993 121.498 183.993 121.5 183.994 121.501L184.013 121.573C184.024 121.619 184.041 121.684 184.063 121.768C184.107 121.937 184.171 122.184 184.254 122.506C184.419 123.15 184.659 124.092 184.964 125.305C185.575 127.731 186.445 131.244 187.493 135.623C189.588 144.377 192.4 156.619 195.273 170.588C200.973 198.309 207.085 233.638 208.06 262.043L180.524 262.989C179.632 237.027 173.931 203.591 168.285 176.138C165.485 162.521 162.74 150.574 160.697 142.035C159.676 137.769 158.831 134.359 158.244 132.025C157.951 130.858 157.722 129.96 157.567 129.359C157.49 129.059 157.431 128.832 157.393 128.683C157.374 128.609 157.359 128.554 157.35 128.518L157.338 128.472Z" fill="#ED8A8E"/>
<path d="M178.681 58.1202C177.864 56.7079 176.43 55.7626 174.81 55.5686C173.832 54.2627 172.295 53.494 170.664 53.494C169.032 53.494 167.496 54.2627 166.517 55.5686C164.897 55.762 163.462 56.7082 162.646 58.1218C161.83 59.5355 161.729 61.251 162.373 62.7509C161.729 64.2509 161.83 65.9664 162.646 67.38C163.462 68.7937 164.897 69.7399 166.517 69.9333C167.496 71.2392 169.032 72.0079 170.664 72.0079C172.295 72.0079 173.832 71.2392 174.81 69.9333C176.431 69.7395 177.865 68.7934 178.681 67.3801C179.498 65.9668 179.6 64.2514 178.958 62.7509C179.601 61.25 179.498 59.534 178.681 58.1202Z" fill="#3A3144"/>
<ellipse cx="167.638" cy="128.982" rx="17.7297" ry="17.7297" fill="#F99192"/>
<path fill-rule="evenodd" clip-rule="evenodd" d="M150.477 125.596C150.477 125.595 150.478 125.594 163.831 128.982C177.184 132.369 177.184 132.369 177.184 132.369L177.173 132.413C177.164 132.447 177.151 132.501 177.132 132.573C177.096 132.717 177.041 132.936 176.969 133.228C176.824 133.811 176.608 134.682 176.333 135.814C175.782 138.079 174.989 141.388 174.032 145.53C172.117 153.817 169.552 165.413 166.951 178.629C161.705 205.282 156.486 237.698 155.921 262.826L128.376 262.207C128.996 234.587 134.618 200.236 139.917 173.309C142.589 159.734 145.221 147.836 147.187 139.328C148.17 135.071 148.988 131.657 149.562 129.298C149.849 128.118 150.076 127.202 150.232 126.576C150.309 126.263 150.37 126.022 150.411 125.857C150.432 125.775 150.448 125.711 150.459 125.667L150.477 125.596Z" fill="#F99192"/>
<path d="M149.908 127.54L188.868 142.982L182.846 120.993" fill="#ED8A8E"/>
<path d="M156.804 72.1508C156.5 73.727 157.685 76.2009 159.616 76.2009L160.139 71.793C160.176 71.496 158.789 70.9188 158.536 70.8918C158.137 70.8096 157.721 70.8992 157.392 71.1388C157.062 71.3784 156.849 71.7458 156.804 72.1508Z" fill="#F7C9A5"/>
<path fill-rule="evenodd" clip-rule="evenodd" d="M162.882 89.5276L161.744 78.2951L172.709 77.1848L173.846 88.4173L162.882 89.5276Z" fill="#F7C9A5"/>
<path d="M165.725 82.4787C164.707 83.0936 163.566 83.4762 162.383 83.5993L161.935 79.7921H162.495" fill="#3A3144"/>
<rect x="173.974" y="82.6137" width="15.2928" height="19.8628" rx="7.64642" transform="rotate(-180 173.974 82.6137)" fill="#F7C9A5"/>
<path d="M176.225 72.1507C176.525 73.7269 175.344 76.2009 173.41 76.2009L172.883 71.7862C172.85 71.4892 174.233 70.912 174.487 70.885C174.888 70.8017 175.305 70.8917 175.636 71.1328C175.967 71.3738 176.181 71.7435 176.225 72.1507Z" fill="#F7C9A5"/>
<path d="M192.054 100.475L190.917 125.029C190.845 126.53 189.604 127.708 188.102 127.702L148.076 127.534C146.676 127.526 145.495 126.488 145.309 125.1L142.271 102.426C141.735 98.3889 142.961 94.3162 145.636 91.246C148.312 88.1758 152.178 86.4045 156.251 86.3837L178.446 86.2892C182.162 86.2704 185.723 87.7783 188.296 90.4602C190.869 93.142 192.228 96.7626 192.054 100.475Z" fill="#FFA97F"/>
<path d="M166.184 75.563C165.966 75.2988 165.634 75.1546 165.293 75.1748C164.934 75.1981 164.609 75.3945 164.422 75.7014C164.329 75.8609 164.382 76.0654 164.54 76.1604C164.617 76.2057 164.71 76.2184 164.796 76.1956C164.883 76.1728 164.957 76.1164 165.002 76.0389L165.023 76.0085C165.056 75.9545 164.985 76.0524 165.023 76.0254L165.073 75.9714C165.093 75.9511 165.117 75.9343 165.134 75.914C165.151 75.8938 165.073 75.9579 165.114 75.9343L165.151 75.9106C165.151 75.9106 165.212 75.8668 165.225 75.8701C165.239 75.8735 165.151 75.8971 165.195 75.8701H165.232L165.313 75.8499C165.313 75.8499 165.37 75.8499 165.313 75.8499C165.255 75.8499 165.313 75.8499 165.313 75.8499H165.39C165.39 75.8499 165.461 75.8499 165.39 75.8499C165.32 75.8499 165.39 75.8499 165.39 75.8499L165.475 75.8701H165.509C165.552 75.8701 165.509 75.8701 165.482 75.8701C165.509 75.8802 165.535 75.8938 165.559 75.9106L165.59 75.9309C165.637 75.9613 165.59 75.9309 165.59 75.9309C165.632 75.97 165.671 76.0117 165.708 76.0558C165.772 76.1174 165.858 76.1524 165.947 76.1536C166.134 76.1536 166.285 76.0025 166.285 75.8161C166.28 75.7276 166.245 75.6432 166.187 75.5765L166.184 75.563Z" fill="#3A3144"/>
<path d="M167.085 77.1595C166.983 77.2307 166.877 77.295 166.767 77.3519L166.68 77.3924C166.646 77.3924 166.649 77.3924 166.68 77.3924L166.632 77.4092C166.579 77.4313 166.525 77.4505 166.47 77.4666C166.352 77.5031 166.231 77.5313 166.109 77.551C166.032 77.551 166.173 77.551 166.109 77.551H166.011H165.812C165.626 77.551 165.475 77.7021 165.475 77.8885C165.475 78.0749 165.626 78.226 165.812 78.226C166.386 78.2331 166.948 78.0609 167.419 77.7333C167.571 77.6362 167.62 77.4361 167.53 77.2795C167.439 77.1229 167.241 77.0655 167.081 77.1493L167.085 77.1595Z" fill="#3A3144"/>
<ellipse cx="168.674" cy="74.0408" rx="0.553535" ry="0.553524" fill="#3A3144"/>
<ellipse cx="161.954" cy="74.0408" rx="0.553513" ry="0.553524" fill="#3A3144"/>
<path d="M169.295 71.5027C168.945 71.4432 168.589 71.4273 168.235 71.4554C168.146 71.4567 168.06 71.4916 167.995 71.5533C167.932 71.617 167.897 71.7032 167.897 71.7929C167.897 71.8826 167.932 71.9689 167.995 72.0326C168.059 72.0957 168.145 72.131 168.235 72.1304C168.52 72.104 168.808 72.1097 169.092 72.1473H169.005H169.113C169.202 72.1675 169.296 72.1543 169.376 72.1102C169.451 72.0664 169.507 71.995 169.531 71.9111C169.554 71.823 169.541 71.7293 169.494 71.6512C169.452 71.5741 169.38 71.5179 169.295 71.4959V71.5027Z" fill="#3A3144"/>
<path d="M162.42 71.4588C162.08 71.4372 161.739 71.4657 161.407 71.5432C161.282 71.5659 161.179 71.6579 161.143 71.7806C161.108 71.9034 161.144 72.0359 161.238 72.1228C161.332 72.2098 161.467 72.2363 161.586 72.1912C161.681 72.171 161.775 72.1541 161.87 72.1406H161.782C161.997 72.1103 162.214 72.1035 162.43 72.1204C162.52 72.12 162.607 72.0835 162.67 72.0191C162.765 71.9222 162.792 71.7779 162.74 71.6528C162.688 71.5276 162.566 71.4459 162.43 71.4453L162.42 71.4588Z" fill="#3A3144"/>
<path d="M166.47 62.3425H166.19C162.042 62.3425 158.684 65.8696 158.684 70.2235V70.8749C159.821 70.8175 167.557 70.2708 169.906 65.7109C170.03 65.4621 170.331 65.3597 170.581 65.4814C170.815 65.6096 170.924 65.8862 170.841 66.1396C170.422 67.4896 169.558 71.3778 173.966 70.9458V70.2235C173.976 65.8696 170.615 62.3425 166.47 62.3425V62.3425Z" fill="#3A3144"/>
<path fill-rule="evenodd" clip-rule="evenodd" d="M175.868 103.136C175.858 103.134 175.849 103.133 177.47 94.6765C179.091 86.2204 179.081 86.2187 179.072 86.2169L179.054 86.2135L179.019 86.2071C178.997 86.203 178.976 86.1992 178.956 86.1957C178.916 86.1888 178.881 86.1831 178.85 86.1785C178.79 86.1692 178.748 86.164 178.724 86.1613C178.707 86.1593 178.699 86.1586 178.699 86.1586C178.699 86.1587 178.727 86.1609 178.779 86.1623C178.941 86.1664 179.328 86.1611 179.88 86.0574C180.922 85.8615 182.786 85.275 185.013 83.3294C189.548 79.3661 196.75 68.6533 199.354 40.5547L216.5 42.1435C213.717 72.1785 205.69 88.1294 196.344 96.2965C191.629 100.416 186.89 102.261 183.062 102.981C181.179 103.335 179.566 103.408 178.336 103.377C177.721 103.361 177.198 103.319 176.781 103.271C176.572 103.248 176.389 103.223 176.233 103.199C176.155 103.187 176.084 103.175 176.02 103.164C175.988 103.158 175.958 103.153 175.929 103.148L175.887 103.14L175.868 103.136Z" fill="#FFA97F"/>
<path fill-rule="evenodd" clip-rule="evenodd" d="M149.798 87.9432C149.811 87.938 149.825 87.9329 152.862 95.9894C155.9 104.046 155.913 104.041 155.927 104.036L155.953 104.025C155.971 104.019 155.989 104.012 156.006 104.005C156.041 103.991 156.076 103.977 156.109 103.964C156.177 103.936 156.242 103.909 156.304 103.881C156.429 103.827 156.544 103.772 156.649 103.72C156.858 103.616 157.027 103.518 157.156 103.438C157.413 103.279 157.519 103.182 157.477 103.218C157.38 103.301 156.777 103.846 155.68 105.299C153.464 108.231 149.605 114.362 144.053 126.557C144.053 126.557 144.052 126.558 144.052 126.558C141.538 132.08 136.125 133.88 131.94 133.569C127.896 133.268 123.551 131.02 121.211 126.676L121.205 126.666L121.2 126.656C115.89 116.736 115.31 110.29 113.585 91.0871C113.545 90.6496 113.505 90.2053 113.465 89.7543L130.616 88.2109C131.629 99.468 132.212 105.499 133.071 109.673C136.681 102.621 139.617 97.992 141.941 94.9166C143.582 92.746 145.005 91.2319 146.249 90.1615C146.878 89.621 147.484 89.1741 148.072 88.8088C148.367 88.6255 148.661 88.4612 148.952 88.3155C149.098 88.2426 149.244 88.1743 149.389 88.1105C149.462 88.0786 149.535 88.0479 149.607 88.0183C149.644 88.0035 149.68 87.989 149.716 87.9747C149.734 87.9676 149.752 87.9606 149.77 87.9536L149.798 87.9432Z" fill="#FFA97F"/>
<path d="M170.544 63.4529C171.413 63.9103 172.127 64.615 172.596 65.478C172.697 65.6671 172.991 65.4983 172.886 65.3059C172.389 64.3942 171.633 63.6506 170.713 63.1694C170.52 63.0682 170.351 63.3584 170.544 63.4597V63.4529Z" fill="#F7C9A5"/>
<path d="M132.908 110.712C133.466 112.769 134.188 114.778 135.068 116.72C135.113 116.797 135.187 116.854 135.274 116.876C135.36 116.899 135.453 116.887 135.53 116.841C135.69 116.747 135.744 116.543 135.652 116.382C134.8 114.491 134.1 112.535 133.559 110.533C133.527 110.417 133.435 110.326 133.319 110.296C133.202 110.265 133.078 110.299 132.993 110.385C132.908 110.471 132.876 110.596 132.908 110.712Z" fill="#3A3144"/>
<path d="M145.514 123.878C146.112 121.97 146.891 120.124 147.839 118.363C148.045 117.982 147.461 117.641 147.255 118.026C146.282 119.838 145.483 121.739 144.869 123.703C144.741 124.118 145.392 124.297 145.521 123.882L145.514 123.878Z" fill="#3A3144"/>
<path d="M191.352 92.9316C191.66 95.0351 191.753 97.1646 191.629 99.287C191.602 99.7224 192.277 99.719 192.304 99.287C192.427 97.1032 192.326 94.9126 192.003 92.7493C191.953 92.5707 191.767 92.4666 191.588 92.5164C191.502 92.5401 191.428 92.5971 191.384 92.675C191.34 92.7529 191.328 92.8452 191.352 92.9316Z" fill="#3A3144"/>
<path d="M176.903 86.2994L158.677 86.377C159.652 89.4923 163.355 91.811 167.79 91.811C172.225 91.811 175.964 89.4552 176.903 86.2994V86.2994Z" fill="#F7C9A5"/>
<path d="M152.987 133.876C153.586 133.523 154.144 133.103 154.647 132.623C154.78 132.492 154.78 132.278 154.649 132.146C154.518 132.013 154.304 132.013 154.171 132.144C154.053 132.255 153.932 132.363 153.81 132.482L153.621 132.633L153.523 132.714L153.466 132.758C153.202 132.955 152.928 133.137 152.646 133.305C152.528 133.358 152.451 133.473 152.447 133.602C152.443 133.731 152.513 133.851 152.627 133.911C152.741 133.971 152.879 133.961 152.983 133.886L152.987 133.876Z" fill="#3A3144"/>
<path d="M181.548 132.407C181.7 132.613 181.872 132.803 182.061 132.974C182.252 133.147 182.458 133.3 182.678 133.433C182.839 133.517 183.036 133.46 183.127 133.303C183.217 133.147 183.168 132.947 183.016 132.85C182.901 132.779 182.786 132.701 182.678 132.617L182.749 132.671C182.497 132.475 182.27 132.248 182.074 131.996L182.128 132.066C182.084 131.991 182.013 131.935 181.929 131.911C181.841 131.887 181.748 131.899 181.669 131.945C181.594 131.989 181.538 132.06 181.514 132.144C181.487 132.232 181.499 132.326 181.548 132.404V132.407Z" fill="#3A3144"/>
<path d="M117.717 74.9892C116.545 77.5876 116.053 80.4414 116.289 83.282C116.36 84.115 116.491 84.9418 116.68 85.756C116.776 86.1051 117.051 86.3765 117.401 86.468C117.752 86.5595 118.124 86.4572 118.378 86.1997C118.633 85.9421 118.73 85.5684 118.635 85.2193C118.56 84.9054 118.496 84.5882 118.439 84.2709C118.412 84.1123 118.388 83.9503 118.365 83.7916C118.341 83.633 118.365 83.8726 118.365 83.876C118.362 83.8385 118.357 83.8012 118.348 83.7646C118.348 83.6802 118.348 83.5925 118.321 83.5047C118.253 82.8624 118.226 82.2165 118.24 81.5708C118.24 81.2333 118.263 80.9261 118.29 80.6055C118.29 80.4435 118.317 80.268 118.338 80.1228C118.338 80.0486 118.354 79.9743 118.365 79.9001C118.375 79.8258 118.365 79.9811 118.365 79.9845C118.375 79.9355 118.381 79.8858 118.385 79.836C118.483 79.1847 118.621 78.54 118.797 77.9054C118.894 77.5678 119.002 77.2303 119.134 76.8759C119.191 76.7139 119.256 76.5384 119.32 76.3899C119.343 76.3224 119.438 76.184 119.431 76.1132C119.431 76.1132 119.353 76.2887 119.401 76.184C119.448 76.0794 119.451 76.0693 119.475 76.0119C119.605 75.7739 119.642 75.4961 119.58 75.2322C119.507 74.9788 119.34 74.7627 119.114 74.6281C118.672 74.3952 117.956 74.4728 117.727 74.9892H117.717Z" fill="#F7C9A5"/>
<path d="M121.534 74.4796C119.782 76.943 118.849 79.8948 118.867 82.9174C118.867 83.4767 119.321 83.93 119.88 83.93C120.439 83.93 120.893 83.4767 120.893 82.9174C120.893 82.5563 120.893 82.1952 120.93 81.8374C120.93 81.6686 120.957 81.4999 120.977 81.3311C120.981 81.2597 120.99 81.1886 121.004 81.1185C120.936 81.4087 121.004 81.0915 121.004 81.0274C121.112 80.3492 121.271 79.6802 121.48 79.0259C121.584 78.6884 121.706 78.3509 121.834 78.0437C121.929 77.8108 121.746 78.2462 121.834 78.0167L121.952 77.7535C122.023 77.6016 122.097 77.4497 122.172 77.2978C122.486 76.6749 122.85 76.0778 123.259 75.5124C123.395 75.2806 123.433 75.0041 123.366 74.7439C123.298 74.4836 123.129 74.261 122.897 74.1252C122.412 73.8572 121.801 74.0176 121.51 74.4897L121.534 74.4796Z" fill="#F7C9A5"/>
<path d="M125.358 75.0061C123.41 76.8953 122.284 79.4754 122.223 82.1885C122.223 82.7477 122.676 83.201 123.235 83.201C123.794 83.201 124.248 82.7477 124.248 82.1885C124.248 81.8914 124.278 81.5978 124.309 81.3042C124.336 81.0814 124.275 81.5067 124.309 81.3042L124.349 81.0679C124.373 80.9228 124.403 80.7776 124.437 80.6359C124.501 80.3456 124.582 80.0621 124.673 79.782C124.717 79.6503 124.764 79.5221 124.811 79.3938C124.835 79.3297 124.862 79.2689 124.886 79.2048C124.96 79.0124 124.798 79.404 124.906 79.1643C125.14 78.633 125.425 78.1255 125.756 77.6489C125.821 77.5262 125.902 77.4127 125.996 77.3114C125.905 77.4261 125.895 77.4396 125.962 77.3552L126.026 77.2742L126.178 77.092C126.374 76.8658 126.577 76.6532 126.793 76.4473C127.187 76.052 127.187 75.4116 126.793 75.0162C126.392 74.6318 125.759 74.6318 125.358 75.0162V75.0061Z" fill="#F7C9A5"/>
<path d="M55.2524 88.0477H84.0627C84.3423 88.0477 84.569 87.8211 84.569 87.5414C84.569 87.2618 84.3423 87.0352 84.0627 87.0352H55.2524C54.9728 87.0352 54.7461 87.2618 54.7461 87.5414C54.7461 87.8211 54.9728 88.0477 55.2524 88.0477Z" fill="#FFECE5"/>
<path d="M55.2524 98.784H84.0627C84.3423 98.784 84.569 98.5574 84.569 98.2778C84.569 97.9982 84.3423 97.7715 84.0627 97.7715H55.2524C54.9728 97.7715 54.7461 97.9982 54.7461 98.2778C54.7461 98.5574 54.9728 98.784 55.2524 98.784Z" fill="#FFECE5"/>
<path d="M55.2524 109.527H84.0627C84.3423 109.527 84.569 109.301 84.569 109.021C84.569 108.741 84.3423 108.515 84.0627 108.515H55.2524C54.9728 108.515 54.7461 108.741 54.7461 109.021C54.7461 109.301 54.9728 109.527 55.2524 109.527Z" fill="#FFECE5"/>
<path d="M55.2524 120.257H84.0627C84.3423 120.257 84.569 120.03 84.569 119.751C84.569 119.471 84.3423 119.244 84.0627 119.244H55.2524C54.9728 119.244 54.7461 119.471 54.7461 119.751C54.7461 120.03 54.9728 120.257 55.2524 120.257Z" fill="#FFECE5"/>
<path d="M55.2524 130.993H84.0627C84.3423 130.993 84.569 130.766 84.569 130.487C84.569 130.207 84.3423 129.981 84.0627 129.981H55.2524C54.9728 129.981 54.7461 130.207 54.7461 130.487C54.7461 130.766 54.9728 130.993 55.2524 130.993Z" fill="#FFECE5"/>
<path d="M55.2524 141.729H84.0627C84.3423 141.729 84.569 141.503 84.569 141.223C84.569 140.944 84.3423 140.717 84.0627 140.717H55.2524C54.9728 140.717 54.7461 140.944 54.7461 141.223C54.7461 141.503 54.9728 141.729 55.2524 141.729Z" fill="#FFECE5"/>
<path d="M55.2524 152.466H84.0627C84.3423 152.466 84.569 152.239 84.569 151.96C84.569 151.68 84.3423 151.453 84.0627 151.453H55.2524C54.9728 151.453 54.7461 151.68 54.7461 151.96C54.7461 152.239 54.9728 152.466 55.2524 152.466Z" fill="#FFECE5"/>
<path d="M55.2524 163.192H69.6575C69.9371 163.192 70.1638 162.965 70.1638 162.686C70.1638 162.406 69.9371 162.18 69.6575 162.18H55.2524C54.9728 162.18 54.7461 162.406 54.7461 162.686C54.7461 162.965 54.9728 163.192 55.2524 163.192Z" fill="#FFECE5"/>
<path d="M173.241 0.762854L154.559 19.4477C154.019 19.9903 153.86 20.805 154.156 21.5111C154.451 22.2172 155.144 22.6751 155.909 22.671H193.262C194.029 22.6785 194.724 22.2208 195.021 21.5132C195.317 20.8057 195.156 19.9891 194.612 19.4477L175.92 0.762854C175.565 0.407114 175.083 0.207214 174.581 0.207214C174.078 0.207214 173.596 0.407114 173.241 0.762854Z" fill="#2E60B8"/>
<path d="M174.426 3.99961C170.828 7.37477 166.913 11.0537 163.787 13.9833C163.355 14.3913 163.139 14.9786 163.203 15.5696C163.834 22.352 162.983 29.1903 160.709 35.6113C160.194 37.0941 159.618 38.5297 158.981 39.918C158.711 40.5025 158.757 41.1845 159.103 41.7275C159.449 42.2704 160.048 42.5997 160.692 42.6012H181.321C182.157 42.5995 182.893 42.0513 183.134 41.2512C187.481 26.9068 184.821 12.5624 177.116 4.09749C176.774 3.72457 176.297 3.50427 175.791 3.48587C175.286 3.46747 174.794 3.65252 174.426 3.99961Z" fill="#2E60B8"/>
<path d="M234.861 46.4118L218.626 62.6463C218.156 63.1154 218.015 63.8218 218.27 64.4354C218.524 65.0489 219.123 65.4486 219.787 65.4476H252.256C252.92 65.4486 253.52 65.0489 253.774 64.4354C254.028 63.8218 253.887 63.1154 253.417 62.6463L237.183 46.4118C236.875 46.1034 236.457 45.9302 236.022 45.9302C235.586 45.9302 235.168 46.1034 234.861 46.4118Z" fill="#4F8AE0"/>
<path d="M235.887 49.2233C232.761 52.1597 229.363 55.3493 226.646 57.8941C226.269 58.2492 226.082 58.7604 226.139 59.2746C226.688 65.1685 225.947 71.1112 223.969 76.6904C223.519 77.9797 223.019 79.2273 222.47 80.4334C222.234 80.941 222.273 81.5341 222.574 82.0063C222.875 82.4786 223.396 82.7649 223.956 82.7656H241.881C242.606 82.7639 243.244 82.2884 243.454 81.5944C247.234 69.13 244.929 56.6689 238.226 49.3145C237.929 48.9894 237.515 48.7968 237.075 48.7797C236.636 48.7626 236.208 48.9224 235.887 49.2233Z" fill="#4F8AE0"/>
<path d="M217.161 100.121L204.846 112.437C204.489 112.793 204.382 113.329 204.575 113.794C204.768 114.26 205.223 114.563 205.726 114.563H230.365C230.869 114.563 231.323 114.26 231.516 113.794C231.709 113.329 231.602 112.793 231.246 112.437L218.93 100.121C218.696 99.8848 218.378 99.7522 218.046 99.7522C217.714 99.7522 217.395 99.8848 217.161 100.121Z" fill="#3E83D6"/>
<path d="M217.941 102.257L210.931 108.852C210.646 109.121 210.504 109.509 210.546 109.898C210.961 114.37 210.399 118.879 208.899 123.112C208.562 124.088 208.18 125.036 207.762 125.951C207.583 126.336 207.614 126.785 207.842 127.143C208.07 127.501 208.465 127.718 208.889 127.719H222.498C223.048 127.718 223.532 127.358 223.692 126.832C226.558 117.381 224.81 107.931 219.723 102.341C219.5 102.09 219.186 101.939 218.85 101.923C218.514 101.908 218.187 102.028 217.941 102.257Z" fill="#3E83D6"/>
<path d="M205.565 33.9238C206.054 34.8148 205.055 35.662 204.454 36.1649C204.381 36.2392 204.346 36.3435 204.359 36.4472C204.373 36.551 204.435 36.6424 204.525 36.6948C205.229 37.1983 205.822 37.8417 206.267 38.5848C206.368 38.7248 206.56 38.7651 206.709 38.6781C206.859 38.5911 206.918 38.405 206.847 38.2473C206.342 37.4077 205.667 36.6824 204.866 36.1176L204.934 36.6475C205.429 36.2899 205.841 35.8293 206.142 35.2974C206.412 34.7674 206.412 34.1399 206.142 33.6099C205.933 33.2285 205.352 33.5694 205.561 33.9474L205.565 33.9238Z" fill="#3A3144"/>
<path d="M147.931 99.2532L149.473 98.3723C149.551 98.324 149.576 98.2218 149.53 98.1426C149.483 98.0634 149.381 98.0365 149.301 98.082L147.762 98.9596C147.681 99.0062 147.653 99.1097 147.699 99.1908C147.746 99.2718 147.849 99.2998 147.931 99.2532Z" fill="#ED875F"/>
<path d="M153.125 96.4181H153.567C153.659 96.4163 153.734 96.3418 153.736 96.2493C153.734 96.1569 153.659 96.0824 153.567 96.0806H153.125C153.032 96.0806 152.956 96.1561 152.956 96.2493C152.956 96.3425 153.032 96.4181 153.125 96.4181Z" fill="#ED875F"/>
<path d="M153.752 102.186L154.336 102.034C154.38 102.023 154.417 101.995 154.439 101.956C154.461 101.918 154.467 101.871 154.454 101.828C154.43 101.739 154.338 101.687 154.249 101.71L153.661 101.859C153.573 101.886 153.521 101.978 153.543 102.068C153.572 102.155 153.663 102.207 153.752 102.186Z" fill="#ED875F"/>
<path d="M151.805 105.717C152.055 105.726 152.291 105.596 152.416 105.379C152.431 105.338 152.431 105.292 152.416 105.251C152.403 105.209 152.375 105.173 152.338 105.15C152.257 105.103 152.153 105.13 152.105 105.21C152.091 105.239 152.074 105.266 152.055 105.291L152.082 105.254C152.056 105.287 152.026 105.316 151.994 105.342L152.028 105.315C151.993 105.341 151.956 105.364 151.916 105.382L151.957 105.362C151.915 105.382 151.871 105.394 151.825 105.399H151.872C151.844 105.403 151.816 105.403 151.788 105.399C151.695 105.401 151.621 105.476 151.619 105.568C151.621 105.661 151.695 105.735 151.788 105.737L151.805 105.717Z" fill="#ED875F"/>
<path d="M148.291 104.623L148.585 104.184C148.602 104.142 148.602 104.095 148.585 104.053C148.573 104.01 148.546 103.974 148.507 103.951C148.427 103.907 148.326 103.934 148.278 104.012L147.984 104.451C147.967 104.493 147.967 104.54 147.984 104.583C147.996 104.625 148.024 104.662 148.062 104.684C148.142 104.728 148.243 104.701 148.291 104.623Z" fill="#ED875F"/>
<path d="M144.032 102.196L145.207 102.041C145.298 102.036 145.37 101.963 145.375 101.872C145.375 101.791 145.298 101.69 145.207 101.704L144.032 101.859C143.939 101.859 143.863 101.934 143.863 102.028C143.863 102.121 143.939 102.196 144.032 102.196Z" fill="#ED875F"/>
<path d="M142.466 108.062L143.637 107.904C143.731 107.879 143.786 107.784 143.762 107.691C143.738 107.598 143.643 107.542 143.55 107.566L142.378 107.728C142.335 107.739 142.298 107.767 142.276 107.806C142.254 107.845 142.248 107.891 142.26 107.934C142.285 108.023 142.377 108.076 142.466 108.052V108.062Z" fill="#ED875F"/>
<path d="M149.314 109.392H149.902C149.994 109.39 150.068 109.316 150.07 109.223C150.068 109.131 149.994 109.056 149.902 109.055H149.314C149.222 109.056 149.147 109.131 149.146 109.223C149.146 109.317 149.221 109.392 149.314 109.392Z" fill="#ED875F"/>
<path d="M152.001 113.506L152.734 113.358C152.777 113.346 152.814 113.317 152.836 113.278C152.859 113.239 152.864 113.192 152.852 113.149C152.824 113.06 152.732 113.009 152.642 113.031L151.91 113.179C151.82 113.205 151.768 113.298 151.792 113.388C151.82 113.477 151.911 113.528 152.001 113.506Z" fill="#ED875F"/>
<path d="M155.703 109.662H155.734H155.717H155.734L155.805 109.645H155.761C155.8 109.638 155.84 109.638 155.879 109.645H155.832C155.863 109.648 155.894 109.656 155.923 109.669C155.923 109.669 155.963 109.686 155.923 109.669H155.943L155.98 109.689H156L156.034 109.72C156.058 109.747 156.034 109.72 156.034 109.72C156.044 109.734 156.053 109.748 156.061 109.763C156.088 109.822 156.145 109.861 156.21 109.863C156.274 109.865 156.334 109.83 156.364 109.773C156.394 109.716 156.389 109.647 156.351 109.595C156.188 109.314 155.83 109.218 155.548 109.379C155.495 109.409 155.463 109.465 155.463 109.526C155.463 109.587 155.496 109.643 155.55 109.673C155.603 109.702 155.668 109.701 155.72 109.669L155.703 109.662Z" fill="#ED875F"/>
<path d="M155.619 115.403C155.712 115.403 155.788 115.328 155.788 115.235C155.788 115.141 155.712 115.066 155.619 115.066C155.526 115.066 155.45 115.141 155.45 115.235C155.45 115.328 155.526 115.403 155.619 115.403Z" fill="#ED875F"/>
<path d="M147.786 114.502L148.079 114.357C148.117 114.334 148.145 114.298 148.157 114.256C148.174 114.213 148.174 114.166 148.157 114.124C148.135 114.086 148.098 114.058 148.056 114.047H148.012C147.982 114.047 147.953 114.055 147.928 114.07L147.634 114.219C147.595 114.24 147.567 114.277 147.556 114.32C147.545 114.363 147.551 114.409 147.573 114.448C147.595 114.486 147.632 114.514 147.674 114.526H147.718C147.748 114.526 147.778 114.518 147.803 114.502H147.786Z" fill="#ED875F"/>
<path d="M163.727 105.139L164.165 104.994C164.207 104.982 164.243 104.954 164.267 104.917C164.285 104.875 164.285 104.827 164.267 104.785C164.242 104.696 164.15 104.643 164.061 104.667L163.622 104.815C163.579 104.826 163.542 104.854 163.521 104.893C163.502 104.934 163.502 104.981 163.521 105.021C163.545 105.11 163.637 105.163 163.727 105.139Z" fill="#ED875F"/>
<path d="M169.37 102.463L170.102 102.757C170.191 102.78 170.283 102.728 170.308 102.639C170.327 102.549 170.272 102.461 170.183 102.439L169.451 102.146C169.358 102.121 169.262 102.177 169.238 102.271C169.214 102.364 169.27 102.459 169.363 102.483L169.37 102.463Z" fill="#ED875F"/>
<path d="M173.75 108.953H173.787C173.787 108.953 173.835 108.97 173.787 108.953L173.851 108.984C173.894 109.006 173.936 109.031 173.976 109.058L174 109.075L174.051 109.119C174.087 109.151 174.121 109.186 174.152 109.223L174.172 109.25C174.199 109.281 174.152 109.22 174.172 109.25L174.209 109.308C174.235 109.349 174.259 109.392 174.28 109.436V109.47L174.3 109.534C174.317 109.582 174.328 109.632 174.334 109.682C174.362 109.771 174.453 109.823 174.543 109.801C174.632 109.773 174.683 109.681 174.661 109.591C174.576 109.13 174.248 108.751 173.804 108.599C173.714 108.577 173.623 108.629 173.595 108.717C173.573 108.807 173.625 108.899 173.713 108.926L173.75 108.953Z" fill="#ED875F"/>
<path d="M171.729 113.993L171.877 113.702C171.924 113.621 171.897 113.518 171.816 113.469C171.778 113.447 171.732 113.441 171.688 113.453C171.646 113.465 171.61 113.493 171.587 113.53L171.438 113.824C171.416 113.863 171.41 113.909 171.422 113.952C171.432 113.995 171.46 114.032 171.499 114.053C171.54 114.07 171.586 114.07 171.627 114.053C171.67 114.042 171.706 114.014 171.729 113.976V113.993Z" fill="#ED875F"/>
<path d="M168.093 108.731L168.239 108.437C168.262 108.399 168.269 108.353 168.259 108.309C168.245 108.267 168.218 108.232 168.181 108.207C168.139 108.191 168.092 108.191 168.05 108.207C168.007 108.219 167.971 108.247 167.948 108.285L167.803 108.579C167.78 108.617 167.773 108.663 167.783 108.707C167.797 108.748 167.824 108.784 167.86 108.808C167.901 108.831 167.948 108.837 167.992 108.825C168.035 108.814 168.071 108.786 168.093 108.748V108.731Z" fill="#ED875F"/>
<path d="M164.415 98.9832H165.589C165.683 98.9832 165.758 98.9076 165.758 98.8144C165.758 98.7212 165.683 98.6457 165.589 98.6457H164.415C164.322 98.6457 164.246 98.7212 164.246 98.8144C164.246 98.9076 164.322 98.9832 164.415 98.9832Z" fill="#ED875F"/>
<path d="M176.319 100.414L176.464 100.563C176.48 100.577 176.498 100.589 176.518 100.596C176.539 100.601 176.561 100.601 176.582 100.596C176.604 100.602 176.627 100.602 176.65 100.596C176.669 100.589 176.688 100.577 176.704 100.563L176.731 100.526C176.744 100.5 176.751 100.471 176.751 100.441V100.397C176.742 100.369 176.727 100.344 176.707 100.323L176.558 100.175C176.544 100.158 176.525 100.147 176.504 100.141C176.464 100.123 176.417 100.123 176.376 100.141C176.355 100.147 176.337 100.158 176.322 100.175L176.295 100.208C176.279 100.235 176.271 100.265 176.272 100.296V100.34C176.278 100.369 176.293 100.395 176.315 100.414H176.319Z" fill="#ED875F"/>
<path d="M177.318 105.139C177.411 105.139 177.487 105.064 177.487 104.971C177.487 104.877 177.411 104.802 177.318 104.802C177.225 104.802 177.149 104.877 177.149 104.971C177.149 105.064 177.225 105.139 177.318 105.139Z" fill="#ED875F"/>
<path d="M171.158 106.901C171.251 106.901 171.327 106.826 171.327 106.733C171.327 106.639 171.251 106.564 171.158 106.564C171.065 106.564 170.989 106.639 170.989 106.733C170.989 106.826 171.065 106.901 171.158 106.901Z" fill="#ED875F"/>
<path d="M165.96 117.715L166.973 117.277C167.053 117.228 167.08 117.125 167.034 117.044C166.985 116.965 166.884 116.939 166.804 116.983L165.791 117.425C165.752 117.447 165.724 117.484 165.713 117.527C165.701 117.57 165.708 117.616 165.731 117.655C165.779 117.733 165.88 117.759 165.96 117.715Z" fill="#ED875F"/>
<path d="M182.448 100.451C182.541 100.451 182.617 100.376 182.617 100.283C182.617 100.189 182.541 100.114 182.448 100.114C182.355 100.114 182.279 100.189 182.279 100.283C182.279 100.376 182.355 100.451 182.448 100.451Z" fill="#ED875F"/>
<path d="M182.671 94.2411L183.684 94.9735C183.765 95.0181 183.867 94.9915 183.916 94.9128C183.958 94.8309 183.932 94.7312 183.856 94.6799L182.826 93.9509C182.745 93.9044 182.642 93.9314 182.593 94.0116C182.551 94.0923 182.577 94.192 182.654 94.2411H182.671Z" fill="#ED875F"/>
<path d="M185.989 98.9629V98.8144C185.994 98.7933 185.994 98.7714 185.989 98.7503C185.982 98.7292 185.969 98.7106 185.952 98.6963C185.938 98.6793 185.919 98.6675 185.898 98.6625C185.879 98.6503 185.856 98.6444 185.834 98.6457H185.79C185.761 98.6528 185.736 98.6681 185.716 98.6895L185.689 98.7233C185.673 98.7485 185.664 98.7778 185.665 98.8077V98.9562C185.66 98.9773 185.66 98.9992 185.665 99.0203C185.672 99.0414 185.685 99.0601 185.702 99.0743C185.717 99.0904 185.735 99.1021 185.756 99.1081C185.775 99.1203 185.798 99.1262 185.82 99.1249H185.864C185.893 99.1178 185.918 99.1026 185.938 99.0811L185.965 99.0473C185.981 99.0221 185.99 98.9928 185.989 98.9629Z" fill="#ED875F"/>
<path d="M185.628 91.6389C185.725 91.653 185.821 91.6756 185.915 91.7064L185.982 91.73H186.013L186.144 91.7941C186.185 91.8178 186.225 91.8414 186.263 91.8684L186.323 91.9089C186.364 91.9426 186.323 91.9089 186.323 91.9089L186.347 91.9291C186.424 91.9943 186.496 92.0666 186.56 92.1451C186.626 92.2113 186.733 92.2113 186.799 92.1451C186.865 92.079 186.865 91.9717 186.799 91.9055C186.52 91.5704 186.127 91.3494 185.696 91.2845C185.606 91.2625 185.514 91.3142 185.486 91.4026C185.486 91.4802 185.51 91.5984 185.604 91.6085L185.628 91.6389Z" fill="#ED875F"/>
<path d="M180.542 97.5184C180.635 97.5184 180.711 97.4428 180.711 97.3496C180.711 97.2564 180.635 97.1808 180.542 97.1808C180.449 97.1808 180.373 97.2564 180.373 97.3496C180.373 97.4428 180.449 97.5184 180.542 97.5184Z" fill="#ED875F"/>
<path d="M177.51 94.4402L178.391 94.1466C178.452 94.1303 178.499 94.0831 178.515 94.0228C178.531 93.9624 178.513 93.8981 178.469 93.854C178.425 93.8099 178.36 93.7928 178.3 93.8091L177.419 94.0993C177.326 94.1245 177.271 94.2205 177.296 94.3137C177.321 94.4069 177.417 94.462 177.51 94.4369V94.4402Z" fill="#ED875F"/>
<path d="M187.896 95.2503L188.494 94.2377C188.54 94.1565 188.513 94.053 188.433 94.0048C188.353 93.9587 188.25 93.9858 188.203 94.0656L187.603 95.0781C187.556 95.1584 187.584 95.2607 187.663 95.3076C187.744 95.3547 187.847 95.3292 187.896 95.2503Z" fill="#ED875F"/>
<path d="M189.779 88.8679H190.366C190.46 88.8679 190.535 88.7924 190.535 88.6992C190.535 88.6059 190.46 88.5304 190.366 88.5304H189.779C189.686 88.5304 189.61 88.6059 189.61 88.6992C189.61 88.7924 189.686 88.8679 189.779 88.8679Z" fill="#ED875F"/>
<path d="M194.616 86.2386C194.709 86.2386 194.785 86.1631 194.785 86.0699C194.785 85.9767 194.709 85.9011 194.616 85.9011C194.523 85.9011 194.447 85.9767 194.447 86.0699C194.447 86.1631 194.523 86.2386 194.616 86.2386Z" fill="#ED875F"/>
<path d="M198.109 80.3152L198.254 80.1701C198.271 80.1545 198.284 80.1347 198.291 80.1127C198.309 80.0718 198.309 80.0253 198.291 79.9844C198.284 79.9634 198.271 79.9447 198.254 79.9304L198.22 79.9034C198.195 79.8874 198.165 79.8792 198.136 79.8798H198.092C198.063 79.8869 198.037 79.9022 198.017 79.9237L197.869 80.0688C197.853 80.0838 197.842 80.1023 197.835 80.1228C197.828 80.1448 197.828 80.1683 197.835 80.1903C197.829 80.2112 197.829 80.2335 197.835 80.2544C197.842 80.2749 197.853 80.2935 197.869 80.3084L197.903 80.3354C197.93 80.35 197.96 80.3581 197.99 80.3591H198.034C198.062 80.3498 198.087 80.3349 198.109 80.3152Z" fill="#ED875F"/>
<path d="M199.324 83.8456L199.756 84.2945C199.822 84.3607 199.93 84.3607 199.996 84.2945C200.062 84.2283 200.062 84.121 199.996 84.0549L199.564 83.606C199.521 83.5632 199.458 83.5464 199.4 83.5621C199.342 83.5778 199.296 83.6235 199.28 83.6819C199.265 83.7404 199.281 83.8028 199.324 83.8456Z" fill="#ED875F"/>
<path d="M197.11 89.1615H197.255C197.277 89.1666 197.3 89.1666 197.322 89.1615C197.343 89.1535 197.361 89.1408 197.376 89.1244C197.392 89.1099 197.404 89.0912 197.41 89.0704C197.417 89.0496 197.417 89.0271 197.41 89.0063V88.9388C197.401 88.9109 197.386 88.8854 197.366 88.8645L197.332 88.8375C197.306 88.8214 197.275 88.8132 197.245 88.8139H197.099C197.078 88.8089 197.056 88.8089 197.035 88.8139C196.995 88.8319 196.962 88.8644 196.944 88.905C196.939 88.9261 196.939 88.9481 196.944 88.9691V89.013C196.95 89.0421 196.965 89.0683 196.988 89.0873L197.022 89.1143C197.047 89.1307 197.076 89.1389 197.106 89.1379L197.11 89.1615Z" fill="#ED875F"/>
<path d="M186.546 105.602L186.694 106.041C186.709 106.082 186.736 106.117 186.772 106.142C186.814 106.159 186.861 106.159 186.904 106.142C186.992 106.114 187.044 106.023 187.022 105.933L186.87 105.494C186.858 105.452 186.83 105.415 186.792 105.393C186.753 105.372 186.707 105.366 186.664 105.376C186.574 105.402 186.522 105.495 186.546 105.585V105.602Z" fill="#ED875F"/>
<path d="M183.082 112.615L183.663 113.061C183.704 113.079 183.75 113.079 183.791 113.061C183.834 113.049 183.87 113.021 183.892 112.983C183.909 112.942 183.909 112.896 183.892 112.855C183.879 112.813 183.851 112.778 183.815 112.754L183.234 112.305C183.193 112.288 183.147 112.288 183.106 112.305C183.063 112.317 183.027 112.344 183.005 112.383C182.988 112.425 182.988 112.472 183.005 112.514C183.019 112.555 183.046 112.591 183.082 112.615Z" fill="#ED875F"/>
<path d="M184.061 117.165H184.206C184.23 117.166 184.254 117.161 184.274 117.148C184.294 117.142 184.313 117.13 184.328 117.115C184.344 117.1 184.356 117.081 184.362 117.061C184.368 117.04 184.368 117.017 184.362 116.996V116.949C184.354 116.921 184.34 116.896 184.321 116.875L184.287 116.851C184.261 116.835 184.231 116.827 184.2 116.828H184.055C184.034 116.821 184.011 116.821 183.99 116.828C183.969 116.835 183.95 116.846 183.933 116.861C183.919 116.877 183.907 116.896 183.899 116.915C183.894 116.938 183.894 116.961 183.899 116.983V117.027C183.906 117.055 183.92 117.08 183.94 117.101L183.977 117.128C184.003 117.143 184.032 117.151 184.061 117.152V117.165Z" fill="#ED875F"/>
<path d="M186.877 113.365L187.154 114.543C187.18 114.632 187.273 114.683 187.363 114.657C187.451 114.631 187.502 114.54 187.478 114.452L187.201 113.274C187.176 113.184 187.084 113.132 186.995 113.155C186.905 113.182 186.853 113.274 186.877 113.365Z" fill="#ED875F"/>
<path d="M181.591 121.833V121.539C181.59 121.495 181.572 121.453 181.541 121.421C181.51 121.389 181.467 121.37 181.423 121.37C181.378 121.37 181.335 121.389 181.305 121.421C181.274 121.453 181.256 121.495 181.254 121.539V121.833C181.255 121.878 181.273 121.922 181.305 121.954C181.336 121.986 181.378 122.003 181.423 122.002C181.467 122.002 181.509 121.985 181.541 121.954C181.572 121.922 181.591 121.878 181.591 121.833Z" fill="#ED875F"/>
<path d="M198.409 73.4333L198.429 73.4164L198.477 73.386L198.571 73.3354H198.598L198.649 73.3185C198.684 73.3064 198.72 73.2973 198.757 73.2915C198.757 73.2915 198.821 73.2747 198.777 73.2915C198.795 73.2882 198.813 73.2882 198.831 73.2915H198.942C198.96 73.2882 198.978 73.2882 198.996 73.2915C198.952 73.2915 198.996 73.2915 199.017 73.2915L199.121 73.3185C199.211 73.3424 199.304 73.29 199.33 73.2004C199.352 73.1104 199.301 73.0188 199.212 72.9911C198.854 72.8846 198.465 72.963 198.176 73.2004C198.144 73.231 198.125 73.2738 198.125 73.3185C198.125 73.3633 198.144 73.406 198.176 73.4367C198.242 73.501 198.347 73.501 198.412 73.4367L198.409 73.4333Z" fill="#ED875F"/>
<path d="M201.946 76.8456C202.039 76.8456 202.115 76.77 202.115 76.6768C202.115 76.5836 202.039 76.5081 201.946 76.5081C201.853 76.5081 201.777 76.5836 201.777 76.6768C201.777 76.77 201.853 76.8456 201.946 76.8456Z" fill="#ED875F"/>
</svg>
