<svg width="326" height="280" viewBox="0 0 326 280" fill="none" xmlns="http://www.w3.org/2000/svg">
<path fill-rule="evenodd" clip-rule="evenodd" d="M161.784 194.499V154.805H163.878V194.499H161.784Z" fill="#3A3144"/>
<path fill-rule="evenodd" clip-rule="evenodd" d="M91.7529 221.793H131.446V223.887H91.7529V221.793Z" fill="#3A3144"/>
<path fill-rule="evenodd" clip-rule="evenodd" d="M196.179 221.793H235.872V223.887H196.179V221.793Z" fill="#3A3144"/>
<path d="M214.356 103.24C214.356 131.741 191.252 154.846 162.75 154.846C134.249 154.846 111.145 131.741 111.145 103.24C111.145 74.739 134.249 51.6343 162.75 51.6343C191.252 51.6343 214.356 74.739 214.356 103.24Z" fill="#4F8AE0"/>
<path d="M183.972 56.1853C180.715 54.7145 177.312 53.5892 173.821 52.8276C167.611 58.7083 157.887 58.7083 151.678 52.8276C148.186 53.5892 144.784 54.7145 141.526 56.1853C146.405 63.0652 154.315 67.1536 162.749 67.1536C171.183 67.1536 179.094 63.0652 183.972 56.1853Z" fill="#2E60B8"/>
<path d="M183.849 41.0998C183.849 52.753 174.402 62.1997 162.749 62.1997C151.096 62.1997 141.649 52.753 141.649 41.0998C141.649 29.4467 151.096 20 162.749 20C174.402 20 183.849 29.4467 183.849 41.0998Z" fill="#E8A54F"/>
<path d="M93.1691 222.915C93.1691 243.397 76.5658 260 56.0846 260C35.6033 260 19 243.397 19 222.915C19 202.434 35.6033 185.831 56.0846 185.831C76.5658 185.831 93.1691 202.434 93.1691 222.915Z" fill="#B2EEE6"/>
<path fill-rule="evenodd" clip-rule="evenodd" d="M63.6641 227.967C63.6649 227.967 63.6657 227.968 66.2675 224.468C68.8693 220.968 68.8702 220.968 68.8711 220.969L68.8783 220.974L68.8915 220.984C68.9018 220.992 68.9148 221.002 68.9306 221.014C68.9622 221.038 69.0047 221.07 69.0573 221.11C69.1625 221.191 69.3085 221.305 69.4888 221.449C69.849 221.737 70.3493 222.148 70.9384 222.664C72.1076 223.687 73.6701 225.159 75.1891 226.923C76.69 228.667 78.2695 230.835 79.3417 233.257C80.4132 235.678 81.1126 238.67 80.3454 241.822L71.8704 239.76C72.0315 239.098 71.9651 238.142 71.3655 236.787C70.7667 235.434 69.7701 233.998 68.5788 232.614C67.4056 231.251 66.1599 230.073 65.1939 229.227C64.7154 228.809 64.3164 228.481 64.0441 228.263C63.9083 228.155 63.8047 228.074 63.7395 228.024C63.7069 227.999 63.6839 227.982 63.6714 227.972L63.661 227.964L63.6641 227.967ZM63.6604 227.964L63.661 227.964C63.6601 227.964 63.6599 227.964 63.6604 227.964Z" fill="white"/>
<path fill-rule="evenodd" clip-rule="evenodd" d="M42.4615 222.497C42.4619 222.496 42.4623 222.496 45.659 225.463C48.8556 228.43 48.8559 228.429 48.8561 228.429L48.8528 228.432L48.834 228.453C48.8162 228.472 48.788 228.503 48.7502 228.544C48.6746 228.627 48.5606 228.753 48.4139 228.916C48.1204 229.243 47.6976 229.72 47.1918 230.309C46.1753 231.493 44.8461 233.101 43.5623 234.829C42.2598 236.583 41.096 238.34 40.339 239.837C39.9606 240.585 39.7434 241.152 39.6411 241.54C39.5961 241.711 39.5854 241.801 39.5835 241.824C39.5846 241.797 39.5856 241.679 39.5412 241.493L31.0564 243.515C30.6839 241.952 30.9073 240.453 31.2067 239.317C31.5187 238.134 32.015 236.968 32.5556 235.9C33.6367 233.762 35.1326 231.551 36.5594 229.629C38.0051 227.682 39.4748 225.907 40.575 224.626C41.1276 223.983 41.5926 223.458 41.9222 223.09C42.0872 222.906 42.2186 222.762 42.3105 222.661C42.3565 222.611 42.3926 222.572 42.4181 222.544L42.4484 222.511L42.4615 222.497Z" fill="white"/>
<path d="M199.916 222.84C199.916 243.321 183.313 259.925 162.832 259.925C142.35 259.925 125.747 243.321 125.747 222.84C125.747 202.359 142.35 185.756 162.832 185.756C183.313 185.756 199.916 202.359 199.916 222.84Z" fill="#FFD8C5"/>
<path d="M306.274 222.84C306.274 243.321 289.67 259.925 269.189 259.925C248.708 259.925 232.104 243.321 232.104 222.84C232.104 202.359 248.708 185.756 269.189 185.756C289.67 185.756 306.274 202.359 306.274 222.84Z" fill="#B2EEE6"/>
<path d="M306.274 222.84C306.274 243.321 289.67 259.925 269.189 259.925C248.708 259.925 232.104 243.321 232.104 222.84C232.104 202.359 248.708 185.756 269.189 185.756C289.67 185.756 306.274 202.359 306.274 222.84Z" fill="#B2EEE6"/>
<path d="M264.053 209.509C264.053 209.509 263.247 213.13 261.913 214.532C260.58 215.933 260.501 217.366 261.913 217.988C263.325 218.611 260.518 220.761 260.887 222.249C261.257 223.736 277.06 225.805 278.25 223.069C279.44 220.334 274.831 219.308 276.096 216.963C277.361 214.617 274.328 212.111 274.328 210.124" fill="#3A3144"/>
<path d="M43.0273 255.288H69.9159C69.3312 247.154 65.2589 240.791 56.4716 240.791C47.6843 240.791 43.6086 247.154 43.0273 255.288Z" fill="#3A3144"/>
<path fill-rule="evenodd" clip-rule="evenodd" d="M52.7725 220.036V214.531H60.1691V220.036H52.7725Z" fill="#71D2C1"/>
<path d="M55.998 216.193C55.998 216.193 57.2221 217.582 60.0635 217.561V213.944" fill="#3A3144"/>
<path d="M51.334 206.736C51.334 203.899 53.6333 201.6 56.4696 201.6C59.3059 201.6 61.6052 203.899 61.6052 206.736V211.078C61.6052 213.914 59.3059 216.214 56.4696 216.214C53.6333 216.214 51.334 213.914 51.334 211.078V206.736Z" fill="#71D2C1"/>
<path d="M62.4198 207.89C63.0214 208.195 63.1479 209.156 62.7023 210.037C62.2567 210.918 61.4078 211.386 60.8061 211.082C60.2045 210.778 60.078 209.817 60.5236 208.936C60.9692 208.054 61.8182 207.586 62.4198 207.89Z" fill="#71D2C1"/>
<path d="M52.4084 208.971C52.854 209.853 52.7275 210.814 52.1259 211.118C51.5242 211.422 50.6753 210.954 50.2297 210.073C49.7841 209.191 49.9106 208.23 50.5122 207.926C51.1138 207.622 51.9628 208.09 52.4084 208.971Z" fill="#71D2C1"/>
<path d="M54.5042 209.734C54.5042 209.957 54.3236 210.138 54.1007 210.138C53.8779 210.138 53.6973 209.957 53.6973 209.734C53.6973 209.511 53.8779 209.331 54.1007 209.331C54.3236 209.331 54.5042 209.511 54.5042 209.734Z" fill="#3A3144"/>
<path d="M53.7695 208.5C53.9627 208.432 54.1665 208.4 54.3712 208.404C54.4897 208.39 54.5788 208.289 54.5788 208.17C54.5788 208.051 54.4897 207.95 54.3712 207.936C54.125 207.932 53.8798 207.97 53.6464 208.049C53.3626 208.144 53.4857 208.599 53.7695 208.5Z" fill="#3A3144"/>
<path d="M59.2396 209.734C59.2396 209.957 59.0589 210.138 58.8361 210.138C58.6133 210.138 58.4326 209.957 58.4326 209.734C58.4326 209.511 58.6133 209.331 58.8361 209.331C59.0589 209.331 59.2396 209.511 59.2396 209.734Z" fill="#3A3144"/>
<path d="M59.2947 208.049C59.0612 207.97 58.8161 207.932 58.5699 207.936C58.4514 207.95 58.3623 208.051 58.3623 208.17C58.3623 208.289 58.4514 208.39 58.5699 208.404C58.7734 208.4 58.9761 208.433 59.1682 208.5C59.4554 208.599 59.5785 208.158 59.2947 208.049Z" fill="#3A3144"/>
<path d="M56.2797 210.914C56.3238 210.845 56.4028 210.808 56.4838 210.816C56.5649 210.825 56.6341 210.879 56.6626 210.955C56.796 211.211 57.1858 210.982 57.0524 210.726C56.9354 210.519 56.7189 210.387 56.4809 210.379C56.243 210.37 56.0178 210.486 55.8865 210.685C55.7258 210.928 56.119 211.157 56.2797 210.914Z" fill="#3A3144"/>
<path d="M65.73 248.477H47.2082C45.451 248.476 43.968 247.17 43.7445 245.427L41.44 227.306C41.1728 225.212 41.8192 223.104 43.2143 221.52C44.6095 219.935 46.6187 219.028 48.7297 219.028H64.2118C66.3225 219.029 68.331 219.937 69.7259 221.521C71.1208 223.105 71.7676 225.212 71.5016 227.306L69.1936 245.427C68.9715 247.171 67.4877 248.478 65.73 248.477Z" fill="white"/>
<path d="M47.6223 241.902L44.1758 228.068L52.6451 225.374L54.1427 227.364L65.956 223.151L68.7632 235.556" fill="#E8A54F"/>
<path d="M56.5776 240.347L60.602 234.763C60.602 234.763 54.1944 229.819 51.8728 233.344C49.5511 236.869 56.5776 240.347 56.5776 240.347Z" fill="#71D2C1"/>
<path d="M55.0171 230.639L58.2619 235.207C58.7509 235.891 59.8963 235.235 59.4039 234.524L56.1591 229.959C55.6702 229.275 54.5213 229.932 55.0171 230.626V230.639Z" fill="#71D2C1"/>
<path d="M49.9613 237.255C51.3289 237.693 52.6852 238.172 54.0301 238.692C54.6285 238.921 54.8849 237.963 54.2934 237.734C52.9531 237.214 51.5968 236.736 50.2245 236.298C49.6159 236.107 49.3561 237.064 49.9613 237.255Z" fill="#71D2C1"/>
<path d="M48.9827 234.77C50.1045 235.425 51.3115 235.922 52.5694 236.247C52.8256 236.301 53.0794 236.146 53.149 235.894C53.2187 235.641 53.0802 235.378 52.8327 235.293C51.6587 234.995 50.5321 234.535 49.4853 233.925C49.2514 233.815 48.9717 233.901 48.8409 234.124C48.7102 234.347 48.7717 234.634 48.9827 234.783V234.77Z" fill="#71D2C1"/>
<path d="M52.8806 233.344C51.7585 232.884 50.6697 232.347 49.6221 231.737C49.3851 231.599 49.0812 231.679 48.9434 231.916C48.8055 232.153 48.8859 232.457 49.1229 232.595C50.2469 233.245 51.4145 233.816 52.6173 234.305C53.2054 234.547 53.4653 233.587 52.8806 233.351V233.344Z" fill="#71D2C1"/>
<path d="M50.2892 230.537C51.9065 231.997 53.9888 232.793 56.013 233.522C56.6148 233.741 56.8712 232.78 56.2763 232.568C54.4196 231.884 52.4741 231.173 50.9902 229.832C50.5149 229.408 49.814 230.106 50.2892 230.537Z" fill="#71D2C1"/>
<path d="M149.4 255.247H176.289C175.704 247.113 171.632 240.75 162.845 240.75C154.057 240.75 149.985 247.113 149.4 255.247H149.4Z" fill="#F97171"/>
<path fill-rule="evenodd" clip-rule="evenodd" d="M159.146 219.995V214.49H166.543V219.995H159.146Z" fill="#71D2C1"/>
<path d="M161.471 216.033C161.471 216.033 163.864 217.742 166.422 218.084V213.639" fill="#3A3144"/>
<path d="M157.709 206.695C157.709 203.858 160.008 201.559 162.845 201.559C165.681 201.559 167.98 203.858 167.98 206.695V211.037C167.98 213.873 165.681 216.173 162.845 216.173C160.008 216.173 157.709 213.873 157.709 211.037V206.695Z" fill="#71D2C1"/>
<path d="M157.509 208.128L157.211 205.943C157.211 205.943 156.582 206.35 156.134 205.57C155.686 204.79 156.921 204.011 156.921 204.011C156.921 204.011 155.495 204.568 156.039 203.156C156.582 201.744 164.802 198.913 165.78 202.472C165.78 202.472 168.204 202.619 169.059 204.295C169.914 205.97 168.539 205.932 168.539 205.932C168.681 205.97 168.791 206.083 168.825 206.225C168.859 206.368 168.812 206.518 168.703 206.616C168.361 207.109 167.978 206.958 167.978 206.958V207.844L167.397 208.114L167.23 206.206C167.23 206.206 165.178 204.647 165.209 203.895C165.209 203.895 164.211 206.206 162.149 206.124C160.74 206.066 161.048 205.009 161.048 205.009C161.048 205.009 160.87 206.517 159.154 206.346C158.234 206.254 158.288 205.707 158.288 205.707L158.049 208.025" fill="#3A3144"/>
<path d="M168.781 207.842C169.383 208.146 169.509 209.107 169.064 209.989C168.618 210.87 167.769 211.338 167.167 211.034C166.566 210.729 166.439 209.768 166.885 208.887C167.331 208.006 168.179 207.538 168.781 207.842Z" fill="#71D2C1"/>
<path d="M158.785 208.935C159.231 209.817 159.104 210.778 158.503 211.082C157.901 211.386 157.052 210.918 156.607 210.037C156.161 209.155 156.288 208.194 156.889 207.89C157.491 207.586 158.34 208.054 158.785 208.935Z" fill="#71D2C1"/>
<path d="M160.88 209.693C160.88 209.916 160.7 210.097 160.477 210.097C160.254 210.097 160.073 209.916 160.073 209.693C160.073 209.47 160.254 209.29 160.477 209.29C160.7 209.29 160.88 209.47 160.88 209.693Z" fill="#3A3144"/>
<path d="M160.144 208.459C160.338 208.391 160.542 208.359 160.746 208.363C160.865 208.349 160.954 208.248 160.954 208.129C160.954 208.01 160.865 207.909 160.746 207.895C160.5 207.889 160.254 207.927 160.021 208.008C159.738 208.103 159.861 208.558 160.144 208.459Z" fill="#3A3144"/>
<path d="M165.615 209.693C165.615 209.916 165.434 210.097 165.211 210.097C164.988 210.097 164.808 209.916 164.808 209.693C164.808 209.47 164.988 209.29 165.211 209.29C165.434 209.29 165.615 209.47 165.615 209.693Z" fill="#3A3144"/>
<path d="M165.67 208.025C165.437 207.945 165.191 207.907 164.945 207.912C164.826 207.926 164.737 208.027 164.737 208.146C164.737 208.266 164.826 208.366 164.945 208.381C165.148 208.376 165.351 208.409 165.543 208.476C165.83 208.572 165.954 208.134 165.67 208.025Z" fill="#3A3144"/>
<path d="M162.655 210.87C162.699 210.801 162.778 210.763 162.859 210.772C162.94 210.781 163.009 210.834 163.038 210.911C163.171 211.17 163.561 210.941 163.427 210.685C163.31 210.478 163.094 210.346 162.856 210.338C162.618 210.329 162.393 210.445 162.261 210.644C162.101 210.887 162.494 211.112 162.655 210.87Z" fill="#3A3144"/>
<path d="M172.109 248.433H153.584C151.826 248.433 150.342 247.127 150.12 245.383L147.816 227.261C147.554 225.168 148.204 223.063 149.601 221.483C150.997 219.902 153.006 218.998 155.116 219H170.598C172.709 219.001 174.717 219.909 176.112 221.493C177.507 223.077 178.154 225.185 177.888 227.278L175.58 245.4C175.351 247.14 173.864 248.439 172.109 248.433Z" fill="#4F8AE0"/>
<path d="M255.744 255.288H282.65C282.069 247.154 277.996 240.791 269.205 240.791C260.415 240.791 256.322 247.154 255.744 255.288Z" fill="#1CA591"/>
<path fill-rule="evenodd" clip-rule="evenodd" d="M265.491 220.036V214.531H272.888V220.036H265.491Z" fill="#71D2C1"/>
<path d="M268.314 216.139C268.314 216.139 270.971 217.848 273.423 217.79L272.763 213.53" fill="#3A3144"/>
<path d="M264.053 206.736C264.053 203.899 266.352 201.6 269.188 201.6C272.025 201.6 274.324 203.899 274.324 206.736V211.078C274.324 213.914 272.025 216.214 269.188 216.214C266.352 216.214 264.053 213.914 264.053 211.078V206.736Z" fill="#71D2C1"/>
<path d="M274.328 206.736C274.328 203.903 272.032 201.607 269.199 201.607C266.367 201.607 264.07 203.903 264.07 206.736V207.898C265.169 207.389 266.361 207.117 267.572 207.098L267.913 205.426L268.163 207.098C270.282 206.95 272.406 207.317 274.352 208.168L274.328 206.736Z" fill="#3A3144"/>
<path d="M275.126 207.882C275.727 208.186 275.854 209.147 275.408 210.029C274.963 210.91 274.114 211.378 273.512 211.074C272.911 210.77 272.784 209.808 273.23 208.927C273.675 208.046 274.524 207.578 275.126 207.882Z" fill="#71D2C1"/>
<path d="M265.133 208.989C265.579 209.87 265.452 210.831 264.851 211.136C264.249 211.44 263.4 210.972 262.954 210.09C262.509 209.209 262.635 208.248 263.237 207.944C263.838 207.64 264.687 208.108 265.133 208.989Z" fill="#71D2C1"/>
<path d="M267.227 209.734C267.227 209.957 267.046 210.138 266.823 210.138C266.601 210.138 266.42 209.957 266.42 209.734C266.42 209.511 266.601 209.331 266.823 209.331C267.046 209.331 267.227 209.511 267.227 209.734Z" fill="#3A3144"/>
<path d="M266.492 208.5C266.684 208.433 266.887 208.4 267.09 208.404C267.209 208.39 267.298 208.289 267.298 208.17C267.298 208.051 267.209 207.95 267.09 207.936C266.845 207.932 266.601 207.97 266.369 208.049C266.085 208.144 266.205 208.599 266.492 208.5Z" fill="#3A3144"/>
<path d="M271.963 209.734C271.963 209.957 271.783 210.138 271.56 210.138C271.337 210.138 271.156 209.957 271.156 209.734C271.156 209.511 271.337 209.331 271.56 209.331C271.783 209.331 271.963 209.511 271.963 209.734Z" fill="#3A3144"/>
<path d="M272.015 208.049C271.783 207.97 271.539 207.932 271.294 207.936C271.175 207.95 271.086 208.051 271.086 208.17C271.086 208.289 271.175 208.39 271.294 208.404C271.497 208.4 271.7 208.433 271.892 208.5C272.176 208.599 272.299 208.158 272.015 208.049Z" fill="#3A3144"/>
<path d="M268.997 210.914C269.039 210.843 269.119 210.803 269.202 210.812C269.284 210.821 269.354 210.877 269.38 210.955C269.517 211.211 269.907 210.982 269.773 210.726C269.656 210.519 269.44 210.387 269.202 210.379C268.964 210.37 268.739 210.486 268.607 210.685C268.446 210.928 268.84 211.157 268.997 210.914Z" fill="#3A3144"/>
<path d="M268.379 212.08C268.601 212.21 268.855 212.274 269.111 212.264C269.412 212.264 269.412 211.782 269.111 211.796C268.938 211.805 268.766 211.763 268.615 211.676C268.504 211.611 268.361 211.649 268.296 211.76C268.231 211.871 268.268 212.015 268.379 212.08Z" fill="#3A3144"/>
<path d="M278.452 248.477H259.93C258.173 248.476 256.69 247.17 256.466 245.427L254.159 227.306C253.897 225.213 254.546 223.11 255.941 221.529C257.336 219.948 259.343 219.042 261.452 219.042H276.937C279.048 219.042 281.056 219.95 282.45 221.534C283.845 223.119 284.491 225.226 284.223 227.319L281.919 245.441C281.689 247.18 280.206 248.479 278.452 248.477Z" fill="#F97171"/>
<path d="M149.388 125.783H176.276C175.692 117.652 171.619 111.289 162.832 111.289C154.045 111.289 149.986 117.652 149.388 125.783Z" fill="#385A7D"/>
<path fill-rule="evenodd" clip-rule="evenodd" d="M159.133 90.531V85.0295H166.529V90.531H159.133Z" fill="#71D2C1"/>
<path d="M162.138 86.4896C162.138 86.4896 163.047 87.9735 166.425 88.0111V84.1851" fill="#3A3144"/>
<path d="M157.692 77.2338C157.692 74.3974 159.992 72.0981 162.828 72.0981C165.664 72.0981 167.964 74.3974 167.964 77.2338V81.5762C167.964 84.4125 165.664 86.7118 162.828 86.7118C159.992 86.7118 157.692 84.4125 157.692 81.5761V77.2338Z" fill="#71D2C1"/>
<path d="M168.766 78.392C169.367 78.6961 169.494 79.6572 169.048 80.5386C168.602 81.42 167.753 81.8879 167.152 81.5837C166.55 81.2795 166.424 80.3185 166.869 79.4371C167.315 78.5557 168.164 78.0878 168.766 78.392Z" fill="#71D2C1"/>
<path d="M158.779 79.4717C159.224 80.3531 159.098 81.3141 158.496 81.6183C157.894 81.9225 157.045 81.4545 156.6 80.5732C156.154 79.6918 156.281 78.7307 156.882 78.4266C157.484 78.1224 158.333 78.5903 158.779 79.4717Z" fill="#71D2C1"/>
<path d="M160.866 80.2325C160.866 80.4554 160.685 80.636 160.462 80.636C160.239 80.636 160.059 80.4554 160.059 80.2325C160.059 80.0097 160.239 79.8291 160.462 79.8291C160.685 79.8291 160.866 80.0097 160.866 80.2325Z" fill="#3A3144"/>
<path d="M160.132 78.9947C160.324 78.9286 160.527 78.8973 160.73 78.9024C160.849 78.888 160.938 78.7875 160.938 78.6681C160.938 78.5488 160.849 78.4483 160.73 78.4339C160.485 78.427 160.241 78.4641 160.009 78.5433C159.725 78.6425 159.845 79.0938 160.132 78.9947Z" fill="#3A3144"/>
<path d="M165.603 80.2325C165.603 80.4554 165.422 80.636 165.199 80.636C164.977 80.636 164.796 80.4554 164.796 80.2325C164.796 80.0097 164.977 79.8291 165.199 79.8291C165.422 79.8291 165.603 80.0097 165.603 80.2325Z" fill="#3A3144"/>
<path d="M165.653 78.5433C165.421 78.464 165.176 78.427 164.931 78.4339C164.813 78.4483 164.724 78.5488 164.724 78.6681C164.724 78.7875 164.813 78.888 164.931 78.9023C165.135 78.8973 165.337 78.9285 165.53 78.9946C165.817 79.0938 165.94 78.6527 165.653 78.5433Z" fill="#3A3144"/>
<path d="M162.637 81.4085C162.681 81.34 162.76 81.3022 162.841 81.3109C162.922 81.3195 162.992 81.3732 163.02 81.4496C163.153 81.7094 163.543 81.4803 163.41 81.2205C163.293 81.0131 163.076 80.8816 162.838 80.8732C162.6 80.8649 162.375 80.9809 162.244 81.1795C162.083 81.4256 162.476 81.6513 162.637 81.4085Z" fill="#3A3144"/>
<path d="M172.091 118.972H153.57C151.812 118.972 150.328 117.666 150.106 115.922L147.801 97.8174C147.534 95.7234 148.18 93.6155 149.576 92.0313C150.971 90.447 152.98 89.5393 155.091 89.5396H170.573C172.684 89.5404 174.692 90.4484 176.087 92.0324C177.482 93.6164 178.129 95.7236 177.863 97.8174L175.555 115.922C175.333 117.666 173.849 118.972 172.091 118.972Z" fill="#3A3144"/>
<path d="M159.293 87.782L157.252 89.5394L160.179 91.9466L163.328 89.5394L159.293 87.782Z" fill="#3A3144"/>
<path d="M166.368 87.782L168.409 89.5394L165.482 91.9466L162.333 89.5394L166.368 87.782Z" fill="#3A3144"/>
<path d="M42.4014 257.162C46.6579 258.905 51.2021 259.84 55.8012 259.918C56.167 257.945 56.5534 256.105 56.8919 254.669L43.581 251.531C43.4511 252.074 42.945 254.256 42.4014 257.162Z" fill="#3A3144"/>
<path d="M69.3627 251.527L56.0518 254.666C56.3937 256.102 56.7766 257.942 57.1391 259.918C61.7382 259.84 66.2824 258.906 70.5389 257.162C69.9952 254.252 69.4926 252.074 69.3627 251.527V251.527Z" fill="#3A3144"/>
<path d="M148.762 257.162C153.018 258.906 157.562 259.84 162.162 259.918C162.524 257.945 162.914 256.106 163.252 254.67L149.938 251.531C149.811 252.074 149.302 254.256 148.762 257.162H148.762Z" fill="#F97171"/>
<path d="M175.723 251.527L162.412 254.666C162.754 256.106 163.137 257.942 163.503 259.918C168.101 259.84 172.644 258.905 176.899 257.162C176.356 254.252 175.853 252.074 175.723 251.527V251.527Z" fill="#F97171"/>
<path d="M256.298 251.527C256.168 252.074 255.666 254.263 255.122 257.162C259.379 258.906 263.923 259.84 268.522 259.918C268.884 257.945 269.271 256.106 269.609 254.666L256.298 251.527Z" fill="#1CA591"/>
<path d="M282.083 251.527L268.769 254.666C269.11 256.106 269.497 257.942 269.859 259.918C274.458 259.84 279.003 258.906 283.259 257.162C282.715 254.252 282.213 252.074 282.083 251.527V251.527Z" fill="#1CA591"/>
<path d="M149.797 122.685C149.38 126.491 147.691 142.342 147.264 152.453C151.666 153.843 156.235 154.635 160.848 154.805C161.043 147.714 162.407 133.168 163.392 124.172L149.797 122.685Z" fill="#385A7D"/>
<path d="M175.862 122.685L162.268 124.169C163.252 133.169 164.617 147.714 164.811 154.805C169.426 154.635 173.996 153.844 178.399 152.453C177.972 142.342 176.279 126.487 175.862 122.685Z" fill="#385A7D"/>
<path d="M144.833 134.027L148.885 128.464C148.885 128.464 155.58 133.011 152.95 136.328C150.321 139.644 144.833 134.027 144.833 134.027Z" fill="#71D2C1"/>
<path d="M154.858 131.202L149.507 129.541C148.693 129.288 148.344 130.566 149.165 130.816L154.516 132.478C155.33 132.731 155.678 131.452 154.858 131.202Z" fill="#71D2C1"/>
<path d="M150.67 138.827C149.806 137.628 148.904 136.454 147.962 135.305C147.559 134.813 146.861 135.517 147.261 135.989C148.148 137.07 148.999 138.176 149.815 139.309C150.185 139.822 151.046 139.33 150.67 138.81V138.827Z" fill="#71D2C1"/>
<path d="M153.175 138.783C152.263 137.987 151.469 137.066 150.816 136.047C150.474 135.51 149.616 136.006 149.958 136.546C150.653 137.644 151.501 138.637 152.474 139.497C152.953 139.918 153.657 139.22 153.175 138.813V138.783Z" fill="#71D2C1"/>
<path d="M151.87 135.972C152.682 136.93 153.559 137.83 154.496 138.666C154.971 139.09 155.675 138.389 155.196 137.983C154.26 137.146 153.382 136.246 152.571 135.288C152.16 134.803 151.459 135.507 151.87 135.972Z" fill="#71D2C1"/>
<path d="M156.588 136.078C154.814 135.052 153.511 133.404 152.256 131.814C151.863 131.312 151.165 132.016 151.555 132.498C152.851 134.16 154.232 135.852 156.089 136.916C156.323 137.035 156.609 136.95 156.742 136.724C156.874 136.497 156.807 136.206 156.588 136.061V136.078Z" fill="#71D2C1"/>
<path d="M192.803 73.1308L185.924 73.3668C185.924 73.3668 185.384 65.2906 189.603 65.3248C193.822 65.359 192.803 73.1308 192.803 73.1308Z" fill="#71D2C1"/>
<path d="M184.377 66.8943L186.363 72.1325C186.664 72.9223 187.939 72.5804 187.638 71.7906L185.652 66.5558C185.351 65.7659 184.072 66.1079 184.377 66.8977V66.8943Z" fill="#71D2C1"/>
<path d="M192.969 65.6257C192.568 67.007 192.21 68.3998 191.895 69.8039C191.758 70.4262 192.712 70.6929 192.853 70.0706C193.167 68.6665 193.525 67.2726 193.926 65.889C193.999 65.6246 193.844 65.3513 193.579 65.2786C193.315 65.2059 193.042 65.3613 192.969 65.6257Z" fill="#71D2C1"/>
<path d="M191.406 63.6869C191.327 64.897 191.081 66.0904 190.674 67.2326C190.462 67.8344 191.419 68.0943 191.628 67.4959C192.056 66.2678 192.311 64.9856 192.384 63.6869C192.421 63.051 191.43 63.051 191.392 63.6869H191.406Z" fill="#71D2C1"/>
<path d="M189.991 66.4702C190.252 65.1967 190.425 63.907 190.511 62.61C190.556 61.974 189.564 61.9774 189.52 62.61C189.442 63.8177 189.279 65.0185 189.034 66.2035C188.907 66.8292 189.861 67.0959 189.991 66.4702Z" fill="#71D2C1"/>
<path d="M187.19 62.6714C187.47 64.6477 186.974 66.6685 186.506 68.5764C186.352 69.1953 187.309 69.4585 187.463 68.8397C187.986 66.7403 188.462 64.5759 188.147 62.4081C188.058 61.779 187.104 62.0491 187.193 62.6714H187.19Z" fill="#71D2C1"/>
<path fill-rule="evenodd" clip-rule="evenodd" d="M149.833 91.6267C149.834 91.6259 149.835 91.6252 152.82 94.8051C155.804 97.985 155.805 97.9843 155.806 97.9837L155.792 97.9963C155.777 98.0113 155.75 98.0372 155.712 98.0736C155.637 98.1466 155.519 98.2618 155.366 98.4159C155.058 98.7245 154.609 99.1872 154.067 99.7784C152.979 100.967 151.546 102.644 150.154 104.609C147.2 108.776 145.121 113.272 145.464 116.896C145.883 121.315 147.464 124.474 148.888 126.505C149.605 127.527 150.284 128.265 150.757 128.728C150.993 128.958 151.175 129.117 151.281 129.207C151.334 129.252 151.368 129.279 151.38 129.288C151.386 129.293 151.387 129.293 151.381 129.289L151.368 129.279L151.359 129.272L151.353 129.268L151.35 129.266C151.348 129.264 151.347 129.263 148.761 132.775C146.175 136.287 146.174 136.286 146.172 136.285L146.169 136.282L146.161 136.277L146.144 136.264C146.132 136.255 146.118 136.245 146.103 136.233C146.072 136.21 146.035 136.181 145.992 136.148C145.907 136.08 145.797 135.992 145.667 135.882C145.406 135.663 145.062 135.358 144.66 134.965C143.857 134.181 142.815 133.036 141.747 131.514C139.602 128.456 137.364 123.881 136.781 117.718C136.122 110.759 139.891 104.004 143.037 99.5657C144.694 97.228 146.374 95.2645 147.635 93.8872C148.268 93.1957 148.803 92.6445 149.186 92.2599C149.378 92.0674 149.532 91.9162 149.642 91.8094C149.698 91.756 149.742 91.7137 149.774 91.6829C149.79 91.6675 149.803 91.6549 149.814 91.6453L149.827 91.633L149.833 91.6267Z" fill="#3A3144"/>
<path fill-rule="evenodd" clip-rule="evenodd" d="M192.938 91.7666C192.726 92.2531 192.322 93.0424 191.572 93.7347C190.919 94.3382 190.207 94.6806 189.794 94.8595C189.317 95.0668 188.819 95.2311 188.36 95.3637C187.439 95.6296 186.36 95.8564 185.257 96.0529C183.034 96.4489 180.331 96.7871 177.771 97.0607C175.195 97.336 172.689 97.5537 170.832 97.7024C169.902 97.7768 169.132 97.8342 168.592 97.873C168.322 97.8925 168.11 97.9073 167.964 97.9173C167.891 97.9223 167.835 97.9262 167.796 97.9288L167.737 97.9327L167.736 97.9328C167.735 97.9328 167.735 97.9328 167.448 93.5811C167.161 89.2293 167.161 89.2293 167.161 89.2293L167.211 89.226C167.245 89.2237 167.297 89.2202 167.365 89.2155C167.502 89.206 167.705 89.1919 167.965 89.1731C168.485 89.1357 169.232 89.08 170.136 89.0077C171.947 88.8628 174.37 88.652 176.844 88.3876C179.335 88.1214 181.802 87.8085 183.728 87.4656C184.268 87.3694 184.736 87.2759 185.132 87.187C185.162 86.9547 185.19 86.6919 185.217 86.3978C185.368 84.7315 185.416 82.5619 185.403 80.3309C185.389 78.1238 185.317 75.9581 185.248 74.3368C185.214 73.5283 185.18 72.8602 185.155 72.3962C185.143 72.1643 185.133 71.9836 185.126 71.8622C185.122 71.8015 185.119 71.7556 185.118 71.7256L185.115 71.6838C185.115 71.6839 185.115 71.684 189.468 71.4144C193.821 71.1448 193.821 71.1452 193.821 71.1455L193.824 71.2028C193.826 71.2385 193.83 71.2902 193.833 71.3569C193.841 71.4903 193.852 71.6838 193.865 71.9294C193.892 72.4203 193.927 73.1205 193.963 73.965C194.035 75.6498 194.111 77.9292 194.125 80.2786C194.139 82.6041 194.093 85.1024 193.904 87.1875C193.81 88.2186 193.67 89.2793 193.444 90.2193C193.33 90.6896 193.172 91.2304 192.938 91.7666Z" fill="#3A3144"/>
<path d="M163.279 92.6785L164.1 91.8989L162.831 90.5654L161.563 91.8989L162.38 92.6785L160.496 110.492L162.831 112.082L165.163 110.492L163.279 92.6785Z" fill="#4F8AE0"/>
<path d="M157.771 78.4682C157.771 78.4682 159.06 77.3159 158.91 75.7568C158.76 74.1976 156.407 74.9601 157.771 78.4682Z" fill="#3A3144"/>
<path d="M167.889 78.4682C167.889 78.4682 166.6 77.3159 166.75 75.7568C166.901 74.1976 169.253 74.9601 167.889 78.4682Z" fill="#3A3144"/>
<path d="M158.134 75.7568C158.134 75.7568 157.72 76.5842 158.476 76.7278C159.231 76.8714 164.155 76.5774 165.42 74.9875C165.42 74.9875 166.292 76.8543 167.147 76.9261C168.001 76.9979 168.295 77.6339 168.306 76.5192C168.316 75.4046 168.066 73.7224 166.316 73.4693C166.316 73.4693 164.825 70.8947 161.891 71.582C158.958 72.2692 157.371 75.1447 157.347 76.3141C157.323 77.4835 158.134 75.7568 158.134 75.7568Z" fill="#3A3144"/>
<path fill-rule="evenodd" clip-rule="evenodd" d="M71.8708 239.76L80.3455 241.822C79.8767 243.748 78.783 245.434 77.0213 246.511C75.3872 247.509 73.6125 247.716 72.174 247.669C69.3858 247.577 66.3864 246.472 63.9889 245.387C61.4707 244.248 59.0684 242.872 57.3283 241.807C56.4498 241.27 55.721 240.8 55.2077 240.461C54.9507 240.292 54.7468 240.155 54.6041 240.058C54.5328 240.009 54.4766 239.971 54.4368 239.943L54.3892 239.911L54.3748 239.901L54.3682 239.896C54.3675 239.896 54.3668 239.895 56.8579 236.315C59.349 232.736 59.3485 232.735 59.348 232.735L59.3518 232.737L59.3789 232.756C59.405 232.774 59.4467 232.803 59.5032 232.841C59.6162 232.918 59.7878 233.033 60.0101 233.18C60.4552 233.473 61.0999 233.889 61.881 234.367C63.4601 235.334 65.5223 236.507 67.5845 237.44C69.7674 238.428 71.4645 238.918 72.4598 238.951C72.6382 238.957 72.7291 238.945 72.7538 238.941C72.7267 238.947 72.6227 238.976 72.4742 239.067C72.294 239.177 72.1267 239.333 72.0034 239.511C71.9119 239.642 71.8779 239.738 71.8708 239.76Z" fill="white"/>
<path d="M55.7541 212.357C55.9361 212.408 56.1153 212.468 56.2909 212.538C56.4153 212.571 56.5432 212.498 56.5781 212.374C56.609 212.25 56.5367 212.123 56.414 212.087C56.2398 212.016 56.0617 211.956 55.8806 211.906C55.7622 211.887 55.6486 211.96 55.6162 212.075C55.5839 212.19 55.6432 212.312 55.7541 212.357Z" fill="#3A3144"/>
<path d="M57.7516 245.338L55.8916 238.709C55.8916 238.709 63.6053 236.267 64.5763 240.377C65.5474 244.487 57.7516 245.338 57.7516 245.338Z" fill="#71D2C1"/>
<path d="M61.7975 235.676L57.1816 238.849C56.4978 239.331 57.1474 240.476 57.8484 239.991L62.4643 236.818C63.1481 236.339 62.5019 235.19 61.7975 235.676Z" fill="#71D2C1"/>
<path d="M65.0686 243.718C63.628 243.656 62.1897 243.639 60.7536 243.666C60.4798 243.666 60.2578 243.888 60.2578 244.162C60.2578 244.436 60.4798 244.658 60.7536 244.658C62.1942 244.631 63.6326 244.648 65.0686 244.709C65.7046 244.733 65.7046 243.742 65.0686 243.718Z" fill="#71D2C1"/>
<path d="M66.5799 241.738C65.3862 241.951 64.1685 241.996 62.9624 241.871C62.3298 241.81 62.3333 242.801 62.9624 242.863C64.2575 242.989 65.5638 242.932 66.8432 242.695C67.4689 242.582 67.2056 241.629 66.5799 241.738Z" fill="#71D2C1"/>
<path d="M63.5776 241.017C64.8767 240.966 66.171 240.828 67.4515 240.603C68.0772 240.493 67.7934 239.536 67.1882 239.645C65.9945 239.852 64.7882 239.979 63.5776 240.025C62.9416 240.049 62.9416 241.051 63.5776 241.017Z" fill="#71D2C1"/>
<path d="M66.6898 237.355C64.7853 238.121 62.6894 238.141 60.6686 238.131C60.3948 238.131 60.1729 238.353 60.1729 238.627C60.1729 238.9 60.3948 239.122 60.6686 239.122C62.768 239.122 64.9734 239.105 66.9531 238.312C67.5378 238.076 67.295 237.115 66.6898 237.355Z" fill="#71D2C1"/>
<path d="M139.528 188.812L146.302 190.043C146.302 190.043 148.011 182.131 143.823 181.553C139.634 180.976 139.528 188.812 139.528 188.812Z" fill="#71D2C1"/>
<path d="M147.59 183.266L144.855 188.159C144.441 188.904 145.58 189.571 145.997 188.843L148.732 183.95C149.146 183.205 148.004 182.538 147.59 183.283V183.266Z" fill="#71D2C1"/>
<path d="M139.481 181.557C139.67 182.938 139.816 184.324 139.919 185.715C139.967 186.347 140.944 186.354 140.91 185.715C140.801 184.234 140.64 182.76 140.438 181.29C140.349 180.661 139.396 180.948 139.481 181.557Z" fill="#71D2C1"/>
<path d="M141.293 179.601C141.187 180.897 141.262 182.202 141.515 183.478C141.635 184.104 142.592 183.82 142.469 183.215C142.24 182.025 142.178 180.808 142.284 179.601C142.339 178.965 141.347 178.968 141.293 179.601Z" fill="#71D2C1"/>
<path d="M144.27 182.559C144.198 181.305 144.212 180.049 144.311 178.797C144.363 178.162 143.371 178.165 143.32 178.797C143.221 180.049 143.207 181.305 143.279 182.559C143.313 183.191 144.304 183.198 144.27 182.559Z" fill="#71D2C1"/>
<path d="M145.666 178.962C145.061 181.013 145.229 183.195 145.437 185.294C145.499 185.923 146.49 185.93 146.429 185.294C146.23 183.287 146.042 181.191 146.624 179.225C146.805 178.613 145.847 178.349 145.666 178.962Z" fill="#71D2C1"/>
<path d="M197.076 190.125L190.446 188.275C190.446 188.275 192.364 180.411 196.379 181.717C200.393 183.024 197.076 190.125 197.076 190.125Z" fill="#71D2C1"/>
<path d="M190.918 181.663L191.236 187.257C191.284 188.101 192.604 188.108 192.559 187.257L192.241 181.663C192.193 180.818 190.874 180.811 190.918 181.663Z" fill="#71D2C1"/>
<path d="M199.486 183.037C198.686 184.234 197.925 185.455 197.202 186.699C197.063 186.935 197.142 187.239 197.378 187.378C197.614 187.517 197.918 187.438 198.057 187.202C198.782 185.957 199.543 184.737 200.341 183.54C200.683 183.007 199.838 182.514 199.486 183.037Z" fill="#71D2C1"/>
<path d="M198.584 180.716C198.148 181.849 197.553 182.913 196.817 183.878C196.434 184.388 197.295 184.884 197.675 184.381C198.455 183.334 199.083 182.183 199.542 180.962C199.767 180.367 198.81 180.107 198.584 180.699V180.716Z" fill="#71D2C1"/>
<path d="M196.414 182.894C197.045 181.76 197.598 180.585 198.069 179.375C198.301 178.78 197.341 178.521 197.112 179.112C196.669 180.24 196.151 181.337 195.559 182.395C195.248 182.952 196.103 183.451 196.414 182.894Z" fill="#71D2C1"/>
<path d="M194.892 178.346C194.55 180.374 193.487 182.176 192.427 183.899C192.316 184.133 192.403 184.412 192.626 184.543C192.849 184.674 193.135 184.612 193.285 184.402C194.383 182.61 195.501 180.712 195.85 178.609C195.952 177.987 194.998 177.717 194.892 178.346Z" fill="#71D2C1"/>
<path fill-rule="evenodd" clip-rule="evenodd" d="M34.9937 247.857C33.6241 247.301 31.6583 246.051 31.0566 243.525L39.5418 241.504C39.3959 240.891 39.074 240.42 38.7585 240.119C38.614 239.981 38.4873 239.894 38.4055 239.844C38.3245 239.795 38.2749 239.775 38.2723 239.774C38.2722 239.774 38.2723 239.774 38.2723 239.774C38.2724 239.774 38.3016 239.785 38.3674 239.803C38.4356 239.822 38.5317 239.844 38.6594 239.867C38.9192 239.914 39.2626 239.954 39.6972 239.978C41.5161 240.079 44.0832 239.86 46.8872 239.453C49.6319 239.054 52.3706 238.512 54.44 238.065C55.4701 237.842 56.3242 237.645 56.9175 237.504C57.2139 237.434 57.4448 237.378 57.5993 237.34C57.6765 237.321 57.7347 237.306 57.7724 237.297L57.8134 237.287L57.8233 237.284C57.8231 237.284 57.8227 237.284 58.8917 241.513C59.9606 245.741 59.9601 245.741 59.9595 245.741L59.9373 245.747L59.8819 245.76C59.8345 245.772 59.7663 245.789 59.6786 245.811C59.5033 245.854 59.2501 245.915 58.9298 245.991C58.2895 246.143 57.3788 246.353 56.2842 246.59C54.1042 247.062 51.1537 247.647 48.1397 248.085C45.1849 248.514 41.9236 248.837 39.2144 248.687C37.8888 248.614 36.3654 248.413 34.9937 247.857Z" fill="white"/>
<path d="M56.4706 201.6C53.638 201.6 51.3418 203.896 51.3418 206.729V207.444C52.9728 207.054 57.6981 205.734 57.8793 203.631C57.8793 203.631 59.0726 206.944 61.6131 207.269V206.729C61.6131 205.366 61.0708 204.06 60.106 203.097C59.1412 202.135 57.8332 201.596 56.4706 201.6Z" fill="#3A3144"/>
<path d="M58.6068 201.299C58.6068 203.822 56.5616 205.867 54.0387 205.867C51.5159 205.867 49.4707 203.822 49.4707 201.299C49.4707 198.776 51.5159 196.731 54.0387 196.731C56.5616 196.731 58.6068 198.776 58.6068 201.299Z" fill="#3A3144"/>
<path fill-rule="evenodd" clip-rule="evenodd" d="M137.932 186.044C137.933 186.044 137.933 186.043 143.018 187.281C148.103 188.518 148.103 188.518 148.103 188.517L148.102 188.522L148.094 188.554C148.087 188.585 148.075 188.634 148.06 188.701C148.028 188.834 147.982 189.037 147.922 189.302C147.804 189.831 147.637 190.605 147.448 191.558C147.067 193.473 146.604 196.08 146.262 198.876C145.917 201.695 145.711 204.579 145.802 207.084C145.898 209.752 146.313 211.3 146.679 211.947C148.159 214.567 150.691 216.923 153.135 218.725C154.317 219.595 155.39 220.273 156.159 220.727C156.542 220.954 156.844 221.122 157.04 221.228C157.138 221.281 157.21 221.319 157.251 221.34C157.272 221.351 157.285 221.358 157.29 221.36L157.288 221.359L157.283 221.357C157.282 221.356 157.281 221.356 154.934 226.034C152.587 230.711 152.586 230.711 152.585 230.71L152.577 230.706L152.563 230.699L152.527 230.681C152.499 230.666 152.462 230.647 152.417 230.624C152.327 230.577 152.205 230.513 152.055 230.432C151.754 230.269 151.337 230.036 150.832 229.738C149.825 229.142 148.447 228.272 146.926 227.151C143.967 224.97 140.093 221.57 137.565 217.095C135.927 214.195 135.453 210.564 135.341 207.46C135.224 204.192 135.493 200.708 135.873 197.605C136.255 194.478 136.767 191.604 137.181 189.52C137.389 188.474 137.573 187.618 137.708 187.018C137.775 186.718 137.829 186.481 137.868 186.316C137.887 186.233 137.903 186.169 137.914 186.123L137.927 186.068L137.932 186.044ZM148.103 188.516C148.103 188.516 148.103 188.516 148.103 188.516V188.516Z" fill="#4F8AE0"/>
<path fill-rule="evenodd" clip-rule="evenodd" d="M188.949 186.411C188.949 186.411 188.949 186.412 194.11 187.281C199.271 188.15 199.271 188.15 199.271 188.151L199.258 188.227C199.25 188.273 199.238 188.34 199.223 188.427C199.193 188.599 199.149 188.849 199.092 189.165C198.978 189.799 198.811 190.702 198.596 191.798C198.168 193.983 197.547 196.956 196.778 200.078C196.015 203.179 195.08 206.536 194.01 209.448C193.475 210.903 192.874 212.338 192.201 213.614C191.563 214.824 190.694 216.216 189.512 217.318C186.936 219.723 181.825 223.331 177.711 226.134C175.581 227.585 173.597 228.902 172.145 229.855C171.419 230.332 170.825 230.719 170.411 230.988C170.204 231.122 170.042 231.227 169.931 231.299L169.758 231.41C169.758 231.411 169.757 231.411 166.928 227.008C164.098 222.606 164.098 222.606 164.098 222.606L164.253 222.506C164.358 222.438 164.513 222.338 164.713 222.208C165.112 221.949 165.69 221.572 166.399 221.107C167.817 220.176 169.75 218.893 171.817 217.484C176.093 214.571 180.488 211.423 182.368 209.669C182.362 209.674 182.359 209.677 182.359 209.677C182.357 209.674 182.573 209.432 182.943 208.731C183.326 208.005 183.745 207.034 184.185 205.837C185.064 203.445 185.893 200.509 186.615 197.576C187.331 194.666 187.917 191.865 188.324 189.785C188.528 188.748 188.685 187.896 188.792 187.307C188.845 187.013 188.885 186.785 188.911 186.632C188.925 186.556 188.935 186.499 188.941 186.461L188.948 186.421L188.949 186.411Z" fill="#4F8AE0"/>
<path d="M42.5924 236.565L44.4285 234.308C44.6165 234.076 44.2849 233.741 44.0866 233.966L42.2505 236.223C42.0624 236.456 42.3906 236.791 42.5924 236.565Z" fill="#3A3144"/>
<path d="M68.6703 233.471L70.5748 235.502C70.7833 235.721 71.1116 235.389 70.9167 235.16L69.0122 233.129C68.8036 232.91 68.472 233.242 68.6703 233.471Z" fill="#3A3144"/>
<path d="M147.678 227.48L149.131 228.472C149.38 228.643 149.616 228.236 149.367 228.068L147.914 227.073C147.664 226.902 147.428 227.309 147.678 227.48Z" fill="#3A3144"/>
<path d="M176.046 227.805C176.55 227.036 177.22 226.389 178.005 225.911C178.261 225.75 178.025 225.346 177.769 225.504C176.919 226.024 176.193 226.725 175.642 227.555C175.475 227.808 175.882 228.044 176.046 227.795V227.805Z" fill="#3A3144"/>
<path d="M152.544 253.312L154.178 251.975C154.411 251.784 154.079 251.456 153.836 251.633L152.202 252.97C151.969 253.162 152.301 253.49 152.544 253.312Z" fill="#3A3144"/>
<path d="M171.208 251.387C171.899 252.03 172.677 252.572 173.519 252.998C173.786 253.134 174.026 252.731 173.755 252.594C172.949 252.187 172.203 251.669 171.54 251.055C171.318 250.85 170.986 251.182 171.198 251.397L171.208 251.387Z" fill="#3A3144"/>
<path d="M152.93 124.118C153.813 123.503 154.631 122.799 155.371 122.018C155.58 121.8 155.248 121.468 155.029 121.677C154.32 122.431 153.534 123.11 152.684 123.701C152.441 123.872 152.684 124.279 152.92 124.108L152.93 124.118Z" fill="#3A3144"/>
<path d="M171.57 121.957L174.483 125.133C174.688 125.356 175.017 125.024 174.825 124.792L171.912 121.615C171.71 121.393 171.379 121.725 171.57 121.957Z" fill="#3A3144"/>
<path d="M161.399 212.049C162.04 212.476 162.816 212.649 163.577 212.535C163.875 212.494 163.748 212.043 163.451 212.08C162.813 212.166 162.165 212.011 161.635 211.646C161.382 211.478 161.146 211.885 161.399 212.049Z" fill="#3A3144"/>
<path d="M162.409 82.9543C163.088 83.082 163.79 82.9423 164.368 82.5645C164.618 82.4004 164.385 81.9935 164.132 82.161C163.662 82.4757 163.09 82.598 162.532 82.5029C162.238 82.4517 162.112 82.903 162.409 82.9543Z" fill="#3A3144"/>
<path fill-rule="evenodd" clip-rule="evenodd" d="M255.766 221.75C255.766 221.749 255.767 221.749 259.239 225.664C262.711 229.58 262.712 229.58 262.712 229.579L262.698 229.592C262.684 229.604 262.663 229.623 262.634 229.649C262.575 229.702 262.486 229.783 262.37 229.889C262.138 230.1 261.8 230.412 261.392 230.798C260.571 231.575 259.488 232.632 258.409 233.78C257.312 234.946 256.311 236.108 255.602 237.102C255.422 237.353 255.278 237.571 255.164 237.754C255.299 238.059 255.485 238.44 255.733 238.898C256.494 240.304 257.59 241.998 258.779 243.701C259.952 245.382 261.144 246.971 262.048 248.146C262.498 248.731 262.873 249.209 263.133 249.537C263.263 249.701 263.364 249.828 263.432 249.912C263.465 249.954 263.491 249.985 263.507 250.005L263.524 250.027L263.528 250.031C263.527 250.031 263.527 250.031 259.461 253.326C255.395 256.621 255.395 256.62 255.395 256.62L255.384 256.607L255.358 256.575C255.337 256.548 255.305 256.509 255.266 256.46C255.187 256.361 255.073 256.218 254.929 256.037C254.643 255.676 254.237 255.159 253.752 254.529C252.787 253.274 251.491 251.548 250.196 249.692C248.916 247.858 247.562 245.792 246.526 243.878C246.011 242.925 245.513 241.899 245.146 240.885C244.825 239.998 244.387 238.553 244.518 236.965C244.632 235.58 245.122 234.381 245.538 233.542C245.983 232.646 246.534 231.788 247.084 231.018C248.184 229.478 249.542 227.929 250.784 226.608C252.045 225.268 253.283 224.061 254.198 223.195C254.658 222.76 255.043 222.405 255.315 222.156C255.452 222.032 255.561 221.933 255.637 221.865C255.676 221.83 255.706 221.803 255.728 221.784L255.754 221.76L255.766 221.75ZM254.915 237.088C254.916 237.088 254.92 237.103 254.925 237.131C254.917 237.101 254.914 237.087 254.915 237.088ZM254.86 238.313C254.854 238.329 254.851 238.338 254.851 238.338C254.85 238.338 254.853 238.33 254.86 238.313Z" fill="#F97171"/>
<path fill-rule="evenodd" clip-rule="evenodd" d="M274.359 228.646C274.359 228.646 274.359 228.646 278.249 225.145C282.139 221.644 282.139 221.644 282.139 221.644L282.17 221.679C282.189 221.7 282.217 221.731 282.252 221.77C282.322 221.849 282.424 221.963 282.552 222.108C282.809 222.397 283.174 222.811 283.612 223.314C284.485 224.318 285.661 225.691 286.855 227.153C288.037 228.6 289.294 230.203 290.3 231.651C290.799 232.371 291.294 233.132 291.697 233.869C292.013 234.445 292.61 235.591 292.79 236.92C293.021 238.632 292.458 240.187 292.234 240.791C291.91 241.667 291.471 242.586 291.021 243.449C290.112 245.193 288.905 247.187 287.734 249.034C286.552 250.901 285.343 252.719 284.403 254.124C284.268 254.327 284.139 254.519 284.017 254.701C283.71 255.161 283.446 255.554 283.228 255.883C283.029 256.184 282.916 256.359 282.862 256.443C282.818 256.511 282.812 256.52 282.829 256.489L273.668 251.427C273.938 250.938 274.64 249.891 275.34 248.848C275.461 248.666 275.583 248.485 275.702 248.306C276.634 246.912 277.783 245.185 278.892 243.433C280.015 241.661 281.036 239.961 281.74 238.611C281.841 238.416 281.931 238.237 282.011 238.075C281.919 237.936 281.817 237.786 281.704 237.624C280.925 236.503 279.864 235.14 278.748 233.774C277.645 232.424 276.545 231.138 275.716 230.185C275.302 229.71 274.96 229.321 274.722 229.053C274.603 228.919 274.51 228.815 274.448 228.746C274.417 228.711 274.394 228.685 274.379 228.668L274.359 228.646ZM282.619 239.101C282.618 239.101 282.609 239.082 282.595 239.047C282.613 239.084 282.62 239.102 282.619 239.101ZM282.45 237.066C282.467 236.993 282.481 236.952 282.483 236.95C282.486 236.949 282.478 236.985 282.45 237.066Z" fill="#F97171"/>
<path d="M254.895 233.368C255.331 235.481 255.624 237.622 255.77 239.775C255.791 240.076 256.259 240.076 256.239 239.775C256.088 237.58 255.791 235.397 255.35 233.241C255.288 232.947 254.837 233.07 254.895 233.368Z" fill="#3A3144"/>
<path d="M281.035 232.941C280.907 234.944 280.869 236.949 280.919 238.955C280.933 239.073 281.034 239.163 281.153 239.163C281.272 239.163 281.373 239.073 281.387 238.955C281.339 236.951 281.378 234.947 281.503 232.941C281.52 232.64 281.052 232.643 281.035 232.941Z" fill="#3A3144"/>
<path d="M255.828 256.403C258.856 254.371 261.677 252.047 264.253 249.466C264.465 249.25 264.133 248.919 263.911 249.124C261.366 251.679 258.576 253.979 255.582 255.989C255.332 256.157 255.564 256.564 255.817 256.393L255.828 256.403Z" fill="#3A3144"/>
<path d="M273.014 250.734C274.215 252.106 275.7 253.202 277.366 253.945C279.103 254.741 280.946 255.329 282.464 256.526C282.697 256.711 283.032 256.379 282.806 256.184C281.401 255.073 279.746 254.475 278.122 253.757C276.297 253.014 274.666 251.863 273.356 250.392C273.157 250.163 272.826 250.495 273.014 250.734Z" fill="#3A3144"/>
<path d="M253.968 78.9639C253.968 77.7398 252.433 76.6423 250.002 75.8866C247.818 75.2156 246.108 73.506 245.437 71.322C244.689 68.8909 243.591 67.3557 242.36 67.3557C241.129 67.3557 240.042 68.8909 239.283 71.322C238.612 73.506 236.902 75.2156 234.718 75.8866C232.287 76.632 230.752 77.7296 230.752 78.9639C230.752 80.1982 232.287 81.2855 234.718 82.0412C236.902 82.7132 238.611 84.4224 239.283 86.6058C240.032 89.0403 241.129 90.5755 242.36 90.5755C243.591 90.5755 244.682 89.0403 245.437 86.6058C246.109 84.4224 247.819 82.7132 250.002 82.0412C252.433 81.2855 253.968 80.188 253.968 78.9639Z" fill="#FFECE5"/>
<path d="M237.315 126.611C237.866 126.063 237.657 124.88 236.912 123.451C236.232 122.168 236.232 120.631 236.912 119.348C237.671 117.922 237.866 116.739 237.315 116.189C236.765 115.638 235.585 115.847 234.156 116.592C232.873 117.272 231.336 117.272 230.053 116.592C228.627 115.837 227.444 115.638 226.894 116.189C226.343 116.739 226.552 117.922 227.297 119.348C227.978 120.631 227.978 122.168 227.297 123.451C226.542 124.88 226.343 126.063 226.894 126.611C227.444 127.158 228.627 126.952 230.053 126.207C231.336 125.527 232.873 125.527 234.156 126.207C235.585 126.966 236.768 127.161 237.315 126.611Z" fill="#FFECE5"/>
<path d="M98.3878 93.0441C99.3213 92.1106 98.9862 90.1002 97.704 87.6725C96.5484 85.4923 96.5484 82.881 97.704 80.7008C98.9896 78.2732 99.3247 76.2558 98.3878 75.3292C97.451 74.4026 95.4439 74.7275 93.0163 76.0131C90.836 77.1686 88.2248 77.1686 86.0446 76.0131C83.6169 74.724 81.5996 74.3924 80.673 75.3292C79.7464 76.2661 80.0712 78.2732 81.3568 80.7008C82.5088 82.8819 82.5088 85.4914 81.3568 87.6725C80.0678 90.1002 79.7327 92.1175 80.673 93.0441C81.6133 93.9707 83.6169 93.6424 86.0446 92.3602C88.2248 91.2047 90.836 91.2047 93.0163 92.3602C95.4439 93.6424 97.4544 93.9775 98.3878 93.0441Z" fill="#FFECE5"/>
<path d="M99.4351 126.925C99.4351 126.265 98.6043 125.673 97.2913 125.27C96.1118 124.907 95.1886 123.984 94.8261 122.805C94.4226 121.492 93.8311 120.661 93.1712 120.661C92.5113 120.661 91.9163 121.492 91.5129 122.805C91.1504 123.984 90.2271 124.907 89.0476 125.27C87.7347 125.673 86.9072 126.265 86.9072 126.925C86.9072 127.585 87.7347 128.18 89.0476 128.583C90.2269 128.944 91.1504 129.866 91.5129 131.045C91.9163 132.358 92.5113 133.189 93.1712 133.189C93.8311 133.189 94.4226 132.358 94.8261 131.045C95.1885 129.866 96.112 128.944 97.2913 128.583C98.6043 128.18 99.4351 127.585 99.4351 126.925Z" fill="#FFECE5"/>
<path d="M116.913 159.387C117.207 159.093 117.101 158.457 116.697 157.677C116.331 156.989 116.331 156.164 116.697 155.475C117.101 154.706 117.207 154.07 116.913 153.766C116.619 153.461 115.983 153.578 115.203 153.984C114.514 154.347 113.69 154.347 113.001 153.984C112.232 153.578 111.599 153.472 111.292 153.766C110.984 154.06 111.103 154.696 111.51 155.475C111.873 156.164 111.873 156.988 111.51 157.677C111.103 158.446 110.997 159.082 111.292 159.387C111.586 159.691 112.222 159.575 113.001 159.168C113.69 158.806 114.514 158.806 115.203 159.168C115.983 159.575 116.619 159.681 116.913 159.387Z" fill="#FFECE5"/>
<path d="M207.962 162.355C208.26 162.061 208.154 161.425 207.747 160.645C207.381 159.957 207.381 159.131 207.747 158.443C208.154 157.677 208.26 157.041 207.962 156.733C207.665 156.426 207.032 156.545 206.252 156.952C205.563 157.318 204.737 157.318 204.047 156.952C203.281 156.545 202.645 156.439 202.337 156.733C202.03 157.027 202.149 157.667 202.556 158.443C202.922 159.131 202.922 159.957 202.556 160.645C202.149 161.414 202.043 162.05 202.337 162.355C202.631 162.659 203.271 162.546 204.047 162.139C204.737 161.773 205.563 161.773 206.252 162.139C207.032 162.549 207.668 162.652 207.962 162.355Z" fill="#FFECE5"/>
<path d="M163.769 33.0066L165.714 36.9284C165.877 37.2655 166.198 37.499 166.569 37.5507L170.898 38.1798C171.326 38.2427 171.682 38.5434 171.815 38.9554C171.949 39.3675 171.837 39.8197 171.527 40.1219L168.395 43.1753C168.121 43.4328 167.993 43.8094 168.053 44.1805L168.791 48.4921C168.864 48.9191 168.689 49.3505 168.338 49.6052C167.988 49.8598 167.523 49.8936 167.14 49.6922L163.269 47.6407C162.937 47.4697 162.542 47.4697 162.209 47.6407L158.339 49.6922C157.955 49.8936 157.491 49.8598 157.14 49.6052C156.79 49.3505 156.614 48.9191 156.687 48.4921L157.429 44.1805C157.488 43.8096 157.36 43.4338 157.087 43.1753L153.955 40.1219C153.645 39.8197 153.533 39.3675 153.667 38.9554C153.8 38.5434 154.156 38.2427 154.585 38.1798L158.913 37.5507C159.285 37.4983 159.606 37.2653 159.772 36.9284L161.707 33.0066C161.892 32.6043 162.295 32.3467 162.738 32.3467C163.181 32.3467 163.583 32.6043 163.769 33.0066Z" fill="white"/>
</svg>
