<svg width="280" height="280" viewBox="0 0 280 280" fill="none" xmlns="http://www.w3.org/2000/svg">
<path d="M47.0551 130.724L40.2686 148.009C39.8549 149.016 40.1607 150.174 41.0171 150.846C41.8736 151.517 43.0719 151.537 43.9504 150.895L69.9818 132.51" fill="#FFD8C5"/>
<path d="M254.703 50.919C254.787 50.919 254.855 50.851 254.855 50.7671C254.855 50.6832 254.787 50.6152 254.703 50.6152C254.619 50.6152 254.551 50.6832 254.551 50.7671C254.551 50.851 254.619 50.919 254.703 50.919Z" fill="#3A3144"/>
<path d="M26 83.8609C26 62.6595 43.1872 45.4723 64.3886 45.4723H125.378C146.58 45.4723 163.767 62.6594 163.767 83.8609V101.521C163.767 122.723 146.58 139.91 125.378 139.91H64.3886C43.1872 139.91 26 122.723 26 101.522V83.8609Z" fill="#FFD8C5"/>
<path d="M26 83.8609C26 62.6595 43.1872 45.4723 64.3886 45.4723H125.378C146.58 45.4723 163.767 62.6594 163.767 83.8609V101.521C163.767 122.723 146.58 139.91 125.378 139.91H64.3886C43.1872 139.91 26 122.723 26 101.522V83.8609Z" fill="#FFD8C5"/>
<path d="M173.941 20H140.959C135.694 20 130.645 22.0917 126.922 25.8148C123.199 29.5379 121.109 34.5875 121.109 39.8524V49.9806C121.108 57.182 125.009 63.8187 131.301 67.3207L128.637 74.1042C128.431 74.6341 128.596 75.2366 129.044 75.5867C129.493 75.9368 130.117 75.9516 130.581 75.6231L138.932 69.7267C139.598 69.7935 140.275 69.8269 140.959 69.8269H173.95C184.912 69.8269 193.799 60.9401 193.799 49.9776V39.8402C193.797 34.5759 191.703 29.5281 187.979 25.8073C184.255 22.0865 179.205 19.9976 173.941 20V20Z" fill="#4F8AE0"/>
<path d="M126.146 45.4723H121.101V49.9683C121.099 57.1697 125 63.8064 131.293 67.3084L128.628 74.0919C128.422 74.6218 128.588 75.2243 129.036 75.5744C129.484 75.9245 130.108 75.9393 130.573 75.6109L138.924 69.7144C139.589 69.7812 140.266 69.8146 140.95 69.8146H161.355C155.826 55.1662 141.804 45.472 126.146 45.4723V45.4723Z" fill="#124A9B"/>
<path d="M119.39 95.3054C117.094 95.9464 115.28 98.0213 113.922 99.8895C112.524 101.837 111.547 104.054 111.054 106.4C110.729 107.919 113.071 108.578 113.396 107.044C113.809 105.065 114.604 103.187 115.739 101.515C116.735 100.048 118.248 98.1458 120.028 97.6476C121.532 97.2284 120.894 94.8831 119.381 95.3054H119.39Z" fill="#71D2C1"/>
<path d="M114.473 99.5678L114.862 110.559C114.862 110.559 128.107 109.277 125.564 101.956C123.686 96.5542 114.473 99.5678 114.473 99.5678Z" fill="#71D2C1"/>
<path d="M124.984 95.6427C124.03 97.2102 122.417 98.1338 120.813 98.9206C119.057 99.7833 117.295 100.555 115.785 101.825C114.889 102.584 116.183 103.866 117.076 103.116C120.068 100.591 124.388 100.121 126.557 96.5632C127.165 95.5607 125.594 94.6433 124.984 95.6518V95.6427Z" fill="#71D2C1"/>
<path d="M127.13 97.733C125.484 99.3917 123.342 100.324 121.158 101.075C120.052 101.448 120.529 103.201 121.644 102.831C124.123 101.989 126.547 100.917 128.419 99.0302C129.245 98.1948 127.957 96.9037 127.13 97.7421V97.733Z" fill="#71D2C1"/>
<path d="M127.678 100.779C126.135 101.885 124.412 102.716 122.587 103.237C121.46 103.541 121.94 105.315 123.07 104.993C125.051 104.433 126.921 103.536 128.599 102.341C129.543 101.663 128.635 100.084 127.687 100.767L127.678 100.779Z" fill="#71D2C1"/>
<path d="M127.061 104.295C125.585 104.92 123.938 105.084 122.504 105.777C121.45 106.287 122.371 107.861 123.416 107.351C124.093 107.023 124.892 106.938 125.612 106.743C126.415 106.503 127.203 106.215 127.972 105.88C128.428 105.686 128.519 105.021 128.301 104.632C128.037 104.209 127.488 104.067 127.052 104.307L127.061 104.295Z" fill="#71D2C1"/>
<path fill-rule="evenodd" clip-rule="evenodd" d="M91.2123 120.434L74.5176 99.9599L86.5296 90.165L100.89 107.776L112.751 98.2885L122.433 110.392L107.65 122.217L107.644 122.222C102.608 126.234 95.2809 125.44 91.221 120.444C91.2181 120.441 91.2152 120.437 91.2123 120.434Z" fill="#3A3144"/>
<path fill-rule="evenodd" clip-rule="evenodd" d="M152.956 129.086C153.079 128.428 152.656 127.787 151.997 127.646C151.327 127.503 150.668 127.929 150.525 128.599C150.478 128.815 150.474 129.052 150.472 129.201C150.47 129.331 150.471 129.486 150.472 129.645C150.473 129.699 150.473 129.754 150.473 129.808C150.476 130.255 150.473 130.813 150.421 131.47C150.319 132.781 150.022 134.501 149.178 136.442C148.905 137.07 149.193 137.801 149.821 138.074C150.449 138.347 151.18 138.059 151.453 137.431C152.429 135.185 152.774 133.186 152.894 131.664C152.953 130.905 152.956 130.268 152.953 129.795C152.953 129.725 152.952 129.661 152.952 129.602C152.951 129.453 152.95 129.336 152.951 129.233C152.953 129.133 152.956 129.091 152.956 129.086Z" fill="#3EB7B2"/>
<path d="M139.366 143.622L151.083 139.278C151.083 139.278 151.053 125.717 143.996 126.249C136.939 126.78 139.366 143.622 139.366 143.622Z" fill="#3EB7B2"/>
<path fill-rule="evenodd" clip-rule="evenodd" d="M142.328 121.959C142.528 121.486 143.073 121.264 143.547 121.464L143.185 122.321C143.547 121.464 143.547 121.464 143.548 121.465L143.549 121.465L143.552 121.466L143.559 121.469C143.564 121.472 143.571 121.475 143.579 121.478C143.595 121.485 143.616 121.495 143.642 121.507C143.694 121.532 143.765 121.566 143.853 121.613C144.028 121.705 144.271 121.843 144.562 122.034C145.143 122.416 145.916 123.014 146.721 123.891C148.339 125.652 150.056 128.507 150.627 132.919C150.693 133.428 150.333 133.895 149.824 133.961C149.314 134.027 148.848 133.667 148.782 133.158C148.262 129.142 146.72 126.639 145.351 125.149C144.662 124.399 144.01 123.897 143.539 123.587C143.303 123.432 143.114 123.325 142.988 123.259C142.925 123.226 142.879 123.203 142.85 123.19C142.836 123.184 142.827 123.179 142.822 123.177C142.821 123.177 142.82 123.176 142.82 123.176C142.82 123.176 142.82 123.176 142.82 123.176C142.349 122.975 142.129 122.431 142.328 121.959Z" fill="#3EB7B2"/>
<path fill-rule="evenodd" clip-rule="evenodd" d="M139.096 123.799C139.244 123.307 139.763 123.029 140.254 123.177C141.741 123.626 143.131 124.706 144.105 125.605C144.604 126.066 145.019 126.504 145.313 126.833C145.46 126.998 145.578 127.138 145.664 127.244C145.706 127.296 145.744 127.343 145.774 127.384C145.788 127.403 145.806 127.427 145.823 127.453C145.831 127.465 145.845 127.486 145.86 127.511C145.86 127.511 145.861 127.512 145.861 127.512C145.866 127.52 145.916 127.604 145.951 127.716C146.102 128.207 145.827 128.727 145.336 128.878C144.925 129.004 144.495 128.833 144.276 128.486C144.264 128.471 144.246 128.447 144.22 128.416C144.154 128.335 144.054 128.217 143.924 128.07C143.663 127.778 143.291 127.385 142.843 126.971C141.924 126.123 140.788 125.281 139.717 124.958C139.226 124.81 138.947 124.291 139.096 123.799Z" fill="#3EB7B2"/>
<path fill-rule="evenodd" clip-rule="evenodd" d="M136.895 126.476C136.959 125.967 137.424 125.606 137.934 125.67C139.535 125.872 140.715 126.726 141.476 127.492C142.231 128.254 142.634 128.988 142.69 129.106C142.913 129.569 142.717 130.125 142.254 130.347C141.791 130.569 141.236 130.374 141.014 129.911C141.016 129.916 141.014 129.913 141.009 129.903C140.965 129.827 140.679 129.33 140.156 128.802C139.571 128.213 138.752 127.647 137.701 127.515C137.192 127.451 136.831 126.986 136.895 126.476Z" fill="#3EB7B2"/>
<path fill-rule="evenodd" clip-rule="evenodd" d="M135.73 129.246C135.879 128.754 136.397 128.476 136.889 128.624C138.434 129.09 139.455 130.128 140.078 131.01C140.694 131.882 140.974 132.676 141.012 132.818C141.146 133.314 140.852 133.824 140.356 133.957C139.86 134.091 139.35 133.797 139.216 133.301C139.219 133.311 139.217 133.305 139.209 133.286C139.168 133.18 138.97 132.666 138.559 132.083C138.08 131.405 137.366 130.71 136.352 130.405C135.86 130.256 135.582 129.737 135.73 129.246Z" fill="#3EB7B2"/>
<path d="M93.401 117.096L97.2135 139.91H59.7416C59.7416 139.91 57.6333 119.481 63.1592 111.354" fill="#385A7D"/>
<path d="M102.101 70.2645C102.101 70.2645 105.597 72.7404 103.817 74.6512C102.32 76.2612 98.1426 74.0588 98.1426 74.0588L99.3577 70.6594" fill="#3A3144"/>
<path d="M135.667 113.895C133.4 114.761 131.742 116.933 130.551 118.974C129.316 121.121 128.54 123.5 128.269 125.961C128.194 126.614 128.877 127.176 129.485 127.176C130.208 127.176 130.624 126.617 130.7 125.961C130.938 124.013 131.558 122.13 132.522 120.42C133.001 119.562 133.565 118.755 134.205 118.011C134.789 117.34 135.454 116.568 136.311 116.243C136.945 116.048 137.316 115.393 137.158 114.748C136.997 114.159 136.28 113.664 135.664 113.898L135.667 113.895Z" fill="#71D2C1"/>
<path d="M131.043 118.628L132.453 129.54C132.453 129.54 145.515 127.04 142.316 119.983C139.938 114.782 131.043 118.628 131.043 118.628Z" fill="#71D2C1"/>
<path d="M141.187 113.664C139.495 117.115 135.19 118.065 132.614 120.678C131.791 121.516 133.079 122.805 133.902 121.969C136.636 119.199 140.947 118.287 142.76 114.581C143.274 113.533 141.703 112.61 141.187 113.67V113.664Z" fill="#71D2C1"/>
<path d="M143.535 115.571C141.995 117.446 139.89 118.594 137.702 119.569C136.633 120.043 137.56 121.617 138.614 121.143C140.925 120.113 143.17 118.843 144.814 116.859C145.555 115.948 144.273 114.663 143.526 115.571H143.535Z" fill="#71D2C1"/>
<path d="M144.188 118.731C142.81 119.924 141.238 120.873 139.54 121.534C138.458 121.954 138.932 123.719 140.026 123.293C142.019 122.524 143.864 121.416 145.479 120.019C146.366 119.25 145.072 117.965 144.188 118.731Z" fill="#71D2C1"/>
<path d="M144.084 122.127C143.32 122.546 142.525 122.905 141.706 123.199C141.005 123.407 140.328 123.684 139.682 124.026C138.68 124.633 139.594 126.207 140.594 125.599C141.247 125.204 142.006 125.034 142.72 124.758C143.5 124.451 144.262 124.099 145.002 123.704C146.035 123.148 145.114 121.577 144.09 122.127H144.084Z" fill="#71D2C1"/>
<path d="M212.369 239.37L219.153 256.649C219.564 257.655 219.259 258.811 218.404 259.482C217.549 260.153 216.353 260.174 215.474 259.535L189.439 241.156" fill="#FFE2D9"/>
<path d="M242.9 210.168C242.9 231.369 225.713 248.556 204.512 248.556H143.522C122.321 248.556 105.134 231.369 105.134 210.168V192.507C105.134 171.306 122.321 154.118 143.522 154.118H204.512C225.713 154.118 242.9 171.306 242.9 192.507V210.168Z" fill="#FFE2D9"/>
<path fill-rule="evenodd" clip-rule="evenodd" d="M221.203 204.838C221.654 205.353 221.603 206.136 221.088 206.588C219.497 207.983 218.495 209.413 217.844 210.556C217.517 211.129 217.277 211.632 217.089 212.038C217.065 212.088 217.042 212.139 217.019 212.189C216.953 212.333 216.888 212.472 216.832 212.588C216.767 212.722 216.661 212.935 216.528 213.11C216.113 213.656 215.336 213.762 214.79 213.347C214.254 212.939 214.143 212.179 214.534 211.636C214.536 211.631 214.557 211.595 214.601 211.504C214.646 211.412 214.695 211.306 214.757 211.172C214.782 211.118 214.809 211.059 214.839 210.995C215.038 210.565 215.312 209.99 215.689 209.328C216.446 208.001 217.612 206.338 219.453 204.723C219.968 204.272 220.751 204.323 221.203 204.838Z" fill="#3EB7B2"/>
<path d="M233.024 204.27L220.569 203.21C220.569 203.21 214.797 215.504 221.432 218.019C228.066 220.535 233.024 204.27 233.024 204.27Z" fill="#3EB7B2"/>
<path fill-rule="evenodd" clip-rule="evenodd" d="M219.447 208.555C219.936 208.713 220.205 209.236 220.047 209.725C218.807 213.58 219.136 216.502 219.739 218.434C220.042 219.405 220.419 220.137 220.712 220.618C220.859 220.859 220.985 221.036 221.071 221.149C221.114 221.206 221.146 221.246 221.166 221.27C221.176 221.282 221.183 221.29 221.186 221.294C221.187 221.295 221.187 221.296 221.188 221.296C221.528 221.678 221.495 222.264 221.114 222.606C220.732 222.949 220.144 222.917 219.801 222.535L220.482 221.924C219.801 222.535 219.8 222.535 219.8 222.534L219.799 222.533L219.797 222.531L219.792 222.525C219.788 222.521 219.783 222.515 219.777 222.508C219.766 222.495 219.751 222.477 219.733 222.455C219.696 222.411 219.647 222.349 219.587 222.27C219.467 222.112 219.306 221.884 219.125 221.587C218.763 220.994 218.318 220.124 217.964 218.988C217.251 216.705 216.914 213.391 218.277 209.156C218.434 208.667 218.958 208.398 219.447 208.555Z" fill="#3EB7B2"/>
<path fill-rule="evenodd" clip-rule="evenodd" d="M222.128 215.845C222.06 215.399 221.675 215.057 221.209 215.057C220.696 215.057 220.279 215.473 220.279 215.987C220.279 216.061 220.289 216.122 220.29 216.129C220.29 216.129 220.29 216.13 220.29 216.13C220.293 216.149 220.296 216.166 220.298 216.178C220.302 216.201 220.308 216.225 220.312 216.247C220.322 216.291 220.336 216.347 220.352 216.411C220.385 216.54 220.432 216.716 220.495 216.927C220.621 217.349 220.809 217.921 221.063 218.551C221.559 219.779 222.354 221.349 223.509 222.389C223.891 222.733 224.479 222.702 224.823 222.321C225.166 221.939 225.136 221.351 224.754 221.007C223.922 220.258 223.256 219.014 222.788 217.854C222.56 217.29 222.39 216.774 222.278 216.397C222.222 216.209 222.181 216.058 222.155 215.954C222.142 215.903 222.133 215.867 222.128 215.845Z" fill="#3EB7B2"/>
<path fill-rule="evenodd" clip-rule="evenodd" d="M224.761 215.051C225.275 215.051 225.691 215.468 225.691 215.981C225.691 215.974 225.691 215.979 225.693 215.993C225.701 216.092 225.75 216.655 225.995 217.344C226.273 218.126 226.773 218.988 227.666 219.556C228.099 219.831 228.227 220.406 227.952 220.84C227.676 221.273 227.101 221.401 226.668 221.125C225.307 220.259 224.604 218.984 224.242 217.966C223.884 216.958 223.831 216.12 223.831 215.981C223.831 215.468 224.247 215.051 224.761 215.051Z" fill="#3EB7B2"/>
<path fill-rule="evenodd" clip-rule="evenodd" d="M227.841 212.581C228.354 212.581 228.771 212.998 228.771 213.511C228.771 213.531 228.769 213.563 228.767 213.608C228.739 214.118 228.629 216.18 230.113 217.517C230.494 217.86 230.525 218.448 230.181 218.83C229.838 219.212 229.25 219.243 228.868 218.899C226.508 216.773 226.911 213.434 226.911 213.511C226.911 212.998 227.327 212.581 227.841 212.581Z" fill="#3EB7B2"/>
<path d="M203.12 192.086C203.12 200.785 196.068 207.837 187.368 207.837C178.669 207.837 171.617 200.785 171.617 192.086C171.617 183.386 178.669 176.334 187.368 176.334C196.068 176.334 203.12 183.386 203.12 192.086Z" fill="#F99192"/>
<path fill-rule="evenodd" clip-rule="evenodd" d="M178.442 160.859C177.904 158.374 177.101 156.193 176.543 155.238L184.571 150.544C185.835 152.705 186.897 155.964 187.531 158.891C187.86 160.409 188.109 161.999 188.201 163.492C188.286 164.881 188.266 166.61 187.77 168.179L178.903 165.375C178.899 165.388 178.899 165.384 178.902 165.362C178.915 165.27 178.968 164.872 178.919 164.062C178.863 163.156 178.699 162.047 178.442 160.859Z" fill="#3EB7B2"/>
<path d="M177.413 156.269L178.434 160.723C178.434 160.723 180.451 159.304 183.185 156.035C183.185 156.035 181.059 157.169 177.413 156.269Z" fill="#3A3144"/>
<path d="M186.617 140.921L188.048 141.901C191.027 143.939 191.788 148.006 189.75 150.984L187.332 154.516C184.707 158.351 179.47 159.332 175.635 156.707L175.197 156.407C172.525 154.578 171.841 150.929 173.67 148.257L177.529 142.619C178.508 141.188 180.016 140.205 181.721 139.887C183.426 139.568 185.187 139.94 186.617 140.921Z" fill="#3EB7B2"/>
<path d="M177.95 146.815C177.95 147.111 177.711 147.35 177.416 147.35C177.12 147.35 176.881 147.111 176.881 146.815C176.881 146.52 177.12 146.281 177.416 146.281C177.711 146.281 177.95 146.52 177.95 146.815Z" fill="#3A3144"/>
<path d="M173.767 147.031C173.415 147.72 173.63 149.027 174.527 149.288L175.368 147.313C175.423 147.18 174.852 146.706 174.761 146.675C174.584 146.578 174.374 146.562 174.184 146.63C173.994 146.698 173.842 146.844 173.767 147.031Z" fill="#3EB7B2"/>
<path d="M189.925 161.029L170.729 164.495C168.42 164.913 166.384 166.264 165.102 168.23C163.82 170.196 163.404 172.603 163.952 174.885L168.442 193.531C168.793 194.988 170.146 195.976 171.641 195.867L202.706 193.382C204.33 193.254 205.569 191.876 205.525 190.247L205.057 173.332C204.953 169.587 203.221 166.073 200.314 163.709C197.407 161.345 193.613 160.367 189.925 161.029Z" fill="#124A9B"/>
<path d="M175.606 149.322L177.101 149.379C177.199 149.383 177.29 149.433 177.344 149.515C177.398 149.598 177.409 149.701 177.374 149.793C177.137 150.4 176.593 151.457 175.761 151.348C174.928 151.239 175.029 150.224 175.153 149.668C175.201 149.459 175.391 149.313 175.606 149.322Z" fill="#3A3144"/>
<path d="M175.76 151.348C176.325 151.423 176.757 150.956 177.051 150.464C176.477 150.132 175.657 150.518 175.141 150.837C175.221 151.119 175.468 151.322 175.76 151.348Z" fill="#8AD6CC"/>
<path d="M93.4031 117.096C93.4031 125.864 86.2952 132.972 77.5272 132.972C68.7592 132.972 61.6514 125.864 61.6514 117.096C61.6514 108.328 68.7592 101.22 77.5272 101.22C86.2952 101.22 93.4031 108.328 93.4031 117.096Z" fill="#385A7D"/>
<path fill-rule="evenodd" clip-rule="evenodd" d="M87.1079 76.7578C87.5036 76.007 87.9102 75.2356 88.3542 74.4193L97.0678 79.1595C96.7285 79.7833 96.3855 80.435 96.0275 81.115C94.785 83.4755 93.3628 86.1776 91.29 89.2412L83.0742 83.6827C84.8122 81.1139 85.9104 79.0301 87.1079 76.7578Z" fill="#71D2C1"/>
<path d="M90.1543 80.6234C90.1543 80.6234 90.8834 84.0532 93.4018 85.7361L95.9141 81.3829" fill="#3A3144"/>
<path d="M93.8708 83.3999L93.5386 83.2917C89.2633 81.8993 86.9262 77.3046 88.3186 73.0292L89.1399 70.5076C89.6948 68.8038 90.9038 67.3902 92.501 66.5779C94.0981 65.7655 95.9525 65.6209 97.6563 66.1758C99.3615 66.7295 100.777 67.9383 101.59 69.5359C102.404 71.1336 102.549 72.9892 101.994 74.694L100.206 80.1821C99.3465 82.8223 96.5091 84.2656 93.8689 83.4057L93.8708 83.3999Z" fill="#71D2C1"/>
<path d="M98.2434 79.095C97.8575 78.7023 97.6037 78.1989 97.5174 77.6551C97.4505 77.2723 96.8642 77.4333 96.9311 77.8161C97.0427 78.4621 97.3502 79.0581 97.8121 79.5233C98.0855 79.8028 98.5168 79.3745 98.2434 79.095Z" fill="#3A3144"/>
<path d="M99.7995 76.203C99.7995 76.4731 99.5805 76.6921 99.3104 76.6921C99.0403 76.6921 98.8213 76.4731 98.8213 76.203C98.8213 75.9328 99.0403 75.7139 99.3104 75.7139C99.5805 75.7139 99.7995 75.9328 99.7995 76.203Z" fill="#3A3144"/>
<path d="M100.181 74.3772C99.8844 74.2939 99.5777 74.252 99.2696 74.2527C99.1018 74.2527 98.9658 74.3887 98.9658 74.5565C98.9658 74.7243 99.1018 74.8603 99.2696 74.8603C99.5193 74.8597 99.7678 74.8944 100.008 74.9636C100.113 74.9923 100.225 74.963 100.302 74.8867C100.379 74.8104 100.41 74.6986 100.382 74.5935C100.355 74.4885 100.274 74.406 100.169 74.3772H100.181Z" fill="#3A3144"/>
<path d="M101.162 79.1078C100.858 79.7488 99.7951 80.323 99.1055 79.8156L100.068 78.1084C100.132 77.9929 100.782 78.1509 100.874 78.2056C101.037 78.2807 101.162 78.4213 101.217 78.593C101.272 78.7647 101.252 78.9516 101.162 79.1078Z" fill="#71D2C1"/>
<path d="M64.8354 93.6712L61.6518 108.927C61.4241 110.014 62.0944 111.086 63.1707 111.358L94.7644 119.56C95.6757 119.796 96.6315 119.388 97.0914 118.566L103.122 107.739C105.239 103.94 105.513 99.3839 103.865 95.3588C102.217 91.3337 98.826 88.2775 94.652 87.0547L82.0753 83.3667C78.4166 82.2895 74.4742 82.7896 71.2005 84.7464C67.9267 86.7031 65.6192 89.9386 64.8354 93.6712Z" fill="#3A3144"/>
<path d="M94.8831 73.3904C94.8831 73.3904 93.6437 71.352 92.7111 72.6734C92.1521 73.4633 92.5713 74.402 92.9936 75.0247C93.2894 75.4459 93.2312 76.0203 92.8569 76.3735L89.4818 79.542C89.2811 79.7325 88.9963 79.806 88.7284 79.7365L86.6019 79.1957C86.2282 79.1006 85.9737 78.7545 85.9944 78.3694C86.0703 76.574 85.004 72.3818 86.45 69.1738C87.2429 67.4058 91.0494 62.5482 97.2101 65.5831C97.7661 65.8565 95.2416 65.7623 95.8522 65.6712C97.277 65.4616 100.072 65.4312 102.192 67.7977C105.163 71.0968 105.491 72.5458 103.052 72.7463C100.613 72.9468 97.6263 70.5682 94.8831 73.3904Z" fill="#3A3144"/>
<path d="M175.945 142.954L178.193 143.832C178.894 144.105 179.677 144.07 180.35 143.735L181.261 143.273L180.557 144.856L181.605 145.503C182.382 145.986 182.855 146.836 182.856 147.751V147.946C182.856 147.946 183.768 146.876 185.034 147.338C186.301 147.8 184.873 150.394 183.336 150.324L183.184 158.712C183.18 158.932 183.274 159.143 183.442 159.285C183.61 159.428 183.833 159.487 184.05 159.447L196.554 157.105C196.798 157.06 197.012 156.915 197.144 156.704C197.276 156.494 197.313 156.238 197.246 155.999C196.335 152.751 193.063 142.025 188.339 140.561C187.937 140.43 187.556 140.241 187.209 139.999C185.584 138.902 179.919 136.259 175.62 141.821C175.479 142.006 175.434 142.246 175.498 142.469C175.562 142.693 175.728 142.872 175.945 142.954Z" fill="#3A3144"/>
<path d="M171.641 195.867C171.641 195.867 158.04 231.383 156.257 248.556H200.002C200.002 248.556 209.17 203.38 202.706 193.382" fill="#F99192"/>
<path d="M177.872 145.014C178.178 145.116 178.47 145.259 178.738 145.439C179.066 145.658 179.37 145.135 179.042 144.913C178.728 144.707 178.387 144.544 178.03 144.427C177.657 144.306 177.499 144.892 177.869 145.014H177.872Z" fill="#3A3144"/>
<path d="M185.542 223.315L178.087 247.423C177.972 247.797 178.558 247.958 178.674 247.584L186.128 223.476C186.244 223.102 185.658 222.941 185.542 223.315Z" fill="#3A3144"/>
<path d="M74.0959 130.396C74.8437 133.274 75.3107 136.219 75.4903 139.187C75.5146 139.573 76.1221 139.576 76.0978 139.187C75.9156 136.164 75.4416 133.166 74.6822 130.235C74.6377 130.073 74.4704 129.978 74.3085 130.022C74.1466 130.066 74.0514 130.234 74.0959 130.396Z" fill="#3A3144"/>
<path d="M177.638 199.233C179.677 201.226 181.784 203.143 183.96 204.984C184.263 205.236 184.689 204.808 184.391 204.556C182.216 202.715 180.108 200.798 178.066 198.805C177.787 198.531 177.358 198.96 177.638 199.233Z" fill="#3A3144"/>
<path fill-rule="evenodd" clip-rule="evenodd" d="M144.039 134.749C144.039 134.749 144.039 134.749 144.194 134.752C144.349 134.754 144.349 134.754 144.349 134.754L144.349 134.758L144.349 134.771L144.349 134.822C144.348 134.867 144.347 134.934 144.347 135.022C144.346 135.198 144.346 135.457 144.348 135.79C144.352 136.455 144.368 137.416 144.411 138.595C144.497 140.952 144.695 144.18 145.139 147.664C145.584 151.149 146.275 154.885 147.348 158.26C148.421 161.638 149.872 164.64 151.828 166.669C153.775 168.689 156.784 169.892 160.227 170.551C163.667 171.21 167.519 171.323 171.13 171.179C174.74 171.035 178.105 170.634 180.567 170.27C181.797 170.088 182.802 169.915 183.499 169.787C183.848 169.723 184.119 169.671 184.304 169.634C184.396 169.616 184.466 169.602 184.513 169.592C184.537 169.588 184.555 169.584 184.567 169.581L184.58 169.579L184.584 169.578C184.584 169.578 184.584 169.578 184.616 169.729C184.648 169.881 184.648 169.881 184.648 169.881L184.647 169.881L184.643 169.882L184.63 169.885C184.617 169.887 184.599 169.891 184.575 169.896C184.527 169.906 184.457 169.92 184.364 169.939C184.178 169.975 183.905 170.028 183.555 170.092C182.855 170.22 181.847 170.394 180.612 170.576C178.143 170.942 174.767 171.344 171.142 171.488C167.519 171.633 163.64 171.521 160.169 170.856C156.7 170.191 153.617 168.971 151.605 166.884C149.601 164.806 148.131 161.751 147.052 158.354C145.972 154.955 145.278 151.198 144.832 147.703C144.386 144.208 144.188 140.97 144.101 138.606C144.058 137.424 144.042 136.46 144.038 135.792C144.036 135.457 144.036 135.197 144.037 135.02C144.037 134.932 144.038 134.864 144.039 134.818L144.039 134.767L144.039 134.753L144.039 134.749Z" fill="#124A9B"/>
<path fill-rule="evenodd" clip-rule="evenodd" d="M190.526 169.101C190.526 169.101 190.526 169.101 190.475 168.955C190.424 168.808 190.425 168.808 190.425 168.808L190.426 168.808L190.429 168.807L190.44 168.803C190.451 168.8 190.466 168.795 190.485 168.788C190.525 168.775 190.583 168.757 190.659 168.733C190.811 168.686 191.036 168.621 191.325 168.544C191.904 168.392 192.743 168.196 193.788 168.026C195.876 167.685 198.785 167.442 202.073 167.833C208.654 168.617 216.74 171.946 222.767 182.096C226.677 188.678 227.026 195.419 226.4 200.508C226.087 203.053 225.53 205.187 225.051 206.686C224.812 207.435 224.592 208.026 224.431 208.43C224.351 208.632 224.286 208.787 224.24 208.892C224.218 208.944 224.2 208.984 224.188 209.011C224.182 209.025 224.177 209.035 224.174 209.042L224.17 209.05L224.169 209.052L224.169 209.053C224.169 209.053 224.169 209.053 224.028 208.988C223.888 208.922 223.888 208.922 223.888 208.922L223.888 208.922L223.889 208.92L223.892 208.913C223.895 208.907 223.899 208.897 223.905 208.884C223.916 208.859 223.934 208.82 223.956 208.769C224 208.666 224.064 208.514 224.143 208.315C224.301 207.917 224.519 207.333 224.756 206.591C225.23 205.107 225.782 202.992 226.092 200.47C226.713 195.426 226.365 188.76 222.501 182.255L222.501 182.255C216.529 172.198 208.535 168.915 202.036 168.141C198.784 167.754 195.904 167.994 193.838 168.332C192.804 168.501 191.975 168.693 191.404 168.844C191.119 168.919 190.899 168.984 190.75 169.029C190.676 169.052 190.619 169.07 190.582 169.083C190.563 169.089 190.549 169.094 190.539 169.097L190.529 169.1L190.527 169.101L190.526 169.101Z" fill="#124A9B"/>
<path fill-rule="evenodd" clip-rule="evenodd" d="M96.8278 98.8709C96.676 98.5657 96.5302 98.3661 96.3955 98.2619L96.5852 98.0167C96.7759 98.1643 96.947 98.4145 97.1053 98.7328C97.2653 99.0546 97.4197 99.4616 97.5699 99.9389C97.8704 100.894 98.159 102.145 98.4425 103.593C98.9079 105.971 99.3622 108.891 99.833 111.918C99.9357 112.578 100.039 113.244 100.144 113.91C100.728 117.632 101.347 121.372 102.05 124.356C102.402 125.848 102.774 127.146 103.173 128.156C103.574 129.174 103.991 129.871 104.418 130.192C104.842 130.511 105.584 130.68 106.597 130.708C107.602 130.736 108.843 130.625 110.236 130.412C113.021 129.985 116.391 129.154 119.65 128.235C122.908 127.315 126.051 126.308 128.38 125.531C129.544 125.143 130.504 124.812 131.174 124.578C131.508 124.461 131.77 124.368 131.948 124.305C132.037 124.273 132.105 124.249 132.151 124.232L132.22 124.208L132.22 124.207C132.22 124.207 132.221 124.207 132.273 124.353C132.326 124.499 132.326 124.499 132.326 124.499L132.308 124.505L132.256 124.524C132.21 124.54 132.142 124.565 132.052 124.597C131.874 124.66 131.611 124.753 131.276 124.87C130.605 125.105 129.644 125.436 128.478 125.825C126.147 126.603 122.999 127.612 119.734 128.533C116.471 129.454 113.086 130.289 110.283 130.718C108.881 130.933 107.62 131.047 106.588 131.018C105.565 130.99 104.737 130.821 104.232 130.44C103.73 130.062 103.287 129.292 102.884 128.27C102.478 127.24 102.102 125.925 101.749 124.427C101.042 121.43 100.422 117.679 99.8376 113.958C99.7328 113.291 99.6291 112.624 99.5263 111.963C99.0555 108.936 98.6025 106.024 98.1383 103.653C97.8555 102.209 97.5695 100.97 97.2742 100.032C97.1266 99.5628 96.9778 99.1726 96.8278 98.8709Z" fill="#3A3144"/>
<path d="M90.9318 103.988L92.9276 115.863C92.958 116.054 93.2527 115.972 93.2314 115.78L91.2355 103.909C91.2052 103.714 90.9105 103.796 90.9318 103.988Z" fill="#385A7D"/>
<path d="M118.368 99.4885C118.631 100.429 118.562 101.43 118.174 102.326C118.019 102.678 118.541 102.988 118.696 102.63C119.166 101.589 119.257 100.416 118.952 99.3154C118.896 99.1683 118.738 99.0877 118.586 99.1295C118.435 99.1713 118.34 99.3218 118.368 99.4764V99.4885Z" fill="#3A3144"/>
<path d="M219.357 210.887C220.472 211.003 221.554 210.464 222.133 209.504C222.337 209.17 221.815 208.866 221.608 209.201C221.136 209.973 220.255 210.397 219.357 210.282C218.968 210.24 218.971 210.847 219.357 210.89V210.887Z" fill="#3A3144"/>
<path d="M144.854 45.2144C144.854 46.216 144.042 47.0279 143.04 47.0279C142.039 47.0279 141.227 46.216 141.227 45.2144C141.227 44.2127 142.039 43.4008 143.04 43.4008C144.042 43.4008 144.854 44.2127 144.854 45.2144Z" fill="#FFECE5"/>
<path d="M159.259 45.2144C159.259 46.216 158.447 47.0279 157.445 47.0279C156.444 47.0279 155.632 46.216 155.632 45.2144C155.632 44.2127 156.444 43.4008 157.445 43.4008C158.447 43.4008 159.259 44.2127 159.259 45.2144Z" fill="#FFECE5"/>
<path d="M173.665 45.2144C173.665 46.216 172.853 47.0279 171.852 47.0279C170.85 47.0279 170.038 46.216 170.038 45.2144C170.038 44.2127 170.85 43.4008 171.852 43.4008C172.853 43.4008 173.665 44.2127 173.665 45.2144Z" fill="#FFECE5"/>
<path d="M83.3096 58.7873L84.221 60.6343C84.3972 60.9837 84.9227 60.6769 84.7465 60.3306L83.8473 58.4805C83.6711 58.1312 83.1486 58.441 83.3218 58.7843L83.3096 58.7873Z" fill="#3A3144"/>
<path d="M91.7216 55.4213L92.2471 58.3255C92.317 58.7083 92.9033 58.5473 92.8334 58.1645L92.3079 55.2603C92.238 54.8775 91.6517 55.0385 91.7216 55.4213Z" fill="#3A3144"/>
<path d="M93.0587 60.6616C93.2264 60.6616 93.3625 60.5256 93.3625 60.3579C93.3625 60.1901 93.2264 60.0541 93.0587 60.0541C92.8909 60.0541 92.7549 60.1901 92.7549 60.3579C92.7549 60.5256 92.8909 60.6616 93.0587 60.6616Z" fill="#3A3144"/>
<path d="M101.346 56.3174L100.69 58.8267C100.645 58.9886 100.74 59.1559 100.902 59.2004C101.064 59.2448 101.231 59.1496 101.276 58.9877L101.932 56.4815C101.977 56.3196 101.883 56.1516 101.721 56.1063C101.559 56.061 101.391 56.1555 101.346 56.3174Z" fill="#3A3144"/>
<path d="M175.05 128.792L175.846 131.365C175.958 131.738 176.548 131.577 176.429 131.204L175.636 128.631C175.521 128.26 174.935 128.418 175.05 128.792Z" fill="#3A3144"/>
<path d="M184.312 127.039C183.909 128.34 183.594 129.666 183.37 131.009C183.306 131.392 183.893 131.556 183.956 131.17C184.18 129.827 184.495 128.501 184.898 127.2C185.014 126.826 184.427 126.665 184.312 127.039Z" fill="#3A3144"/>
<path d="M183.057 134.163C183.225 134.163 183.361 134.027 183.361 133.859C183.361 133.691 183.225 133.555 183.057 133.555C182.889 133.555 182.753 133.691 182.753 133.859C182.753 134.027 182.889 134.163 183.057 134.163Z" fill="#3A3144"/>
<path d="M193.274 130.532C192.698 131.357 192.078 132.151 191.418 132.911C191.163 133.215 191.591 133.637 191.85 133.339C192.542 132.54 193.193 131.705 193.8 130.839C194.025 130.517 193.496 130.213 193.274 130.535V130.532Z" fill="#3A3144"/>
</svg>
