<svg width="80" height="80" viewBox="0 0 80 80" fill="none" xmlns="http://www.w3.org/2000/svg">
<path d="M37.4259 67.1255C37.3467 67.4443 37.2054 67.7442 37.01 68.0082C36.8147 68.2722 36.5692 68.4951 36.2875 68.664C36.0059 68.833 35.6937 68.9447 35.3689 68.9928C35.044 69.0409 34.7128 69.0245 34.3943 68.9444L24.9757 66.59C24.2115 66.3978 23.5032 66.0288 22.9078 65.5127L15.8607 59.3869C15.3603 58.9519 15.0531 58.336 15.0068 57.6746C14.9605 57.0131 15.1789 56.3604 15.6138 55.86C16.0488 55.3595 16.6647 55.0524 17.3261 55.0061C17.9876 54.9598 18.6403 55.1781 19.1407 55.6131L26.1885 61.7392L35.6071 64.0939C35.9256 64.1735 36.2253 64.3151 36.4891 64.5105C36.7529 64.706 36.9756 64.9514 37.1445 65.233C37.3134 65.5145 37.4252 65.8265 37.4735 66.1513C37.5218 66.476 37.5056 66.8071 37.4259 67.1255ZM78.8639 37.3611C78.6614 37.9938 78.3339 38.5793 77.9009 39.083C77.4679 39.5868 76.9382 39.9985 76.3432 40.2937L69.0719 43.9294L64.401 49.3936C64.3847 49.4126 64.3669 49.4302 64.3501 49.4488C64.3347 49.4657 64.3194 49.4825 64.3037 49.4989C64.2918 49.5113 64.2808 49.5247 64.2686 49.5369L52.7696 61.0364C51.8268 61.9733 50.5516 62.499 49.2225 62.4988C48.8175 62.4988 48.414 62.4492 48.021 62.3511L29.9095 57.8232C29.2297 57.6542 28.5933 57.3435 28.0421 56.9113L11.1582 43.7088L3.65823 39.9588C3.06439 39.6618 2.53564 39.2495 2.10284 38.746C1.67004 38.2424 1.34185 37.6577 1.13743 37.026C0.933002 36.3943 0.856436 35.7282 0.912195 35.0666C0.967955 34.4049 1.15492 33.761 1.46219 33.1724L9.14743 18.4546C9.75894 17.2972 10.7979 16.4242 12.0433 16.0212C13.2887 15.6182 14.6422 15.7171 15.8158 16.2968L22.808 19.7929L38.018 15.3587C39.1637 15.0251 40.3909 15.1119 41.4784 15.6033L51.79 20.2692H56.9108L64.1859 16.6318C65.3594 16.0516 66.713 15.9525 67.9585 16.3555C69.204 16.7586 70.2429 17.632 70.854 18.7897L78.5392 33.5072C78.8486 34.0952 79.0367 34.7392 79.0925 35.4012C79.1483 36.0632 79.0705 36.7297 78.8639 37.3611ZM58.6642 48.0701L48.7736 40.8771L46.2507 42.7691C44.0829 44.3821 41.4528 45.2532 38.7507 45.2532C36.0486 45.2532 33.4186 44.3821 31.2507 42.7691L29.5567 41.4987C28.9836 41.0689 28.5096 40.5209 28.1667 39.892C27.8239 39.263 27.6201 38.5678 27.5694 37.8532C27.5186 37.1387 27.6219 36.4216 27.8724 35.7505C28.1228 35.0793 28.5146 34.4699 29.0211 33.9633L41.2507 21.7337C41.4294 21.5577 41.6209 21.3952 41.8237 21.2476L39.4175 20.1588L24.1914 24.5977L15.6802 40.8975L31.1222 52.9727L49.2338 57.5006L58.6642 48.0701ZM64.5027 41.5796L55.9857 25.2691H51.2577L51.2492 25.2698C51.2452 25.2698 51.2414 25.2692 51.2376 25.2691H44.7862L32.5569 37.4988L34.2506 38.7692C35.5514 39.7369 37.1294 40.2596 38.7507 40.2596C40.372 40.2596 41.9501 39.7369 43.2508 38.7692L47.2508 35.7692C47.6784 35.4483 48.1977 35.2731 48.7323 35.2691C49.2669 35.2652 49.7887 35.4328 50.221 35.7474L62.102 44.3881L64.5027 41.5796Z" fill="#112222"/>
</svg>
