<svg width="80" height="80" viewBox="0 0 80 80" fill="none" xmlns="http://www.w3.org/2000/svg">
<path d="M20.0003 43.7506C20.0003 44.0789 19.9357 44.404 19.81 44.7073C19.6844 45.0107 19.5003 45.2863 19.2681 45.5184C19.036 45.7506 18.7604 45.9347 18.457 46.0603C18.1537 46.186 17.8286 46.2506 17.5003 46.2506H17.5002L3.7497 46.2494C3.28529 46.2493 2.83007 46.1199 2.43509 45.8757C2.04011 45.6314 1.72097 45.2819 1.51346 44.8665C1.30594 44.451 1.21826 43.9859 1.26023 43.5234C1.30221 43.0609 1.47218 42.6192 1.7511 42.2479C3.96684 39.2792 6.92205 36.9432 10.3221 35.4727C8.86113 34.1372 7.73826 32.4738 7.04594 30.6195C6.35361 28.7651 6.11165 26.7728 6.33996 24.8067C6.56828 22.8405 7.26034 20.9567 8.35917 19.3103C9.45801 17.6639 10.9322 16.3021 12.6603 15.337C14.3884 14.3718 16.3211 13.8309 18.2992 13.7589C20.2772 13.6868 22.2441 14.0856 24.0379 14.9225C25.8317 15.7593 27.4011 17.0102 28.6168 18.5723C29.8325 20.1343 30.6598 21.9628 31.0306 23.9071C31.1265 24.4122 31.0644 24.9345 30.8527 25.4029C30.641 25.8713 30.2901 26.2631 29.8477 26.5249C25.8003 28.9193 22.7199 32.6562 21.1418 37.0862C20.3837 39.2262 19.9976 41.4803 20.0003 43.7506ZM78.2501 42.2473C76.0345 39.2786 73.0793 36.9425 69.6793 35.4721C71.1402 34.1366 72.2631 32.4732 72.9554 30.6189C73.6477 28.7646 73.8897 26.7723 73.6614 24.8061C73.4331 22.84 72.741 20.9562 71.6422 19.3098C70.5434 17.6634 69.0693 16.3016 67.3411 15.3364C65.613 14.3713 63.6804 13.8304 61.7024 13.7583C59.7243 13.6862 57.7574 14.085 55.9636 14.9218C54.1698 15.7586 52.6005 17.0095 51.3847 18.5715C50.169 20.1335 49.3416 21.9619 48.9708 23.9062C48.8749 24.4112 48.9371 24.9335 49.1487 25.4019C49.3603 25.8704 49.7112 26.2622 50.1535 26.524C54.2009 28.9186 57.2814 32.6556 58.8596 37.0856C59.6176 39.2256 60.0036 41.4796 60.0009 43.75C60.0009 44.0783 60.0656 44.4034 60.1913 44.7067C60.3169 45.0101 60.5011 45.2857 60.7333 45.5178C60.9655 45.75 61.2411 45.9341 61.5444 46.0597C61.8478 46.1854 62.1729 46.25 62.5012 46.25L76.2515 46.2488C76.716 46.2487 77.1712 46.1193 77.5661 45.875C77.9611 45.6308 78.2803 45.2813 78.4878 44.8658C78.6953 44.4504 78.783 43.9853 78.741 43.5228C78.699 43.0603 78.5291 42.6186 78.2501 42.2473L78.2501 42.2473ZM49.1139 55.653C51.6049 53.7477 53.4361 51.1095 54.35 48.1095C55.2638 45.1095 55.2144 41.8984 54.2086 38.928C53.2028 35.9575 51.2913 33.377 48.7428 31.5492C46.1943 29.7215 43.1371 28.7386 40.0009 28.7386C36.8648 28.7386 33.8075 29.7215 31.259 31.5492C28.7106 33.377 26.799 35.9575 25.7932 38.928C24.7875 41.8984 24.738 45.1095 25.6519 48.1095C26.5657 51.1095 28.3969 53.7477 30.8879 55.653C26.0207 57.8018 22.0775 61.6131 19.7644 66.4044C19.5786 66.7855 19.4928 67.2077 19.5151 67.6311C19.5374 68.0545 19.667 68.4653 19.8917 68.8248C20.1165 69.1844 20.429 69.4808 20.7998 69.6864C21.1707 69.8919 21.5877 69.9997 22.0117 69.9997H57.9901C58.4141 69.9997 58.8311 69.8918 59.202 69.6863C59.5728 69.4808 59.8853 69.1843 60.11 68.8248C60.3347 68.4652 60.4643 68.0545 60.4866 67.6311C60.5089 67.2076 60.4232 66.7855 60.2374 66.4044C57.9243 61.6131 53.9811 57.8018 49.1139 55.653Z" fill="#112222"/>
</svg>
