<svg width="32" height="32" viewBox="0 0 32 32" fill="none" xmlns="http://www.w3.org/2000/svg">
<path d="M14.97 26.8502C14.9383 26.9777 14.8818 27.0977 14.8036 27.2033C14.7255 27.3089 14.6273 27.398 14.5146 27.4656C14.402 27.5332 14.2771 27.5779 14.1472 27.5971C14.0172 27.6164 13.8847 27.6098 13.7573 27.5777L9.98988 26.636C9.68423 26.5591 9.4009 26.4115 9.16273 26.2051L6.34389 23.7547C6.14371 23.5808 6.02085 23.3344 6.00233 23.0698C5.98381 22.8052 6.07115 22.5441 6.24514 22.344C6.41912 22.1438 6.6655 22.0209 6.93007 22.0024C7.19464 21.9839 7.45573 22.0712 7.6559 22.2452L10.475 24.6957L14.2425 25.6376C14.3699 25.6694 14.4897 25.726 14.5953 25.8042C14.7008 25.8824 14.7899 25.9806 14.8574 26.0932C14.925 26.2058 14.9697 26.3306 14.989 26.4605C15.0083 26.5904 15.0019 26.7228 14.97 26.8502ZM31.5452 14.9444C31.4642 15.1975 31.3332 15.4317 31.16 15.6332C30.9868 15.8347 30.7749 15.9994 30.5369 16.1175L27.6284 17.5717L25.76 19.7574C25.7535 19.765 25.7463 19.7721 25.7396 19.7795C25.7335 19.7863 25.7274 19.793 25.7211 19.7995C25.7163 19.8045 25.7119 19.8099 25.707 19.8147L21.1074 24.4145C20.7303 24.7893 20.2203 24.9996 19.6886 24.9995C19.5266 24.9995 19.3652 24.9797 19.208 24.9404L11.9634 23.1293C11.6915 23.0617 11.4369 22.9374 11.2164 22.7645L4.4629 17.4835L1.4629 15.9835C1.22536 15.8647 1.01387 15.6998 0.840744 15.4984C0.667624 15.297 0.536349 15.0631 0.454579 14.8104C0.37281 14.5577 0.342184 14.2913 0.364487 14.0266C0.386791 13.762 0.461578 13.5044 0.584485 13.269L3.65858 7.38182C3.90319 6.91888 4.31878 6.56965 4.81694 6.40846C5.3151 6.24727 5.8565 6.28682 6.32594 6.51872L9.12282 7.91715L15.2068 6.14348C15.6651 6.01004 16.156 6.04474 16.591 6.24132L20.7156 8.10765H22.7639L25.674 6.6527C26.1434 6.42063 26.6848 6.38098 27.183 6.54221C27.6812 6.70343 28.0968 7.05278 28.3412 7.51585L31.4153 13.4029C31.539 13.6381 31.6143 13.8957 31.6366 14.1605C31.6589 14.4253 31.6278 14.6919 31.5452 14.9444ZM23.4653 19.228L19.509 16.3508L18.4999 17.1076C17.6327 17.7528 16.5807 18.1013 15.4999 18.1013C14.4191 18.1013 13.367 17.7528 12.4999 17.1076L11.8223 16.5995C11.5931 16.4275 11.4035 16.2084 11.2663 15.9568C11.1292 15.7052 11.0477 15.4271 11.0274 15.1413C11.007 14.8555 11.0484 14.5686 11.1486 14.3002C11.2487 14.0317 11.4054 13.7879 11.608 13.5853L16.4999 8.69346C16.5714 8.62306 16.648 8.55807 16.7291 8.49903L15.7666 8.06352L9.67616 9.83906L6.27168 16.359L12.4485 21.1891L19.6931 23.0002L23.4653 19.228ZM25.8007 16.6318L22.3939 10.1076H20.5027L20.4993 10.1079C20.4977 10.1079 20.4962 10.1077 20.4946 10.1076H17.9141L13.0224 14.9995L13.6998 15.5077C14.2201 15.8948 14.8514 16.1038 15.4999 16.1038C16.1484 16.1038 16.7796 15.8948 17.2999 15.5077L18.8999 14.3077C19.071 14.1793 19.2787 14.1092 19.4925 14.1076C19.7064 14.1061 19.9151 14.1731 20.088 14.2989L24.8404 17.7552L25.8007 16.6318Z" fill="#7C6FF5"/>
</svg>
