<svg width="80" height="80" viewBox="0 0 80 80" fill="none" xmlns="http://www.w3.org/2000/svg">
<path d="M64.998 9.99902H57.498V7.49902C57.498 6.83598 57.2347 6.2001 56.7658 5.73126C56.297 5.26242 55.6611 4.99902 54.998 4.99902C54.335 4.99902 53.6991 5.26242 53.2303 5.73126C52.7614 6.2001 52.498 6.83598 52.498 7.49902V9.99902H27.498V7.49902C27.498 6.83598 27.2347 6.2001 26.7658 5.73126C26.297 5.26242 25.6611 4.99902 24.998 4.99902C24.335 4.99902 23.6991 5.26242 23.2303 5.73126C22.7614 6.2001 22.498 6.83598 22.498 7.49902V9.99902H14.998C13.6724 10.0003 12.4014 10.5275 11.464 11.4649C10.5266 12.4023 9.99936 13.6733 9.99805 14.999V64.999C9.99936 66.3247 10.5266 67.5957 11.464 68.5331C12.4014 69.4705 13.6724 69.9977 14.998 69.999H64.998C66.3237 69.9977 67.5947 69.4705 68.5321 68.5331C69.4695 67.5957 69.9967 66.3247 69.998 64.999V14.999C69.9967 13.6733 69.4695 12.4023 68.5321 11.4649C67.5947 10.5275 66.3237 10.0003 64.998 9.99902ZM32.4999 58.749C31.5153 58.7517 30.54 58.5592 29.6303 58.1827C28.7205 57.8062 27.8945 57.2531 27.1997 56.5554C26.7306 56.0869 26.4669 55.4511 26.4665 54.7881C26.4661 54.125 26.7291 53.489 27.1977 53.0199C27.6662 52.5508 28.302 52.287 28.965 52.2866C29.6281 52.2862 30.2641 52.5493 30.7332 53.0178C31.0241 53.3083 31.382 53.5226 31.7755 53.6417C32.1689 53.7608 32.5856 53.7811 32.9887 53.7007C33.3919 53.6203 33.7689 53.4418 34.0866 53.1809C34.4043 52.92 34.6527 52.5848 34.8099 52.205C34.9671 51.8252 35.0282 51.4125 34.9878 51.0034C34.9474 50.5943 34.8068 50.2015 34.5783 49.8598C34.3499 49.518 34.0407 49.2379 33.6782 49.0441C33.3157 48.8504 32.9109 48.749 32.4999 48.749H32.4984C32.4205 48.749 32.3427 48.7444 32.265 48.7371C32.2402 48.7348 32.2159 48.731 32.1913 48.7281C32.1393 48.7216 32.0874 48.714 32.0357 48.7043C32.0069 48.6988 31.9783 48.6927 31.9498 48.6863C31.9028 48.6758 31.856 48.6636 31.8094 48.6502C31.7811 48.6421 31.7527 48.6341 31.7247 48.625C31.6777 48.6096 31.6312 48.5921 31.585 48.5739C31.5598 48.5639 31.5343 48.5549 31.5096 48.5443C31.4557 48.521 31.4028 48.4948 31.35 48.4674C31.3347 48.4594 31.3187 48.4527 31.3036 48.4445C31.2377 48.4084 31.173 48.3691 31.1095 48.3265C31.0881 48.3122 31.0683 48.2961 31.0474 48.2811C31.0108 48.255 30.9737 48.2297 30.9382 48.2012C30.9336 48.1976 30.9296 48.1934 30.925 48.1897C30.8873 48.159 30.8519 48.1259 30.8161 48.0931C30.79 48.0693 30.7625 48.0464 30.7376 48.0217C30.7135 47.9978 30.6917 47.9718 30.6685 47.9468C30.366 47.6204 30.1556 47.2194 30.0589 46.785C30.0573 46.7771 30.0545 46.7694 30.0528 46.7614C30.0441 46.7193 30.0389 46.676 30.0324 46.6331C30.0264 46.5943 30.0188 46.5557 30.0147 46.5167C30.0112 46.4846 30.0107 46.4517 30.0084 46.4192C30.0049 46.368 30.0011 46.3169 30.0008 46.2655C30.0006 46.2599 29.9999 46.2546 29.9999 46.249C29.9999 46.2231 30.0029 46.1979 30.0038 46.1721C30.0054 46.1203 30.0069 46.0686 30.0116 46.0169C30.0148 45.9819 30.0203 45.9478 30.0251 45.9133C30.0313 45.8668 30.0374 45.8203 30.0463 45.7741C30.0535 45.7369 30.0628 45.7008 30.0714 45.6642C30.0817 45.6216 30.0917 45.579 30.1043 45.5367C30.1156 45.4989 30.1288 45.4621 30.1418 45.425C30.1557 45.3854 30.1693 45.3457 30.1851 45.3066C30.2007 45.2683 30.2184 45.2314 30.2358 45.1941C30.2529 45.1576 30.2694 45.1211 30.2883 45.0852C30.3087 45.0462 30.3316 45.0088 30.3541 44.9711C30.3734 44.9387 30.3921 44.9059 30.413 44.8741C30.4395 44.8341 30.4683 44.7959 30.497 44.7575C30.5144 44.7342 30.5294 44.7099 30.5477 44.6871L32.2983 42.499H28.7499C28.0868 42.499 27.451 42.2356 26.9821 41.7668C26.5133 41.298 26.2499 40.6621 26.2499 39.999C26.2499 39.336 26.5133 38.7001 26.9821 38.2313C27.451 37.7624 28.0868 37.499 28.7499 37.499H37.4999C37.9708 37.499 38.4322 37.632 38.8308 37.8827C39.2295 38.1334 39.5492 38.4916 39.7532 38.9161C39.9572 39.3406 40.0372 39.814 39.9839 40.2819C39.9306 40.7498 39.7463 41.1932 39.4521 41.5609L36.6805 45.0254C38.0152 45.9212 39.0266 47.2222 39.5657 48.7365C40.1048 50.2509 40.1429 51.8984 39.6745 53.436C39.2061 54.9737 38.2559 56.3201 36.9641 57.2767C35.6723 58.2333 34.1073 58.7495 32.4999 58.749ZM52.4999 56.249C52.4999 56.9121 52.2365 57.548 51.7676 58.0168C51.2988 58.4856 50.6629 58.749 49.9999 58.749C49.3368 58.749 48.701 58.4856 48.2321 58.0168C47.7633 57.548 47.4999 56.9121 47.4999 56.249V44.999L46.4998 45.7491C45.9694 46.147 45.3026 46.3177 44.6462 46.2239C43.9898 46.1301 43.3976 45.7794 42.9998 45.249C42.6019 44.7185 42.4312 44.0517 42.525 43.3953C42.6188 42.7389 42.9695 42.1467 43.4999 41.7489L48.4999 37.9989C48.8714 37.7204 49.313 37.5508 49.7754 37.5091C50.2378 37.4675 50.7027 37.5554 51.1179 37.763C51.5332 37.9707 51.8824 38.2898 52.1265 38.6847C52.3706 39.0797 52.4999 39.5348 52.4999 39.999V56.249ZM64.998 24.999H14.998V14.999H22.498V17.499C22.498 18.1621 22.7614 18.7979 23.2303 19.2668C23.6991 19.7356 24.335 19.999 24.998 19.999C25.6611 19.999 26.297 19.7356 26.7658 19.2668C27.2347 18.7979 27.498 18.1621 27.498 17.499V14.999H52.498V17.499C52.498 18.1621 52.7614 18.7979 53.2303 19.2668C53.6991 19.7356 54.335 19.999 54.998 19.999C55.6611 19.999 56.297 19.7356 56.7658 19.2668C57.2347 18.7979 57.498 18.1621 57.498 17.499V14.999H64.998V24.999Z" fill="#112222"/>
</svg>
