<svg width="32" height="32" viewBox="0 0 32 32" fill="none" xmlns="http://www.w3.org/2000/svg">
<path d="M25.999 3.99963H22.999V2.99963C22.999 2.73442 22.8937 2.48006 22.7061 2.29253C22.5186 2.10499 22.2642 1.99963 21.999 1.99963C21.7338 1.99963 21.4795 2.10499 21.2919 2.29253C21.1044 2.48006 20.999 2.73442 20.999 2.99963V3.99963H10.999V2.99963C10.999 2.73442 10.8937 2.48006 10.7061 2.29253C10.5186 2.10499 10.2642 1.99963 9.99902 1.99963C9.73381 1.99963 9.47945 2.10499 9.29192 2.29253C9.10438 2.48006 8.99902 2.73442 8.99902 2.99963V3.99963H5.99902C5.46875 4.00016 4.96035 4.21104 4.58539 4.586C4.21043 4.96096 3.99955 5.46936 3.99902 5.99963V25.9996C3.99955 26.5299 4.21043 27.0383 4.58539 27.4133C4.96035 27.7882 5.46875 27.9991 5.99902 27.9996H25.999C26.5293 27.9991 27.0377 27.7882 27.4127 27.4133C27.7876 27.0383 27.9985 26.5299 27.999 25.9996V5.99963C27.9985 5.46936 27.7876 4.96096 27.4127 4.586C27.0377 4.21104 26.5293 4.00016 25.999 3.99963ZM12.9998 23.4996C12.6059 23.5007 12.2158 23.4237 11.8519 23.2731C11.488 23.1225 11.1576 22.9013 10.8797 22.6222C10.6921 22.4348 10.5865 22.1805 10.5864 21.9153C10.5862 21.65 10.6914 21.3956 10.8789 21.208C11.0663 21.0203 11.3206 20.9148 11.5858 20.9147C11.851 20.9145 12.1054 21.0197 12.2931 21.2072C12.4094 21.3233 12.5526 21.4091 12.71 21.4567C12.8674 21.5044 13.034 21.5125 13.1953 21.4803C13.3565 21.4482 13.5074 21.3767 13.6344 21.2724C13.7615 21.168 13.8609 21.034 13.9238 20.882C13.9866 20.7301 14.0111 20.565 13.9949 20.4014C13.9788 20.2377 13.9225 20.0806 13.8311 19.9439C13.7398 19.8072 13.6161 19.6952 13.4711 19.6177C13.3261 19.5402 13.1642 19.4996 12.9998 19.4996H12.9991C12.968 19.4996 12.9369 19.4978 12.9058 19.4949C12.8959 19.494 12.8862 19.4924 12.8763 19.4912C12.8555 19.4887 12.8348 19.4856 12.8141 19.4818C12.8026 19.4796 12.7911 19.4771 12.7797 19.4746C12.7609 19.4703 12.7422 19.4655 12.7236 19.4601C12.7122 19.4569 12.7009 19.4537 12.6897 19.45C12.6709 19.4439 12.6523 19.4369 12.6338 19.4296C12.6237 19.4256 12.6135 19.422 12.6036 19.4177C12.5821 19.4084 12.5609 19.3979 12.5398 19.387C12.5337 19.3838 12.5273 19.3811 12.5212 19.3778C12.4949 19.3634 12.469 19.3477 12.4436 19.3306C12.4351 19.3249 12.4271 19.3185 12.4188 19.3125C12.4041 19.302 12.3893 19.2919 12.3751 19.2805C12.3732 19.2791 12.3716 19.2774 12.3698 19.2759C12.3547 19.2636 12.3406 19.2504 12.3262 19.2372C12.3158 19.2277 12.3048 19.2186 12.2949 19.2087C12.2852 19.1991 12.2765 19.1887 12.2672 19.1787C12.1462 19.0482 12.0621 18.8878 12.0234 18.714C12.0227 18.7109 12.0216 18.7078 12.0209 18.7046C12.0175 18.6877 12.0154 18.6704 12.0128 18.6533C12.0104 18.6377 12.0073 18.6223 12.0057 18.6067C12.0043 18.5938 12.0041 18.5807 12.0032 18.5677C12.0018 18.5472 12.0002 18.5268 12.0001 18.5062C12.0001 18.504 11.9998 18.5019 11.9998 18.4996C11.9998 18.4893 12.001 18.4792 12.0013 18.4689C12.002 18.4482 12.0026 18.4275 12.0045 18.4068C12.0057 18.3928 12.0079 18.3791 12.0098 18.3654C12.0123 18.3467 12.0148 18.3282 12.0183 18.3097C12.0212 18.2948 12.0249 18.2803 12.0284 18.2657C12.0325 18.2487 12.0365 18.2316 12.0415 18.2147C12.046 18.1996 12.0513 18.1848 12.0565 18.17C12.0621 18.1542 12.0675 18.1383 12.0739 18.1227C12.0801 18.1074 12.0872 18.0926 12.0941 18.0777C12.101 18.0631 12.1075 18.0485 12.1151 18.0341C12.1233 18.0185 12.1325 18.0035 12.1414 17.9885C12.1492 17.9755 12.1566 17.9624 12.165 17.9497C12.1756 17.9337 12.1871 17.9184 12.1986 17.903C12.2056 17.8937 12.2116 17.884 12.2189 17.8749L12.9191 16.9996H11.4998C11.2345 16.9996 10.9802 16.8943 10.7926 16.7067C10.6051 16.5192 10.4998 16.2649 10.4998 15.9996C10.4998 15.7344 10.6051 15.4801 10.7926 15.2925C10.9802 15.105 11.2345 14.9996 11.4998 14.9996H14.9998C15.1881 14.9996 15.3727 15.0528 15.5321 15.1531C15.6916 15.2534 15.8195 15.3967 15.9011 15.5665C15.9827 15.7362 16.0147 15.9256 15.9934 16.1128C15.9721 16.3 15.8983 16.4773 15.7806 16.6244L14.672 18.0102C15.2059 18.3685 15.6105 18.8889 15.8261 19.4946C16.0417 20.1004 16.057 20.7594 15.8696 21.3744C15.6822 21.9895 15.3022 22.5281 14.7854 22.9107C14.2687 23.2934 13.6427 23.4998 12.9998 23.4996ZM20.9998 22.4996C20.9998 22.7649 20.8944 23.0192 20.7069 23.2067C20.5193 23.3943 20.265 23.4996 19.9998 23.4996C19.7345 23.4996 19.4802 23.3943 19.2926 23.2067C19.1051 23.0192 18.9998 22.7649 18.9998 22.4996V17.9996L18.5997 18.2997C18.3875 18.4588 18.1208 18.5271 17.8583 18.4896C17.5957 18.4521 17.3588 18.3118 17.1997 18.0996C17.0406 17.8874 16.9723 17.6207 17.0098 17.3582C17.0473 17.0956 17.1876 16.8587 17.3998 16.6996L19.3998 15.1996C19.5484 15.0882 19.725 15.0203 19.91 15.0037C20.0949 14.987 20.2809 15.0222 20.447 15.1052C20.6131 15.1883 20.7528 15.316 20.8504 15.4739C20.948 15.6319 20.9997 15.8139 20.9998 15.9996V22.4996ZM25.999 9.99963H5.99902V5.99963H8.99902V6.99963C8.99902 7.26485 9.10438 7.5192 9.29192 7.70674C9.47945 7.89428 9.73381 7.99963 9.99902 7.99963C10.2642 7.99963 10.5186 7.89428 10.7061 7.70674C10.8937 7.5192 10.999 7.26485 10.999 6.99963V5.99963H20.999V6.99963C20.999 7.26485 21.1044 7.5192 21.2919 7.70674C21.4795 7.89428 21.7338 7.99963 21.999 7.99963C22.2642 7.99963 22.5186 7.89428 22.7061 7.70674C22.8937 7.5192 22.999 7.26485 22.999 6.99963V5.99963H25.999V9.99963Z" fill="#53C3FF"/>
</svg>
