<svg width="80" height="80" viewBox="0 0 80 80" fill="none" xmlns="http://www.w3.org/2000/svg">
<path d="M79.9995 42.5002C79.9995 42.8286 79.9348 43.1536 79.8092 43.457C79.6836 43.7603 79.4994 44.0359 79.2673 44.268C79.0351 44.5002 78.7595 44.6843 78.4562 44.81C78.1529 44.9356 77.8278 45.0003 77.4995 45.0002H72.4995V50.0002C72.4995 50.6633 72.2361 51.2992 71.7673 51.768C71.2984 52.2369 70.6625 52.5002 69.9995 52.5002C69.3364 52.5002 68.7006 52.2369 68.2317 51.768C67.7629 51.2992 67.4995 50.6633 67.4995 50.0002V45.0002H62.4995C61.8364 45.0002 61.2006 44.7369 60.7317 44.268C60.2629 43.7992 59.9995 43.1633 59.9995 42.5002C59.9995 41.8372 60.2629 41.2013 60.7317 40.7325C61.2006 40.2636 61.8364 40.0002 62.4995 40.0002H67.4995V35.0002C67.4995 34.3372 67.7629 33.7013 68.2317 33.2325C68.7006 32.7636 69.3364 32.5002 69.9995 32.5002C70.6625 32.5002 71.2984 32.7636 71.7673 33.2325C72.2361 33.7013 72.4995 34.3372 72.4995 35.0002V40.0002H77.4995C77.8278 40.0002 78.1529 40.0649 78.4562 40.1905C78.7595 40.3162 79.0351 40.5003 79.2673 40.7325C79.4994 40.9646 79.6836 41.2402 79.8092 41.5435C79.9348 41.8468 79.9995 42.1719 79.9995 42.5002ZM45.0441 49.2372C48.9498 46.7864 51.9524 43.1317 53.5988 38.8247C55.2451 34.5177 55.4459 29.792 54.1708 25.3608C52.8957 20.9297 50.2139 17.0335 46.5301 14.2603C42.8463 11.4871 38.3604 9.9873 33.7495 9.9873C29.1385 9.9873 24.6527 11.4871 20.9689 14.2603C17.2851 17.0335 14.6033 20.9297 13.3282 25.3608C12.0531 29.792 12.2538 34.5177 13.9002 38.8247C15.5466 43.1317 18.5492 46.7864 22.4549 49.2372C15.6542 51.3839 9.60753 55.427 5.02527 60.8915C4.71909 61.256 4.52332 61.7003 4.46098 62.1722C4.39865 62.6441 4.47234 63.124 4.67339 63.5555C4.87443 63.987 5.19449 64.3521 5.59592 64.6079C5.99735 64.8637 6.46347 64.9996 6.93949 64.9996L60.5596 64.9998C61.0356 64.9998 61.5018 64.8639 61.9032 64.6081C62.3046 64.3522 62.6247 63.9871 62.8257 63.5557C63.0268 63.1242 63.1005 62.6443 63.0381 62.1724C62.9758 61.7005 62.78 61.2561 62.4739 60.8917C57.8915 55.4271 51.8448 51.3839 45.0441 49.2372Z" fill="#112222"/>
</svg>
