<svg width="80" height="80" viewBox="0 0 80 80" fill="none" xmlns="http://www.w3.org/2000/svg">
<path d="M72.5 17.5H7.5C6.17438 17.5015 4.90349 18.0288 3.96614 18.9661C3.02879 19.9035 2.50152 21.1744 2.5 22.5V57.5C2.50152 58.8256 3.02879 60.0965 3.96614 61.0339C4.90349 61.9712 6.17438 62.4985 7.5 62.5H72.5C73.8256 62.4985 75.0965 61.9712 76.0339 61.0339C76.9712 60.0965 77.4985 58.8256 77.5 57.5V22.5C77.4985 21.1744 76.9712 19.9035 76.0339 18.9661C75.0965 18.0288 73.8256 17.5015 72.5 17.5ZM23.4248 57.5L7.5 43.8502V36.1498L23.4248 22.5H56.5752L72.5012 36.1508L72.5018 43.8486L56.5752 57.5H23.4248ZM52.5 40C52.5 42.4723 51.7669 44.889 50.3934 46.9446C49.0199 49.0002 47.0676 50.6024 44.7835 51.5485C42.4995 52.4946 39.9861 52.7421 37.5614 52.2598C35.1366 51.7775 32.9093 50.587 31.1612 48.8388C29.413 47.0907 28.2225 44.8634 27.7402 42.4386C27.2579 40.0139 27.5054 37.5005 28.4515 35.2165C29.3976 32.9324 30.9998 30.9801 33.0554 29.6066C35.111 28.2331 37.5277 27.5 40 27.5C43.314 27.5038 46.4913 28.822 48.8346 31.1654C51.178 33.5087 52.4962 36.686 52.5 40Z" fill="#112222"/>
</svg>
