<svg width="32" height="32" viewBox="0 0 32 32" fill="none" xmlns="http://www.w3.org/2000/svg">
<path d="M32.0004 17C32.0004 17.1313 31.9745 17.2613 31.9243 17.3827C31.874 17.504 31.8004 17.6142 31.7075 17.7071C31.6146 17.8 31.5044 17.8736 31.3831 17.9239C31.2617 17.9741 31.1317 18 31.0004 18H29.0004V20C29.0004 20.2652 28.895 20.5196 28.7075 20.7071C28.52 20.8946 28.2656 21 28.0004 21C27.7352 21 27.4808 20.8946 27.2933 20.7071C27.1057 20.5196 27.0004 20.2652 27.0004 20V18H25.0004C24.7352 18 24.4808 17.8946 24.2933 17.7071C24.1057 17.5196 24.0004 17.2652 24.0004 17C24.0004 16.7348 24.1057 16.4804 24.2933 16.2929C24.4808 16.1053 24.7352 16 25.0004 16H27.0004V14C27.0004 13.7348 27.1057 13.4804 27.2933 13.2929C27.4808 13.1053 27.7352 13 28.0004 13C28.2656 13 28.52 13.1053 28.7075 13.2929C28.895 13.4804 29.0004 13.7348 29.0004 14V16H31.0004C31.1317 16 31.2617 16.0258 31.3831 16.0761C31.5044 16.1264 31.6146 16.2 31.7075 16.2929C31.8004 16.3857 31.874 16.496 31.9243 16.6173C31.9745 16.7386 32.0004 16.8687 32.0004 17ZM18.0182 19.6948C19.5805 18.7144 20.7815 17.2526 21.4401 15.5298C22.0986 13.807 22.1789 11.9167 21.6689 10.1442C21.1589 8.37177 20.0861 6.8133 18.6126 5.70401C17.1391 4.59472 15.3448 3.99481 13.5004 3.99481C11.656 3.99481 9.86165 4.59472 8.38814 5.70401C6.91463 6.8133 5.8419 8.37177 5.33186 10.1442C4.82181 11.9167 4.90212 13.807 5.56066 15.5298C6.21921 17.2526 7.42025 18.7144 8.98254 19.6948C6.26228 20.5534 3.8436 22.1707 2.01069 24.3565C1.88822 24.5023 1.80991 24.68 1.78498 24.8688C1.76005 25.0575 1.78952 25.2495 1.86994 25.4221C1.95036 25.5947 2.07838 25.7407 2.23895 25.8431C2.39953 25.9454 2.58597 25.9997 2.77638 25.9997L24.2244 25.9998C24.4148 25.9998 24.6013 25.9454 24.7619 25.8431C24.9224 25.7408 25.0505 25.5947 25.1309 25.4222C25.2113 25.2496 25.2408 25.0576 25.2158 24.8688C25.1909 24.6801 25.1126 24.5023 24.9901 24.3566C23.1572 22.1707 20.7385 20.5535 18.0182 19.6948Z" fill="#FB9650"/>
</svg>
