<svg width="280" height="280" viewBox="0 0 280 280" fill="none" xmlns="http://www.w3.org/2000/svg">
<path d="M161.496 48.7546H222.725V94.7291H161.496V48.7546Z" fill="#79B1F2"/>
<path d="M145.336 94.729H236.979V100.813H145.336V94.729Z" fill="#4F8AE0"/>
<path d="M145.336 46.9839H236.979V53.0679H145.336V46.9839Z" fill="#4F8AE0"/>
<path d="M150.199 88.645H232.117V94.7291H150.199V88.645Z" fill="#2E60B8"/>
<path d="M154.127 85.7307H168.868V88.6423H154.127V85.7307Z" fill="#2E60B8"/>
<path d="M154.127 53.0679H168.868V55.9794H154.127V53.0679Z" fill="#2E60B8"/>
<path d="M156.732 55.9795H166.261V85.7307H156.732V55.9795Z" fill="#4F8AE0"/>
<path d="M160.688 65.3291C160.688 64.8823 161.05 64.52 161.497 64.52C161.943 64.52 162.306 64.8823 162.306 65.3291V78.5408C162.306 78.9876 161.943 79.3499 161.497 79.3499C161.05 79.3499 160.688 78.9876 160.688 78.5408V65.3291Z" fill="#2E60B8"/>
<path d="M173.899 85.7307H188.64V88.6423H173.899V85.7307Z" fill="#2E60B8"/>
<path d="M173.899 53.0679H188.64V55.9794H173.899V53.0679Z" fill="#2E60B8"/>
<path d="M176.506 55.9795H186.034V85.7307H176.506V55.9795Z" fill="#4F8AE0"/>
<path d="M180.461 65.3291C180.461 64.8823 180.823 64.52 181.27 64.52C181.717 64.52 182.079 64.8823 182.079 65.3291V78.5408C182.079 78.9876 181.717 79.3499 181.27 79.3499C180.823 79.3499 180.461 78.9876 180.461 78.5408V65.3291Z" fill="#2E60B8"/>
<path d="M193.676 85.7307H208.417V88.6423H193.676V85.7307Z" fill="#2E60B8"/>
<path d="M193.676 53.0679H208.417V55.9794H193.676V53.0679Z" fill="#2E60B8"/>
<path d="M196.282 55.9795H205.811V85.7307H196.282V55.9795Z" fill="#4F8AE0"/>
<path d="M200.237 65.3291C200.237 64.8823 200.6 64.52 201.046 64.52C201.493 64.52 201.855 64.8823 201.855 65.3291V78.5408C201.855 78.9876 201.493 79.3499 201.046 79.3499C200.6 79.3499 200.237 78.9876 200.237 78.5408V65.3291Z" fill="#2E60B8"/>
<path d="M213.449 85.7307H228.19V88.6423H213.449V85.7307Z" fill="#2E60B8"/>
<path d="M213.449 53.0679H228.19V55.9794H213.449V53.0679Z" fill="#2E60B8"/>
<path d="M216.055 55.9795H225.583V85.7307H216.055V55.9795Z" fill="#4F8AE0"/>
<path d="M220.01 65.3291C220.01 64.8823 220.372 64.52 220.819 64.52C221.266 64.52 221.628 64.8823 221.628 65.3291V78.5408C221.628 78.9876 221.266 79.3499 220.819 79.3499C220.372 79.3499 220.01 78.9876 220.01 78.5408V65.3291Z" fill="#2E60B8"/>
<path d="M189.551 20.4662L147.623 46.9839H234.692L192.765 20.4662C191.784 19.8446 190.532 19.8446 189.551 20.4662Z" fill="#4F8AE0"/>
<path d="M190.353 33.7389L169.39 46.9978H212.924L191.961 33.7389C191.47 33.4282 190.844 33.4282 190.353 33.7389Z" fill="#2E60B8"/>
<path d="M51.8332 257.699C53.146 252.342 56.3102 239.436 56.4684 238.803L72.9969 242.803C70.8652 250.002 70.9457 252.195 75.7447 255.126C78.9282 257.069 79.6638 257.502 79.3113 258.868C79.1363 259.537 78.5297 260.003 77.8374 260H62.9632C60.5867 259.999 58.467 258.505 57.6674 256.267L56.3962 258.423C55.8209 259.401 54.7713 260 53.6373 260C53.0665 260 52.5272 259.738 52.1749 259.289C51.8227 258.84 51.6967 258.253 51.8332 257.699Z" fill="#2E60B8"/>
<path d="M53.8652 249.4L54.5647 246.55C54.5813 246.488 54.5952 246.43 54.6091 246.372C54.7035 245.986 54.7978 245.606 54.8866 245.237L54.9005 245.173C55.0782 244.446 55.2502 243.749 55.4084 243.1C55.4529 242.925 55.4945 242.753 55.5361 242.586C55.6916 241.948 55.8331 241.368 55.958 240.862L55.9885 240.74C56.1495 240.088 56.2661 239.572 56.3577 239.233C56.3882 239.117 56.4104 239.019 56.4299 238.956V238.928L56.4604 238.811L72.9889 242.811C72.1368 245.689 71.6399 247.765 71.6538 249.408L53.8652 249.4Z" fill="#1F4E93"/>
<path d="M69.261 251.898C70.0854 251.245 71.1197 250.916 72.1698 250.971C72.3474 250.971 72.3474 250.694 72.1698 250.694C71.0465 250.641 69.9424 250.999 69.0639 251.701C68.9252 251.812 69.1222 252.006 69.261 251.898Z" fill="#71D2C1"/>
<path d="M70.4817 253.863C71.2228 253.28 71.9972 252.722 72.9797 252.722C73.0564 252.722 73.1185 252.66 73.1185 252.584C73.1185 252.507 73.0564 252.445 72.9797 252.445C71.9222 252.445 71.0868 253.036 70.2846 253.666C70.1459 253.777 70.3429 253.971 70.4817 253.863Z" fill="#71D2C1"/>
<path d="M72.4476 255.559C72.925 254.932 73.4857 254.063 74.3378 253.983C74.5154 253.966 74.5182 253.688 74.3378 253.705C73.3553 253.797 72.7585 254.693 72.2089 255.418C72.1007 255.562 72.3422 255.695 72.4476 255.559Z" fill="#71D2C1"/>
<path d="M97.8635 257.699C99.1763 252.342 101.147 239.436 101.305 238.803L117.309 241.282C115.177 248.481 116.976 252.195 121.775 255.126C124.959 257.069 125.694 257.502 125.344 258.868C125.168 259.538 124.561 260.004 123.868 260H108.993C106.617 259.999 104.497 258.505 103.698 256.267L102.426 258.423C101.852 259.4 100.804 260 99.6704 260C99.099 260.001 98.5589 259.739 98.2061 259.29C97.8532 258.841 97.7268 258.254 97.8635 257.699Z" fill="#2E60B8"/>
<path d="M101.297 238.831C101.177 239.386 100.397 244.382 99.5146 249.378L116.709 249.02C116.268 247.263 116.329 245.176 116.948 242.614L101.297 238.831Z" fill="#1F4E93"/>
<path d="M115.282 251.898C116.107 251.246 117.141 250.916 118.191 250.971C118.369 250.971 118.369 250.694 118.191 250.694C117.069 250.641 115.965 250.999 115.088 251.701C114.946 251.812 115.143 252.006 115.282 251.898Z" fill="#71D2C1"/>
<path d="M116.512 253.863C117.253 253.28 118.027 252.722 119.01 252.722C119.086 252.722 119.148 252.66 119.148 252.584C119.148 252.507 119.086 252.445 119.01 252.445C117.949 252.445 117.114 253.036 116.315 253.666C116.173 253.777 116.37 253.971 116.509 253.863H116.512Z" fill="#71D2C1"/>
<path d="M118.48 255.559C118.954 254.932 119.515 254.063 120.37 253.983C120.545 253.966 120.547 253.688 120.37 253.705C119.385 253.797 118.791 254.693 118.238 255.418C118.13 255.562 118.371 255.695 118.48 255.559Z" fill="#71D2C1"/>
<path fill-rule="evenodd" clip-rule="evenodd" d="M95.8146 44.7261C95.8146 44.7272 95.8147 44.7284 101.474 44.497C107.134 44.2656 107.134 44.2671 107.134 44.2688L107.135 44.2846L107.136 44.3198C107.137 44.3486 107.139 44.3879 107.14 44.4376C107.144 44.5369 107.148 44.6775 107.152 44.8569C107.161 45.2156 107.17 45.7302 107.175 46.3812C107.183 47.6825 107.169 49.534 107.082 51.7809C106.911 56.2594 106.449 62.3836 105.276 68.8881C104.109 75.3571 102.199 82.4355 99.016 88.6984C95.8356 94.9565 91.1743 100.801 84.3251 104.095L79.416 93.8846C83.2721 92.0306 86.414 88.4902 88.9166 83.5658C91.4167 78.6463 93.0689 72.7449 94.127 66.8776C95.1786 61.0457 95.6034 55.477 95.7619 51.3466C95.8408 49.2891 95.853 47.6072 95.8459 46.4512C95.8423 45.8736 95.8339 45.4285 95.8267 45.1348C95.8231 44.988 95.8198 44.8792 95.8176 44.8106C95.8164 44.7763 95.8156 44.7521 95.8151 44.7383L95.8146 44.7261Z" fill="#71D2C1"/>
<path d="M73.094 67.8088C73.094 67.8088 67.7177 69.2494 65.1836 76.4297C62.6496 83.6101 58.675 81.5007 56.3823 83.7295C54.0897 85.9582 56.6238 88.0704 54.6365 89.5776C52.6492 91.0847 43.1818 91.0847 43.0014 97.0522C42.8209 103.02 60.6345 114.538 72.661 108.965C78.165 106.409 81.132 101.343 81.7343 95.4423C82.0119 92.8444 81.948 90.2298 82.1201 87.6264C82.2922 85.0229 83.025 82.4888 83.1776 79.8798C83.3358 77.1236 83.2331 73.7125 81.2542 71.5531" fill="#3A3144"/>
<path fill-rule="evenodd" clip-rule="evenodd" d="M86.7333 81.6843C86.7331 81.6846 86.7329 81.685 93.6 86.6884C100.467 91.6919 100.467 91.6923 100.467 91.6927L100.435 91.7353C100.417 91.76 100.392 91.7948 100.36 91.839C100.295 91.9272 100.202 92.0532 100.085 92.2116C99.85 92.5282 99.516 92.9759 99.1094 93.513C98.3007 94.5811 97.1837 96.0299 95.978 97.5131C94.7964 98.9666 93.4209 100.588 92.1118 101.937C91.4667 102.602 90.7007 103.344 89.8842 103.999L89.8763 104.006C89.3523 104.426 87.6988 105.754 85.4091 106.286L81.5626 89.7338C80.5115 89.9781 79.8229 90.3771 79.6225 90.4964C79.4807 90.5808 79.3814 90.649 79.3285 90.6867C79.3002 90.7067 79.2796 90.7222 79.2667 90.732C79.2537 90.7418 79.2468 90.7474 79.2461 90.7479C79.2456 90.7483 79.2629 90.7344 79.2989 90.7028C79.3345 90.6717 79.3827 90.6282 79.4439 90.5709C79.5682 90.4544 79.7253 90.3002 79.9152 90.1044C80.713 89.2821 81.7258 88.1055 82.792 86.7939C83.8342 85.5119 84.8247 84.2282 85.5615 83.2551C85.9277 82.7715 86.226 82.3715 86.4305 82.0954C86.5327 81.9575 86.6112 81.8509 86.6627 81.7807C86.6885 81.7456 86.7075 81.7197 86.7193 81.7035L86.7333 81.6843Z" fill="#B2EEE6"/>
<path fill-rule="evenodd" clip-rule="evenodd" d="M64.7487 132.655C64.7503 132.657 64.7521 132.659 72.7029 124.589C80.6538 116.519 80.6557 116.52 80.6578 116.523L80.6737 116.538L80.7037 116.568C80.7271 116.591 80.7572 116.621 80.7938 116.658C80.8669 116.731 80.9661 116.831 81.0898 116.956C81.3371 117.207 81.6826 117.562 82.1141 118.016C82.9767 118.921 84.1857 120.222 85.6428 121.874C88.5511 125.17 92.4806 129.899 96.6288 135.701C104.802 147.133 114.393 163.513 118.088 181.788C121.534 198.833 122.179 214.551 121.976 225.977C121.875 231.707 121.559 236.404 121.263 239.707C121.115 241.359 120.972 242.666 120.863 243.582C120.808 244.04 120.761 244.401 120.727 244.659C120.71 244.788 120.696 244.891 120.685 244.968L120.678 245.02L120.671 245.063L120.667 245.096L120.664 245.114C120.664 245.116 120.663 245.118 109.454 243.477C98.2448 241.836 98.2445 241.838 98.2443 241.84L98.246 241.827C98.2485 241.809 98.2522 241.782 98.2572 241.746C98.2604 241.722 98.264 241.695 98.2682 241.664C98.2894 241.505 98.3228 241.246 98.3651 240.893C98.4496 240.186 98.5691 239.103 98.6958 237.686C98.9496 234.852 99.2314 230.698 99.3223 225.575C99.5047 215.292 98.9145 201.288 95.8797 186.278C93.0937 172.498 85.5447 159.156 78.1973 148.879C74.5854 143.827 71.1598 139.705 68.653 136.864C67.4027 135.447 66.3892 134.358 65.7061 133.641C65.3648 133.282 65.1067 133.018 64.9436 132.852C64.8621 132.769 64.8044 132.711 64.7719 132.679C64.7624 132.669 64.7551 132.662 64.75 132.657C64.7464 132.653 64.7438 132.651 64.7424 132.649L64.7487 132.655ZM64.7424 132.649C64.7408 132.648 64.7408 132.648 64.7424 132.649V132.649Z" fill="#158C8C"/>
<path d="M87.7267 121.044C87.7267 129.785 80.6411 136.871 71.9005 136.871C63.1599 136.871 56.0742 129.785 56.0742 121.044C56.0742 112.304 63.1599 105.218 71.9005 105.218C80.6411 105.218 87.7267 112.304 87.7267 121.044Z" fill="#385A7D"/>
<path fill-rule="evenodd" clip-rule="evenodd" d="M57.4464 123.302C57.447 123.305 57.4477 123.308 68.548 121.044C79.6483 118.78 79.649 118.784 79.6498 118.788L79.6516 118.796L79.6557 118.817L79.6663 118.87C79.6744 118.911 79.6846 118.963 79.6968 119.025C79.721 119.151 79.7531 119.32 79.7919 119.533C79.8696 119.959 79.9743 120.558 80.0981 121.328C80.3458 122.869 80.6699 125.095 81.0063 127.988C81.6792 133.773 82.4016 142.223 82.6617 153.187C83.1819 175.118 81.8518 207.088 74.586 247.886L52.2793 243.914C59.2688 204.667 60.4963 174.21 60.0104 153.724C59.7674 143.479 59.0957 135.724 58.5004 130.606C58.2027 128.046 57.9241 126.146 57.7276 124.924C57.6294 124.313 57.5517 123.871 57.5024 123.601C57.4778 123.466 57.4602 123.374 57.4508 123.325C57.4461 123.3 57.4434 123.287 57.4428 123.284L57.4427 123.283C57.4427 123.283 57.443 123.285 57.4436 123.288L57.4464 123.302Z" fill="#1CA591"/>
<path d="M90.1942 135.444C89.6391 135.755 60.8148 148.558 60.1265 147.692C59.4382 146.826 57.1511 126.701 59.0607 124.7" fill="#158C8C"/>
<path d="M84.2408 74.4454C84.7209 75.7915 84.0132 78.1286 82.2979 78.3922L81.2376 74.5786C81.1655 74.3205 82.3201 73.6182 82.5283 73.5627C82.8718 73.4327 83.2545 73.4545 83.581 73.6228C83.9076 73.7911 84.1474 74.0901 84.2408 74.4454Z" fill="#71D2C1"/>
<path fill-rule="evenodd" clip-rule="evenodd" d="M69.2363 89.4495L70.6297 80.082L79.5941 81.4154L78.2008 90.7829L69.2363 89.4495Z" fill="#71D2C1"/>
<path d="M79.0231 86.8826C79.0231 86.8826 75.0152 87.9207 73.225 83.7851C71.9482 80.8374 79.8863 81.6868 79.8863 81.6868" fill="#3A3144"/>
<path d="M74.3638 67.4805L74.7479 67.4212C76.4877 67.1521 78.2632 67.5859 79.6829 68.627C81.1026 69.6681 82.0499 71.231 82.3162 72.9713L82.9971 77.385C83.2669 79.1242 82.8342 80.8994 81.7942 82.3193C80.7543 83.7393 79.1925 84.6876 77.4529 84.9552C73.6215 85.5463 70.0364 82.9195 69.4453 79.0881L68.8228 75.053C68.5523 73.3138 68.9843 71.5385 70.0236 70.1181C71.063 68.6977 72.6244 67.7488 74.3638 67.4805Z" fill="#71D2C1"/>
<path d="M82.4055 73.546L82.3139 72.9632C82.0486 71.2228 81.1018 69.6594 79.6823 68.618C78.2629 67.5766 76.4875 67.1427 74.7477 67.412L74.3647 67.4703C72.625 67.737 71.0626 68.6842 70.0215 70.1032C68.9803 71.5223 68.5458 73.297 68.8136 75.0365L68.9329 75.8081L69.9932 76.3049L69.3409 76.5159C69.3409 76.5159 76.6268 70.9647 76.4825 67.8034L77.1042 72.5607C77.1214 72.716 77.2443 72.8384 77.3997 72.855C77.555 72.8717 77.7011 72.7782 77.7509 72.6301C78.1145 71.6031 78.4642 70.0738 77.9646 68.8303C78.4226 69.8018 80.1823 73.2685 82.4055 73.546Z" fill="#3A3144"/>
<path d="M93.4836 98.5927L93.0284 99.7473C91.9182 91.0654 90.2306 89.8552 82.1843 89.6249L64.4901 89.1169C60.8355 89.0111 57.2975 90.4096 54.7031 92.9857C52.1087 95.5618 50.685 99.0897 50.7649 102.745L51.2173 123.373C51.2439 124.715 52.3262 125.796 53.6681 125.821L89.3868 126.543C90.6374 126.57 91.7156 125.669 91.9098 124.433L91.8682 124.139C90.9985 118.076 91.0116 111.919 91.9071 105.859C92.4622 102.098 93.1422 99.4087 93.4836 98.5927Z" fill="#B2EEE6"/>
<path d="M100.736 89.0059C100.735 88.2601 101.087 87.5577 101.686 87.1131C102.285 86.6686 103.059 86.5347 103.773 86.7522C115.629 90.2374 128.385 88.8665 139.231 82.9413C150.545 76.7697 163.913 75.5696 176.146 79.6273C177.091 79.9537 177.724 80.8472 177.716 81.8477V121.447C177.708 122.187 177.351 122.879 176.753 123.316C176.156 123.753 175.388 123.883 174.68 123.667C162.823 120.178 150.065 121.549 139.219 127.475C127.904 133.644 114.537 134.844 102.304 130.789C101.359 130.462 100.727 129.569 100.733 128.569L100.736 89.0059Z" fill="#FFD8C5"/>
<path d="M149.666 105.218C149.666 110.982 144.994 115.654 139.23 115.654C133.466 115.654 128.794 110.982 128.794 105.218C128.794 99.4544 133.466 94.782 139.23 94.782C144.994 94.782 149.666 99.4544 149.666 105.218Z" fill="#F99192"/>
<path d="M111.811 96.6331C111.811 98.1093 110.614 99.306 109.138 99.306C107.662 99.306 106.465 98.1093 106.465 96.6331C106.465 95.1569 107.662 93.9602 109.138 93.9602C110.614 93.9602 111.811 95.1569 111.811 96.6331Z" fill="#FFECE5"/>
<path d="M171.996 113.803C171.996 115.279 170.799 116.476 169.323 116.476C167.847 116.476 166.65 115.279 166.65 113.803C166.65 112.327 167.847 111.13 169.323 111.13C170.799 111.13 171.996 112.327 171.996 113.803Z" fill="#FFECE5"/>
<path d="M77.8124 78.3171C77.8867 78.2066 78.011 78.1404 78.1441 78.1404C78.2772 78.1404 78.4015 78.2066 78.4758 78.3171C78.7117 78.5946 79.103 78.1922 78.8699 77.9229C78.6701 77.6942 78.3737 77.5737 78.071 77.5984C77.7682 77.623 77.4952 77.7898 77.335 78.0479C77.1352 78.3448 77.6126 78.6224 77.8124 78.3254V78.3171Z" fill="#3A3144"/>
<path d="M75.892 79.5551C76.4487 80.0239 77.1373 80.308 77.8626 80.3683C78.2179 80.4016 78.2151 79.8465 77.8626 79.8132C77.2824 79.7621 76.7316 79.5356 76.2833 79.1637C76.0057 78.9361 75.6144 79.3275 75.892 79.5551Z" fill="#3A3144"/>
<path d="M75.2039 77.1264C75.2039 77.3992 74.9827 77.6204 74.7099 77.6204C74.437 77.6204 74.2158 77.3992 74.2158 77.1264C74.2158 76.8535 74.437 76.6323 74.7099 76.6323C74.9827 76.6323 75.2039 76.8535 75.2039 77.1264Z" fill="#3A3144"/>
<path d="M81.1629 76.4298C81.1629 76.7027 80.9417 76.9239 80.6689 76.9239C80.396 76.9239 80.1748 76.7027 80.1748 76.4298C80.1748 76.157 80.396 75.9358 80.6689 75.9358C80.9417 75.9358 81.1629 76.157 81.1629 76.4298Z" fill="#3A3144"/>
<path d="M74.2322 75.0198C74.4877 74.9501 74.7503 74.9091 75.0149 74.8976C75.3702 74.8976 75.373 74.3425 75.0149 74.3425C74.7005 74.3535 74.3885 74.401 74.0851 74.4841C73.9894 74.5104 73.915 74.5857 73.8899 74.6817C73.8648 74.7777 73.8928 74.8798 73.9634 74.9495C74.034 75.0193 74.1365 75.046 74.2322 75.0198Z" fill="#3A3144"/>
<path d="M79.8305 74.5729C80.0806 74.529 80.3353 74.5178 80.5883 74.5396C80.7415 74.5396 80.8658 74.4154 80.8658 74.2621C80.8658 74.1088 80.7415 73.9845 80.5883 73.9845C80.2842 73.959 79.978 73.9739 79.6779 74.0289C79.6068 74.0484 79.5464 74.0953 79.51 74.1594C79.4735 74.2234 79.464 74.2993 79.4836 74.3703C79.5031 74.4414 79.55 74.5018 79.614 74.5383C79.678 74.5747 79.7539 74.5842 79.825 74.5646L79.8305 74.5729Z" fill="#3A3144"/>
<path fill-rule="evenodd" clip-rule="evenodd" d="M96.9193 123.694C96.918 123.694 96.9164 123.695 98.1708 129.218C99.4252 134.742 99.4233 134.742 99.4212 134.743L99.4161 134.744L99.4024 134.747L99.3617 134.756C99.3286 134.764 99.2838 134.773 99.2277 134.786C99.1155 134.81 98.9579 134.843 98.758 134.884C98.3583 134.966 97.7886 135.078 97.0742 135.205C95.6473 135.46 93.6319 135.781 91.2315 136.052C86.4779 136.59 80.0024 136.963 73.5273 136.158C67.1554 135.366 60.0406 133.344 54.76 128.458C49.1748 123.29 46.4824 115.717 47.6535 105.795L58.9042 107.123C58.077 114.131 59.9969 117.869 62.4542 120.143C65.2161 122.698 69.5741 124.25 74.9248 124.916C80.1723 125.568 85.6692 125.281 89.9573 124.795C92.0778 124.555 93.8506 124.273 95.0817 124.053C95.6963 123.943 96.173 123.85 96.4876 123.785C96.6447 123.753 96.7611 123.728 96.8337 123.713C96.87 123.705 96.8953 123.699 96.9092 123.696L96.9193 123.694Z" fill="#71D2C1"/>
<path d="M90.9463 124.722C91.2518 128.585 92.0369 132.396 93.2833 136.066C93.3971 136.401 93.9356 136.257 93.819 135.918C92.586 132.297 91.8075 128.536 91.5014 124.722C91.4737 124.367 90.9186 124.364 90.9463 124.722Z" fill="#3A3144"/>
<path fill-rule="evenodd" clip-rule="evenodd" d="M71.5691 95.1227C71.5738 95.1304 71.5784 95.1381 64.2987 99.5197C57.0191 103.901 57.0237 103.909 57.0283 103.917L57.0375 103.932L57.0559 103.962C57.0682 103.982 57.0805 104.002 57.0929 104.022C57.1176 104.061 57.1426 104.1 57.1678 104.139C57.218 104.216 57.2698 104.292 57.3233 104.368C57.4292 104.517 57.5478 104.671 57.6819 104.827C57.9376 105.124 58.3195 105.507 58.8617 105.868C60.1671 106.737 62.0349 107.19 63.8156 106.652C64.4515 106.459 64.7998 106.219 64.8809 106.157C64.8187 106.21 64.6005 106.412 64.2358 106.865C63.322 108.003 61.8912 110.228 60.0137 114.285L44.5918 107.148C46.786 102.406 48.8906 98.8328 50.9895 96.2209C53.0213 93.6924 55.5906 91.3863 58.8935 90.3868C62.6552 89.2484 65.9952 90.2025 68.2774 91.7215C69.308 92.4075 70.0545 93.1534 70.5527 93.7312C70.808 94.0275 71.0173 94.3018 71.1837 94.5364C71.2674 94.6544 71.3418 94.7645 71.4071 94.8648C71.4398 94.915 71.4704 94.963 71.4989 95.0086C71.5131 95.0313 71.5269 95.0535 71.5401 95.0751L71.5596 95.107L71.5691 95.1227ZM64.8994 106.142C64.8994 106.142 64.8933 106.148 64.8809 106.157C64.8932 106.147 64.8994 106.142 64.8994 106.142Z" fill="#B2EEE6"/>
<path d="M95.9206 135.444L91.9932 124.847C91.9932 124.847 104.522 121.849 105.593 128.483C106.665 135.116 95.9206 135.444 95.9206 135.444Z" fill="#71D2C1"/>
<path d="M101.619 120.689L93.9276 125.205C92.698 125.927 93.8138 127.847 95.0378 127.123L102.729 122.607C103.958 121.883 102.843 119.965 101.619 120.689Z" fill="#71D2C1"/>
<path d="M105.938 133.795C103.662 133.534 101.379 133.345 99.0906 133.226C98.0192 133.171 98.022 134.836 99.0906 134.892C101.381 135.008 103.664 135.198 105.938 135.461C106.998 135.583 106.99 133.917 105.938 133.795Z" fill="#71D2C1"/>
<path d="M108.774 130.817C106.86 131.039 104.925 130.986 103.026 130.659C101.977 130.476 101.527 132.08 102.582 132.266C104.625 132.633 106.71 132.706 108.774 132.482C109.826 132.366 109.837 130.698 108.774 130.817Z" fill="#71D2C1"/>
<path d="M103.995 129.429C105.991 129.503 107.99 129.436 109.976 129.229C111.031 129.118 111.042 127.45 109.976 127.564C107.99 127.771 105.991 127.837 103.995 127.764C102.921 127.725 102.924 129.39 103.995 129.429Z" fill="#71D2C1"/>
<path d="M109.221 123.897C106.146 124.919 102.768 124.675 99.5845 124.43C98.5159 124.347 98.5215 126.012 99.5845 126.096C102.915 126.351 106.448 126.57 109.665 125.502C110.678 125.166 110.243 123.559 109.221 123.897Z" fill="#71D2C1"/>
<path d="M106.922 44.2084L96.4392 50.5922C96.4392 50.5922 94.4047 37.8718 101.099 37.3111C107.794 36.7504 106.922 44.2084 106.922 44.2084Z" fill="#71D2C1"/>
<path d="M93.0785 40.7445L96.992 48.7548C97.6193 50.0399 99.5372 48.9158 98.9099 47.6446L94.9964 39.6343C94.3691 38.352 92.4512 39.4761 93.0785 40.7445Z" fill="#71D2C1"/>
<path d="M106.451 37.2055C106.001 39.5287 105.632 41.8629 105.341 44.2083C105.205 45.2685 106.873 45.2574 107.006 44.2083C107.289 42.01 107.644 39.8238 108.069 37.6496C108.272 36.6004 106.668 36.1536 106.462 37.2055H106.451Z" fill="#71D2C1"/>
<path d="M103.667 34.3716C103.739 36.296 103.534 38.2208 103.056 40.0865C102.779 41.1274 104.397 41.5687 104.663 40.5306C105.179 38.5201 105.405 36.446 105.332 34.3716C105.296 33.3031 103.631 33.2975 103.667 34.3716Z" fill="#71D2C1"/>
<path d="M101.927 38.9042C102.151 36.9198 102.235 34.922 102.179 32.9257C102.151 31.8543 100.486 31.8515 100.514 32.9257C100.57 34.922 100.486 36.9198 100.261 38.9042C100.139 39.9673 101.807 39.9589 101.927 38.9042Z" fill="#71D2C1"/>
<path d="M96.8194 33.3949C97.5799 36.448 97.097 39.7509 96.6279 42.8318C96.4642 43.881 98.0712 44.3334 98.2322 43.2759C98.7568 39.8953 99.2647 36.337 98.4265 32.9591C98.1656 31.9211 96.5613 32.3596 96.8194 33.4032V33.3949Z" fill="#71D2C1"/>
<path d="M81.1767 89.0115C79.8889 90.5187 78.1708 91.615 75.6256 91.615C72.7973 91.615 69.5666 90.3466 67.002 88.6035L81.1767 89.0115Z" fill="#71D2C1"/>
<path d="M67.1099 77.0875C67.0571 78.517 68.4366 80.532 70.1408 80.2683L70.002 76.3132C70.002 76.0356 68.6808 75.7247 68.4671 75.7331C67.5428 75.7747 67.1348 76.3548 67.1099 77.0875Z" fill="#71D2C1"/>
<path d="M116.001 153.679L126.385 143.307C126.685 143.008 127.135 142.918 127.527 143.08C127.919 143.242 128.174 143.624 128.175 144.048V164.795C128.174 165.219 127.919 165.601 127.527 165.763C127.135 165.925 126.685 165.836 126.385 165.536L116.012 155.164C115.602 154.756 115.597 154.093 116.001 153.679Z" fill="#2E60B8"/>
<path d="M117.8 154.337C119.676 152.339 121.716 150.174 123.351 148.431C123.579 148.191 123.905 148.071 124.234 148.106C128 148.456 131.797 147.983 135.361 146.718C136.194 146.441 136.982 146.11 137.754 145.761C138.078 145.61 138.456 145.635 138.758 145.827C139.059 146.02 139.241 146.352 139.241 146.71V158.162C139.241 158.625 138.938 159.034 138.495 159.169C130.532 161.584 122.568 160.11 117.869 155.839C117.657 155.651 117.53 155.386 117.517 155.103C117.504 154.82 117.606 154.543 117.8 154.337Z" fill="#2E60B8"/>
<path d="M151.349 145.827V133.073C151.348 132.705 151.57 132.373 151.911 132.232C152.251 132.091 152.643 132.169 152.903 132.429L165.671 145.183C165.931 145.445 166.008 145.837 165.866 146.177C165.725 146.518 165.393 146.74 165.024 146.74H152.259C152.017 146.74 151.785 146.644 151.614 146.473C151.443 146.301 151.348 146.069 151.349 145.827Z" fill="#4F8AE0"/>
<path d="M152.855 145.128C152.78 142.744 152.699 140.157 152.63 138.089C152.624 137.802 152.751 137.528 152.974 137.348C155.506 135.249 157.55 132.623 158.964 129.654C159.294 128.971 159.588 128.283 159.847 127.595C159.954 127.3 160.206 127.082 160.513 127.017C160.82 126.952 161.139 127.05 161.356 127.275L168.398 134.314C168.681 134.601 168.745 135.038 168.556 135.394C165.142 141.778 159.344 145.763 153.821 146.022C153.573 146.035 153.331 145.948 153.149 145.779C152.967 145.611 152.861 145.376 152.855 145.128Z" fill="#4F8AE0"/>
<path d="M63.9953 107.63C62.3736 109.556 61.0557 111.718 60.0874 114.042C59.9514 114.369 60.487 114.513 60.623 114.189C61.5566 111.954 62.8258 109.875 64.3867 108.024C64.6171 107.747 64.2257 107.358 63.9953 107.63Z" fill="#3A3144"/>
<path d="M89.2943 93.5189C90.6813 95.6934 91.3744 98.2383 91.2816 100.816C91.2816 101.171 91.8367 101.171 91.8367 100.816C91.93 98.1398 91.2111 95.4982 89.7744 93.2385C89.5829 92.9388 89.1028 93.2163 89.2943 93.5161V93.5189Z" fill="#3A3144"/>
<path d="M97.2601 42.8982C98.3398 43.3118 99.5527 43.8003 100.005 44.9605C100.133 45.2908 100.671 45.1492 100.541 44.8134C100.008 43.4422 98.7006 42.8705 97.4072 42.3625C97.0741 42.2349 96.9298 42.7705 97.2601 42.8982Z" fill="#3A3144"/>
<path d="M95.2152 130.459C95.2152 132.021 93.9489 133.287 92.3869 133.287C90.8249 133.287 89.5586 132.021 89.5586 130.459C89.5586 128.897 90.8249 127.631 92.3869 127.631C93.9489 127.631 95.2152 128.897 95.2152 130.459Z" fill="#4F8AE0"/>
<path d="M156.153 161.928C162.358 158.195 167.958 153.539 172.762 148.12C177.597 142.679 181.59 136.544 184.608 129.92C186.285 126.227 187.641 122.397 188.663 118.471C188.69 118.376 188.664 118.273 188.594 118.202C188.525 118.131 188.423 118.102 188.326 118.127C188.23 118.152 188.154 118.226 188.128 118.321C184.438 132.313 176.615 144.867 165.679 154.343C162.622 156.99 159.341 159.367 155.873 161.448C155.747 161.528 155.707 161.692 155.781 161.821C155.856 161.95 156.019 161.997 156.15 161.928H156.153Z" fill="#3A3144"/>
<path d="M185.638 146.427C191.097 138.012 195.008 128.688 197.184 118.896C197.262 118.549 196.726 118.399 196.648 118.749C194.483 128.494 190.592 137.774 185.16 146.149C184.963 146.449 185.438 146.729 185.638 146.427Z" fill="#3A3144"/>
<path d="M198.577 110.702L198.855 108.535C198.902 108.179 198.344 108.185 198.3 108.535L198.022 110.702C197.975 111.055 198.53 111.052 198.577 110.702Z" fill="#3A3144"/>
</svg>
