<svg width="165" height="40" viewBox="0 0 165 40" fill="none" xmlns="http://www.w3.org/2000/svg">
<rect width="40" height="40" rx="20" fill="#1771E4"/>
<path d="M26.7637 16.2312C26.6982 16.0904 26.5569 16 26.4014 16H21.6614L26.3393 8.61402C26.4173 8.49083 26.4221 8.33483 26.3518 8.20723C26.2814 8.07922 26.1469 8 26.0013 8H19.6013C19.4497 8 19.3113 8.08559 19.2434 8.2212L13.2434 20.2212C13.1813 20.3448 13.1881 20.492 13.2609 20.61C13.3341 20.728 13.4625 20.8 13.6013 20.8H17.7145L13.2325 31.4448C13.1561 31.6268 13.2241 31.838 13.3925 31.9412C13.4573 31.9808 13.5293 32 13.6009 32C13.7157 32 13.8289 31.9507 13.9073 31.858L26.7074 16.658C26.8077 16.5388 26.8293 16.3724 26.7637 16.2312Z" fill="white"/>
<path d="M49.517 29H53.2074V21.7898H60.3068V18.7472H53.2074V14.5881H61.0739V11.5455H49.517V29ZM67.1186 11.5455H63.4879V29H67.1186V11.5455ZM73.7599 29.2472C75.6946 29.2472 76.9474 28.4034 77.5866 27.1847H77.6889V29H81.1321V20.1705C81.1321 17.0511 78.4901 15.7386 75.5753 15.7386C72.4389 15.7386 70.3764 17.2386 69.8736 19.625L73.2315 19.8977C73.4787 19.0284 74.2543 18.3892 75.5582 18.3892C76.794 18.3892 77.5014 19.0114 77.5014 20.0852V20.1364C77.5014 20.9801 76.6065 21.0909 74.331 21.3125C71.7401 21.5511 69.4134 22.4205 69.4134 25.3438C69.4134 27.9347 71.2628 29.2472 73.7599 29.2472ZM74.7997 26.7415C73.6832 26.7415 72.8821 26.2216 72.8821 25.2244C72.8821 24.2017 73.7259 23.6989 75.0043 23.5199C75.7969 23.4091 77.0923 23.2216 77.527 22.9318V24.321C77.527 25.6932 76.3935 26.7415 74.7997 26.7415ZM94.8409 19.642C94.517 17.2301 92.5739 15.7386 89.267 15.7386C85.9176 15.7386 83.7102 17.2898 83.7188 19.8125C83.7102 21.7727 84.946 23.0426 87.5028 23.554L89.7699 24.0057C90.9119 24.2358 91.4318 24.6534 91.4489 25.3097C91.4318 26.0852 90.5881 26.6392 89.3182 26.6392C88.0227 26.6392 87.1619 26.0852 86.9403 25.0199L83.3693 25.2074C83.7102 27.7131 85.8409 29.2557 89.3097 29.2557C92.7017 29.2557 95.1307 27.5256 95.1392 24.9432C95.1307 23.0511 93.8949 21.9176 91.3551 21.3977L88.9858 20.9205C87.767 20.6562 87.3153 20.2386 87.3239 19.608C87.3153 18.8239 88.2017 18.3125 89.3267 18.3125C90.5881 18.3125 91.3381 19.0028 91.517 19.8466L94.8409 19.642ZM101.056 21.4318C101.065 19.7443 102.096 18.7557 103.579 18.7557C105.053 18.7557 105.923 19.7017 105.914 21.3125V29H109.545V20.6648C109.553 17.5966 107.746 15.7386 105.019 15.7386C103.033 15.7386 101.704 16.6761 101.107 18.2188H100.954V11.5455H97.4254V29H101.056V21.4318ZM118.025 29H121.715V21.7898H129.207V29H132.888V11.5455H129.207V18.7472H121.715V11.5455H118.025V29ZM135.863 29H139.494V15.9091H135.863V29ZM137.687 14.2216C138.769 14.2216 139.656 13.3949 139.656 12.3807C139.656 11.375 138.769 10.5483 137.687 10.5483C136.613 10.5483 135.727 11.375 135.727 12.3807C135.727 13.3949 136.613 14.2216 137.687 14.2216ZM142.402 29H146.033V21.5938C146.033 19.983 147.209 18.875 148.811 18.875C149.314 18.875 150.004 18.9602 150.345 19.071V15.8494C150.021 15.7727 149.57 15.7216 149.203 15.7216C147.737 15.7216 146.536 16.5739 146.058 18.1932H145.922V15.9091H142.402V29ZM157.579 29.2557C160.817 29.2557 162.999 27.679 163.511 25.25L160.153 25.0284C159.786 26.0256 158.849 26.5455 157.638 26.5455C155.823 26.5455 154.673 25.3438 154.673 23.392V23.3835H163.587V22.3864C163.587 17.9375 160.894 15.7386 157.434 15.7386C153.582 15.7386 151.085 18.4744 151.085 22.5142C151.085 26.6648 153.548 29.2557 157.579 29.2557ZM154.673 21.1335C154.749 19.642 155.883 18.4489 157.494 18.4489C159.07 18.4489 160.161 19.5739 160.17 21.1335H154.673Z" fill="white"/>
</svg>
